<?xml version="1.0" encoding="utf-8"?>
<!-- Generator: Adobe Illustrator 22.0.1, SVG Export Plug-In . SVG Version: 6.00 Build 0)  -->
<svg version="1.1" xmlns="http://www.w3.org/2000/svg" xmlns:xlink="http://www.w3.org/1999/xlink" x="0px" y="0px"
	 viewBox="0 0 60 49.2" style="enable-background:new 0 0 60 49.2;" xml:space="preserve">
<style type="text/css">
	.st0{opacity:0.3;}
	.st1{fill:#F8B42A;}
</style>
<g id="Layer_1">
</g>
<g id="Layer_2">
	<g class="st0">
		<path class="st1" d="M33.4,41.9c0,0-2.8,0.9-8.2-3.8s-7.5-7.5-10.6-9c-3.2-1.5-7.6-0.3-8.3-1.7s-2.2-5.5,2.3-4.9
			c4.5,0.6,4.1,4,9.2,6.5s8.6,3.4,8,0.5c-0.5-3-3.7-11.6-3.7-11.6s-1.4-3-2.7-3.8c-1.3-0.8-3.6-4.7-0.6-5.6s3.2,2.5,4.2,5.7
			c1.1,3.2,5.1,11.6,6.1,12.7c1,1.1,2.5,2.5,3.8-0.5c1.3-3,2-10.2,1.7-11.5c-0.3-1.4-2.4-2.9-0.7-5c1.7-2.2,4.4-1.9,4.1,1.7
			c0,2.1-1.2,0.9-1.3,3.2s-1.3,10.6-1.1,11.7c0.2,1.1,0.8,1.9,4.1,0.1c3.3-1.8,4.3-3.8,5.1-4.9c0.8-1.1,0.1-3.9,2.3-4.6
			c2.2-0.7,4.4,1.4,3.8,3.5c-0.6,2.2-4.1,1.9-5.6,3.7s-2.8,4.9-3.2,7.1C41.8,33.7,40.3,40.8,33.4,41.9z"/>
	</g>
</g>
</svg>
