<?xml version="1.0" encoding="utf-8"?>
<!-- Generator: Adobe Illustrator 22.0.1, SVG Export Plug-In . SVG Version: 6.00 Build 0)  -->
<svg version="1.1" id="Layer_1" xmlns="http://www.w3.org/2000/svg" xmlns:xlink="http://www.w3.org/1999/xlink" x="0px" y="0px"
	 viewBox="0 0 60 49.2" style="enable-background:new 0 0 60 49.2;" xml:space="preserve">
<style type="text/css">
	.st0{opacity:0.3;}
	.st1{fill:#F7B329;}
</style>
<g id="Layer_1_1_">
</g>
<g class="st0">
	<g>
		<path class="st1" d="M25.4,24.4c0,0-4.6,3.5-6.2,11.1c-1.6,7.5,5.9,7.7,9.5,6.7s7.4,0.5,10.6,0.4s5.8-3.2,3-9.1
			c-2.8-5.9-7.1-11.7-11-11C27.3,23.1,27.5,22.3,25.4,24.4z"/>
	</g>
	<g>
		<path class="st1" d="M21.4,24.6c0,0,2.9-2.7,0-6.2s-7.9-2.2-7.4,0.7s0.8,4.2,3,5.4S21.4,24.6,21.4,24.6z"/>
	</g>
	<g>
		<path class="st1" d="M27.4,17.1c0,0,2.6-1.6,1.8-5S25,7,23.4,7.4s-2.8,3.4-1.9,6.6S24.9,17.7,27.4,17.1z"/>
	</g>
	<g>
		<path class="st1" d="M34.3,17.3c0,0,3.7,0.8,5-2.8s0.1-6.6-1.3-7.2S32.5,9,32,13.8C32.5,17.4,34.3,17.3,34.3,17.3z"/>
	</g>
	<g>
		<path class="st1" d="M41.7,16.3c0,0-4.6,3.7-3.2,6.2c1.4,2.5,4.2,3.6,6.8,1c0.8-1.5,2.9-3.3,1.1-6.1S41.7,16.3,41.7,16.3z"/>
	</g>
</g>
</svg>
