<?xml version="1.0" encoding="utf-8"?>
<!-- Generator: Adobe Illustrator 22.0.1, SVG Export Plug-In . SVG Version: 6.00 Build 0)  -->
<svg version="1.1" id="Layer_1" xmlns="http://www.w3.org/2000/svg" xmlns:xlink="http://www.w3.org/1999/xlink" x="0px" y="0px"
	 viewBox="0 0 136.8 119" style="enable-background:new 0 0 136.8 119;" xml:space="preserve">
<style type="text/css">
	.st0{fill:#95322E;}
	.st1{fill:#713A21;}
	.st2{fill:#B7866D;}
	.st3{fill:#ECBA7F;}
	.st4{fill:#EFE8D8;}
	.st5{fill:#FFD496;}
	.st6{fill:#DCD5C3;}
	.st7{fill:#996837;}
	.st8{fill:none;stroke:#95322E;stroke-linecap:round;stroke-linejoin:round;stroke-miterlimit:10;}
	.st9{fill:none;stroke:#43351D;stroke-miterlimit:10;}
	.st10{fill:#43351D;}
	.st11{fill:#FFFFFF;}
</style>
<path class="st0" d="M74.3,117.3c0,0-2.2,0.8-3.3-0.9c-1.1-1.7-1.1-4.9-1.1-4.9l1.9-0.8h1.6l1.6,2.7L74.3,117.3"/>
<path class="st0" d="M68.3,117.9c0,0-1.1,0-1.5-0.4c-0.4-0.5-1.2,0-1.2,0l-1.7-1.3v-3.8l1.9-1.2l2.5,1.4l0.4,1.9L68.3,117.9"/>
<path class="st0" d="M58.8,118.1c0,0,1.9,0.2,2.7-1.2c0.8-1.4,0.8-2.7,0.8-2.9s-0.5-1.6-0.5-1.6l-0.6-0.4l-1.4,1.1l-0.7,1.9
	l-0.4,1.2V118.1"/>
<path class="st1" d="M47.8,115.2c0,0-3.3,0.1-4.7-0.2c-1.5-0.3-2.4-0.3-2.9,0.3c-0.4,0.6-3.2,3-4.6,2.7c-1.4-0.3-2.2-0.3-2-1.3
	c0.3-1,1.6-2,1.3-2.2c-0.3-0.2-1.1,0.1-2.1,1.3c-1,1.2-1.6,2.2-3.1,2.2s-3.2,0-3.4-0.6c0-0.3-0.4,0.6-1.3,0.5s-4.4-0.3-4.2-0.8
	c0.2-0.6,5.8-6.1,5.9-6.1c0.2,0,6.3-1.6,6.3-1.6l3.7-5.8l1-3.1l7.6,2.4l2,1.5l1.3,4.2L47.8,115.2"/>
<path class="st2" d="M113.2,105.9c0,0,0.2,2.6-1,3.8c-1.2,1.2-6,1.4-7.4,1.4c-1.4,0-3.6-0.7-3.4-0.9c0.2-0.3,0.6-3.8,0.6-3.8
	l4.4-2.8C106.3,103.6,111.9,104,113.2,105.9z"/>
<path class="st2" d="M76.6,115.4c0,0-1.4,2-2.2,2s-1.4-1.2-0.9-1.9s0.8-1,0.2-1.6s-1.4-2.4-1.4-2.4S71,112,71,113.5s0.3,2.1,0,2.9
	c-0.3,0.8-2.4,2.1-2.7,1.5c-0.3-0.5-1.3-3.8-2.2-4.8c0,0-0.9,1.3-0.9,2.7c0,1.3,0.8,1.5-0.5,1.9c-1.4,0.4-3,1.3-3.2-1.4
	c-0.2-2.7-0.5-3.6-0.5-3.6s-1.5,1.9-1.9,3.2c-0.3,1.3-0.3,2.2-0.3,2.2s-1.3-0.7-1.5-2.7s2.3-6.3,2.3-6.3l6.8-2.4l7.5-0.8l3.7,2.4
	l1.2,4.4L76.6,115.4z"/>
<path class="st3" d="M16.7,90.2c5.2,12,8.6,19.8,8.6,19.8l5.2-0.9c0,0,2.6-8,5.8-6.5c0.4,0.2,1,0.4,1.5,0.7c3.4,1.6,8.3,3.9,8.7,6.7
	c0.5,3.2-0.2,4.8,1.1,5.2c1.2,0.5,9.2-0.1,9.2-0.1s4.1-5,7.2-5.8c3.1-0.8,10-0.6,12.4,2.9c0.2,1.9-0.3,2.9,0.2,3.1
	c0.3,0.2,9-0.8,15.5-1.5c3.8-0.5,6.9-0.9,7.2-1c0.6-0.3,3.4-5.6,6.5-6.6c1.7-0.6,3-0.6,4.3-0.5c1.1,0,2.2,0.1,3.7-0.1
	c0,0,15.4-7.7,15.4-34s-13.7-32.7-15.4-34.1c-1.7-1.4-10.7-14.4-20.1-20.4c-2.5-2.6-8.8-6.5-15.9-8.9C72.9,6.5,67.6,5.5,63,6
	c-1.9,0.2-3.8,0.5-5.7,0.9c-9.7,1.9-19.3,6-23.9,10.5c-0.9,1.4-0.8,2.9-0.8,2.9s-6.5-5.8-12.7,0.4c0.3-0.1,9.5-3.7,13,2.6
	c-0.6,2.5-6-0.9-7.4,0.5c-1.4,1.4-7.2,5-8.9,6.4s-2.8,3.4-1.9,3.6c0.9,0.2,8.2-2.4,10.9-1.1s5.8,3,5.4,3.4c-0.5,0.5-5.6,2-6.9,3.6
	s-7.6,9.9-8.8,15S11.4,78.1,16.7,90.2z"/>
<path class="st4" d="M64.8,91.9c0,0-14.9-5.1-18.6-4.3c-3.7,0.8-19.6,7.6-24.2-4.1s-7.9-20.6,6.2-33.6c5.3-6,7.1-8.2,8.6-13.3
	s9.7-19.8,11.6-21.8s6.9-4.2,8.3,4.2c1.4,8.3-1.9,19.9-0.8,23.9c1.1,4,4.8,11.3,11.4,12.4c6.6,1.1,21-3.7,24.7,2.2
	c3.7,5.9,3.7,20.1-4,26.8S68.2,93,64.8,91.9z"/>
<path class="st2" d="M47.5,82.7c0,0-3.7,0.7-4.6,0c0,0-2.2,1.6-3.6,0.2c-1.4-1.5-1.9-3.2-2.1-5.5c-0.2-2.3,0-1.9,0-1.9
	s-3.3-1.7-3.6-5s3.3-3,4.8-3.1c1.5-0.1,6.1-1.8,7.3-1.2c1.2,0.5,1.9,2.1,1.9,2.8c0,0.7,0.2,4.5-1.2,5.9c-0.8,1-0.5,3.7,0.1,5
	C46.9,81,48.3,81.7,47.5,82.7z"/>
<path class="st2" d="M50.3,84.8c0,0-3.5-2.3-8.1,0c0.8,0.5,0.8,0.5,0.8,0.5S48.6,84.1,50.3,84.8z"/>
<path class="st0" d="M42.2,73.1c0,0,1-1.2,2.1-1.5c1.1-0.3,2-1.2,2-1.2s-2.2,2.7-3.7,2.8"/>
<path class="st0" d="M36.9,73.1c0,0-0.8-1-1.6-1.4C35.3,71.7,35.2,72.5,36.9,73.1z"/>
<path class="st0" d="M82.6,15.6c0,0,7.4-3,10,1.2s1.6,5.4,2.8,6.2c1.1,0.7,5.6,2.2,6.3,3.4c0.4,0.6,0.8,1.6,0.9,3.4
	c0.1,1.6-0.1,3.7-0.2,4.4c-0.3,1.6-6.1,5.7-6.1,5.7L89,42.4l-8.7-8.5v-5.3c0,0-1.6-6.1-1.5-6.5C78.8,21.6,82.6,15.6,82.6,15.6z"/>
<path class="st5" d="M55.8,40.5c0,0,1.3-9,2.7-9.3c1.4-0.2,4.3-0.2,5.4,0.7c1.1,0.9,3.1,0.2,3.1,0.2l6.9-1l1.1,6l0.5,3.4
	c0,0,2.3,4.8,3.1,5.5c0.9,0.6,2.7,2.5,4.3,3.3c1.6,0.8,2.8,0.5,2.3,1.8s-1.9,1.5-3.6,1.5c-1.7-0.1-2.2,0.1-3.9,0.8
	c-1.6,0.7-6.4,2.1-6.4,2.1l-11.6-0.5l-7-10.3L55.8,40.5"/>
<path class="st6" d="M30.8,93.5c0.1,1.1,5,1.6,7.1,2c2,0.3,3.4,1.9,2.1,3.6c-1.3,1.7-2.1,4.1-2.1,4.1s5.8,3,7.7,4.6
	c0.3,0.2,0.6,0.8,0.9,1.1c1.4,1.5,2.4,3,3.6,4c1.3,1.1,4.6-0.4,6.3-1.4c1.7-1,4.6-3.3,5.6-4.9s4.6-11,4.6-11s0.5-1.5,0.7-3.4
	c-1,0-1.8-0.1-2.4-0.3c0,0-14.9-5.1-18.6-4.3c-2.1,0.4-8.2,2.8-13.9,2.6C31.4,91.6,30.8,92.8,30.8,93.5z"/>
<path class="st6" d="M91.4,113.1l0.7,0.7c3.8-0.5,6.9-0.9,7.2-1c0.6-0.3,3.4-5.6,6.5-6.6c1.7-0.6,3-0.6,4.3-0.5l2.9-7.2
	c8-12.6,4.1-42.5,4.1-43.5c-0.1-1-0.2-3.4-1.5-2.5c0.5,1.9,1.1,23.2-2,34.9S91.4,113.1,91.4,113.1z"/>
<path class="st5" d="M101.4,35.6c0,0,11.3,18.3,6.3,34.8c-4.9,16.4-5.1,20.6-11.6,28.2c-5.6,4.3-7.1,6-8.2,5.6
	c-1.1-0.5,2.5-6,3.4-8.5c0.9-2.5-0.2-3.4-2-2.8s-5.4-0.3-3.7-1.9c1.7-1.5,13.3-3.9,14.5-26.4c0.3-11.7-1.9-23.5-3.9-24.7L101.4,35.6
	z"/>
<path class="st5" d="M57.3,11.6c1.2,0.8,6.2-2.3,7.4-2.9c1.2-0.6,5.9,0.1,6.7,0.4c0.8,0.3,6.4-0.9,6.4-0.9C72.9,6.5,67.6,5.5,63,6
	c-1.9,0.2-3.8,0.5-5.7,0.9C55.7,8.7,56,10.8,57.3,11.6z"/>
<path class="st5" d="M40,29.5c0,0-3.8-0.7-4.7,1.1c-0.9,1.8-1.5,4.6-1.7,5.4s-1.5,3.7-1.8,4.1c-0.2,0.4-1,1.7-1,3.1
	c0,1.4-0.4,4.7,0.3,5c0.7,0.4,6.4-5.4,6.4-5.4l3.9-7.7L40,29.5z"/>
<path class="st7" d="M72.6,109.6c0,0-0.8-3.9-3.2-3.7s-7.1,0.1-7.4,0.6c-0.3,0.5-2.5,3.3-4.9,4.5c-2.3,1.2-5.2,2.7-6.3,2.1
	s-5-5.1-5.4-5.5l1.3,2.5l0,2.7l-0.1,1.5c0,0-0.3,1.1,3.7,1s6.9-0.3,6.9-0.3s4.6-5.5,7.4-5.9C67.6,108.8,69.9,108.9,72.6,109.6z"/>
<path class="st7" d="M37.9,103.2c0,0-0.6,3.2-1,4.4c-0.4,1.2-2.6,2.8-3.3,3.3c-0.8,0.5-4,3.4-4,3.4s-2.6,0.1-2.9,1.1
	c0,0-0.1-0.9,4.2-4c0,0-0.6-0.8-1.5-0.4c-0.9,0.4-6.8,3.8-7.6,5.1l-0.9,0.8c0,0,1.2-3.2,2.9-5.1c1.6-1.9,1.6-1.9,1.6-1.9l5.2-0.9
	c0,0,2-6.4,4.7-6.9C36.9,102.4,37.9,103.2,37.9,103.2z"/>
<path class="st1" d="M20.4,20.5c0,0-3.5,1.1-4.1,4.9C15.7,29.3,17,30,17,30s-3.3-6.8,8.4-9.3c0,0,3.6-0.5,4.7-0.3
	C29.8,20.2,26.8,18.6,20.4,20.5z"/>
<path class="st1" d="M82.6,15.6c0,0,4.8-2.2,8.1-1c3.3,1.2,3.6,4.9,3.9,5.5c0.3,0.6,1.1,2.7,3.5,3.5s6.4,2.9,4.9,7.6
	c-0.2,1-0.1,2.2-0.9,3.3c0,0,1.3-5.4-0.4-7.7c-1.6-2.4-5.9-2.6-7.2-4.8c-1.3-2.2-1.7-6.1-3.6-6.4C89,15.3,86.6,14.4,82.6,15.6z"/>
<path class="st7" d="M72.3,22.4c2.3-2,9.9-6.9,10.3-6.8s-1.9,4.6-1.5,7.3c0.1,1,0.1,2.1,0.2,3c0,0,4.3-0.3,7.1-0.9
	c2.8-0.6,8.5-0.7,9.3-0.5c0.8,0.2,2.6,1,3.1,1.5c0.5,0.5-7.8,1.5-8.5,2.2c-0.8,0.7,1.8,1.2,3.1,1.8c1.3,0.5,2.7,2.4,0.4,2.1
	c-2.3-0.3-4.3-0.8-6.3-1.1c-2-0.3-3-0.4-3.7,0c-0.7,0.4-1,1.1-1,1.1l0,0c0.4,0.9,0.8,1.9,1.2,2.5c0.9,1.4,3.2,5.1,5.4,5.4
	c2.2,0.3,3.5-2.4,4.9,0c0,0-1.3,6-4.9,8.1c-3.6,2-19.7-3.2-20-4.5c-0.4-1.2-1.7-3.2-1-4.3c0.8-1.1,1.9,0.2,1.7-2.9
	c-0.2-3.1-0.3-3.9-1.9-4c-1.6-0.2-3.2,0-3.2,0S69.9,24.4,72.3,22.4z"/>
<path class="st7" d="M26.3,38.2c0,0-6.5-5.4-6.6-5.4s4.6-1.2,6.3-0.5c1.7,0.7,5.9,3.3,5.1,3.7C30.2,36.5,26.3,38.2,26.3,38.2z"/>
<path class="st7" d="M32.4,24.3c0,0-4.1,0.6-4.9,1S17,30,17,30s-0.3-0.3-0.4-0.9c-0.4-1.7-0.6-5.6,3.4-7.1c5.2-1.9,3.1-2.3,9.9-1.8
	c1.9,0.4,3,2.7,3,2.7S33.2,23.9,32.4,24.3z"/>
<path class="st8" d="M82.6,15.6"/>
<g>
	<g>
		<g>
			<path class="st6" d="M49,67.5c1.4-0.8,2.9-1.4,4.3-2.1l2.2-0.9l2.2-0.9c3-1.1,6.1-2.1,9.2-2.9c3.1-0.8,6.3-1.4,9.4-1.8
				c3.2-0.4,6.4-0.7,9.6-0.7l0,0c-3.2,0.3-6.4,0.7-9.5,1.2c-3.1,0.5-6.3,1.2-9.4,2C64,62.2,61,63.1,58,64.1l-2.3,0.8l-2.2,0.8
				C52,66.3,50.5,66.9,49,67.5L49,67.5z"/>
		</g>
	</g>
</g>
<g>
	<g>
		<g>
			<path class="st6" d="M50.5,69.6c1.2-1.1,2.9-1.5,4.5-1.8l2.4-0.3l2.4-0.3c3.2-0.3,6.5-0.5,9.7-0.6c3.2-0.1,6.5,0,9.7,0.2
				c3.2,0.2,6.5,0.5,9.7,1l0,0c-3.2-0.2-6.5-0.4-9.7-0.5c-3.2-0.1-6.5-0.1-9.7,0c-3.2,0.1-6.4,0.3-9.7,0.5L57.5,68l-2.4,0.2
				C53.5,68.4,51.9,68.6,50.5,69.6L50.5,69.6z"/>
		</g>
	</g>
</g>
<g>
	<g>
		<g>
			<path class="st6" d="M52.1,72.7c1.9-0.5,4-0.5,6-0.1c1,0.2,2,0.4,2.9,0.7c1,0.3,1.9,0.7,2.8,1.1c1.8,0.8,3.6,1.7,5.4,2.5
				c1.8,0.8,3.6,1.5,5.5,2.2c3.8,1.2,7.7,2.1,11.5,3.5c3.8,1.3,7.5,3.1,10.4,5.9l0,0c-3.1-2.6-6.8-4.2-10.5-5.4
				c-3.8-1.2-7.7-2.1-11.5-3.3c-1.9-0.6-3.8-1.3-5.6-2.2c-1.8-0.8-3.6-1.8-5.4-2.6c-0.9-0.4-1.8-0.8-2.7-1.1
				c-0.9-0.3-1.9-0.6-2.8-0.8C56,72.5,54,72.3,52.1,72.7L52.1,72.7z"/>
		</g>
	</g>
</g>
<g>
	<g>
		<g>
			<path class="st6" d="M52.1,75.3c1.9,0.8,3.8,1.6,5.6,2.6c0.9,0.5,1.8,1,2.7,1.5c0.9,0.5,1.8,1.1,2.6,1.6c3.4,2.3,6.7,4.9,9.6,7.8
				c2.9,2.9,5.6,6.1,7.9,9.6c1.1,1.7,2.2,3.5,3.1,5.4c0.9,1.9,1.4,4,1.1,6l0,0c0.2-2.1-0.5-4.1-1.4-5.9c-0.9-1.8-2.1-3.5-3.3-5.2
				c-2.4-3.3-5-6.5-7.9-9.4c-2.9-2.9-6.1-5.5-9.4-7.9c-0.9-0.6-1.7-1.2-2.6-1.7c-0.9-0.6-1.7-1.1-2.6-1.6
				C55.8,77.2,53.9,76.2,52.1,75.3L52.1,75.3z"/>
		</g>
	</g>
</g>
<g>
	<g>
		<g>
			<path class="st6" d="M51.7,77.2c0.8,0.5,1.6,1.1,2.4,1.6l1.2,0.8l1.2,0.8c1.6,1.1,3.2,2.3,4.6,3.6c1.5,1.3,2.7,2.9,3.7,4.6
				c1,1.7,1.7,3.6,2.1,5.5l0,0c-0.6-1.8-1.5-3.6-2.5-5.2c-1-1.6-2.3-3.1-3.7-4.4c-1.4-1.3-3-2.5-4.5-3.7L55,80l-1.1-0.9
				C53.1,78.5,52.4,77.9,51.7,77.2L51.7,77.2z"/>
		</g>
	</g>
</g>
<g>
	<g>
		<g>
			<path class="st6" d="M46.6,76.6c0.6,0.4,1.1,0.8,1.6,1.2c0.2,0.2,0.5,0.4,0.7,0.7c0.2,0.2,0.5,0.5,0.7,0.7c0.9,1,1.7,2,2.4,3.2
				c0.7,1.1,1.2,2.4,1.5,3.7c0.2,1.3,0.1,2.7-0.5,3.9l0,0c0.4-1.3,0.3-2.6,0-3.8c-0.3-1.2-0.9-2.4-1.5-3.5c-0.7-1.1-1.4-2.1-2.2-3.1
				c-0.2-0.3-0.4-0.5-0.6-0.7c-0.2-0.2-0.4-0.5-0.6-0.7C47.4,77.5,47,77.1,46.6,76.6L46.6,76.6z"/>
		</g>
	</g>
</g>
<g>
	<g>
		<g>
			<path class="st6" d="M31.4,60.3c-0.4-0.5-0.8-1.1-1.2-1.6L29.6,58l-0.6-0.7c-0.9-0.9-1.8-1.8-2.8-2.6c-1-0.8-2.1-1.5-3.2-2.1
				c-1.1-0.6-2.3-1.2-3.5-1.7l0,0c1.3,0.2,2.6,0.6,3.8,1.2c1.2,0.6,2.4,1.3,3.4,2.1c1.1,0.8,2,1.8,2.8,2.8l0.6,0.8l0.5,0.8
				C30.8,59.1,31.1,59.7,31.4,60.3L31.4,60.3z"/>
		</g>
	</g>
</g>
<g>
	<g>
		<g>
			<path class="st6" d="M28.3,63c-0.6,0.4-1.3,0.2-1.9,0c-0.3-0.1-0.6-0.3-0.9-0.4c-0.3-0.2-0.6-0.3-0.8-0.4
				c-1.1-0.5-2.4-0.7-3.6-0.8c-1.3-0.1-2.5-0.1-3.8-0.1c-1.3,0-2.6,0-3.9,0l0,0c1.3-0.3,2.6-0.5,3.8-0.6c1.3-0.1,2.6-0.1,3.9,0
				c1.3,0.1,2.6,0.4,3.8,1c0.3,0.2,0.6,0.3,0.8,0.5c0.3,0.2,0.5,0.4,0.8,0.5C27.1,63,27.7,63.2,28.3,63L28.3,63z"/>
		</g>
	</g>
</g>
<g>
	<g>
		<g>
			<path class="st6" d="M29.6,67.9c-1.2-0.1-2.3-0.1-3.5-0.1l-1.8,0l-1.8,0c-2.3,0-4.7,0-6.9,0.8c-2.2,0.7-4,2.3-5.6,3.9
				c-1.7,1.6-3.2,3.5-5,5l0,0c1.6-1.7,3-3.6,4.6-5.3c1.6-1.7,3.5-3.4,5.8-4.2c2.3-0.8,4.8-0.7,7.1-0.7l1.8,0.1l1.8,0.1
				C27.3,67.5,28.5,67.7,29.6,67.9L29.6,67.9z"/>
		</g>
	</g>
</g>
<g>
	<g>
		<g>
			<path class="st6" d="M27.6,72.9c-1.2,0.1-2.4,0.3-3.6,0.7c-0.6,0.2-1.1,0.4-1.7,0.6c-0.6,0.2-1.1,0.5-1.6,0.8
				c-2.1,1.1-4,2.6-5.8,4.3c-1.7,1.7-3.2,3.6-4.6,5.5c-1.4,2-2.7,4-4.1,6l0,0c1.1-2.2,2.3-4.3,3.6-6.3c1.3-2,2.8-4,4.6-5.7
				c1.7-1.7,3.8-3.2,6-4.3c0.6-0.3,1.1-0.5,1.7-0.7c0.6-0.2,1.2-0.4,1.8-0.5C25.1,73,26.4,72.8,27.6,72.9L27.6,72.9z"/>
		</g>
	</g>
</g>
<g>
	<g>
		<g>
			<path class="st6" d="M29,78.1c-0.6,0.6-1.2,1.1-1.8,1.7l-0.9,0.8l-0.9,0.8c-1.2,1.1-2.6,2-3.8,3.1c-1.2,1.1-2.2,2.3-3,3.7
				c-0.8,1.4-1.5,2.9-2.2,4.3l0,0c0.5-1.6,1-3.1,1.8-4.6c0.7-1.5,1.8-2.9,3-4c1.2-1.1,2.6-2.1,3.9-3.1l1-0.7l1-0.7
				C27.6,79,28.3,78.5,29,78.1L29,78.1z"/>
		</g>
	</g>
</g>
<g>
	<g>
		<g>
			<path class="st6" d="M30.2,80.6c-0.7,0.4-1.4,0.9-1.9,1.5c-0.3,0.3-0.5,0.6-0.8,0.9c-0.2,0.3-0.5,0.7-0.7,1
				c-0.9,1.4-1.6,2.9-2.4,4.3c-0.7,1.5-1.4,3-2,4.5c-0.6,1.5-1,3.1-1.2,4.8l0,0c0-1.7,0.3-3.3,0.7-5c0.5-1.6,1.1-3.2,1.9-4.7
				c0.8-1.5,1.6-2.9,2.6-4.3c0.2-0.3,0.5-0.7,0.8-1c0.3-0.3,0.6-0.6,0.9-0.9C28.6,81.2,29.4,80.8,30.2,80.6L30.2,80.6z"/>
		</g>
	</g>
</g>
<g>
	<g>
		<g>
			<path class="st6" d="M32.1,83.6c-0.4,0.6-0.7,1-1,1.4l-0.5,0.7c-0.2,0.2-0.3,0.5-0.5,0.7c-0.6,1-1.1,2-1.6,3
				c-0.4,1.1-0.7,2.2-0.8,3.3c-0.1,1.1,0,2.3,0.3,3.4l0,0c-0.6-1-0.8-2.2-0.8-3.4c0-1.2,0.2-2.4,0.7-3.5c0.4-1.1,1-2.2,1.7-3.1
				c0.2-0.2,0.4-0.5,0.6-0.7l0.6-0.7C31.2,84.4,31.6,84,32.1,83.6L32.1,83.6z"/>
		</g>
	</g>
</g>
<path d="M33.2,40.3c0,0-0.7,4.2-0.9,4.4c-0.3,0.2-0.8-1.2-0.7-1.9S32.3,40.7,33.2,40.3z"/>
<path class="st9" d="M40.5,46"/>
<path class="st10" d="M33.2,40.3c0,0-1.1,0.2-1.5,1.9C31.8,42.2,32.4,41.3,33.2,40.3z"/>
<circle class="st11" cx="32.6" cy="41.1" r="0.5"/>
<path class="st10" d="M63.8,40.8c0,0,2.8,0.8,3.8,4.2C67.7,45,68.1,40,63.8,40.8z"/>
<path d="M67.7,45c0,0-0.6,3.6-3.7,3c-3.1-0.5-2.5-1.9-2.5-1.9s0.8-5.8,2.5-5.2C65.8,41.4,66.9,41.2,67.7,45z"/>
<path class="st10" d="M65.5,47.9c0,0-3,1.1-3.6,0.9c-0.6-0.2-0.5-2.5-0.5-2.5S63.5,48.6,65.5,47.9z"/>
<circle class="st11" cx="63.6" cy="41.9" r="0.8"/>
</svg>
