<?xml version="1.0" encoding="utf-8"?>
<!-- Generator: Adobe Illustrator 22.0.1, SVG Export Plug-In . SVG Version: 6.00 Build 0)  -->
<svg version="1.1" id="Layer_1" xmlns="http://www.w3.org/2000/svg" xmlns:xlink="http://www.w3.org/1999/xlink" x="0px" y="0px"
	 viewBox="0 0 97.4 115.3" style="enable-background:new 0 0 97.4 115.3;" xml:space="preserve">
<style type="text/css">
	.st0{fill:#F68D42;}
</style>
<g id="Layer_2_1_">
	<path class="st0" d="M62.9,77.8c-0.4,4.2-2.1,7.4-4.9,9.7c-2.8,2.2-6.3,3.3-10.3,3.3s-7.5-2-10.6-6.2c-3.1-4.1-4.6-10.5-4.6-19
		v-1.5H12.1V66c0,7,0.9,13.1,2.6,18.3c1.7,5.2,4.2,9.6,7.4,13.1s6.9,6.2,11.3,7.9c4.4,1.7,9.2,2.6,14.5,2.6c4.8,0,9.2-0.7,13.2-2.2
		c4.1-1.5,7.7-3.5,10.9-6.2c3.2-2.6,5.8-5.8,7.8-9.5c2.1-3.7,3.4-7.8,3.9-12.4H62.9V77.8z"/>
	<circle class="st0" cx="73.1" cy="64.5" r="8.5"/>
	<path class="st0" d="M87,36.7h-3.5C80.6,24.1,72.4,7.2,48.7,7.2s-32,16.9-34.8,29.5h-3.4c-3,0-5.5,2.5-5.5,5.5v2.5
		c0,3,2.5,5.5,5.5,5.5H87c3,0,5.5-2.5,5.5-5.5v-2.5C92.4,39.2,90,36.7,87,36.7z"/>
</g>
</svg>
