<svg id="Layer_1" xmlns="http://www.w3.org/2000/svg" viewBox="0 0 680.3 340.2"><style>.st0,.st1{fill:#c3a776;stroke:#c3a776;stroke-miterlimit:10}.st1{fill:#817050;stroke:#817050;stroke-linecap:round;stroke-linejoin:round}.st2{fill:#141210}.st3,.st4{stroke-miterlimit:10}.st3{fill:#d0b37f;stroke:#d0b37f}.st4{stroke:#272118}.st4,.st5{fill:#272118}.st6,.st7{stroke:#fff6eb;stroke-miterlimit:10}.st6{fill:#fff6eb}.st7{stroke-linecap:round;stroke-linejoin:round}.st7,.st8{fill:#fff6eb}.st10,.st9{fill:#423829;stroke:#423829;stroke-linecap:round;stroke-linejoin:round;stroke-miterlimit:10}.st10{fill:#272118;stroke:#272118;stroke-width:2}.st11{fill:#594247}.st12{fill:#fff}.st13{fill:#c3a776}</style><path class="st0" d="M591.9 270s-2.7 2.4-5.8 5.1c-2.1 1.8-4.4 3.7-5.9 4.8-.4.3-1 .6-1.8.8-3.5 1.1-10.2 1.7-15.5 2.1h-90.5c-19.2-.4-44.1-1.3-51.6-3.2-.4-.1-.9-.3-1.3-.3-1.7-.5-3.6-1.3-5.4-2.2v-62.4s6.5-5 11.6-14.6c2.4-4.5 3.4-8.3 3.8-11.8v-.1c.3-3.9 0-7.7 0-11.8 0-7.9 6.6-10.1 6.6-10.1l44.9 35.8s87.3 33.3 100.5 48.2c5.6 6.7 8.7 13.8 10.4 19.7z"/><path class="st1" d="M438.5 187.1s-3.9 27 13.3 49.7c7.2 7.2 22.4 22.5 22.4 22.5s-27-42.6-30.9-53.3c-4.1-10.8-4.8-18.9-4.8-18.9zm63.4 80.6c0-.7-2.4-30.8-14-40.9-11.6-10.1-33.3-18-38.5-26.6-5.1-8.6-5.1-11.9-5.1-11.9s.5 14.3 16.2 28.5 31.8 35.9 35 41.6c3.2 5.7 6.4 9.3 6.4 9.3zm-79.4-22.6l9.1 14.2c-.8-1.1-9.7-13.7-11.8-13.3-2.2.5-3.7 10.1-3.7 10.1l-2-2.2v-39.3s6.5-5 11.6-14.6c2.4-4.5 3.4-8.3 3.8-11.8-.2 1.8.2 15.6-1.3 25.1-1.5 9.6-3.2 22.4 0 29.6 3.1 6.8 11.7 20.2 12.6 21.4-1-1.4-13.9-20-16-22.1-2.3-2-2.3 2.9-2.3 2.9zm163.7 30c-2.1 1.8-4.4 3.7-5.9 4.8-.4.3-1 .6-1.8.8l-.5-5.4 1.6-6.5.4-11.6c4 2.3 5.5 11.2 6.2 17.9z"/><path class="st2" d="M444.1 88.6s-11.1 12-19.7 20.9c-8.6 8.9-15.8 9.9-9.2 29.7s18.8 24.6 22.2 31.9c3.5 7.3 0 10 .7 14.2.7 4.2 3.5 5.6 5.9 2.9 2.4-2.7 4.4-5.2 4.9-6.5s7.9-66.9 7.9-66.9l7.2-36.2-16.6 8.9c.1.1-3.3 1.1-3.3 1.1zm166.4 86.2s5.3 4.1 5.1 10c-.2 5.9-2 9.9.5 9.9 2.4 0 7.2-6.5 8.4-9.9 1.2-3.4 3.9-10.9 4.2-13.7s2.2-13.2 2.2-13.2l-1.4-19.6-15.6-43.8h-14.6l11.2 80.3z"/><path class="st3" d="M620.4 115c7 13.4 10.5 42.4 10.5 42.4s-.3-17.4-2.2-22.3c-2-5-9.6-28.9-11.6-37.3-2-8.5-15.8-15.2-15.8-15.2-7.2-7-16.7-12.3-26.9-16.3-.3-.2-.7-.3-1-.4-8.7-3.3-18-5.7-26.8-7.2-16-2.8-31.3-.8-46 3.5-8.6 2.5-17 5.8-25.2 9.4l.1-.1c-.1 0-.1.1-.2.1-1.7.7-3.3 1.5-5 2.2-.3.2-.6.3-.9.6l-20.2 9.7s-7.9 4.2-8.4 15v13.2s.3-14.2 9.3-22.2c5-4.4 11-9 16.1-12.7-18.2 21.2-18.9 101.2-15.4 110.7 3.7 10.2 46.2 36.6 46.2 36.6l102.3-40s14-8.9 18.8-21.8c4.9-12.9 1.5-30.7 0-39.3s-4.4-22.2-4.4-22.2c-.4-1.4-1-2.7-1.5-4 .9.7 1.7 1.3 2.1 1.6 1.8 1.1 4 10.6 6.1 16z"/><ellipse class="st4" cx="464.2" cy="157.4" rx="1.7" ry="2.7"/><path class="st5" d="M517.4 140.5c-.2.2-.3.4-.4.6 3.7-12 15.8-24.3 15.8-24.3 5.8-6.6-6.2-17.8-6.2-17.8-3.5 5-12.8 5.4-15.3 5.7-2.5.3 2.3 5.4 2.3 5.4-5.1-1.7-10.4-2.9-13.2-2.7-4.2.3-15.8 4.4-25 13.1 2.4-.5 9.6.3 19.7 2 5.7 7.7 16.5 5.3 16.5 5.3s-7.4 10.7-17.5 45.4 2.6 51.6 2.6 51.6 18.6-74 22.3-81.4c3.7-7.4 13.6-16.3 19.3-22.2-4.7.8-11.5 7-20.9 19.3zm-4.2-25.7l1.1.1c-.3.1-.6.1-1.1-.1zm99.2 11.2c-1.7-1.7.3-7.9-1.5-11-.5-1.2-1.3-2.4-2.2-3.4-4.4-8.7-23.9-21.6-27.7-21.4s-7.1 4.2-9 13.8c-1.9 9.6 9 18.6 9 18.6 3.1 3.5 6.5 6.7 8.3 9.1 4.2 5.7 4.2 7.7 4.2 7.7 1.2-3.5 11.6-11.6 14-12.3 2.4-.7 8.1 5.9 8.1 4.7.1-1.4-1.5-4.2-3.2-5.8z"/><path class="st4" d="M529 82.5s12.8-1.7 13.1 23.2c0 0 1.2 5.7 0 9.2 0 0 2.8.4.5-16.2-2.3-16.6-10.4-18.4-12.4-18.1-1.9.2-1.2 1.9-1.2 1.9z"/><path class="st5" d="M554.7 78.6s-3.2 20.5 0 23.9c3.2 3.5 9.6 11.3 6.6 4.2-3-7.2-4.4-16.3-3.7-18 .7-1.7 3.4-6.7 5.8-8.2 0 0-5.9.5-7.1 3.8 0 0 .6-9.3 3.8-13.8.2-.1-2.9.2-5.4 8.1z"/><path class="st4" d="M573.5 65.9c-8.7-3.3-18-5.7-26.8-7.2-16-2.8-31.3-.8-46 3.5.8-.1 35.3-3 37.8 1.9 2.4 4.9 4.7 13.7 5.1 16.5 0 0 4.4 30.1 6.7 34.5.8-1.7-2.1-23.2-4.3-34.5 0 0 1.8-.7 3.3-2.2s.5-7.2 2-12 22.3-.2 23.2 0l-1-.5z"/><path class="st2" d="M522.6 120.1s-1.8-9-8.9-9.3c-7.2-.3-26 4.7-26 4.7l9.2 2.1s2.1 6.3 8.2 6.5c6.1.2 14.1-2.1 16.5-2.4l1-.3v-1.3z"/><circle class="st6" cx="505.2" cy="114.7" r="1.1"/><path class="st7" d="M511.1 112.3s1.4 5.9 0 9.2c0 0 4.1-1.4 4.2-4.5.2-3.4-2.5-4.6-4.2-4.7z"/><path class="st2" d="M585.1 117.5s3.1-6 8-5.6c5 .4 13.2 7.6 13.2 7.6h-3s.7 6.7-4.1 8c-2.3 0-4.4.2-6.1-1.7-1.8-1.7-8-8.3-8-8.3z"/><ellipse class="st8" cx="594.4" cy="116.9" rx="1.4" ry="1.9"/><path class="st8" d="M600 116.9s.1 8-4.3 8.6c2.1.6 5.6.7 6.1-2.9s-.5-4.3-1.8-5.7z"/><path class="st9" d="M598 223.3c-3 31.8-31.4 30.7-31.4 30.7-2.5-.7-3.4-5.4-6.3-8.6-3.4-3.7-7.8-3.7-15.5-5.1s-15.9 1.8-20.9 4.8c-2 5.9-4.7 6.3-11.7 5.6-4.5-.5-9.1-8.2-12.7-17.7-1.9-5.2-3.6-10.9-4.8-16.3-3.3-15.2 9.6-51.8 15.2-63.6 5.6-11.9 20-27.4 47.7-27 7.3.1 12.8 1.4 16.8 3.2 11.2 5.1 11.6 14.5 11.6 14.5 10.4 4.4 8.9 15.9 9.6 21.8 2 11.8 5.4 25.8 2.4 57.7z"/><path class="st5" d="M584.9 230c-1.8 13.1-18 23.7-18.5 24.1.3-.4 7.5-7.9 10.4-11.9 3-4.1 2.6-19.6 4.8-32.5 2.2-12.9-.3-17.4-4.8-22.9s-20.3.3-34.4-1.1c-4.8 10.4-36.6 44.1-36.6 44.1 4.4-30.4 30.4-49.2 30.4-49.2 2.2-.7 7.1-1.5 8.1 0 1.1 1.5 26.3 3 32.5 2.6 0 0 5.9 1.1 8.1 7 2.3 5.7 1.9 26.5 0 39.8z"/><path class="st5" d="M521.2 212.9s-.7 16.4 1 18c3.3-5.1 2.3-14.8 2.9-22.4.5-7.6-3.9 4.4-3.9 4.4zm15-4.8s-7.7 17.6-1.8 23.8c5.8 6.2 17.8 6.2 24.3 2.4 6.5-3.7 11.7-9.9 11.7-9.9s-29.5 11.5-33.6 3.2c-4-8.3-.7-19.5-.6-19.5zm40.7-23.5l-1.9-1.5c.8 0 1.4 0 1.9-.1-2.2-7.4-9.6-12.2-11.1-11.9s-25.1 1.8-29.6 1.5c0 0-7.8-1.7 0-5.5 8.6 1.7 27.6 4.2 29.1 2.7v-11.4s6.6-1.1 6.8 0-4.1 0-4.4 1.1c-.3 1.1-.2 10.2-.2 10.2s14.1 13.7 16 17.4c1.7 3.7-6.7-2.5-6.6-2.5z"/><path class="st10" d="M557.5 126.1c-27.7-.3-42.1 15.2-47.7 27-5.6 11.9-18.5 48.5-15.2 63.6 1.1 5.4 2.8 11.1 4.8 16.3 0 0 1.2-60.2 23.5-77.7 1-.7 2.5-1.7 4.3-2.6 0 0 20.7-7.3 23.9-6.6 3.2.7 11.6 5.8 12.7-2 1.1-7.8-4.3-13.2-5.8-10.7-1.5 2.4-1.7 9.4-1.7 9.4H546c.3-.2.3-.3.4-.3 1.3-1.3 8.9-12.9 12-13.3 3.1-.3 7.4-.7 8.3 1.3 3.2-.2 5.9-1.7 7.4-1-3.6-2-9.2-3.4-16.6-3.4z"/><path class="st5" d="M578 136.4s-7.6.3-5.8 12.6c0 0 1.7 5.3 5.8 5.3s5.7-5.8 5.7-5.8-6.6 1.5-6.8-3.9c-.2-5.2 1.1-8.2 1.1-8.2z"/><path class="st11" d="M565.7 171.2c-1.5.3-25.1 1.8-29.6 1.5v7.8c2.6 1.6 19.4 2.2 30.6 2.4 4.4.2 8.1.3 10.1.2-2.2-7.5-9.5-12.3-11.1-11.9z"/><path class="st12" d="M544.3 181.9s-.3-7.9-9.2-10.7c2.2 5.9 2.7 9.9 2.7 9.9l6.5.8z"/><path class="st1" d="M414.1 214.7v62.4c-2.5-1.2-5.1-2.7-7.7-4.3-8.9-5.6-16.8-12.4-16.8-12.4.3-1 .5-2.2.9-3.2 4.4-15.5 23.6-42.5 23.6-42.5z"/><path class="st13" d="M414.1 277.1c-2.5-1.2-5.1-2.7-7.7-4.3.2-.9.3-1.7.6-2.6 1.3-5.6 5-12.5 6.5-15.1.2-.3.4-.3.7-.2.2.1.3.2.3.3l2.7 9.4 2.4 14.7c-1.8-.6-3.7-1.3-5.5-2.2z"/><g><path class="st0" d="M251.7 270s-2.7 2.4-5.8 5.1c-2.1 1.8-4.4 3.7-5.9 4.8-.4.3-1 .6-1.8.8-3.5 1.1-10.2 1.7-15.5 2.1h-90.5c-19.2-.4-44.1-1.3-51.6-3.2-.4-.1-.9-.3-1.3-.3-1.7-.5-3.6-1.3-5.4-2.2v-62.4s6.5-5 11.6-14.6c2.4-4.5 3.4-8.3 3.8-11.8v-.1c.3-3.9 0-7.7 0-11.8 0-7.9 6.6-10.1 6.6-10.1l44.9 35.8s87.3 33.3 100.5 48.2c5.6 6.7 8.7 13.8 10.4 19.7z"/><path class="st1" d="M98.3 187.1s-3.9 27 13.3 49.7c7.2 7.2 22.4 22.5 22.4 22.5s-27-42.6-30.9-53.3c-4.1-10.8-4.8-18.9-4.8-18.9zm63.4 80.6c0-.7-2.4-30.8-14-40.9-11.6-10.1-33.3-18-38.5-26.6-5.1-8.6-5.1-11.9-5.1-11.9s.5 14.3 16.2 28.5 31.8 35.9 35 41.6 6.4 9.3 6.4 9.3zm-79.4-22.6l9.1 14.2c-.8-1.1-9.7-13.7-11.8-13.3-2.2.5-3.7 10.1-3.7 10.1l-2-2.2v-39.3s6.5-5 11.6-14.6c2.4-4.5 3.4-8.3 3.8-11.8-.2 1.8.2 15.6-1.3 25.1-1.5 9.6-3.2 22.4 0 29.6 3.1 6.8 11.7 20.2 12.6 21.4-1-1.4-13.9-20-16-22.1-2.3-2-2.3 2.9-2.3 2.9zm163.7 30c-2.1 1.8-4.4 3.7-5.9 4.8-.4.3-1 .6-1.8.8l-.5-5.4 1.6-6.5.4-11.6c4 2.3 5.5 11.2 6.2 17.9z"/><path class="st2" d="M103.9 88.6s-11.1 12-19.7 20.9-15.8 9.9-9.2 29.7 18.8 24.6 22.2 31.9c3.5 7.3 0 10 .7 14.2s3.5 5.6 5.9 2.9c2.4-2.7 4.4-5.2 4.9-6.5s7.9-66.9 7.9-66.9l7.2-36.2-16.6 8.9c.1.1-3.3 1.1-3.3 1.1zm166.4 86.2s5.3 4.1 5.1 10c-.2 5.9-2 9.9.5 9.9 2.4 0 7.2-6.5 8.4-9.9 1.2-3.4 3.9-10.9 4.2-13.7.3-2.8 2.2-13.2 2.2-13.2l-1.4-19.6-15.6-43.8h-14.6l11.2 80.3z"/><path class="st3" d="M280.2 115c7 13.4 10.5 42.4 10.5 42.4s-.3-17.4-2.2-22.3c-2-5-9.6-28.9-11.6-37.3-2-8.5-15.8-15.2-15.8-15.2-7.2-7-16.7-12.3-26.9-16.3-.3-.2-.7-.3-1-.4-8.7-3.3-18-5.7-26.8-7.2-16-2.8-31.3-.8-46 3.5-8.6 2.5-17 5.8-25.2 9.4l.1-.1c-.1 0-.1.1-.2.1-1.7.7-3.3 1.5-5 2.2-.3.2-.6.3-.9.6L109 84.1s-7.9 4.2-8.4 15v13.2s.3-14.2 9.3-22.2c5-4.4 11-9 16.1-12.7-18.2 21.2-18.9 101.2-15.4 110.7 3.7 10.2 46.2 36.6 46.2 36.6l102.3-40s14-8.9 18.8-21.8c4.9-12.9 1.5-30.7 0-39.3s-4.4-22.2-4.4-22.2c-.4-1.4-1-2.7-1.5-4 .9.7 1.7 1.3 2.1 1.6 1.8 1.1 4 10.6 6.1 16z"/><ellipse class="st4" cx="124" cy="157.4" rx="1.7" ry="2.7"/><path class="st5" d="M177.2 140.5c-.2.2-.3.4-.4.6 3.7-12 15.8-24.3 15.8-24.3 5.8-6.6-6.2-17.8-6.2-17.8-3.5 5-12.8 5.4-15.3 5.7s2.3 5.4 2.3 5.4c-5.1-1.7-10.4-2.9-13.2-2.7-4.2.3-15.8 4.4-25 13.1 2.4-.5 9.6.3 19.7 2 5.7 7.7 16.5 5.3 16.5 5.3s-7.4 10.7-17.5 45.4 2.6 51.6 2.6 51.6 18.6-74 22.3-81.4 13.6-16.3 19.3-22.2c-4.7.8-11.5 7-20.9 19.3zm-4.2-25.7l1.1.1c-.3.1-.6.1-1.1-.1zm99.2 11.2c-1.7-1.7.3-7.9-1.5-11-.5-1.2-1.3-2.4-2.2-3.4-4.4-8.7-23.9-21.6-27.7-21.4s-7.1 4.2-9 13.8 9 18.6 9 18.6c3.1 3.5 6.5 6.7 8.3 9.1 4.2 5.7 4.2 7.7 4.2 7.7 1.2-3.5 11.6-11.6 14-12.3 2.4-.7 8.1 5.9 8.1 4.7.1-1.4-1.5-4.2-3.2-5.8z"/><path class="st4" d="M188.8 82.5s12.8-1.7 13.1 23.2c0 0 1.2 5.7 0 9.2 0 0 2.8.4.5-16.2S192 80.3 190 80.6c-1.9.2-1.2 1.9-1.2 1.9z"/><path class="st5" d="M214.5 78.6s-3.2 20.5 0 23.9c3.2 3.5 9.6 11.3 6.6 4.2-3-7.2-4.4-16.3-3.7-18s3.4-6.7 5.8-8.2c0 0-5.9.5-7.1 3.8 0 0 .6-9.3 3.8-13.8.2-.1-2.9.2-5.4 8.1z"/><path class="st4" d="M233.3 65.9c-8.7-3.3-18-5.7-26.8-7.2-16-2.8-31.3-.8-46 3.5.8-.1 35.3-3 37.8 1.9 2.4 4.9 4.7 13.7 5.1 16.5 0 0 4.4 30.1 6.7 34.5.8-1.7-2.1-23.2-4.3-34.5 0 0 1.8-.7 3.3-2.2s.5-7.2 2-12 22.3-.2 23.2 0l-1-.5z"/><path class="st2" d="M182.4 120.1s-1.8-9-8.9-9.3c-7.2-.3-26 4.7-26 4.7l9.2 2.1s2.1 6.3 8.2 6.5 14.1-2.1 16.5-2.4l1-.3v-1.3z"/><circle class="st6" cx="165" cy="114.7" r="1.1"/><path class="st7" d="M170.9 112.3s1.4 5.9 0 9.2c0 0 4.1-1.4 4.2-4.5.2-3.4-2.5-4.6-4.2-4.7z"/><path class="st2" d="M244.9 117.5s3.1-6 8-5.6c5 .4 13.2 7.6 13.2 7.6h-3s.7 6.7-4.1 8c-2.3 0-4.4.2-6.1-1.7-1.8-1.7-8-8.3-8-8.3z"/><ellipse class="st8" cx="254.2" cy="116.9" rx="1.4" ry="1.9"/><path class="st8" d="M259.8 116.9s.1 8-4.3 8.6c2.1.6 5.6.7 6.1-2.9s-.5-4.3-1.8-5.7z"/><path class="st9" d="M257.8 223.3c-3 31.8-31.4 30.7-31.4 30.7-2.5-.7-3.4-5.4-6.3-8.6-3.4-3.7-7.8-3.7-15.5-5.1s-15.9 1.8-20.9 4.8c-2 5.9-4.7 6.3-11.7 5.6-4.5-.5-9.1-8.2-12.7-17.7-1.9-5.2-3.6-10.9-4.8-16.3-3.3-15.2 9.6-51.8 15.2-63.6 5.6-11.9 20-27.4 47.7-27 7.3.1 12.8 1.4 16.8 3.2 11.2 5.1 11.6 14.5 11.6 14.5 10.4 4.4 8.9 15.9 9.6 21.8 2 11.8 5.4 25.8 2.4 57.7z"/><path class="st5" d="M244.7 230c-1.8 13.1-18 23.7-18.5 24.1.3-.4 7.5-7.9 10.4-11.9 3-4.1 2.6-19.6 4.8-32.5s-.3-17.4-4.8-22.9-20.3.3-34.4-1.1c-4.8 10.4-36.6 44.1-36.6 44.1 4.4-30.4 30.4-49.2 30.4-49.2 2.2-.7 7.1-1.5 8.1 0 1.1 1.5 26.3 3 32.5 2.6 0 0 5.9 1.1 8.1 7 2.3 5.7 1.9 26.5 0 39.8z"/><path class="st5" d="M181 212.9s-.7 16.4 1 18c3.3-5.1 2.3-14.8 2.9-22.4.5-7.6-3.9 4.4-3.9 4.4zm15-4.8s-7.7 17.6-1.8 23.8c5.8 6.2 17.8 6.2 24.3 2.4 6.5-3.7 11.7-9.9 11.7-9.9s-29.5 11.5-33.6 3.2c-4-8.3-.7-19.5-.6-19.5zm40.7-23.5l-1.9-1.5c.8 0 1.4 0 1.9-.1-2.2-7.4-9.6-12.2-11.1-11.9s-25.1 1.8-29.6 1.5c0 0-7.8-1.7 0-5.5 8.6 1.7 27.6 4.2 29.1 2.7v-11.4s6.6-1.1 6.8 0-4.1 0-4.4 1.1c-.3 1.1-.2 10.2-.2 10.2s14.1 13.7 16 17.4c1.7 3.7-6.7-2.5-6.6-2.5z"/><path class="st10" d="M217.3 126.1c-27.7-.3-42.1 15.2-47.7 27-5.6 11.9-18.5 48.5-15.2 63.6 1.1 5.4 2.8 11.1 4.8 16.3 0 0 1.2-60.2 23.5-77.7 1-.7 2.5-1.7 4.3-2.6 0 0 20.7-7.3 23.9-6.6s11.6 5.8 12.7-2c1.1-7.8-4.3-13.2-5.8-10.7-1.5 2.4-1.7 9.4-1.7 9.4h-10.3c.3-.2.3-.3.4-.3 1.3-1.3 8.9-12.9 12-13.3 3.1-.3 7.4-.7 8.3 1.3 3.2-.2 5.9-1.7 7.4-1-3.6-2-9.2-3.4-16.6-3.4z"/><path class="st5" d="M237.8 136.4s-7.6.3-5.8 12.6c0 0 1.7 5.3 5.8 5.3s5.7-5.8 5.7-5.8-6.6 1.5-6.8-3.9c-.2-5.2 1.1-8.2 1.1-8.2z"/><path class="st11" d="M225.5 171.2c-1.5.3-25.1 1.8-29.6 1.5v7.8c2.6 1.6 19.4 2.2 30.6 2.4 4.4.2 8.1.3 10.1.2-2.2-7.5-9.5-12.3-11.1-11.9z"/><path class="st12" d="M204.1 181.9s-.3-7.9-9.2-10.7c2.2 5.9 2.7 9.9 2.7 9.9l6.5.8z"/><path class="st1" d="M73.9 214.7v62.4c-2.5-1.2-5.1-2.7-7.7-4.3-8.9-5.6-16.8-12.4-16.8-12.4.3-1 .5-2.2.9-3.2 4.4-15.5 23.6-42.5 23.6-42.5z"/><path class="st13" d="M73.9 277.1c-2.5-1.2-5.1-2.7-7.7-4.3.2-.9.3-1.7.6-2.6 1.3-5.6 5-12.5 6.5-15.1.2-.3.4-.3.7-.2.2.1.3.2.3.3l2.7 9.4 2.4 14.7c-1.8-.6-3.7-1.3-5.5-2.2z"/></g><g><path d="M627.8 90.4c-12.5-8-29.7 5.8-29.7 5.8s-17.1-13.8-29.7-5.8c-19.5 13.3 29.7 63.7 29.7 63.7s49.2-50.4 29.7-63.7zm0 0c-12.5-8-29.7 5.8-29.7 5.8m-66.3-5.8c-12.5-8-29.7 5.8-29.7 5.8s-17.1-13.8-29.7-5.8c-19.5 13.3 29.7 63.7 29.7 63.7s49.1-50.4 29.7-63.7zm0 0c-12.5-8-29.7 5.8-29.7 5.8" fill="#df4d57" stroke="#df4d57" stroke-linecap="round" stroke-linejoin="round" stroke-miterlimit="10"/></g></svg>