<svg id="Layer_1" xmlns="http://www.w3.org/2000/svg" viewBox="0 0 680.3 340.2"><style>.st0{fill:#ad624b}.st1{fill:#854c39}.st2{fill:#42271e}.st3{fill:#964e3b}.st4{fill:#efcfcb}.st5{fill:#c6a6a3}.st6{fill:#5b4f50}.st7{fill:#423435}.st8{fill:#fcfcfc}</style><g id="uczho_2"><path class="st0" d="M574 74.8s-.4-7.3-1.2-11.4c-.4-2.2-1.1-4.9-2.3-7.9-4.4-10.9-7.6-13-5-21.3 2.6-8.2 9.5-15.3 6-19.2-3.5-3.8-14-1.8-14-1.8l-22.7 7.3-13.3 15.7v19.4s22.7 2.5 31.6 6.3c8.9 3.8 19.3 13.5 19.1 16.6l-.3 3.1c-.1 0 1.9-2.5 2.1-6.8z"/><path class="st1" d="M514.5 53.8s2.7-23.4 8.3-27.5c5.6-4.1 21-13 28.3-15s14.7-2.4 16.9 0c2.2 2.4 6.2 5 1 5-5.3 0-6.3-3.5-14.6-.6S539 19.2 533 24.8c-6.1 5.6-9.3 13.9-9.6 17-.3 3.3-2 13.6-2 13.6l-6.9-1.6z"/><path class="st2" d="M526.9 56.3l6.1.6s-.4-5.5 0-11.2c.4-5.7 1.4-10.4 4.9-14.3s5.9-5.5 9.1-7.1c3.3-1.6 13.6-2.5 17.1-3.1s7.3-2.4 7.3-4.1-6.3-1.8-8-1.6-14.2 1.9-14.2 1.9l-8.7 4.9-10.6 5.8-5.7 9.1-1.8 8.4 4.5 10.7z"/><path class="st1" d="M526.9 56.3s.6-12.6 3.1-18.6 12.4-16.8 20-17.8c7.6-1.1 15.6-.2 18-1.1 2.4-.9 4.9-1.8 3.5-3.5-1.4-1.8-3.4-2.5-9.5-2.3-6.2.1-17.4 1.4-21.4 4.3-4 2.8-18.9 7.1-19.2 14.3S518.8 55 518.8 55l8.1 1.3z"/></g><path class="st3" d="M626 204.4c-.1 16.8-6.4 42.1-32.4 70.2-5.8 6.3-17.1 10.5-31.3 13.4-2.6.5-5.1 1-7.9 1.4-2.7.4-5.6.8-8.4 1.1-5.1.6-10.4 1.1-15.8 1.5-2.1.2-4.3.3-6.4.4-3.2.2-6.3.4-9.4.4-24.5.9-49.2-.1-65.3-1 0 0-14.8-5-16.9-7.2-2-2.2-1.9-3.4-1.9-3.4-.1-7.4-.1-16.5.2-22.5.4-11.7 9.4-37.3 8.7-59.3-.6-22.1.1-47.4.1-47.4l44.7 22.1s96.2-23.4 106.5-16.4c1.2.9 2.7 2.2 4.4 3.9 11.4 11.7 29.9 40.4 31.3 42.6v.2h-.2z"/><path class="st4" d="M456 72.6s17.8-7 25.3-8.7c7.3-1.8 14.4-2.9 18.5-5.9 4.1-2.9 14.7-4.1 14.7-4.1s41.2 5 50.6 14.1c9.4 9.1 6.6 13.6 6.6 13.6s-3.4 4.9-1.3 12c2 7.1 11.2 25.1 15.8 30.6 4.5 5.6 7.5 6.4 7.5 14.4 0 7.9-2.7 17.9-3.4 19.2-.7 1.3-28.4 21.4-28.4 21.4l-33.2 7.7-40.7 3.4-17.2-4.2-17.4-13.9-4.2-7.8 6.9-30.2-6.9-55.7 6.8-5.9z"/><path class="st5" d="M569.3 107.3s-16.2-1.6-19.9 1.9c-5.6 5.5-8.1 7.7-8.1 12.8 0 5.1 7.9 30.6 4.6 39.1 0 0-1.9 4-3.5 4.4-1.6.4-1.1-12.8-2-15.9-.9-3.1-3.7-3.7-4.6-8.7-.9-5-4-22.5-2.2-25.8 1.8-3.3 17.2-18.9 35.7-7.8zm20.9 50.5c-.1.2-.3.6-.6 1.3-1.4 2.7-4.7 9.2-7.2 12.2-2.4 2.9-4.9 5.9-5.9 7.2-.4.4-.5 1-.5 1.6l2.3 38.8s-9.1 31.2-9.3 33.6c-.2 2.4 1.8 10.9 3 15.3s4.2 8.4 5.7 10.9c1.5 2.6-3.7 1.6-5.7 0-1.9-1.6-5.2.2-8.5-2.5s-10.2-12.4-11.2-7.9c-1.1 4.4-3.4 3.3 1.2 7.9 4.7 4.7 6.5 2.4 8.1 7.7.4 1.4.6 2.7.7 4-2.6.5-5.1 1-7.9 1.4-2.7.4-5.6.8-8.4 1.1-5.1.6-10.4 1.1-15.8 1.5-2.1.2-4.3.3-6.4.4-3.2.2-6.3.4-9.4.4-.2-2.5-.2-8.1 1.9-11.8 2.6-4.7 5.6-8.6 3.3-9.7-2.4-1.1.3.3-5 2.2-5.3 1.9-8.2 4.9-7.7 1.6.6-3.3-3.3 2 1.8-5.6 5-7.7 9.7-17.9 8.8-18.8-.9-.9-2.9 6.4-6.8 8.1-3.8 1.6-2-1.6 0-8.1 2-6.4 2.9-30 2.6-33.3s-1.1-9.5-1.1-9.5L496.9 195l-13.1-7.1s30 2.1 41-3.6c10.9-5.7 28.2-9.6 37.4-12.8 9.4-3.3 20.2-7.7 22.9-10 2.7-2.2 5.1-3.7 5.1-3.7z"/><path class="st6" d="M541.7 125.3s-2.4-7.2 0-8.7c2.4-1.5 6-7.3 9.4-8.7 3.5-1.3 11.3-3.3 18.2-.6 6.9 2.6 8 9.1 7.9 11.6-.1 2.5-1.8 10.7-1.8 10.7s-1.9 1.3-3 1.9c-1.1.7-3.8.7-5.4.7s-13.6 4.9-14.4 3.7c-.8-1.1-3.5-6.4-3.5-6.4l-7.4-4.2z"/><path class="st5" d="M542.4 165.5s-14.9 14.3-17.7 15c0 0 19.2-5.6 24.5-10.6s21.8-20.7 22.1-23.9c.3-3.3-1.9-11.6-1.9-11.6s4.7 9.7 8.8 11.6c4.1 1.9 5.7 11.7 5.7 11.7s4.1-10.5 1.2-18c-2.8-7.5-8.4-15.5-8.4-15.5s-1.3 5.5-2.8 6.4c-1.4.9-9 1.6-11.9 2.6-2.9 1-7.2 1.8-8.8 1.6-1.7-.2-7.9-7.9-11.6-9.5 0 0 4.9 21.7 4.9 27.2s-.1 9.2-4.1 13z"/><path class="st5" d="M554.7 167.6s28.6-6.3 29-9.9c0 0-.4-5-3.8-7.3-2.4-1.6-6.1-5.4-6.1-5.4s-11.7 19.5-19.1 22.6z"/><path class="st7" d="M583.9 157.8c.3 1 1.1-8.5-5.5-13.2-6.5-4.7-9.1-10.1-9.1-10.1s2.2 8.9 1.1 11.7-19.7 23.2-24.5 25.9c-4.9 2.6-21.1 8.7-21.1 8.7s14.1-.7 28.7-10.8 20.7-22.2 20.7-22.2 7.6 1.7 9.7 10zm-42.2-32.5s6.4 5.5 7.5 7.2c1.1 1.8 4.6 3.4 6.2 2 1.7-1.4 9.9-5.9 8.1-10.2-1.8-4.3-8.4-7.2-9.2-4-.8 3.3-.5 5.3 0 6.6.5 1.3-2 1.9-2 1.9l-10.6-3.5zm35.6-6.4s-2.4-5.7-5.1-3.2c-2.8 2.5-1.1 8.7 0 9.5 1.1.9 2.7 4.4 2.7 4.4s2.9-5.6 2.4-10.7zm-11.8 13.3s4.2-5.6 3.7-7.9c0 0 1.1 4.9 2.8 6.2 1.6 1.3-2.8-.9-2.8-.9l-3.7 2.6z"/><path class="st1" d="M466.5 74.5s-28.5-4.7-55.4 25c-9.1 11.2-19.7 10-16.2 16.2s24.5 18.8 28.3 23.2c3.8 4.4 15.6 13.3 15.8 11.7.3-1.6 21.5-42.4 21.5-42.4l6-33.7z"/><path class="st2" d="M522.2 193.3s-2.6 8.2 0 21.2.3 35-.6 38.9c-.9 3.9 1.6 6.6 1.8 12.5 4.7-16.8 7.1-38.2 3.5-53.2-3.6-15-4.7-19.4-4.7-19.4zm11.4 13c-.9-.7 5.9 23.8 3.1 36.8 8.4-17.2.1-34.1-3.1-36.8zm5.7-17.6s7.8 15.9 9.3 23 3.8 7.3 3.8 7.3-.8-11.2-3.4-17.9c-2.7-6.9-6-9.2-9.7-12.4zm-51.5 77.4s-27.8-39.7-34.9-59.8c-4.4 18.4-9.3 52.9-8.4 65.2.9 12.4 1.9 15.5 1.9 15.5s2.1-49.6 4.8-57.2c2.6-7.8 33.1 43.6 36.6 36.3zm36 26.4c.7-2.6 2-8.2 2.8-12-3.2 2.8-7 5-7.2 5.1.3-.4 7.9-14.7 9-22.1 1.1 7.6 1.1 23 1.8 28.5-2 .2-4.2.4-6.4.5zm30.8-3.1c-2.7.4-5.6.8-8.4 1.1-.7-5.2-2-16-1.9-19.2 2.4 4.1 7.3 12.7 10.3 18.1zm-3.8-30.5s12.6 7.9 16.2 14.7c0 0-13.1-9-16.2-14.7zm-1.2-31.7s4.2 4.6 3.7 6.2-4.4-.9-3.7 1.3c.7 2.2 12.4 8.6 13.1 8.5s7.8.4 3.1-5.1c-4.7-5.5-15.4-15.9-16.2-14.8s0 3.9 0 3.9zm-37.5-19.3s-6.6-8.1-11-13.4c-4.4-5.3-21-6-27.2-9.5-6.2-3.5-17.2-12.5-19.6-15.7s-5.5-9.9-6.6-9.7c-1.1.2-8.6-7.4-8.6-7.4s15.4 27.7 24.6 32.8c9.3 5.1 14.8 3.1 24 8.4 9.2 5.3 11.3 6.1 14.8 10.4s8.3 7.2 9.6 4.1zm7.7-114.3s-5.7-2.6-9.1-15c-2.5-6-3.8-9-3.8-9s2.9 11.5 7.7 16.6c4.7 5.1 5.2 7.4 5.2 7.4zm10.2-4.7s-12.2-4.6-19.3-20.9c7 6.2 7.8 13.7 19.3 20.9z"/><path class="st0" d="M439.2 152.2s8.7 9.3 11.3 11c2.6 1.8 3.7-6 8.4-6.6s14.1 7.3 20.6 12.6c6.4 5.3 23 8.6 15.9-1.5-7.1-10-7.7-23.8-3.5-22.3s4.4 3.8 6.8 2.9 3.5-22.7 6.8-26.5c3.3-3.8 5.3-10.3 5.3-15.6s-6.4-20-18.5-15.9-16.5 17.7-17.2 20c-.7 2.4-3.7 12.6-3.7 12.6s-.3-11.5-1.1-13.5 5-11.7 4.9-17-4-20.3-8.4-17.9c-4.4 2.4-2 3.8-4.4 7.9-2.4 4.1-8.2 5.6-8.6 7.9-.3 2.4 2.4 2 5.9 2.4s4.4 3.8.3 6.2c-4.1 2.4-5.6 2.4-4.7 4.7s2.6.3 2 3.8-4.7 11.5-6.4 14.7c-1.7 3.2-12.6 24.2-11.7 30.1zm128.9-57.4s-12.1-19.6-17-20.6c-5-1-15.6-5-14.1 5.2 1.5 10.3 6.2 14.4 12.4 15.3 6 .9 15.4 3.9 18.7.1zm11.1 80.6h-.2c-1.2.6-19.9 10.4-16.8 21.2 3.2 11.2 17.2 15.1 14 26.2-3.4 12.2-5 20.9-7.2 29.8-1.6 6.2 18.1-12.4 12.4-56.1-1.8-12.8 2.9-20.2-2.2-21.1zm23.4 82.8c12.4-23-11-90.1-11-90.1s-2.6-6-1.9-9.1c.1-.5.3-1 .6-1.3.4-.4 2 1.1 4.4 3.9 9.3 10.9 29.8 40.3 31.3 42.6l.1.1c-.1 16.8-6.4 42.1-32.4 70.2 2.5-4.5 5.5-10 8.9-16.3z"/><path class="st7" d="M492.1 102.2s8.7 5.3 7.8 7.8-8.4 10.2-18.1 7.9c-.2 0-2.4-13.3 10.3-15.7zm51.8-23.7s-2.5 9.4 3.1 11.6c5.6 2.2 8.4 0 8.4 0s-5.3-11-7.5-11.6c-2.3-.6-4 0-4 0z"/><path class="st2" d="M486.7 113.4s7.1-1.1 7.2-6.1c.4-1.9 1.8-1.9 1.9 0 .2 1.9-.6 5.9-2.5 6.9-1.9 1.1-5.8 1.9-6.7 1.4-.8-.4.1-2.2.1-2.2zm60.4-25.2c.1-.2 3.4 1.6 4 0 .5-1.6.4-2.8 1-2 .6.7 1.1 2.4.7 2.7-.4.4-.4.8-1.7.9-1.2 0-4.5-.6-4-1.6z"/><circle class="st8" cx="546" cy="82.2" r="1.6"/><circle class="st8" cx="485.1" cy="110.9" r="1.2"/><circle class="st8" cx="491.1" cy="104.3" r="2.4"/><path class="st2" d="M451.5 81.4c2.9-2 4.9-7.6 4.4-7.2s-5.3 1.2-5.3 1.2-5.3 7.2-3.9 24.4c1.5 17 1.8 24.5 1.8 24.5l.1-.1c.1.7 0 1.8-.7 3.2-1.1 2.2-7 13.1-8.1 17.9-1.2 4.9-.7 5.5-.7 5.5s.1 1.7 4.8-10.2c4.7-11.8 6.5-12.5 7.4-15.7.9-3.1.3-5.8.3-5.8-.2-4.4-2.2-15.5-1.9-20.1.2-5.5-1.1-15.6 1.8-17.6z"/><g><path class="st3" d="M285.8 204.4c-.1 16.8-6.4 42.1-32.4 70.2-5.8 6.3-17.1 10.5-31.3 13.4-2.6.5-5.1 1-7.9 1.4-2.7.4-5.6.8-8.4 1.1-5.1.6-10.4 1.1-15.8 1.5-2.1.2-4.3.3-6.4.4-3.2.2-6.3.3-9.4.4-24.5.9-49.2-.1-65.3-1 0 0-14.8-5-16.9-7.2-2-2.2-1.9-3.4-1.9-3.4-.1-7.4-.1-16.5.2-22.5.4-11.7 9.4-37.3 8.7-59.3-.6-22.1.1-47.4.1-47.4l11.5 5.7 4 1.9 29.2 14.5s1.4-.4 3.9-.9c2.3-.5 5.5-1.3 9.4-2.2 11.2-2.6 28-6.3 44.3-9.3l4.2-.8c.1 0 .3-.1.4-.1 4.8-.9 9.4-1.7 14-2.3.4-.1.8-.1 1.1-.2 1.3-.2 2.6-.4 3.9-.5l1.9-.3c6.6-.9 12.4-1.3 16.7-1.2h.8c2.8.1 4.9.5 6 1.2 1.2.9 2.7 2.2 4.4 3.9 11.4 11.7 29.9 40.4 31.3 42.6l-.3.4z"/><path class="st4" d="M115.8 72.6s17.8-7 25.3-8.7c7.3-1.8 14.4-2.9 18.5-5.9 4.1-2.9 14.7-4.1 14.7-4.1s41.2 5 50.6 14.1 6.6 13.6 6.6 13.6-3.4 4.9-1.3 12c2 7.1 11.2 25.1 15.8 30.6 4.5 5.6 7.5 6.4 7.5 14.4 0 7.9-2.7 17.9-3.4 19.2-.6 1.3-28.5 21.5-28.5 21.5l-33.2 7.7-40.7 3.4-17.2-4.2-17.4-13.9-4.2-7.8 6.9-30.2-6.9-55.7c0-.1 6.9-6 6.9-6z"/><path class="st5" d="M229.1 107.3s-16.2-1.6-19.9 1.9c-5.6 5.5-8.1 7.7-8.1 12.8 0 5.1 7.9 30.6 4.6 39.1 0 0-1.9 4-3.5 4.4s-1.1-12.8-2-15.9c-.9-3.1-3.7-3.7-4.6-8.7-.9-4.9-4-22.5-2.2-25.8 1.7-3.2 17.2-18.9 35.7-7.8zm20.9 50.5c-.1.2-.3.6-.6 1.3-1.4 2.7-4.7 9.2-7.2 12.2-1.1 1.4-2.3 2.8-3.4 4.1-1.1 1.3-2 2.5-2.6 3.2-.4.4-.5 1-.5 1.6L238 219s-5.4 18.3-7.9 27.9v.2c-.8 2.9-1.3 4.9-1.3 5.5v1.1c.3 3.2 1.9 10.3 3 14.3 1.2 4.4 4.2 8.4 5.7 10.9 1.5 2.6-3.7 1.6-5.7 0-1.9-1.6-5.2.2-8.5-2.5-3.3-2.6-10.2-12.4-11.2-7.9-1.1 4.4-3.4 3.3 1.2 7.9 4.7 4.7 6.5 2.4 8.1 7.7.4 1.4.6 2.7.7 4-2.6.5-5.1 1-7.9 1.4-2.7.4-5.6.8-8.4 1.1-5.1.6-10.4 1.1-15.8 1.5-2.1.2-4.3.3-6.4.4-3.2.2-6.3.3-9.4.4-.2-2.5-.2-8.1 1.9-11.8 2.6-4.7 5.6-8.6 3.3-9.7-2.4-1.1.3.3-5 2.2-5.3 1.9-8.2 4.9-7.7 1.6.6-3.3-3.3 2 1.8-5.6 5-7.7 9.7-17.9 8.8-18.8s-2.9 6.4-6.8 8.1c-3.9 1.7-2-1.6 0-8.1 2-6.4 2.9-30 2.6-33.3S172 208 172 208l-15.3-12.8-9-4.9-4.1-2.2s30 2.1 41-3.6 28.2-9.6 37.4-12.8c9.4-3.3 20.2-7.7 22.9-10 2.7-2.4 5.1-3.9 5.1-3.9z"/><path class="st6" d="M201.5 125.3s-2.4-7.2 0-8.7c2.4-1.4 6-7.3 9.4-8.7 3.5-1.3 11.3-3.3 18.2-.6 6.9 2.6 8 9.1 7.9 11.6s-1.8 10.7-1.8 10.7-1.9 1.3-3 1.9c-1.1.7-3.8.7-5.4.7-1.6 0-13.6 4.9-14.4 3.7-.8-1.1-3.5-6.4-3.5-6.4l-7.4-4.2z"/><path class="st5" d="M202.2 165.5s-14.9 14.3-17.7 15c0 0 19.2-5.6 24.5-10.6s21.8-20.7 22.1-23.9-1.9-11.6-1.9-11.6 4.7 9.7 8.8 11.6c4.1 1.9 5.7 11.7 5.7 11.7s4.1-10.5 1.2-18c-2.8-7.5-8.4-15.5-8.4-15.5s-1.3 5.5-2.8 6.4c-1.4.9-9 1.6-11.9 2.6s-7.2 1.8-8.8 1.6c-1.7-.2-7.9-7.9-11.6-9.5 0 0 4.9 21.7 4.9 27.2 0 5.3-.1 9.2-4.1 13z"/><path class="st5" d="M214.5 167.6s28.6-6.3 29-9.9c0 0-.4-5-3.8-7.3-2.4-1.6-6.1-5.4-6.1-5.4s-11.7 19.5-19.1 22.6z"/><path class="st7" d="M243.7 157.8c.3 1 1.1-8.5-5.5-13.2-6.5-4.7-9.1-10.1-9.1-10.1s2.2 8.9 1.1 11.7c-1.1 2.6-19.7 23.2-24.5 25.9-4.9 2.6-21.1 8.7-21.1 8.7s14.1-.7 28.7-10.8c14.6-10.1 20.7-22.2 20.7-22.2s7.6 1.7 9.7 10zm-42.2-32.5s6.4 5.5 7.5 7.2c1.1 1.8 4.6 3.4 6.2 2s9.9-5.9 8.1-10.2c-1.8-4.4-8.4-7.2-9.2-4-.8 3.3-.5 5.3 0 6.6.5 1.3-2 1.9-2 1.9l-10.6-3.5zm35.6-6.4s-2.4-5.7-5.1-3.2c-2.8 2.5-1.1 8.7 0 9.5s2.7 4.4 2.7 4.4 2.9-5.6 2.4-10.7zm-11.8 13.3s4.2-5.6 3.7-7.9c0 0 1.1 4.9 2.8 6.2 1.6 1.3-2.8-.9-2.8-.9l-3.7 2.6z"/><path class="st1" d="M174.3 53.8s30.7 7.3 37.9 11.5c7.2 4.1 17.1 14.5 22.7 19.3 5.6 4.9 7.7 5.1 10 3.1 2.4-2 0-7.3 0-7.3s-17.7-22.3-45.6-31.5c-14.7-3.3-24.1-2.4-25 4.9zm-48 20.7s-28.5-4.7-55.4 25c-9.1 11.2-19.7 10-16.2 16.2 3.5 6.2 24.5 18.8 28.3 23.2 3.8 4.4 15.6 13.3 15.8 11.7.3-1.6 21.5-42.4 21.5-42.4l6-33.7z"/><path class="st2" d="M182 193.3s-2.6 8.2 0 21.2.3 35-.6 38.9 1.6 6.6 1.8 12.5c4.7-16.8 7.1-38.2 3.5-53.2s-4.7-19.4-4.7-19.4zm11.4 13c-.9-.7 5.9 23.8 3.1 36.8 8.4-17.2.1-34.1-3.1-36.8zm5.7-17.6s7.8 15.9 9.3 23 3.8 7.3 3.8 7.3-.8-11.2-3.4-17.9c-2.7-6.9-6-9.2-9.7-12.4zm-51.5 77.4s-27.8-39.7-34.9-59.8c-4.4 18.4-9.3 52.9-8.4 65.2s1.9 15.5 1.9 15.5 2.1-49.6 4.8-57.2c2.6-7.8 33.1 43.6 36.6 36.3zm36 26.4c.7-2.6 2-8.2 2.8-12-3.2 2.8-7 5-7.2 5.1.3-.4 7.9-14.7 9-22.1 1.1 7.6 1.1 23 1.8 28.5-2 .2-4.2.4-6.4.5zm30.8-3.1c-2.7.4-5.6.8-8.4 1.1-.7-5.2-2-16-1.9-19.2 2.4 4.1 7.3 12.7 10.3 18.1zm-3.8-30.5s12.6 7.9 16.2 14.7c0 0-13.1-9-16.2-14.7zm-1.2-31.7s4.2 4.6 3.7 6.2c-.5 1.6-4.4-.9-3.7 1.3s12.4 8.6 13.1 8.5c.7-.1 7.8.4 3.1-5.1s-15.4-15.9-16.2-14.8 0 3.9 0 3.9zm-37.5-19.3s-6.6-8.1-11-13.4-21-6-27.2-9.5-17.2-12.5-19.6-15.7-5.5-9.9-6.6-9.7-8.6-7.4-8.6-7.4 15.4 27.7 24.6 32.8 14.8 3.1 24 8.4c9.2 5.3 11.3 6.1 14.8 10.4 3.7 4.4 8.3 7.2 9.6 4.1zm7.7-114.3s-5.7-2.6-9.1-15c-2.5-6-3.8-9-3.8-9s2.9 11.5 7.7 16.6 5.2 7.4 5.2 7.4zm10.2-4.7s-12.2-4.6-19.3-20.9c7 6.2 7.8 13.7 19.3 20.9z"/><path class="st0" d="M99 152.2s8.7 9.3 11.3 11c2.6 1.8 3.7-6 8.4-6.6 4.7-.6 14.1 7.3 20.6 12.6 6.4 5.3 23 8.6 15.9-1.5s-7.7-23.8-3.5-22.3 4.4 3.8 6.8 2.9 3.5-22.7 6.8-26.5 5.3-10.3 5.3-15.6c0-5.3-6.4-20-18.5-15.9s-16.5 17.7-17.2 20c-.7 2.4-3.7 12.6-3.7 12.6s-.3-11.5-1.1-13.5 5-11.7 4.9-17c-.2-5.3-4-20.3-8.4-17.9s-2 3.8-4.4 7.9-8.2 5.6-8.6 7.9 2.4 2 5.9 2.4c3.5.3 4.4 3.8.3 6.2-4.1 2.4-5.6 2.4-4.7 4.7.9 2.3 2.6.3 2 3.8s-4.7 11.5-6.4 14.7c-2 3.3-12.6 24.2-11.7 30.1zm128.9-57.4s-12.1-19.6-17-20.6c-5-1-15.6-5-14.1 5.2 1.5 10.3 6.2 14.4 12.4 15.3 6 .9 15.4 3.9 18.7.1zm-28.6-45.9s34.2 16.8 45.6 31.5c0 0-11.5-15.3-11.5-19.2 0-3.9.6-7.3-5.6-9.1-6.1-1.7-30.8-7.4-28.5-3.2zM239 175.4h-.2c-1.2.6-19.9 10.4-16.8 21.2 3.2 11.2 17.2 15.1 14 26.2-3.4 12.2-5 20.9-7.2 29.8-1.6 6.2 18.1-12.4 12.4-56.1-1.8-12.8 2.9-20.2-2.2-21.1zm23.4 82.8c12.4-23-11-90.1-11-90.1s-2.6-6-1.9-9.1c.1-.4.2-.8.4-1.1.1-.1.1-.2.2-.3.4-.4 2 1.1 4.4 3.9 9.3 10.9 29.8 40.3 31.3 42.6.1.1.1.2.1.2-.1 16.8-6.4 42.1-32.4 70.2 2.5-4.5 5.5-10 8.9-16.3z"/><path class="st7" d="M151.9 102.2s8.7 5.3 7.8 7.8-8.4 10.2-18.1 7.9c-.2 0-2.4-13.3 10.3-15.7zm51.8-23.7s-2.5 9.4 3.1 11.6 8.4 0 8.4 0-5.3-11-7.5-11.6c-2.3-.6-4 0-4 0z"/><path class="st2" d="M146.5 113.4s7.1-1.1 7.2-6.1c.4-1.9 1.8-1.9 1.9 0 .2 1.9-.6 5.9-2.5 6.9-1.9 1.1-5.8 1.9-6.7 1.4-.8-.5.1-2.2.1-2.2zm60.4-25.2c.1-.2 3.4 1.6 4 0 .5-1.6.4-2.8 1-2 .6.7 1.1 2.4.7 2.7-.4.4-.4.8-1.7.9-1.2 0-4.5-.6-4-1.6z"/><circle class="st8" cx="205.8" cy="82.2" r="1.6"/><circle class="st8" cx="144.9" cy="110.9" r="1.2"/><circle class="st8" cx="150.9" cy="104.3" r="2.4"/><path class="st2" d="M111.3 81.4c2.9-2 4.9-7.6 4.4-7.2s-5.3 1.2-5.3 1.2-5.3 7.2-3.9 24.4c1.5 17 1.8 24.5 1.8 24.5l.1-.1c.1.7 0 1.8-.7 3.2-1.1 2.2-7 13.1-8.1 17.9-1.2 4.9-.7 5.5-.7 5.5s.1 1.7 4.8-10.2c4.7-11.8 6.5-12.5 7.4-15.7.9-3.1.3-5.8.3-5.8-.2-4.4-2.2-15.5-1.9-20.1.2-5.5-1.1-15.6 1.8-17.6z"/></g></svg>