<svg id="Layer_1" xmlns="http://www.w3.org/2000/svg" xmlns:xlink="http://www.w3.org/1999/xlink" viewBox="0 0 452.8 357.7"><style>.st4,.st6,.st8{clip-path:url(#SVGID_4_);fill:#c7a6a3}.st6,.st8{fill:#423435}.st8{fill:#42271e}.st11{clip-path:url(#SVGID_6_);fill:#7c7989}.st16{clip-path:url(#SVGID_8_);fill:#502311}.st17{fill:#7a441f}.st17,.st18,.st21,.st22,.st23{clip-path:url(#SVGID_8_)}.st18{fill:#fff}.st21{fill:#22100a}.st22{fill:#5d5547}.st23{fill:#191c19}.st25{clip-path:url(#SVGID_12_);fill:#96322e}.st26{fill:#713a21}.st26,.st27,.st30,.st31,.st32{clip-path:url(#SVGID_12_)}.st27{fill:#b7856c}.st30{fill:#ffd496}.st31{fill:#ddd5c3}.st32{fill:#996836}.st33{fill:#44351d}.st33,.st34{clip-path:url(#SVGID_12_)}</style><path fill="#ad624b" d="M214.7 277.7l10.3 12-9.6 13.5-14.2-4.6 9.2-17.6 2.7-3.3z"/><defs><path id="SVGID_1_" d="M-34.7 53.2H293v327.7H-34.7z"/></defs><clipPath id="SVGID_2_"><use xlink:href="#SVGID_1_" overflow="visible"/></clipPath><g clip-path="url(#SVGID_2_)"><defs><path id="SVGID_3_" d="M-34.7 53.2H293v327.7H-34.7z"/></defs><clipPath id="SVGID_4_"><use xlink:href="#SVGID_3_" overflow="visible"/></clipPath><path d="M63.2 199.9s-.6 23.5 0 44-7.7 44.1-8.1 55c-.4 10.9 0 32.6 0 32.6h181.5v-83.2s-23.6-36.8-33.2-43.2c-9.6-6.4-98.8 15.3-98.8 15.3l-41.4-20.5z" clip-path="url(#SVGID_4_)" fill="#964e3b"/><path d="M78.9 126.1s16.6-6.5 23.4-8.1c6.8-1.6 13.4-2.7 17.2-5.5 3.8-2.7 13.7-3.8 13.7-3.8s38.2 4.7 47 13.1c8.7 8.5 6.1 12.6 6.1 12.6s-3.1 4.6-1.2 11.2c1.9 6.6 10.4 23.3 14.6 28.4 4.2 5.2 6.9 6 6.9 13.4s-2.6 16.6-3.1 17.8c-.6 1.2-26.5 19.9-26.5 19.9l-30.8 7.1-37.8 3.1-16-4-16.1-12.8-3.9-7.2 6.4-28-6.4-51.7 6.5-5.5z" clip-path="url(#SVGID_4_)" fill="#efcfcb"/><path class="st4" d="M184 158.3s-15-1.5-18.4 1.8c-5.2 5-7.6 7.2-7.6 11.9s7.4 28.5 4.3 36.3c0 0-1.8 3.7-3.2 4.1s-1.1-11.9-1.9-14.7c-.8-2.9-3.5-3.5-4.3-8-.8-4.5-3.7-20.9-2.1-24 1.7-3.1 16-17.6 33.2-7.4m-79.3 75s27.9 1.9 38-3.4c10.1-5.3 26.1-8.9 34.8-11.9 8.7-3 18.8-7.1 21.2-9.3 2.5-2.2 4.8-3.5 4.8-3.5s-4.3 9-7.3 12.5c-2.2 2.7-4.5 5.5-5.5 6.7-.3.4-.5.9-.5 1.4l2.1 36.1s-8.5 28.9-8.6 31.1c-.1 2.2 1.6 10.1 2.8 14.2 1.2 4.1 3.9 7.8 5.3 10.2 1.4 2.4-3.4 1.4-5.3 0-1.8-1.4-4.8.2-7.8-2.3s-9.4-11.5-10.4-7.4-3.2 3 1.2 7.4 6 2.2 7.5 7.1c1.5 4.9 0 9.3 0 9.3h-43.8s-.8-7.6 1.6-12c2.5-4.4 5.2-7.9 3-9-2.2-1.1.3.3-4.6 2-4.9 1.8-7.6 4.5-7.1 1.5s-3 1.9 1.6-5.2 9-16.7 8.2-17.5c-.8-.8-2.7 6-6.3 7.5-3.5 1.5-1.9-1.5 0-7.5s2.7-27.9 2.5-30.9c-.3-3-1.1-8.9-1.1-8.9l-14.2-11.9-12.1-6.3z"/><path d="M158.4 175s-2.2-6.7 0-8.1c2.2-1.4 5.5-6.8 8.8-8 3.3-1.2 10.5-3 16.8-.6 6.3 2.5 7.5 8.5 7.4 10.7-.1 2.3-1.6 9.9-1.6 9.9s-1.7 1.2-2.8 1.8c-1.1.6-3.5.6-5 .6s-12.6 4.6-13.3 3.5c-.7-1.1-3.3-5.9-3.3-5.9l-7-3.9z" clip-path="url(#SVGID_4_)" fill="#5c4f51"/><path class="st4" d="M159 212.4s-13.8 13.3-16.3 13.9c0 0 17.7-5.1 22.7-9.8 5-4.7 20.2-19.2 20.5-22.2.3-3-1.8-10.8-1.8-10.8s4.4 9 8.2 10.8c3.8 1.7 5.3 10.8 5.3 10.8s3.8-9.7 1.2-16.7c-2.6-7-7.8-14.4-7.8-14.4s-1.2 5.1-2.6 6c-1.4.8-8.4 1.5-11 2.4-2.7.9-6.6 1.6-8.2 1.5-1.6-.2-7.3-7.4-10.7-8.9 0 0 4.6 20.2 4.6 25.2-.2 5-.3 8.6-4.1 12.2"/><path class="st4" d="M170.5 214.3s26.6-5.8 27-9.2c0 0-.3-4.7-3.6-6.8-2.3-1.5-5.6-5-5.6-5s-11 18-17.8 21"/><path class="st6" d="M197.5 205.1c.2.9 1-7.9-5.1-12.2s-8.4-9.4-8.4-9.4 2 8.3 1 10.8-18.3 21.5-22.8 24-19.6 8-19.6 8 13.1-.6 26.6-10c13.5-9.4 19.3-20.7 19.3-20.7s7.1 1.8 9 9.5M158.4 175s6 5 7 6.7c1 1.6 4.2 3.2 5.8 1.9 1.5-1.3 9.2-5.4 7.5-9.5-1.6-4.1-7.8-6.7-8.5-3.6-.7 3.1-.5 4.9 0 6.1.5 1.2-1.9 1.8-1.9 1.8l-9.9-3.4zm33-6s-2.2-5.2-4.8-3c-2.6 2.3-1.1 8 0 8.8 1.1.8 2.5 4.1 2.5 4.1s2.8-5.1 2.3-9.9m-10.9 12.4s3.9-5.2 3.5-7.4c0 0 1.1 4.5 2.6 5.8 1.5 1.2-2.6-.8-2.6-.8l-3.5 2.4z"/><path d="M133.1 108.7s28.5 6.8 35.2 10.7c6.6 3.8 15.9 13.4 21.1 17.9 5.2 4.5 7.1 4.7 9.3 2.8 2.2-1.9 0-6.8 0-6.8s-16.4-20.8-42.3-29.2c-13.7-3-22.4-2.2-23.3 4.6m-44.5 19.1s-26.5-4.4-51.3 23.2c-8.5 10.4-18.3 9.3-15 15 3.3 5.7 22.7 17.5 26.2 21.6 3.5 4.2 14.5 12.4 14.7 11 .2-1.4 20-39.3 20-39.3l5.4-31.5z" fill="#864d3a" clip-path="url(#SVGID_4_)"/><path class="st8" d="M140.2 238.2s-2.5 7.6 0 19.7c2.5 12 .3 32.4-.5 36.1-.8 3.7 1.4 6.2 1.7 11.6 4.3-15.6 6.5-35.5 3.2-49.4-3.3-13.9-4.4-18-4.4-18m10.7 12c-.8-.7 5.5 22.1 2.9 34.1 7.7-16 .1-31.6-2.9-34.1m5.3-16.4s7.2 14.7 8.6 21.3c1.4 6.6 3.5 6.8 3.5 6.8s-.8-10.4-3.2-16.7c-2.5-6.2-5.5-8.4-8.9-11.4m-47.8 71.8S82.6 268.7 76 250.1c-4.1 17.1-8.6 49-7.8 60.5s1.8 14.3 1.8 14.3 2-46 4.4-53.1c2.5-7 30.8 40.7 34 33.8m33.1 26s2-7.8 3-12.6c-3 2.7-6.7 4.8-6.7 4.8s7.3-13.5 8.4-20.5c1.3 8.5 1 27.4 2.1 28.3h-6.8zm21.4-.6s-2.3-16.5-2-20.5c3.3 5.6 11.9 21 11.9 21H164l-1.1-.5zm3.9-32.1s11.7 7.4 15.1 13.7c0 0-12.2-8.3-15.1-13.7m-1-29.4s3.9 4.3 3.5 5.7c-.4 1.4-4.1-.8-3.5 1.2.6 2 11.5 7.9 12.1 7.9.6-.1 7.2.3 2.9-4.8-4.3-5.1-14.3-14.7-15-13.7s0 3.7 0 3.7M131 251.7s-6.1-7.6-10.2-12.5-19.5-5.5-25.2-8.8c-5.7-3.3-16-11.7-18.2-14.5-2.3-2.9-5.1-9.2-6.1-9-1 .2-7.9-6.9-7.9-6.9s14.3 25.7 22.9 30.4c8.6 4.7 13.7 2.9 22.3 7.8 8.6 4.9 10.4 5.7 13.7 9.7 3.1 4 7.4 6.7 8.7 3.8m7.1-106.1s-5.3-2.5-8.5-13.9c-2.3-5.5-3.5-8.4-3.5-8.4s2.7 10.7 7.1 15.4c4.3 4.6 4.9 6.9 4.9 6.9m9.5-4.3s-11.3-4.3-18-19.4c6.5 5.7 7.3 12.6 18 19.4"/><path d="M63.2 199.9s8.1 8.6 10.5 10.2c2.5 1.6 3.4-5.6 7.8-6.1s13.1 6.8 19.1 11.7c6 4.9 21.3 7.9 14.7-1.4-6.6-9.3-7.1-22.1-3.3-20.8 3.8 1.4 4.1 3.6 6.3 2.7 2.2-.8 3.3-21 6.3-24.6 3-3.6 4.9-9.6 4.9-14.5s-6-18.6-17.2-14.7c-11.2 3.8-15.3 16.4-16 18.6-.7 2.2-3.4 11.7-3.4 11.7s-.3-10.7-1.1-12.6c-.8-1.9 4.6-10.9 4.5-15.8-.1-4.9-3.7-18.8-7.8-16.7s-1.9 3.5-4.1 7.4c-2.2 3.8-7.6 5.2-7.9 7.4-.3 2.2 2.2 1.9 5.5 2.2 3.3.3 4.1 3.5.3 5.7s-5.2 2.2-4.4 4.4c.8 2.2 2.5.3 1.9 3.5-.5 3.3-4.4 10.7-6 13.7-1.6 3.2-11.4 22.6-10.6 28m119.6-53.2s-11.2-18.2-15.8-19.1c-4.6-.9-14.5-4.7-13.1 4.9 1.4 9.6 5.7 13.4 11.5 14.2s14.4 3.5 17.4 0m-26.4-42.6s31.7 15.6 42.3 29.2c0 0-10.7-14.2-10.7-17.8 0-3.5.5-6.8-5.2-8.5-5.7-1.5-28.6-6.7-26.4-2.9m36.8 117.4h-.1c-1.2.6-18.4 9.7-15.6 19.7 2.9 10.4 16 14 13 24.3-3.2 11.3-4.6 19.4-6.7 27.6-1.4 5.7 16.8-11.5 11.5-52-1.7-11.9 2.7-18.7-2.1-19.6m11.5-6.7s21.7 62.3 10.2 83.6c-11.5 21.3-18.7 33.2-18.7 33.2h40.5v-83.2s-31.1-45.1-33.2-43.2c-2.1 1.8 1.2 9.6 1.2 9.6" fill="#ad624b" clip-path="url(#SVGID_4_)"/><path class="st6" d="M112.3 153.6s8 4.9 7.2 7.2c-.8 2.3-7.8 9.4-16.8 7.4 0-.1-2-12.4 9.6-14.6m48.2-22s-2.3 8.7 2.9 10.8c5.1 2 7.8 0 7.8 0s-4.9-10.3-7-10.8c-2.1-.5-3.7 0-3.7 0"/><path class="st8" d="M107.3 164s6.6-1 6.7-5.7c.4-1.7 1.6-1.8 1.8 0 .2 1.8-.5 5.5-2.3 6.4-1.8 1-5.4 1.8-6.2 1.3-.8-.4 0-2 0-2m56.2-23.5c.1-.2 3.2 1.4 3.7 0s.3-2.6.9-1.9c.5.7 1 2.2.7 2.6-.3.4-.4.7-1.6.8-1.2.1-4.2-.4-3.7-1.5"/><path d="M163.8 135c0 .8-.7 1.5-1.5 1.5s-1.5-.7-1.5-1.5.7-1.5 1.5-1.5c.9.1 1.5.7 1.5 1.5M107 161.6c0 .6-.5 1.1-1.1 1.1-.6 0-1.1-.5-1.1-1.1s.5-1.1 1.1-1.1c.6 0 1.1.5 1.1 1.1m6.7-6c0 1.2-1 2.3-2.3 2.3s-2.3-1-2.3-2.3c0-1.2 1-2.3 2.3-2.3s2.3 1 2.3 2.3" fill="#fdfefe" clip-path="url(#SVGID_4_)"/><path class="st8" d="M74.7 134.3c2.7-1.9 4.6-7.1 4.1-6.7-.5.4-4.9 1.1-4.9 1.1s-4.9 6.7-3.6 22.6C71.7 167.2 72 174 72 174l.1-.1c0 .6 0 1.7-.6 2.9-1 2.1-6.5 12.1-7.6 16.6-1.1 4.5-.7 5.1-.7 5.1s.1 1.5 4.4-9.4c4.4-11 6.1-11.7 6.9-14.5.8-2.9.2-5.4.2-5.4-.1-4.1-2-14.4-1.8-18.7.3-5-.9-14.3 1.8-16.2"/></g><defs><path id="SVGID_5_" d="M14-83.3h515.7v515.7H14z"/></defs><clipPath id="SVGID_6_"><use xlink:href="#SVGID_5_" overflow="visible"/></clipPath><path class="st11" d="M243.8 251.9L205 300v32.4h27.1l16.1-59.4zm34.8 80.5h-34.8l8.5-30.7 14.8-2.8 3.5 14z"/><path clip-path="url(#SVGID_6_)" fill="#482a1f" d="M323.7 310.1l5.2-8.4-22.6-8.7-13-1.6-25.3-3.5-6.8 12.5v17.3l10.8 14.7h98.8l-42.3-19.5z"/><path class="st11" d="M341.8 332.4H300l6.6-15.3 23.9-10.9z"/><g clip-path="url(#SVGID_6_)"><defs><path id="SVGID_7_" d="M14-83.3h515.7v515.7H14z"/></defs><clipPath id="SVGID_8_"><use xlink:href="#SVGID_7_" overflow="visible"/></clipPath><path d="M377.4 267.6s10 13.7 20 24.9 2.8 9.6 20.7 19.6c17.9 10 26 20.3 26 20.3l-77.7-.4 11-64.4zm-133.6-15.7s-22.1 31.5-25 50.2c-2.9 18.7-3.2 30.3-3.2 30.3h-116s14.2-29 28.7-34.2c14.5-5.2 63.5-18 78-25.5 14.5-7.4 37.5-20.8 37.5-20.8m78.9 65.3s-18.4 15.2-20 15.2h-12.2s2.3-9.1 8.4-15.2 21.6-15.4 21.6-15.4l2.2 15.4zm-44.1 15.2s7.7-8.7 5.9-10c-1.8-1.3-3.4 2.3-5.9 0-2.4-2.3-4.7-12.6-1.4-16.4 3.2-3.9 8.1-.3 9.7-4.2 1.6-3.9 4.5-6.1 0-7.6-4.5-1.4-16.2 0-16.2 0l-5.7 7.6 2.1 10s12.3 15.1 11.5 20.6" clip-path="url(#SVGID_8_)" fill="#0f0e11"/><path d="M376 252.6s1.4 19.2 2.9 25.3c1.4 6.1 4 17.7 4.6 26.8.6 9-2.7 7.1-3.8 17.4l-1.1 10.3h-52s-4.8-26.1-20.4-39.4c-15.6-13.2 2.8-20.6 2.8-20.6l38.8-18 28.2-1.8zm-120.9-8.4s-5.6-5.6-14.6 14.2c-9.1 19.8-17.4 46.6-17.8 57.5-.3 11 0 16.5 0 16.5h23.4s22.7-21.3 26.5-27.1c3.9-5.8 7.7-8.4 7.7-8.4l12.9-5.5-5.2-18-32.9-29.2z" fill="#f9f9f9" clip-path="url(#SVGID_8_)"/><path class="st16" d="M388.4 212.1s-9.6 41.3-16.7 47.7c-7.1 6.4-24.4 14.2-33.5 18.7-9.1 4.5-18.1 7.1-18.1 7.1h-16.3L271.6 256l-13.2-17.7v-15.8l46.2-6.8 78.6-14.9 5.2 11.3z"/><path class="st16" d="M352.4 228.9s-11.1 1.6-19.3 4.5c-8.2 2.9-9.2 5.8-16.3 4.5-7.1-1.3-18.5-9-18.5-9l35.3-38.7-2.8-22.1-26.3-21.3-5.8-39.3L316 80.3l42.8-12.9 19.8 12.3 15.4 21.8 3.4 36.8-5.5 54.4-25.5 31.3-14 4.9z"/><path class="st16" d="M424 152s2.8-15.6-4.5-17.1c-7.3-1.5-14.8-1.3-15.3-1.5-.5-.2-11 0-11 0l-1.5 24.7-1.8 24.5 4 4.9 16-7.5 11.3-19 2.8-9z"/><path class="st17" d="M423.8 158.8s1.3 6.8-3.7 16.2c-5 9.3-14.9 14.4-16.7 15.2-1.8.8-4.7-1-4.7-1s-1.9-.8-2.6-2.2c-.6-1.4-.4-4.3-.4-4.3s1.1-1.7 3.7-2.5 4.8-5.1 4.8-5.1 3.6 3.4 5.8 0c2.2-3.4-.6-7.6-.6-7.6l.3-17 2.7-5.1 5.7-1 5.7 14.4z"/><path class="st17" d="M377 96.3s8.8 29.2 10.1 39.5 2.6 28.3-1.3 40.6c-3.9 12.3-7.4 28-14.2 35.8-6.8 7.8-20.1 11.6-19.2 16.8.8 5.2 1.5 9 7.6 5.8s17.4-7.7 21.3-12.9c3.9-5.2 7.7-9.1 7.1-9.7-.6-.6 8.6-22 8.6-22l-3-4.5s-2.4-6.9-1.7-11.6c.6-4.7 5.2-35.7 5.2-35.7l12.6-18.2V93.5L377 96.3zm-38.9 37.1s.6-.7 2.5 4.9c2 5.6 1.6 8.4 5.1 8.4 3.5 0 6.1.2 5.5-3.8-.7-4-3.4-5.4-1.7-9.2 1.7-3.8.3-2.1 2.9-5.8 2.7-3.6 4.2-4.1 2.9-6.6s.5-4.2.5-4.2 7.9-.4 9-1.2c1.1-.8 3.9-2.5 3.9-2.5s-3-2.4-3.9-4.9l-17.8-7s2.2-1.9 1.4-5.2C347.7 93 347 92 347 92s1.4-2.3 1-5.9c-.4-3.6-4.5-8.5-4.5-8.5l-24.9 3-5.9 8.6v14.4l1.4 20.4 12.3-.2 11.7 9.6zm-78.6 31.7l-2.7-4.4-8.5-5.9-4.4 5.1 5.8 33.9 5.5 21.8s.5 9.3 0 13.2 0 15.3 0 15.3 8.3 12.7 16.5 22.7 21.7 24.5 21.7 24.5l13 1.6 13.8-7.4s-8.4 1-11-2.6c-2.6-3.5-3.9-13.9-3.9-13.9l-6.4-10.8-20.1-7s-14.8-3.9-19.2-19.8l5.2 5.4 21.8 2.2 4 6.4s19.4-7 23.5-12.2c4.1-5.2 13.1-14.3 13.1-14.3s10.5-17.2 11.1-18.4c.6-1.2.4-7-4.5-1.8 0 0-6.6 5.7 3.6-8.8 0-2.6 5-5.4 5.2-10.1.2-4.7 6.6-7 1-13.8l-84.1-.9zm31-130.8s17.9-11.5 22.1-12c4.2-.6 18.2-3.2 18.2-3.2l21.6 3 47.4 25 2.3 13.6-7.3 9.4-31.6-11.6-72.7-24.2z"/><path class="st17" d="M312.6 96.3l-13.9 3.5-8.1-1.7-7.1-18.3-9.1-7.3-6.5-5s2.7-9.9 4.6-11.2c2-1.3 22.7-3.9 22.7-3.9s16.7 2.6 24.8 3.9c8.1 1.3 22.4 6.7 22.4 6.7l13.7 4.5 3.9 5-17.6 5.2-18.4 6-11.4 12.6z"/><path class="st16" d="M290.5 34.3s35.6-14.2 51.9-8.6c16.3 5.6 29.6 14.2 35 22.3 5.4 8.2 7.3 12 10.1 13.5s6.4.9 7.3 2.8c.9 1.9 4.5 13.1 4.5 13.1s11.3 24.7 10.6 30.9c-.7 6.2-9.8-5.1-16-7-6.2-1.8-10-2.8-12.9-2.8h-2.8s-6.8-15.4-15-19.3c-8.2-3.9-16.2-9.3-16.2-9.3s-8.1-4-13.9-4.1c-5.8-.1-22.5 2-30.2-1.6-7.7-3.7-13.6-6-20-4.5s-8.3 6.1-8.3 6.1l-5.2 8-12.2 3.5s11.7-26 22.5-34.6l10.8-8.4z"/><path class="st16" d="M343.5 80.3l-6.2 3.4-9.7 4.2s-4.7.2-7.5 10.2-.6 16.7 1.7 19.8c2.4 3.1 2.5 4.6 2.5 4.6l-8.8 3.4s-8.2-3.4-8.6-4.5c-.4-1.1-2.4-18.3-2.4-18.3l1.9-11.1s3.4-9.1 9.5-11.7c6-2.5 11.7-5.1 17.1-4.4 5.5.7 10.5 4.4 10.5 4.4"/><path class="st17" d="M351.2 72.3s-5.8-9-16.1-7.9c-10.3 1.1-15.1.1-24-1.6-8.9-1.7-13.9-7.5-20.6-6.6-6.8.9-16.6 1.9-17.2 4.3s-4.1 3.7 1.3 4.1c5.3.4 17.6-3.3 24.3-.2 6.7 3 7.1 7 18 5.8 11-1.3 17.4-4.9 23.8-1.3 6.4 3.6 7.9 9 9.8 6.2l.7-2.8zm-22 63.4c.1-5.5-1.9-12.4-9.2-15.4-7.3-3-10.7-1.1-11.8-3.1-1.1-2-1.7-3.1 0-8.7s6.9-13.9 2.9-14.8c-4-.9-6.8-1.3-10.4 0-3.7 1.3-5 .1-7.3 1.9-2.2 1.8-14.8 13.9-14.8 13.9l-16 12.3 5.2 12 6.6-3 15.1 3.3 8.6 4.2 10.9-3.6 8.8.9h11.4z"/><path class="st16" d="M252.3 200.7s-4.2-16.1-4.8-21.9c-.6-5.8-1.7-18.4.8-20.8 2.5-2.4 12.7-6.1 12.7-6.1l19.8-14.6s-2-7.4-2.1-6.7c-.1.7-8.4 1.8-9.5 1.1-1.1-.6-3.8-4.1-1.2-8.4 2.6-4.3 11.7-6.1 15.6-12.2 4-6.1 10.2-13 9.8-15.8-.4-2.8 2.5-6.1 1.7-11.8-.9-5.7-4.7-13.7-8.6-16-3.9-2.2-13.9-3.3-13.9-3.3l-13.2 11.5s-1.8-1.6-2.7 3.4c-.9 4.9.5 6.1-1.6 12.7s-8.5 22.9-10.9 33.9c-2.4 11-4.5 19.8-3.4 32.3 1.1 12.5 5.8 39.1 9.3 47.3 3.5 8.2 5 10.3 5 10.3s-2.1-11.8-2.8-14.9m74 9.4s-23.8 24.5-27.5 26.4c-3.7 1.9-9.1 9.4-16 7.3s-17.9-2.4-18.5-4.9c-.6-2.6-3.6-8.2.4-6.7 4 1.5 2.3 2.4 9.8 3.9 7.5 1.5 9.4 2.4 13.6.2 4.2-2.1 19.6-13.3 23-17.2 3.3-3.9 5.1-6.4 8.9-9 3.9-2.6 8-3.7 6.3 0"/><path class="st18" d="M330.5 180l-20.3 7.5h-37.6l-9.9-11.2v-10l4.4-3.9 39.8-6 19.4 13.2z"/><path d="M330.5 178.2s-2.9-1.3-4-1.9c-1.1-.5-3.3-2.4-4.5-2.3-1.2.1-1.9 0-1.9 0s-.3-3.9-4.5-2.7c0 0-1.8-5.3-7.1-3 0 0-2.8-5.6-7.3-2 0 0-5.4-2.3-8.6-1.9-3.2.4-2.8 4.5-2.8 4.5h-1.3s-1-4-2.3-4.6c-1.3-.6-6.2-1.5-7.6 1.3 0 0-1.3-2.3-3.7-.6 0 0-2-2.2-3.4-.6s-3.2 2.6-3.2 2.6l-1.2-2.7 5.3-5.8 22.2-.5 14.9 1.8 10.5 7.7 10.5 10.7z" clip-path="url(#SVGID_8_)" fill="#db9880"/><path clip-path="url(#SVGID_8_)" fill="#ca7677" d="M318.6 184.7l-36.6 5.5-11.4-3.3V180l4.1-3.7 4-2.3 11.1.9 12.4 1.4 6.7 1.1 5.8 2.6z"/><path class="st21" d="M327.6 101.4s18.5-9.7 37.2 7.1c-.1-.1-22.6-9.3-37.2-7.1m-41.1-5.2s-11.2-10.5-27.1-1.5c.1 0 19.2 1.9 27.1 1.5"/><path class="st22" d="M259.5 94.7l9.3-3.4s1.1 2.6 0 4.2l-9.3-.8zm68.1 6.7s8.6-2.6 10.3-2.7c1.7-.1 0 2.7 0 2.7s-9.2-.3-10.3 0"/><path class="st22" d="M338.7 98.7s-6-.3-11.1 2.7c0 0 8.8-.2 11.1.1 2.3.3 0-2.8 0-2.8"/><path class="st18" d="M337.2 99.7c0 .9.8 1.7 1.7 1.7.9 0 1.7-.8 1.7-1.7 0-.9-.8-1.7-1.7-1.7-.9 0-1.7.8-1.7 1.7m-68-7.8c0 .9.8 1.7 1.7 1.7.9 0 1.7-.8 1.7-1.7 0-.9-.8-1.7-1.7-1.7-.9 0-1.7.8-1.7 1.7"/><path class="st22" d="M259.5 94.7s6.7-3.7 9.9-3.5c0 0 1.6 3.2-.4 4.3l-9.5-.8z"/><path class="st21" d="M326.3 98.7s21.3-18.6 42.2 8.5c2.6 1.2 4.5 2.4 6 1.9 0 0-4.2 3.1-15.8-10.4-2.5-2.4-13.7-12.4-32.4 0m2.9 7.4s18.5 13.5 35.5 9.8c.1 0-18.4 6.3-35.5-9.8"/><path class="st21" d="M364.7 108.4s2 6.2 7.5 5.7 6.3-1.5 6.3-1.5-10.8 4.3-13.8-4.2m-75.1-15s-11.8-17.6-30.1-5.5c0 0 15.1-15.6 30.1 5.5m-8.9 10.1s-20.8 4.1-25.1 4.9c-4.4.9-5.5 2.9-5.5 2.9s22.7-5.5 30.6-7.8m2.9-3.8s-22.1-.7-24.8 0c-2.7.7-3.7 1.7-3.7 1.7s19.2-2.4 28.5-1.7m36.5-1.7s2.7-9.8 9.2-12.1c6.4-2.3 8-2.3 8-2.3s-14.5 4.9-17.2 14.4m-26.6-2.5s-.2-15-10.6-21.5c-.1 0 10.2 12.1 10.6 21.5m1.8 40.2s8-10.5 20.2-4.9 13.3 7.5 9.9 7.5c-3.4 0-17.6-5.2-22.3-3.7-4.7 1.6-9 2.5-7.8 1.1m-7.2-2s-7.6-7.7-10-7.9c-2.4-.2-9.5.8-9 3.9.6 3.1 1.1 5.5 5.3 5.7 4.4.3 12.6.6 13.7-1.7m35.6 47.8L322 180s-2.6 1.7-3 0c0-.5-5.4-.4-5.5-3.7 0 0-5.1 2.6-6.2-2.5 0 0-3.3 1.4-6.6-.4 0 0-9.1.2-10-.8-.9-1-1-3.7-1-3.7h-1.3s.6 3.5 0 3.8c-.6.3-9.4.3-10.3-.2 0 0-2.7.6-3.8.4 0 0-.7 1-2 1.7l-1.3.7c.9-.5.4.6-.6 1.5-1 1-2.5.6-2.5.6s5.1 5.9 6 6.2c.9.2 1.2 0 1.2 0s.3-5.6 2.1-6.7c1.8-1 2.6-.1 7.5.5s11 1.5 16 1.7c4.9.2 5.8-.6 9.2 1.3 3.4 1.9 2.7 2.7 5.2 2.7 2.5-.1 8.6-1.6 8.6-1.6"/><path class="st16" d="M259.5 165.1s-4.5-1.8-1.9-5.9c2.6-4.1 9.2-9.9 9.2-9.9l11.9-6.3s7.9-5.3 9.5-5.5c1.6-.2 7.2-1.7 7.2-1.7l8.4 6 6.2 6.9 9.2 3.4 8.4 5 7.3 7.1 4.8 3.9-2.5 8.3-3.6 1.1-22.5-16.3s-5.3-4.7-10.4-4.1c-5.2.6-20 .2-23.2 0-3.2-.2-11.3 3-12.1 5.4-.8 2.2-5.9 2.6-5.9 2.6"/><path class="st21" d="M320.1 120.3s5.5 3.8 6.3 5.6c.8 1.7 1.2 8.8 1.2 8.8s1.5 2.4 1.7 0c.2-2.4 0-6.6 0-6.6s7.8 5.1 8 5.8c0 0 3.7 1.1-3.6-4.6-7.4-5.8-12-8.7-13.6-9"/><path class="st16" d="M315.1 183s-27 5.9-41.1.6l-6-6.2-1.5-2.4-7.1-10s-.1 21.3 3.2 27.6c3.3 6.3 18 11.6 18 11.6l25.6-3.5 18.7-10.9 8.7-8.6 3.6-5-4.1-1.3c0 .2-7.9 6.4-18 8.1"/><path class="st21" d="M338.7 145.2s14 10.2 11.8 21c-2.2 10.9-12.3 28.4-12.3 28.4s13-16.2 13.6-25.1 3.2-14.1-13.1-24.3"/><path class="st21" d="M357 157s6.8 15-10 36.7c-2.4 3.1-4.9 5.8-4.5 6.9.3 1.1 14.7-13.6 16.6-23.3 1.9-9.5.8-18.2-2.1-20.3m-97.5 74.6s8.6 16.1 38.2 9c10.5-2.4 22.1-13.3 29.4-21.5 0 0 .7 4.3-8.4 12.9-9 8.6-21.9 16.1-30.6 15.7-8.7-.4-20.1-1.5-23.5-5.6-3.4-4.1-5.1-10.5-5.1-10.5m-1.1-94.1s-11.8 7.7-12.2 15.5c-.1-.1-.9-12.8 12.2-15.5m20.3 113.8s20.8 5.2 36.2 0c5.2-1.9 9.4-2.8 12.2-3.6 2.8-.9 2.8 3-4.5 9.7-7.3 6.7-12.7 12-17.4 11.8-4.7-.2-27.3-15.1-26.5-17.9"/><path class="st23" d="M311.1 135.1s3.1 8.6 7.4 11.4c4.3 2.8 9.8 2.7 15.1 8.7 5.3 5.9 9.7 8.2 8.8 12.9-.9 4.7-5.2 8.3-5.2 8.3s-8.4-12-13.5-15.2c-5.2-3.2-11.4-6.4-16.3-8.2-4.9-1.7-9.3 1.9-11.1-2.6s.3-7.1 0-9.2c-.3-2.1.8-4.3-3-2.8s-2.5 4.3-5.2 8.2c-2.7 3.9-5.3 2.4-12.8 3.9-7.5 1.5-10.1 3-12.7 6.7-2.6 3.7-4.4 10.6-7.6 9.3-3.2-1.3-9.2-6.3-6-9.3 3.2-3 7.3-4.3 11.6-7.9 4.3-3.7 16.9-11.5 17.9-12.5l1-.9 6.1-.5 2.4-1.4s.1.8 3.5 0 5.6 0 5.6 0l10.6-.4 3.4 1.5z"/><path class="st21" d="M412.2 145.6c.2-1.1 6-4.9 9.5-.4 3.4 4.5 2.1 17.8 2.1 17.8s-1.2-11-5.6-15.2c-4.3-4.1-6-2.2-6-2.2m-3.8 4.7s3.4.8 4.1 4.8c.6 4 1.5 8.3 0 10.2-1.5 1.9-1.1 3.7-3 1.9-1.9-1.7-2.6-4.2-2.8-8.1-.3-3.8 1.7-8.8 1.7-8.8m-5 16c-.2.8-.9 3.2 0 5.5.9 2.4 1.3 3.4-.4 3-1.7-.4-3.4-.2-2.8-3 .6-2.8 3.2-5.5 3.2-5.5m-7.7 16.3s1 4.9 4.4 6.2l3.4 1.3s-4.3 2.6-6.4 0c-2.1-2.6-3-3.7-3-4.5-.1-.9 1.6-3 1.6-3m-89.4 18.1s-15.7-.3-22.7-1.8-9.1 2.4-14.5-.9c-5.4-3.2-6.5-5.4-6.5-5.4s4.5 10.3 10.3 14.4 11.9 6.4 16.6 4.1c4.8-2.3 14-6.6 16.8-10.4"/><path class="st23" d="M419.3 135.7s-18.4-2.5-21.9 2.6c0 0 9-23.9 6.8-32.2-2.3-8.4-12.9-24.5-12.2-34.5s9.9-18 0-25.1c-10-7.1-44.7-26.1-58.3-25.8-13.6.3-21 1.6-21 1.6s15.1-12.9 50 .6 55.1 44.2 56.7 48.3c1.6 4.2 7.3 16.8 4.6 36.1-2.7 19.4-4.7 28.4-4.7 28.4M288.1 73.5s-.6-4.5-1.6-5.8c-1-1.3-10.7-5.5-13.9-4.8-3.2.6-10.1 4.5-11.9 8.4-1.8 3.9-2.4 6.3-2.4 6.3s5.3-9.2 11.5-9.5 11.8 3.4 12.9 4.3c1.3.8 3.8 2.7 5.4 1.1"/><path class="st16" d="M333.6 181.3s-7.1 7.5-8.7 8.6c-1.5 1.1-1.9-1.3-1.3-2.1.6-.9 3.3-3.7 5.5-5.2 2.3-1.5 4.2-4.1 4.5-1.3"/><path class="st21" d="M333.1 175.1s-21.9-18-26.2-18.7c-4.3-.6-14.5 1.1-17.4 0-2.8-1.1-16.3-2-19.7-.1-3.4 1.9-10.5 8.9-10.5 8.9l7.1 10s2.1-12.5 4.4-13.8c2.3-1.3 9.6-2.6 14.1-1.9 4.5.6 15.3-.2 19.8 1.1s25.6 17 25.6 17l2.8-2.5z"/><path class="st18" d="M283.6 119s11.8-2.6 12.9 0c1.1 2.6 1.3 4.1-1.4 3.2-2.8-.9-8.6-4.7-11.5-3.2"/><path class="st17" d="M312.4 97.3s1.5-8.7 3.5-11.2c1.9-2.5 8.2-6 10.5-7.2 2.3-1.3 6.9-1.8 6.8-2.9-.1-1.1-4-1.6-6.8-.9-2.7.6-13.6 2.6-14.9 5-1.3 2.4-3.3 9-4.6 10.2-1.3 1.2-1.1.9-3.2 2.7-2.1 1.8-2.9 3.4-2.9 5.1s1.8 3.7 4.8 3.5c3-.3 6.8-4.3 6.8-4.3"/><path class="st23" d="M378.6 99.7c.2.8-15.1-19.3-23-19.9-7.9-.6-17.4 1.3-20 1.6-2.6.3-12.8-1.5-8-4.5 4.9-3.1 23.7-6 29.4-3.9 5.6 2.1 17.7 13.8 21.6 26.7"/><path class="st16" d="M362.6 129.2s17.4 12.9 15 39c0-.1 7.8-34.4-15-39"/></g><g><defs><path id="SVGID_9_" d="M-30.6 186.2H180v210.6H-30.6z"/></defs><clipPath id="SVGID_10_"><use xlink:href="#SVGID_9_" overflow="visible"/></clipPath><g clip-path="url(#SVGID_10_)"><defs><path id="SVGID_11_" d="M-30.6 186.2H180v210.6H-30.6z"/></defs><clipPath id="SVGID_12_"><use xlink:href="#SVGID_11_" overflow="visible"/></clipPath><path class="st25" d="M68.5 338.6s1.9.7 2.8-.8c1-1.4.9-4.2.9-4.2l-1.6-.7h-1.4l-1.4 2.3.7 3.4m5.2.5s.9 0 1.3-.4 1 0 1 0l1.4-1.1v-3.2l-1.6-1-2.1 1.2-.4 1.6.4 2.9m8 .2s-1.6.2-2.3-1c-.7-1.2-.7-2.3-.7-2.4 0-.1.4-1.4.4-1.4l.5-.4 1.2 1 .6 1.6.4 1v1.6"/><path class="st26" d="M91.1 336.8s2.8.1 4-.2c1.3-.3 2.1-.3 2.4.2.4.5 2.7 2.6 3.9 2.3 1.2-.2 1.9-.3 1.7-1.1-.2-.8-1.4-1.7-1.1-1.8.3-.2 1 .1 1.8 1.1s1.3 1.9 2.7 1.9c1.3 0 2.7 0 2.9-.5 0-.2.3.5 1.1.4.8-.1 3.8-.3 3.6-.7-.2-.5-4.9-5.2-5-5.2-.1 0-5.4-1.3-5.4-1.3l-3.1-5-.9-2.7-6.4 2-1.7 1.3-1.1 3.6.6 5.7"/><path class="st27" d="M35.4 328.9s-.1 2.2.9 3.2c1 1.1 5.1 1.2 6.3 1.2 1.2 0 3.1-.6 2.9-.8-.2-.2-.5-3.2-.5-3.2l-3.8-2.4c.1 0-4.7.4-5.8 2m31.2 8s1.2 1.7 1.9 1.7 1.2-1 .8-1.6c-.4-.7-.7-.9-.1-1.4s1.2-2 1.2-2 1 .5 1 1.8-.3 1.8 0 2.5 2 1.8 2.3 1.3c.3-.5 1.1-3.2 1.9-4.1 0 0 .8 1.1.8 2.3 0 1.1-.7 1.3.5 1.6s2.6 1.1 2.7-1.2c.1-2.3.4-3 .4-3s1.3 1.6 1.6 2.8c.3 1.1.3 1.8.3 1.8s1.1-.6 1.3-2.3c.2-1.7-2-5.4-2-5.4l-5.8-2.1-6.4-.7-3.2 2-1.1 3.8 1.9 2.2z"/><path d="M117.7 315.4c-4.5 10.3-7.4 16.8-7.4 16.8l-4.5-.8s-2.2-6.8-5-5.5c-.4.2-.8.4-1.3.6-2.9 1.3-7.1 3.3-7.4 5.7-.4 2.8.1 4.1-.9 4.5-1.1.4-7.8-.1-7.8-.1s-3.5-4.3-6.1-4.9c-2.6-.7-8.6-.5-10.5 2.5-.1 1.6.3 2.5-.1 2.7-.2.1-7.7-.6-13.2-1.3-3.3-.4-5.9-.7-6.1-.8-.5-.3-2.9-4.7-5.5-5.7-1.5-.5-2.5-.5-3.7-.4-.9 0-1.9.1-3.1-.1 0 0-13.2-6.6-13.2-29s11.7-27.9 13.2-29.1c1.4-1.2 9.1-12.2 17.1-17.4 2.1-2.3 7.5-5.5 13.6-7.6 4.2-1.4 8.7-2.3 12.6-1.9 1.6.2 3.2.4 4.9.8 8.3 1.7 16.4 5.1 20.4 9 .8 1.2.7 2.5.7 2.5s5.6-4.9 10.8.3c-.3-.1-8.1-3.2-11.1 2.3.5 2.1 5.1-.8 6.3.4s6.1 4.3 7.6 5.5 2.4 2.9 1.6 3c-.8.1-7-2-9.3-1-2.2 1.1-5 2.5-4.6 2.9.4.4 4.7 1.7 5.9 3s6.4 8.4 7.5 12.8c.8 4.4 3.1 20.1-1.4 30.3" clip-path="url(#SVGID_12_)" fill="#ebba7e"/><path d="M76.6 316.9s12.7-4.3 15.8-3.7c3.1.7 16.7 6.4 20.6-3.5 3.9-9.9 6.7-17.6-5.3-28.6-4.5-5.1-6.1-7-7.4-11.3S92 253 90.4 251.2c-1.6-1.7-5.9-3.6-7.1 3.6-1.2 7.1 1.6 17 .7 20.4-.9 3.4-4.1 9.6-9.7 10.5s-17.9-3.2-21.1 1.8c-3.2 5-3.2 17.1 3.4 22.8 6.7 5.8 17.1 7.5 20 6.6" clip-path="url(#SVGID_12_)" fill="#eee8d8"/><path class="st27" d="M91.4 309.1s3.2.6 3.9 0c0 0 1.8 1.4 3 .1 1.2-1.3 1.6-2.7 1.8-4.7.1-2 0-1.6 0-1.6s2.8-1.4 3.1-4.3c.3-2.8-2.8-2.6-4.1-2.6s-5.2-1.5-6.2-1.1c-1 .5-1.6 1.8-1.6 2.4 0 .6-.2 3.9 1 5 .7.9.4 3.2-.1 4.3-.3 1.1-1.5 1.6-.8 2.5m-2.4 1.1s3 2 6.9 0l-.7-.5s-4.8 1.1-6.2.5"/><path class="st25" d="M95.9 300.9s-.9-1.1-1.8-1.3c-.9-.3-1.7-1.1-1.7-1.1s1.9 2.3 3.1 2.4m4.9 0s.7-.9 1.4-1.2c0 0 .1.7-1.4 1.2m-38.9-49s-6.3-2.6-8.5 1c-2.2 3.5-1.4 4.6-2.4 5.3s-4.8 1.9-5.4 2.9c-.3.5-.7 1.4-.8 2.9-.1 1.4.1 3.1.2 3.8.2 1.4 5.2 4.8 5.2 4.8l6.2 2.2 7.5-7.3V263s1.4-5.2 1.3-5.6c-.1-.4-3.3-5.5-3.3-5.5"/><path class="st30" d="M84.3 273.1s-1.1-7.7-2.3-7.9c-1.2-.2-3.7-.2-4.6.6-.9.8-2.6.1-2.6.1l-5.9-.8-.9 5.1-.5 2.9s-1.9 4.1-2.7 4.7c-.7.6-2.3 2.2-3.7 2.8-1.4.7-2.4.5-1.9 1.5.5 1.1 1.7 1.3 3.1 1.2 1.4-.1 1.9.1 3.3.7s5.4 1.8 5.4 1.8l9.9-.4 6-8.8-2.6-3.5"/><path class="st31" d="M105.6 318.3c-.1 1-4.3 1.4-6 1.7-1.7.3-2.9 1.6-1.8 3.1 1.1 1.5 1.8 3.5 1.8 3.5s-4.9 2.5-6.5 4c-.2.2-.5.7-.8.9-1.2 1.3-2.1 2.6-3 3.4-1.1 1-3.9-.3-5.4-1.2-1.5-.9-3.9-2.8-4.7-4.2-.8-1.4-3.9-9.4-3.9-9.4s-.4-1.2-.6-2.9c.9 0 1.6-.1 2-.2 0 0 12.7-4.3 15.8-3.7 1.8.4 7 2.4 11.8 2.3.8 1.1 1.4 2.1 1.3 2.7M54 335l-.6.6c-3.3-.4-5.9-.7-6.1-.8-.5-.3-2.9-4.7-5.5-5.7-1.5-.5-2.5-.5-3.7-.4l-2.4-6.1c-6.8-10.7-3.5-36.2-3.5-37.1.1-.9.1-2.9 1.3-2.1-.4 1.6-.9 19.8 1.7 29.7C37.8 323.1 54 335 54 335"/><path class="st30" d="M45.4 268.9s-9.6 15.6-5.4 29.6 4.3 17.6 9.9 24c4.7 3.7 6.1 5.1 7 4.7s-2.1-5.1-2.9-7.2c-.8-2.1.1-2.9 1.7-2.4 1.6.5 4.6-.3 3.2-1.6-1.4-1.3-11.3-3.3-12.4-22.5-.3-10 1.6-20 3.3-21.1l-4.4-3.5zm37.7-20.4c-1.1.7-5.3-2-6.3-2.5-1.1-.5-5 .1-5.7.4-.7.3-5.5-.8-5.5-.8 4.2-1.4 8.7-2.3 12.6-1.9 1.6.2 3.2.4 4.9.8 1.3 1.5 1 3.3 0 4m14.7 15.3s3.2-.6 4 1c.8 1.5 1.3 3.9 1.5 4.6.2.7 1.3 3.2 1.5 3.5.2.3.9 1.4.9 2.7s.3 4-.3 4.3c-.6.3-5.4-4.6-5.4-4.6l-3.3-6.6 1.1-4.9z"/><path class="st32" d="M70 332s.7-3.3 2.8-3.2c2.1.1 6 .1 6.3.5.3.4 2.2 2.8 4.1 3.8 2 1.1 4.4 2.3 5.4 1.8 1-.5 4.3-4.3 4.6-4.7l-1.1 2.1v2.3l.1 1.3s.2 1-3.2.9c-3.4-.1-5.9-.3-5.9-.3s-3.9-4.7-6.3-5c-2.5-.1-4.5 0-6.8.5m29.6-5.4s.5 2.8.8 3.8c.3 1 2.2 2.4 2.8 2.8.6.5 3.4 2.9 3.4 2.9s2.2.1 2.5.9c0 0 .1-.8-3.6-3.4 0 0 .5-.7 1.3-.3.8.3 5.8 3.2 6.4 4.3l.8.7s-1.1-2.7-2.4-4.3l-1.4-1.6-4.5-.8s-1.7-5.5-4-5.9c-1.3.2-2.1.9-2.1.9"/><path class="st26" d="M114.5 256.1s2.9 1 3.5 4.2-.6 3.9-.6 3.9 2.8-5.8-7.2-8c0 0-3-.5-4-.3.3-.1 2.8-1.5 8.3.2m-53-4.2s-4.1-1.9-6.9-.8c-2.8 1.1-3.1 4.2-3.3 4.7-.2.5-.9 2.3-3 3-2.1.7-5.5 2.5-4.2 6.5.2.9.1 1.9.7 2.9 0 0-1.1-4.6.3-6.6s5-2.2 6.1-4.1c1.1-1.9 1.4-5.2 3.1-5.5 1.7-.4 3.8-1.1 7.2-.1"/><path class="st32" d="M70.3 257.7c-2-1.7-8.4-5.9-8.8-5.8-.4.1 1.6 3.9 1.3 6.2-.1.9-.1 1.8-.2 2.6 0 0-3.7-.3-6.1-.8-2.4-.5-7.3-.6-8-.5-.7.2-2.2.8-2.7 1.3-.5.4 6.6 1.3 7.3 1.9.7.6-1.5 1.1-2.6 1.5-1.1.5-2.3 2-.3 1.8 2-.3 3.7-.7 5.4-.9 1.7-.3 2.6-.3 3.2 0 .6.3.8.9.8.9-.4.8-.7 1.6-1 2.1-.8 1.2-2.8 4.3-4.6 4.6s-3-2.1-4.2 0c0 0 1.1 5.2 4.2 6.9 3 1.7 16.8-2.8 17.1-3.8.3-1.1 1.5-2.8.8-3.7s-1.6.1-1.4-2.5.3-3.3 1.6-3.4c1.4-.1 2.7 0 2.7 0s-2.5-6.7-4.5-8.4m39.2 13.5s5.5-4.6 5.6-4.6-3.9-1.1-5.4-.4c-1.4.6-5 2.8-4.3 3.2.7.3 4.1 1.8 4.1 1.8m-5.2-11.9s3.5.5 4.2.9c.7.4 8.9 4 8.9 4s.3-.3.4-.7c.3-1.5.5-4.7-2.9-6-4.5-1.7-2.6-1.9-8.4-1.6-1.6.3-2.5 2.3-2.5 2.3s-.4.8.3 1.1"/><path class="st31" d="M90.1 296.2c-.6-.3-1.3-.5-1.9-.8-.6-.3-1.3-.5-1.9-.8l-1.9-.7-1.9-.7c-2.6-.9-5.2-1.7-7.8-2.3-2.6-.7-5.3-1.2-8-1.6-2.7-.4-5.4-.7-8.1-1 2.7.1 5.5.3 8.2.7 2.7.4 5.4.9 8 1.6 2.6.7 5.3 1.5 7.8 2.4l1.9.7 1.9.8c.6.3 1.2.6 1.9.8l1.8.9zm-1.3 1.8c-1.1-.9-2.5-1.1-3.8-1.3-.7-.1-1.4-.1-2.1-.2l-2.1-.2c-2.7-.2-5.5-.4-8.2-.4-2.8-.1-5.5-.1-8.3 0-2.8.1-5.5.3-8.3.5 2.7-.4 5.5-.6 8.2-.8 2.8-.1 5.5-.2 8.3-.1 2.8.1 5.5.2 8.3.5l2.1.2 2.1.3c1.3.2 2.8.5 3.8 1.5zm-1.3 2.5c-1.7-.3-3.4-.2-5 .1-.8.2-1.6.4-2.4.7l-2.4.9c-1.5.7-3.1 1.5-4.6 2.2-1.5.7-3.1 1.3-4.8 1.9-3.2 1-6.6 1.8-9.8 2.8-3.2 1-6.4 2.4-9 4.7 2.5-2.3 5.7-3.8 8.9-4.9 3.2-1.1 6.5-1.9 9.8-2.9 1.6-.5 3.2-1.1 4.7-1.8s3.1-1.5 4.6-2.1l2.4-.9c.8-.3 1.6-.5 2.5-.6 1.7-.4 3.5-.5 5.1-.1zm0 2.3c-1.6.8-3.2 1.5-4.7 2.4-.4.2-.8.4-1.1.7l-1.1.7c-.8.4-1.5 1-2.2 1.4-2.9 2-5.6 4.2-8.1 6.7s-4.7 5.2-6.7 8c-1 1.4-2 2.9-2.7 4.5-.8 1.6-1.3 3.3-1.1 5-.2-1.8.3-3.5 1-5.1.7-1.6 1.7-3.1 2.7-4.5 2-2.9 4.2-5.7 6.7-8.1 2.5-2.5 5.2-4.7 8.2-6.7.7-.5 1.5-1 2.2-1.4l1.1-.7 1.2-.6c1.4-.9 3-1.6 4.6-2.3z"/><path class="st31" d="M87.8 304.4c-.6.5-1.3 1.1-1.9 1.6l-1 .8-1 .8c-1.3 1-2.6 2-3.9 3.1-1.2 1.1-2.3 2.4-3.2 3.7-.9 1.4-1.6 2.9-2.1 4.5.4-1.6 1-3.2 1.8-4.6.8-1.4 1.9-2.8 3.2-3.9 1.2-1.1 2.6-2.1 3.9-3.1l1-.7 1-.7c.9-.5 1.6-1 2.2-1.5zm4.4-.5l-1.2 1.2-.6.6c-.2.2-.4.4-.5.6-.7.8-1.3 1.7-1.9 2.7-.6.9-1 1.9-1.3 3-.3 1.1-.3 2.2.1 3.2-.5-1-.5-2.2-.3-3.3.2-1.1.7-2.2 1.3-3.1.6-1 1.3-1.9 2-2.7l.6-.6.6-.6c.3-.4.8-.7 1.2-1zm12.9-13.9c.1-.3.3-.5.4-.8.1-.2.3-.5.4-.7l.5-.7.5-.7c.7-.9 1.5-1.7 2.4-2.4.9-.7 1.9-1.3 2.9-1.8s2.1-.9 3.2-1.1c-1.1.4-2.1.8-3.1 1.3s-1.9 1.1-2.8 1.8c-.9.7-1.7 1.4-2.4 2.3l-.5.6-.5.7c-.2.2-.3.4-.5.7-.1.4-.3.6-.5.8zm2.7 2.3c.5.2 1.1 0 1.5-.2.2-.1.5-.3.7-.4.2-.1.5-.3.7-.4 1-.5 2.1-.7 3.2-.8 1.1-.1 2.2 0 3.3 0 1.1.1 2.2.2 3.3.4-1.1-.1-2.2-.1-3.3-.1-1.1 0-2.2 0-3.3.1-1.1.1-2.2.3-3.1.7-.2.1-.5.2-.7.4-.2.1-.5.3-.7.4-.5.1-1.2.2-1.6-.1zm-1.2 4.2c1-.2 2-.3 3-.3.5 0 1-.1 1.5-.1h1.5c2 0 4.1-.1 6 .6 2 .7 3.5 2.1 4.9 3.5 1.4 1.5 2.6 3.1 4 4.5-1.5-1.3-2.8-2.9-4.2-4.3-1.4-1.4-3-2.7-4.8-3.4-1.9-.7-3.9-.6-5.9-.6h-3c-1 0-2 0-3 .1zm1.8 4.2c1 0 2.1.1 3.1.3l.8.2.7.2c.5.2 1 .4 1.4.6 1.9.9 3.6 2.2 5.1 3.6 1.5 1.5 2.8 3.1 3.9 4.9 1.1 1.7 2.2 3.5 3.2 5.3-1.1-1.7-2.2-3.5-3.4-5.2-1.2-1.7-2.5-3.3-3.9-4.7-1.5-1.4-3.1-2.7-4.9-3.6-.5-.2-.9-.4-1.4-.6l-.7-.3-.7-.2c-1.2-.2-2.2-.4-3.2-.5zm-1.2 4.5c.6.4 1.1.8 1.7 1.2l.8.6.8.6c1.1.8 2.2 1.7 3.3 2.6 1.1.9 1.9 2.1 2.6 3.4.7 1.2 1.1 2.6 1.6 3.9-.6-1.3-1.1-2.6-1.8-3.7-.7-1.2-1.5-2.3-2.6-3.2-1-.9-2.2-1.8-3.2-2.7l-.8-.7-.8-.7c-.5-.4-1.1-.9-1.6-1.3zm-1 2.1c.7.2 1.3.6 1.8 1.1.3.2.5.5.7.8.2.3.4.6.7.9.8 1.2 1.5 2.4 2.2 3.7.6 1.3 1.2 2.6 1.6 4 .4 1.4.7 2.8.7 4.2-.2-1.4-.5-2.8-1-4.1-.5-1.3-1-2.6-1.7-3.9-.6-1.3-1.3-2.5-2.1-3.7l-.6-.9c-.2-.3-.4-.6-.7-.8-.4-.6-1-1-1.6-1.3zm-1.6 2.6c.4.3.7.7 1.1 1.1.2.2.3.4.5.6.2.2.3.4.5.6.6.8 1.1 1.7 1.5 2.6.4.9.6 2 .6 3s-.2 2-.6 2.9c.3-.9.4-1.9.3-2.9-.1-1-.3-1.9-.6-2.8-.4-.9-.8-1.8-1.4-2.6-.1-.2-.3-.4-.4-.6-.1-.2-.3-.4-.4-.6-.5-.5-.8-.9-1.1-1.3z"/><path class="st33" d="M77.5 273.4s-2.4.7-3.3 3.6c0 0-.3-4.3 3.3-3.6"/><path class="st34" d="M74.2 277s.5 3 3.1 2.6 2.2-1.6 2.2-1.6-.7-4.9-2.2-4.5c-1.5.4-2.4.2-3.1 3.5"/><path class="st33" d="M76.1 279.5s2.5.9 3 .7c.5-.2.4-2.1.4-2.1s-1.7 1.9-3.4 1.4"/><path class="st34" d="M103.6 273s.6 3.6.8 3.8c.2.2.7-1 .6-1.6-.2-.8-.7-1.9-1.4-2.2"/><path class="st33" d="M103.6 273s.9.2 1.2 1.6c0 0-.5-.8-1.2-1.6"/><path d="M78.4 274.3c0 .4-.3.7-.7.7-.4 0-.7-.3-.7-.7 0-.4.3-.7.7-.7.4 0 .7.3.7.7m26.1-.7c0 .2-.2.4-.4.4s-.4-.2-.4-.4.2-.4.4-.4.4.2.4.4" fill="#fff" clip-path="url(#SVGID_12_)"/></g></g></svg>