<svg id="Layer_1" xmlns="http://www.w3.org/2000/svg" viewBox="0 0 680.3 340.2"><style>.st0{fill:#7d7a89}.st1{fill:#492b1f}.st2{fill:#0f0e11}.st3{fill:#f9f9fa}.st4{fill:#512412}.st5{fill:#7b441f}.st6{fill:#fff}.st7{fill:#db9981}.st8{fill:#ca7778}.st9{fill:#23110b}.st10{fill:#5e5647}.st11{fill:#191c19}</style><path class="st0" d="M191.1 239.7l34.9 43.1v29.1h-24.3l-14.5-53.3 3.9-18.9zm-31.2 72.2h31.2l-7.6-27.5-13.3-2.5-3.1 12.6-7.2 17.4z"/><path class="st1" d="M175.4 283.2v15.5l-9.8 13.1h-68s-6.7-.7-16-2.1l27.9-12.9 5.5-2.5 4.3-2.5-.7-1.1-3.9-6.4 20.3-7.9 11.7-1.4 22.7-3.1 5.9 10.7.1.6z"/><path class="st0" d="M103 311.9h37.7l-5.9-13.8-21.6-9.8-10.2 23.6z"/><path class="st2" d="M80.5 309.7c-3.5-.5-7.2-1.2-11.1-1.8-14.8-2.5-31.6-6.3-40.3-11.1 1.7-1.1 3.3-2.1 5.2-3.1 16.1-9.1 9.6-7.5 18.6-17.6 9.1-10.1 18-22.4 18-22.4l9.6 56zm231.2-12.8s-34.4 15-60.1 15h-35.2s-.2-10.4-2.9-27.2c-2.4-16-20.6-42.4-22.4-44.9 0 0 0-.1-.1-.1.7.4 21 12.2 33.7 18.7 13 6.7 57 18.3 70.1 22.9 6.2 2.1 12.1 9 16.9 15.6zm-191.4 1.4s16.6 13.7 18.1 13.7h11s-2.1-8.2-7.5-13.7c-5.6-5.5-19.4-13.9-19.4-13.9l-2.2 13.9zm39.6 13.6s-6.9-7.9-5.2-9.1 3.1 2.1 5.2 0 4.2-11.3 1.3-14.8-7.2-.2-8.7-3.7-4.1-5.6 0-6.8c4.1-1.3 14.5 0 14.5 0l5.1 6.8-2 9.1s-11 13.6-10.2 18.5z"/><path class="st3" d="M135 276.6c-3.5 2.9-6.2 6.4-8.7 10.3-1.3 2-2.3 4.1-3.2 6.1s-1.8 3.8-2.4 5.7c-2.9 7.4-3.9 13.3-3.9 13.3H97.6s-6.7-.7-16-2.1c-.4 0-.7-.1-1.1-.1-3.5-.5-7.2-1.2-11.1-1.8-.1-1.3-.4-3-.6-5.2-.9-9.3-3.9-7.5-3.3-15.6.6-8.1 2.9-18.5 4.2-24.1.5-2 .9-5.6 1.3-9.3.7-6.3 1.3-13.1 1.3-13.5l25.4 1.7 34.9 16.2s1.3.5 2.7 1.5c2.2 1.4 5.1 3.9 5.4 7.3.1 2.6-1.3 5.8-5.7 9.6zm46-43.8s5-5.1 13.1 12.7c8.1 17.9 15.6 41.8 16 51.6.4 9.9 0 14.8 0 14.8h-21s-20.4-19.1-23.8-24.3c-3.4-5.2-6.9-7.5-6.9-7.5l-11.6-4.9 4.6-16.2 29.6-26.2z"/><path class="st4" d="M61.2 203.9s8.7 37.1 15 42.9c6.3 5.8 21.9 12.7 30.1 16.8s16.3 6.3 16.3 6.3h14.5l28.8-26.7 11.8-16V213l-41.5-6.1-70.7-13.5c.4.3-4.3 10.5-4.3 10.5z"/><path class="st4" d="M93.5 218.9s10 1.5 17.4 4.1c7.4 2.5 8.2 5.2 14.5 4.1 6.3-1.2 16.6-8.1 16.6-8.1l-31.7-34.8 2.5-19.9 23.6-19.1 5.2-35.3-15.4-24.4-38.3-11.7-17.9 11-13.9 19.6-3.1 33.1 4.9 48.9 22.9 28 12.7 4.5z"/><path class="st4" d="M29.3 149.9s-2.5-14.1 4.1-15.4c6.4-1.4 13.3-1.2 13.8-1.4s9.9 0 9.9 0l1.3 22.3 1.7 22-3.6 4.4-14.4-6.7-10.1-17c-.2-.1-2.7-8.2-2.7-8.2z"/><path class="st5" d="M29.4 156s-1.2 6.2 3.3 14.4c4.5 8.3 13.5 13 15 13.7 1.7.7 4.3-.9 4.3-.9s1.8-.7 2.3-2c.6-1.3.4-3.9.4-3.9s-.9-1.5-3.2-2.3-4.3-4.6-4.3-4.6-3.2 3.1-5.2 0 .5-6.8.5-6.8l-.2-15.3-2.4-4.6-5.1-.9-5.4 13.2z"/><path class="st5" d="M71.5 99.9s-7.9 26.2-9.1 35.4c-1.2 9.2-2.3 25.5 1.2 36.5s6.6 25.1 12.7 32.2c6.2 6.9 18.1 10.4 17.3 15-.7 4.6-1.3 8.1-6.8 5.2s-15.6-6.9-19.1-11.6-6.9-8.1-6.3-8.7c.6-.6-7.7-19.8-7.7-19.8l2.6-4.1s2.1-6.2 1.5-10.4c-.6-4.3-4.6-32.1-4.6-32.1L42 121.2V97.4c-.2 0 29.5 2.5 29.5 2.5zm34.9 33.4s-.5-.6-2.3 4.4-1.4 7.5-4.5 7.5-5.5.2-4.9-3.3c.6-3.6 3.1-4.9 1.5-8.2-1.5-3.3-.2-2-2.6-5.2s-3.7-3.6-2.5-5.9-.5-3.8-.5-3.8-7-.4-8.1-1.1l-3.5-2.3s2.7-2.1 3.5-4.4l16-6.2s-2-1.8-1.3-4.8 1.3-3.9 1.3-3.9-1.3-2.1-.9-5.4c.4-3.2 4.1-7.6 4.1-7.6l22.4 2.6 5.4 7.7v13l-1.3 18.3-11-.1c-.2 0-10.8 8.7-10.8 8.7zm70.6 28.4l2.4-3.9 7.6-5.2 3.9 4.6-5.2 30.5-4.9 19.5s-.5 8.3 0 11.8 0 13.8 0 13.8-7.4 11.4-14.8 20.4c-7.3 9.1-19.4 22-19.4 22l-11.7 1.4-12.4-6.7s7.5.9 9.9-2.3c2.3-3.2 3.5-12.5 3.5-12.5l5.8-9.8 18.1-6.3s13.3-3.5 17.3-17.7l-4.8 4.9-19.5 2-3.6 5.8s-17.4-6.2-21.1-11-11.8-12.9-11.8-12.9-9.4-15.4-10-16.4c-.5-1.1-.4-6.2 4.1-1.7 0 0 5.9 5.1-3.2-7.9 0-2.3-4.5-4.9-4.6-9.1-.1-4.2-6.1-6.2-.9-12.4l75.3-.9zM149.2 44.2s-16.1-10.3-19.9-10.7c-3.8-.5-16.3-2.9-16.3-2.9l-19.5 2.7-42.7 22.4L48.9 68l6.6 8.5 28.4-10.4c0-.1 65.3-21.9 65.3-21.9z"/><path class="st5" d="M129.3 99.9l12.5 3.1 7.3-1.5 6.3-16.4 8.2-6.6 5.9-4.5s-2.4-8.9-4.2-10.1c-1.8-1.2-20.4-3.5-20.4-3.5s-15 2.3-22.3 3.5c-7.2 1.2-20.1 6.1-20.1 6.1l-12.2 4.1-3.5 4.5 15.7 4.6 16.6 5.6 10.2 11.1z"/><path class="st4" d="M149.2 44.2s-31.9-12.7-46.7-7.7c-14.5 5-26.7 12.7-31.3 20-4.9 7.3-6.6 10.7-9.1 12.2-2.5 1.4-5.8.8-6.6 2.5C54.7 73 51.4 83 51.4 83s-10.2 22.2-9.5 27.8c.7 5.6 8.8-4.6 14.4-6.2s9.1-2.5 11.6-2.5h2.5s6.2-13.9 13.5-17.4 14.5-8.3 14.5-8.3 7.3-3.6 12.5-3.7 20.3 1.9 27.2-1.5c6.9-3.2 12.3-5.5 18-4.1 5.8 1.4 7.4 5.6 7.4 5.6l4.6 7.2 11 3.1S168.7 59.6 159 51.9l-9.8-7.7z"/><path class="st4" d="M101.6 85.5l5.6 3.1 8.7 3.7s4.3.1 6.7 9.2.6 15-1.5 17.9-2.3 4.2-2.3 4.2l7.9 3s7.3-3 7.7-4.1c.4-.9 2.1-16.4 2.1-16.4l-1.8-10s-3.1-8.2-8.5-10.5c-5.5-2.3-10.5-4.5-15.4-3.9-4.8.6-9.2 3.8-9.2 3.8z"/><path class="st5" d="M94.7 78.3s5.2-8.1 14.4-7.2c9.3.9 13.6.1 21.6-1.4s12.5-6.7 18.5-5.9c6.1.9 14.9 1.8 15.5 3.8s3.7 3.3-1.2 3.7c-4.8.4-15.7-2.9-21.8-.2-6.1 2.6-6.3 6.3-16.2 5.2-9.9-1.2-15.6-4.4-21.4-1.2-5.8 3.2-7 8.1-8.8 5.6.2.1-.6-2.4-.6-2.4zm19.7 56.9c0-5 1.8-11.1 8.2-13.8 6.6-2.6 9.6-1.1 10.6-2.7.9-1.9 1.5-2.7 0-7.7s-6.2-12.5-2.5-13.3c3.6-.8 6.1-1.2 9.4 0s4.5.1 6.4 1.7c2 1.5 13.3 12.5 13.3 12.5l14.4 11.1-4.6 10.7-6.1-2.6-13.6 3-7.7 3.8-9.8-3.2-7.9.8h-10.3l.2-.3z"/><path class="st4" d="M183.5 193.7s3.7-14.4 4.3-19.7c.6-5.2 1.5-16.6-.7-18.6-2.2-2.1-11.4-5.5-11.4-5.5L158 136.8s1.9-6.6 1.9-6.1c.1.6 7.5 1.7 8.6 1.1 1.1-.6 3.3-3.7 1.1-7.5-2.3-3.8-10.4-5.5-14.1-10.9s-9.2-11.7-8.8-14.3c.4-2.5-2.3-5.5-1.5-10.6.8-5.2 4.2-12.3 7.7-14.4 3.5-2 12.5-3 12.5-3l11.8 10.3s1.7-1.4 2.4 3-.5 5.5 1.5 11.4c2 6 7.6 20.6 9.9 30.5 2.1 9.9 4.1 17.9 3.1 29-.9 11.1-5.2 35-8.3 42.5-3.2 7.3-4.5 9.3-4.5 9.3s1.5-10.7 2.2-13.4zm-66.5 8.4s21.4 22 24.7 23.7c3.2 1.8 8.1 8.5 14.4 6.6 6.2-1.9 16.1-2.1 16.6-4.4.6-2.3 3.2-7.3-.4-6.1-3.6 1.4-2.1 2.1-8.8 3.5s-8.5 2.1-12.3.2c-3.7-2-17.6-11.9-20.6-15.4s-4.5-5.8-8-8.1c-3.5-2.2-7-3.3-5.6 0z"/><path class="st6" d="M113.2 175.2l18.3 6.7 33.7-.1 9-10v-9.1l-3.9-3.5-35.8-5.5-17.4 11.8-3.9 9.7z"/><path class="st7" d="M113.2 173.4s2.5-1.2 3.6-1.7c.9-.5 3-2.2 4.1-2.1 1.1.1 1.8 0 1.8 0s.2-3.5 4.1-2.4c0 0 1.7-4.8 6.3-2.6 0 0 2.5-5.1 6.6-1.9 0 0 4.9-2.1 7.7-1.7 2.9.4 2.5 4.1 2.5 4.1h1.2s.9-3.6 2.1-4.1c1.2-.5 5.6-1.3 6.8 1.2 0 0 1.2-2.1 3.3-.6 0 0 1.9-2 3.1-.5 1.3 1.4 2.9 2.3 2.9 2.3l1.1-2.4-4.8-5.2-19.9-.5-13.5 1.7-9.5 6.8-9.5 9.6z"/><path class="st8" d="M124 179.4l32.8 4.9 10.3-2.9v-6.2l-3.7-3.3-3.6-2.1-10 .8-11.1 1.3-6.1.9-5.2 2.4-3.4 4.2z"/><path class="st9" d="M115.9 104.4s-16.6-8.7-33.4 6.3c0 0 20.3-8.2 33.4-6.3zm36.8-4.6s10.1-9.5 24.3-1.4c0 .1-17.1 1.8-24.3 1.4z"/><path class="st10" d="M177 98.5l-8.3-3s-.9 2.3 0 3.7l8.3-.7zm-61.1 5.9s-7.7-2.3-9.3-2.4c-1.5-.1 0 2.4 0 2.4s8.4-.1 9.3 0z"/><path class="st10" d="M105.9 102s5.5-.2 10 2.4c0 0-7.9-.2-10 .1-2 .3 0-2.5 0-2.5z"/><circle class="st6" cx="105.7" cy="103" r="1.5"/><circle class="st6" cx="166.7" cy="96" r="1.5"/><path class="st10" d="M177 98.5s-6.1-3.2-8.9-3.1c0 0-1.4 2.9.4 3.8l8.5-.7z"/><path class="st9" d="M117 102s-19.1-16.7-38 7.6c-2.3 1.2-4.1 2.2-5.4 1.8 0 0 3.7 2.7 14.2-9.4 2.4-2.1 12.4-11 29.2 0zm-2.6 6.7s-16.6 12.2-31.8 8.8c-.1 0 16.4 5.6 31.8-8.8z"/><path class="st9" d="M82.5 110.7s-1.9 5.6-6.7 5.1-5.7-1.3-5.7-1.3 9.7 3.9 12.4-3.8zm67.4-13.4s10.5-15.7 27.1-5c0 .1-13.5-14-27.1 5zm8 9s18.6 3.7 22.6 4.4c3.9.7 4.9 2.5 4.9 2.5s-20.4-4.7-27.5-6.9zm-2.5-3.3s19.8-.7 22.3 0c2.4.7 3.3 1.7 3.3 1.7s-17.3-2.4-25.6-1.7zm-32.8-1.6s-2.4-8.8-8.2-10.9c-5.8-2.1-7.2-2.1-7.2-2.1s13 4.5 15.4 13zm23.8-2.2s.1-13.6 9.5-19.3c.2 0-9.1 10.8-9.5 19.3zm-1.5 36.1s-7.2-9.5-18.2-4.4c-11 5-11.9 6.7-8.9 6.7 3.1 0 15.9-4.6 20-3.2 4.3 1.2 8 2.1 7.1.9zm6.4-1.8s6.8-6.8 9.1-7c2.2-.2 8.6.7 8 3.6-.6 2.9-.9 5-4.8 5.1-3.8 0-11.2.3-12.3-1.7zm-31.9 42.9l1.5-1.4s2.3 1.5 2.6 0c0-.5 4.9-.4 4.9-3.2 0 0 4.5 2.3 5.6-2.2 0 0 3 1.3 5.9-.4 0 0 8.2.2 9.1-.7.8-.9.9-3.3.9-3.3h1.2s-.5 3.1 0 3.3 8.5.2 9.3-.2c0 0 2.4.6 3.3.4 0 0 .7.9 1.9 1.5s1.2.7 1.2.7c-.8-.5-.4.5.5 1.4.8.9 2.2.6 2.2.6s-4.5 5.4-5.4 5.6c-.8.2-1.1 0-1.1 0s-.2-5.1-1.9-6.1c-1.7-.9-2.3-.1-6.7.5s-10 1.4-14.4 1.5c-4.4.1-5.2-.5-8.2 1.2s-2.4 2.4-4.6 2.4c-2.2-.1-7.8-1.6-7.8-1.6z"/><path class="st4" d="M177 161.7s4.1-1.7 1.8-5.4-8.3-8.9-8.3-8.9l-10.6-5.7s-7-4.8-8.6-4.9c-1.5-.1-6.4-1.5-6.4-1.5l-7.5 5.5-5.6 6.2-8.3 3-7.5 4.5-6.6 6.3-4.4 3.5 2.2 7.4 3.2 1.1 20.3-14.7s4.8-4.3 9.4-3.7c4.6.6 18 .2 20.9 0s10.2 2.6 10.9 4.9c.5 2.1 5.1 2.4 5.1 2.4z"/><path class="st9" d="M122.6 121.5s-4.9 3.5-5.7 5c-.8 1.5-1.2 7.9-1.2 7.9s-1.4 2.2-1.5 0 0-5.9 0-5.9-6.9 4.5-7.2 5.2c0 0-3.3.9 3.2-4.2 6.7-5.2 11-7.8 12.4-8z"/><path class="st4" d="M127.1 177.8s24.3 5.4 36.9.5l5.4-5.6 1.3-2.1 6.3-8.9s.1 19.1-2.9 24.8-16.2 10.4-16.2 10.4l-22.9-3.1-16.8-9.8-7.7-7.7-3.2-4.5 3.7-1.2c-.1.1 7.1 5.7 16.1 7.2z"/><path class="st9" d="M105.9 143.9s-12.5 9.2-10.5 18.8c2 9.8 11 25.6 11 25.6s-11.7-14.7-12.3-22.7-2.9-12.7 11.8-21.7z"/><path class="st9" d="M89.5 154.5s-6.2 13.5 8.9 33c2.2 2.7 4.4 5.2 4.1 6.2-.4 1.1-13.2-12.3-14.9-20.9-1.8-8.6-.6-16.5 1.9-18.3zm87.5 66.8s-7.7 14.4-34.4 8.1c-9.5-2.1-19.8-11.9-26.4-19.3 0 0-.6 3.8 7.5 11.6 8.1 7.7 19.7 14.4 27.5 14.2 7.8-.3 18.1-1.4 21.1-5 3.2-3.7 4.7-9.6 4.7-9.6zm1.1-84.5s10.6 6.9 11 13.9c0 .1.7-11.4-11-13.9zm-18.3 102.4s-18.6 4.6-32.5 0c-4.6-1.8-8.5-2.4-11-3.2s-2.5 2.6 4.1 8.7 11.3 10.7 15.6 10.6c4.2-.4 24.5-13.7 23.8-16.1z"/><path class="st11" d="M130.6 134.7s-2.7 7.6-6.7 10.2c-3.8 2.5-8.8 2.4-13.6 7.7-4.8 5.4-8.7 7.4-7.9 11.6.8 4.2 4.6 7.4 4.6 7.4s7.5-10.7 12.2-13.7c4.6-2.9 10.2-5.8 14.7-7.3 4.4-1.5 8.3 1.8 10-2.3s-.2-6.3 0-8.3-.7-3.8 2.6-2.5c3.3 1.4 2.2 3.8 4.6 7.3 2.3 3.5 4.8 2.1 11.4 3.5 6.7 1.4 9.1 2.6 11.3 6.1 2.3 3.2 3.9 9.5 6.8 8.3s8.2-5.7 5.4-8.3c-2.9-2.6-6.6-3.8-10.4-7.2-3.8-3.4-15.1-10.3-16.1-11.2l-.9-.8-5.5-.5-2.2-1.3s-.1.7-3.2 0-5 0-5 0l-9.5-.4-2.6 1.7z"/><path class="st9" d="M39.8 144.1c-.2-.9-5.5-4.4-8.5-.4-3.1 4.1-2 16-2 16s1.1-10 5.1-13.7c4-3.5 5.4-1.9 5.4-1.9zm3.4 4.3s-3.1.7-3.7 4.3c-.6 3.6-1.4 7.4 0 9.2 1.4 1.8.9 3.2 2.6 1.8 1.8-1.5 2.3-3.8 2.5-7.3.4-3.5-1.4-8-1.4-8zm4.6 14.4c.2.7.8 2.9 0 5s-1.2 3.1.4 2.6c1.5-.5 3.1-.2 2.5-2.6-.6-2.6-2.9-5-2.9-5zm7 14.6s-.9 4.4-3.9 5.6l-3 1.2s3.8 2.3 5.8 0 2.6-3.2 2.6-4.1c-.1-.7-1.5-2.7-1.5-2.7zm80.2 16.3s14.2-.4 20.4-1.7c6.2-1.4 8.1 2.1 13-.8s5.8-4.9 5.8-4.9-4.1 9.3-9.3 13-10.6 5.8-14.9 3.7c-4.3-2-12.5-6-15-9.3z"/><path class="st11" d="M33.4 135.2s16.4-2.3 19.7 2.3c0 0-8.1-21.4-6.1-29 2.1-7.6 11.6-22 11-31-.6-9.1-8.9-16.2 0-22.6s40-23.4 52.3-23.1c12.3.2 18.8 1.4 18.8 1.4s-13.7-11.6-44.9.6-49.5 39.5-51 43.3c-1.5 3.8-6.6 15.1-4.2 32.4 2.7 17.7 4.4 25.7 4.4 25.7zm117.9-55.8s.6-4.1 1.4-5.2c.8-1.2 9.6-4.9 12.5-4.4 2.9.6 9.1 4.1 10.6 7.5s2.1 5.7 2.1 5.7-4.8-8.2-10.4-8.6c-5.7-.2-10.5 3-11.6 3.8-1 .8-3.2 2.7-4.6 1.2z"/><path class="st4" d="M110.4 176.2s6.3 6.7 7.7 7.7c1.4.9 1.8-1.2 1.2-2-.6-.8-3-3.2-5-4.6-1.9-1.3-3.5-3.5-3.9-1.1z"/><path class="st9" d="M110.9 170.7s19.7-16.2 23.5-16.8 13 .9 15.6 0c2.5-.9 14.5-1.9 17.7-.1 3 1.7 9.4 8 9.4 8l-6.3 8.9s-1.9-11.2-3.9-12.4c-2.1-1.2-8.6-2.3-12.6-1.8-4.1.6-13.7-.2-17.7.9-4.1 1.2-22.9 15.3-22.9 15.3l-2.8-2z"/><path class="st6" d="M155.4 120.3s-10.6-2.3-11.6 0c-.9 2.3-1.2 3.7 1.3 2.9 2.4-.8 7.6-4.4 10.3-2.9z"/><path class="st5" d="M129.5 100.8s-1.4-7.9-3.1-10.1c-1.8-2.1-7.4-5.4-9.4-6.4-2-1.1-6.2-1.7-6.2-2.6.1-.9 3.6-1.4 6.2-.8s12.2 2.3 13.5 4.5c1.2 2.2 2.9 8.1 4.1 9.2s1.1.8 2.9 2.4c1.9 1.7 2.5 3.1 2.5 4.5s-1.7 3.3-4.4 3.1c-2.7-.3-6.1-3.8-6.1-3.8z"/><path class="st11" d="M70 103c-.2.7 13.7-17.3 20.7-17.8 7-.6 15.6 1.2 18 1.4 2.3.4 11.6-1.3 7.2-4.1-4.4-2.8-21.3-5.4-26.4-3.5-5.2 1.9-16 12.3-19.5 24z"/><path class="st4" d="M84.3 129.4S68.7 141 70.7 164.3c.3.1-6.7-30.7 13.6-34.9z"/><g><path class="st0" d="M531.3 239.7l34.9 43.1v29.1h-24.3l-14.5-53.3 3.9-18.9zm-31.2 72.2h31.2l-7.6-27.5-13.3-2.5-3.1 12.6-7.2 17.4z"/><path class="st1" d="M515.6 283.2v15.5l-9.8 13.1h-68s-6.7-.7-16-2.1l27.9-12.9 5.5-2.5 4.3-2.5-.7-1.1-3.9-6.4 20.3-7.9 11.7-1.4 22.7-3.1 5.9 10.7.1.6z"/><path class="st0" d="M443.2 311.9h37.7l-5.9-13.8-21.6-9.8-10.2 23.6z"/><path class="st2" d="M420.7 309.7c-3.5-.5-7.2-1.2-11.1-1.8-14.8-2.5-31.6-6.3-40.3-11.1 1.7-1.1 3.3-2 5.2-3.1 16.1-9.1 9.6-7.5 18.6-17.6 9.1-10.1 18-22.4 18-22.4l9.6 56zm231.2-12.8s-34.4 15-60.1 15h-35.2s-.2-10.4-2.9-27.2c-2.4-16-20.6-42.4-22.4-44.9 0 0 0-.1-.1-.1.7.4 21 12.2 33.7 18.7 13 6.7 57 18.3 70.1 22.9 6.2 2.1 12.1 9 16.9 15.6zm-191.4 1.4s16.6 13.7 18.1 13.7h11s-2.1-8.2-7.5-13.7c-5.5-5.5-19.4-13.9-19.4-13.9l-2.2 13.9zm39.6 13.6s-6.9-7.9-5.2-9.1c1.7-1.2 3.1 2 5.2 0 2.1-2.1 4.2-11.3 1.3-14.8s-7.2-.2-8.7-3.7-4.1-5.6 0-6.8c4.1-1.3 14.5 0 14.5 0l5.1 6.8-2 9.1s-11 13.6-10.2 18.5z"/><path class="st3" d="M475.2 276.6c-3.5 2.9-6.2 6.4-8.7 10.3-1.3 2-2.3 4.1-3.2 6.1s-1.8 3.8-2.4 5.7C458 306.1 457 312 457 312h-19.2s-6.7-.7-16-2.1c-.4 0-.7-.1-1.1-.1-3.5-.5-7.2-1.2-11.1-1.8-.1-1.3-.4-3-.6-5.2-.9-9.3-3.9-7.5-3.3-15.6s2.9-18.5 4.2-24.1c.5-2 .9-5.6 1.3-9.3.7-6.4 1.3-13.5 1.3-13.5l25.4 1.7 34.9 16.2c-.1-.2 16.4 6.5 2.4 18.4zm46-43.8s5-5.1 13.1 12.7c8.1 17.9 15.6 41.8 16 51.6.4 9.9 0 14.8 0 14.8h-21s-20.4-19.1-23.8-24.3c-3.5-5.2-6.9-7.5-6.9-7.5l-11.6-4.9 4.6-16.2 29.6-26.2z"/><path class="st4" d="M401.4 203.9s8.7 37.1 15 42.9c6.3 5.8 21.9 12.7 30.1 16.8 8.2 4.1 16.3 6.3 16.3 6.3h14.5l28.8-26.7 11.8-16V213l-41.5-6.1-70.7-13.5c.4.3-4.3 10.5-4.3 10.5z"/><path class="st4" d="M433.7 218.9s10 1.5 17.4 4.1c7.4 2.5 8.2 5.2 14.5 4.1 6.3-1.2 16.6-8.1 16.6-8.1l-31.7-34.8 2.5-19.9 23.6-19.1 5.2-35.3-15.4-24.4-38.5-11.6-17.9 11-13.9 19.5-3.1 33.1 4.9 48.9 22.9 28 12.9 4.5z"/><path class="st4" d="M369.5 149.9s-2.5-14.1 4.1-15.4c6.4-1.4 13.3-1.2 13.8-1.4.5-.2 9.9 0 9.9 0l1.3 22.3 1.7 22-3.6 4.4-14.4-6.7-10.1-17c-.2-.1-2.7-8.2-2.7-8.2z"/><path class="st5" d="M369.6 156s-1.2 6.2 3.3 14.4c4.5 8.3 13.5 13 15 13.7 1.7.7 4.3-.9 4.3-.9s1.8-.7 2.3-2c.6-1.3.4-3.9.4-3.9s-.9-1.5-3.2-2.3c-2.3-.7-4.3-4.6-4.3-4.6s-3.2 3.1-5.2 0 .5-6.8.5-6.8l-.2-15.3-2.4-4.6-5.1-.9-5.4 13.2z"/><path class="st5" d="M411.7 99.9s-7.9 26.2-9.1 35.4c-1.2 9.3-2.3 25.5 1.2 36.5s6.6 25.1 12.7 32.2c6.2 6.9 18.1 10.4 17.3 15-.7 4.6-1.3 8.1-6.8 5.2s-15.6-6.9-19.1-11.6c-3.5-4.6-6.9-8.1-6.3-8.7.6-.6-7.7-19.8-7.7-19.8l2.6-4.1s2.1-6.2 1.5-10.4c-.6-4.3-4.6-32.1-4.6-32.1l-11.2-16.3v-24l29.5 2.7zm34.9 33.4s-.5-.6-2.3 4.4c-1.8 5-1.4 7.5-4.5 7.5s-5.5.2-4.9-3.3c.6-3.6 3.1-4.9 1.5-8.2-1.5-3.3-.2-2-2.6-5.2s-3.7-3.6-2.5-5.9c1.2-2.3-.5-3.8-.5-3.8s-7-.4-8.1-1.1l-3.5-2.3s2.7-2.1 3.5-4.4l16-5.5s-2-2.5-1.3-5.6c.7-3 1.3-3.9 1.3-3.9s-1.3-2.1-.9-5.4c.4-3.3 4.1-7.6 4.1-7.6l22.4 2.6 5.4 7.7v13l-1.3 18.3-11-.1c-.2.1-10.8 8.8-10.8 8.8zm70.6 28.4l2.4-3.9 7.6-5.2 3.9 4.6-5.2 30.5-4.9 19.5s-.5 8.3 0 11.8 0 13.8 0 13.8-7.4 11.4-14.8 20.4c-7.3 9.1-19.4 22-19.4 22l-11.7 1.4-12.4-6.7s7.5.9 9.9-2.3c2.3-3.2 3.5-12.5 3.5-12.5l5.8-9.8L500 239s13.3-3.5 17.3-17.7l-4.8 4.9-19.5 2-3.6 5.8s-17.4-6.2-21.1-11c-3.7-4.8-11.8-12.9-11.8-12.9s-9.4-15.4-10-16.4c-.5-1.1-.4-6.2 4.1-1.7 0 0 5.9 5.1-3.2-7.9 0-2.3-4.5-4.9-4.6-9.1-.1-4.2-6.1-6.2-.9-12.4l75.3-.9zM489.4 44.2s-16.1-10.3-19.9-10.7c-3.8-.5-16.3-2.9-16.3-2.9l-19.5 2.7L391 55.8l-1.9 12.3 6.6 8.5 28.4-10.4 65.3-22z"/><path class="st5" d="M469.5 99.9L482 103l7.3-1.5 6.3-16.4 8.2-6.6 5.9-4.5s-2.4-8.9-4.2-10.1c-1.8-1.2-20.4-3.5-20.4-3.5s-15 2.3-22.3 3.5c-7.2 1.2-20.1 6.1-20.1 6.1l-12.2 4.1-3.5 4.5 15.7 4.6 16.6 5.6 10.2 11.1z"/><path class="st4" d="M489.4 44.2s-31.9-12.7-46.7-7.7c-14.7 5-26.7 12.7-31.3 20-4.9 7.3-6.6 10.7-9.1 12.2-2.5 1.4-5.8.8-6.6 2.5-.8 1.8-4.1 11.8-4.1 11.8s-10.2 22.2-9.5 27.8c.7 5.6 8.8-4.6 14.4-6.2 5.6-1.6 9.1-2.5 11.6-2.5h2.5s6.2-13.9 13.5-17.4c7.3-3.5 14.5-8.3 14.5-8.3s7.3-3.6 12.5-3.7c5.2-.1 20.3 1.9 27.2-1.5 6.9-3.2 12.3-5.5 18-4.1 5.8 1.4 7.4 5.6 7.4 5.6l4.6 7.2 11 3.1s-10.4-23.4-20.1-31.1l-9.8-7.7z"/><path class="st4" d="M441.8 85.5l5.6 3.1 8.7 3.7s4.3.1 6.7 9.2c2.5 9.1.6 15-1.5 17.9-2.1 2.8-2.3 4.2-2.3 4.2l7.9 3s7.3-3 7.7-4.1c.4-.9 2.1-16.4 2.1-16.4l-1.8-10s-3.1-8.2-8.5-10.5c-5.5-2.3-10.5-4.5-15.4-3.9-4.8.6-9.2 3.8-9.2 3.8z"/><path class="st5" d="M434.9 78.3s5.2-8.1 14.4-7.2c9.3.9 13.6.1 21.6-1.4s12.5-6.7 18.5-5.9c6.1.8 14.9 1.8 15.5 3.8.6 2.1 3.7 3.3-1.2 3.7-4.9.4-15.7-2.9-21.8-.2-6.1 2.6-6.3 6.3-16.2 5.2s-15.6-4.4-21.4-1.2c-5.8 3.2-7 8.1-8.8 5.6l-.6-2.4zm19.7 56.9c0-5 1.8-11.1 8.2-13.8 6.6-2.6 9.6-1.1 10.6-2.7.9-1.9 1.5-2.7 0-7.7s-6.2-12.5-2.5-13.3c3.6-.8 6.1-1.2 9.4 0 3.3 1.2 4.5.1 6.4 1.7 2 1.5 13.3 12.5 13.3 12.5l14.4 11.1-4.6 10.7-6.1-2.6-13.6 3-7.7 3.8-9.8-3.2-7.9.8-10.1-.3z"/><path class="st4" d="M523.7 193.7s3.7-14.4 4.3-19.7c.6-5.2 1.5-16.6-.7-18.6s-11.4-5.5-11.4-5.5l-17.7-13.1s1.9-6.6 1.9-6.1c.1.6 7.5 1.7 8.6 1.1s3.3-3.7 1.1-7.5c-2.3-3.8-10.4-5.5-14.1-10.9-3.6-5.5-9.2-11.7-8.8-14.3.4-2.5-2.3-5.5-1.5-10.6.8-5.2 4.2-12.3 7.7-14.4 3.6-2.1 12.5-3 12.5-3l11.8 10.3s1.7-1.4 2.4 3c.8 4.4-.5 5.5 1.5 11.4 1.9 5.9 7.6 20.6 9.9 30.5 2.1 9.9 4.1 17.9 3.1 29-.9 11.2-5.2 35-8.3 42.5-3.2 7.3-4.5 9.3-4.5 9.3s1.5-10.7 2.2-13.4zm-66.5 8.4s21.4 22 24.7 23.7c3.2 1.8 8.1 8.5 14.4 6.6 6.2-1.9 16.1-2 16.6-4.4.6-2.3 3.2-7.3-.4-6.1-3.6 1.4-2.1 2-8.8 3.5-6.7 1.4-8.5 2.1-12.3.2-3.7-2-17.6-11.9-20.6-15.4s-4.5-5.8-8-8.1c-3.5-2.2-7-3.3-5.6 0z"/><path class="st6" d="M453.4 175.2l18.3 6.7 33.7-.1 9-10v-9.1l-3.9-3.5-35.8-5.5-17.4 11.8-3.9 9.7z"/><path class="st7" d="M453.4 173.4s2.5-1.2 3.6-1.7 3-2.2 4.1-2.1 1.8 0 1.8 0 .2-3.5 4.1-2.4c0 0 1.7-4.8 6.3-2.6 0 0 2.5-5.1 6.6-1.9 0 0 4.9-2.1 7.7-1.7 2.9.4 2.5 4.1 2.5 4.1h1.2s.9-3.6 2.1-4.1c1.2-.6 5.6-1.3 6.8 1.2 0 0 1.2-2.1 3.3-.6 0 0 1.9-2 3.1-.5 1.3 1.4 2.9 2.3 2.9 2.3l1.1-2.4-4.8-5.2-19.9-.5-13.5 1.7-9.5 6.8-9.5 9.6z"/><path class="st8" d="M464.2 179.4l32.8 4.9 10.3-2.9v-6.2l-3.7-3.3-3.6-2.1-10 .8-11.1 1.3-6.1.9-5.2 2.4-3.4 4.2z"/><path class="st9" d="M456.1 105.3s-6.2-1.5-15.9 0c-5.1.8-9.6 1.8-17.5 5.7 0-.3 20.3-7.5 33.4-5.7zm36.8-5.5s10.1-9.5 24.3-1.4c0 .1-17.1 1.8-24.3 1.4z"/><path class="st10" d="M517.2 98.5l-8.3-3s-.9 2.3 0 3.7l8.3-.7z"/><circle class="st6" cx="506.9" cy="96" r="1.5"/><path class="st10" d="M517.2 98.5s-6.1-3.2-8.9-3.1c0 0-1.4 2.9.4 3.8l8.5-.7z"/><path class="st9" d="M457.2 102s-19.1-16.7-38 7.6c-2.3 1.2-4.1 2.2-5.4 1.8 0 0 3.7 2.7 14.2-9.4 2.4-2.1 12.4-11 29.2 0zm-2.6 6.7s-16.6 12.2-31.8 8.8c-.1 0 16.4 5.6 31.8-8.8z"/><path class="st9" d="M422.7 110.7s-1.9 5.6-6.7 5.1c-4.9-.5-5.7-1.3-5.7-1.3s9.7 3.9 12.4-3.8zm67.4-13.4s10.5-15.7 27.1-5c0 .1-13.5-14-27.1 5zm8 9s18.6 3.7 22.6 4.4c3.9.8 4.9 2.5 4.9 2.5s-20.4-4.7-27.5-6.9zm-2.5-3.3s19.8-.7 22.3 0 3.3 1.7 3.3 1.7-17.3-2.4-25.6-1.7zm-32.8-1.6s-2.4-8.8-8.2-10.9c-5.8-2.1-7.2-2.1-7.2-2.1s13 4.5 15.4 13zm23.8-2.2s.1-13.6 9.5-19.3c.2 0-9.1 10.8-9.5 19.3zm-1.5 36.1s-7.2-9.5-18.2-4.4c-10.9 5.1-11.9 6.7-8.9 6.7 3.1 0 15.9-4.6 20-3.2 4.3 1.2 8 2.1 7.1.9zm6.4-1.8s6.8-6.8 9.1-7c2.1-.2 8.6.7 8 3.6-.5 2.7-.9 5-4.8 5.1-4 .1-11.2.3-12.3-1.7zm-31.9 42.9l1.5-1.4s2.3 1.5 2.6 0c0-.5 4.9-.4 4.9-3.2 0 0 4.5 2.3 5.6-2.2 0 0 3 1.3 5.9-.4 0 0 8.2.2 9.1-.7.8-.9.9-3.3.9-3.3h1.2s-.5 3.1 0 3.3c.5.2 8.5.2 9.3-.2 0 0 2.4.6 3.3.4 0 0 .7.9 1.9 1.5s1.2.7 1.2.7c-.8-.5-.4.5.5 1.4.8.9 2.2.6 2.2.6s-4.5 5.4-5.4 5.6c-.8.2-1.1 0-1.1 0s-.2-5.1-1.9-6.1c-1.7-.9-2.3-.1-6.7.5s-10 1.4-14.4 1.5-5.2-.5-8.2 1.2-2.4 2.4-4.6 2.4c-2.2-.1-7.8-1.6-7.8-1.6z"/><path class="st4" d="M517.2 161.7s4.1-1.7 1.8-5.4-8.3-8.9-8.3-8.9l-10.6-5.7s-7-4.8-8.6-4.9c-1.4-.2-6.4-1.5-6.4-1.5l-7.5 5.5-5.6 6.2-8.3 3-7.5 4.5-6.6 6.3-4.4 3.5 2.2 7.4 3.2 1.1 20.3-14.7s4.8-4.3 9.4-3.7c4.6.6 18 .2 20.9 0s10.2 2.6 10.9 4.9c.4 2.2 5.1 2.4 5.1 2.4z"/><path class="st9" d="M462.8 121.5s-4.9 3.5-5.7 5c-.7 1.7-1.2 7.9-1.2 7.9s-1.4 2.2-1.5 0c-.1-2.2 0-5.9 0-5.9s-6.9 4.5-7.2 5.2c0 0-3.3.9 3.2-4.2 6.7-5.2 11-7.8 12.4-8z"/><path class="st4" d="M467.3 177.8s24.3 5.4 36.9.5l5.4-5.6 1.3-2.1 6.3-8.9s.1 19.1-2.9 24.8c-3 5.7-16.2 10.4-16.2 10.4l-22.9-3.1-16.8-9.8-7.7-7.7-3.2-4.5 3.7-1.2c-.1.1 7.1 5.7 16.1 7.2z"/><path class="st9" d="M446.1 143.9s-12.5 9.2-10.5 18.8c2 9.8 11 25.6 11 25.6s-11.7-14.7-12.3-22.7c-.6-7.8-2.9-12.7 11.8-21.7z"/><path class="st9" d="M429.7 154.5s-6.2 13.5 8.9 33c2.2 2.7 4.4 5.2 4.1 6.2-.4 1.1-13.2-12.3-14.9-20.9-1.7-8.7-.6-16.5 1.9-18.3zm87.5 66.8s-7.7 14.4-34.4 8.1c-9.5-2-19.8-11.9-26.4-19.3 0 0-.6 3.8 7.5 11.6s19.7 14.4 27.5 14.2c7.9-.4 18.1-1.4 21.1-5 3.2-3.7 4.7-9.6 4.7-9.6zm1.1-84.5s10.6 6.9 11 13.9c0 .1.7-11.4-11-13.9zM500 239.2s-18.6 4.6-32.5 0c-4.6-1.8-8.5-2.4-11-3.2s-2.5 2.6 4.1 8.7 11.3 10.7 15.6 10.6c4.2-.4 24.5-13.7 23.8-16.1z"/><path class="st11" d="M470.8 134.7s-2.7 7.6-6.7 10.2c-3.8 2.5-8.8 2.4-13.6 7.7-4.8 5.4-8.7 7.4-7.9 11.6.8 4.2 4.6 7.4 4.6 7.4s7.5-10.7 12.2-13.7c4.7-2.9 10.2-5.8 14.7-7.3 4.4-1.5 8.3 1.8 10-2.3 1.7-4.1-.2-6.3 0-8.3.2-2-.7-3.8 2.6-2.5 3.3 1.4 2.2 3.8 4.6 7.3 2.3 3.5 4.8 2.1 11.4 3.5 6.7 1.4 9.1 2.6 11.3 6.1 2.3 3.2 3.9 9.5 6.8 8.3 2.9-1.2 8.2-5.7 5.4-8.3-2.9-2.6-6.6-3.8-10.4-7.2-3.8-3.2-15.1-10.3-16.1-11.2-.9-.9-.9-.8-.9-.8l-5.5-.5-2.2-1.3s-.1.7-3.2 0-5 0-5 0l-9.5-.4-2.6 1.7z"/><path class="st9" d="M380 144.1c-.2-.9-5.5-4.4-8.5-.4-3.1 4.1-2 16-2 16s1.1-10 5.1-13.7c4-3.5 5.4-1.9 5.4-1.9zm3.4 4.3s-3.1.7-3.7 4.3c-.6 3.6-1.4 7.4 0 9.2 1.4 1.8.9 3.2 2.6 1.8 1.8-1.5 2.3-3.8 2.5-7.3.4-3.5-1.4-8-1.4-8zm4.6 14.4c.2.7.8 2.9 0 5s-1.2 3.1.4 2.6c1.5-.4 3.1-.2 2.5-2.6-.6-2.6-2.9-5-2.9-5zm7 14.6s-.9 4.4-3.9 5.6l-3 1.2s3.8 2.3 5.8 0 2.6-3.2 2.6-4.1c-.1-.8-1.5-2.7-1.5-2.7zm80.2 16.3s14.2-.4 20.4-1.7c6.2-1.4 8.1 2.1 13-.8 4.9-2.8 5.8-4.9 5.8-4.9s-4.1 9.3-9.3 13c-5.2 3.7-10.6 5.8-14.9 3.7-4.3-2-12.5-6-15-9.3z"/><path class="st11" d="M373.6 135.2s16.4-2.3 19.7 2.3c0 0-8.1-21.4-6.1-29 2.1-7.5 11.6-22 11-31-.6-9.1-8.9-16.2 0-22.6s40-23.4 52.3-23.1c12.3.2 18.8 1.4 18.8 1.4s-13.7-11.6-44.9.6-49.5 39.5-51 43.3-6.6 15.1-4.2 32.4c2.7 17.7 4.4 25.7 4.4 25.7zm117.9-55.8s.6-4.1 1.4-5.2c.8-1.2 9.6-4.9 12.5-4.4 2.9.6 9.1 4.1 10.6 7.5 1.6 3.4 2.1 5.7 2.1 5.7s-4.8-8.2-10.4-8.6c-5.7-.2-10.5 3-11.6 3.8-1 .8-3.2 2.7-4.6 1.2z"/><path class="st4" d="M450.6 176.2s6.3 6.7 7.7 7.7c1.4.9 1.8-1.2 1.2-2s-3-3.2-5-4.6-3.5-3.5-3.9-1.1z"/><path class="st9" d="M451.1 170.7s19.7-16.2 23.5-16.8c3.8-.6 13 .9 15.6 0 2.5-.9 14.5-1.9 17.7-.1 3 1.7 9.4 8 9.4 8l-6.3 8.9s-1.9-11.2-3.9-12.4c-2.1-1.2-8.6-2.3-12.6-1.8-4.1.6-13.7-.2-17.7.9-4.1 1.2-22.9 15.3-22.9 15.3l-2.8-2z"/><path class="st6" d="M495.6 120.3s-10.6-2.3-11.6 0c-.9 2.3-1.2 3.7 1.3 2.9 2.4-.9 7.6-4.4 10.3-2.9z"/><path class="st5" d="M469.7 100.8s-1.4-7.9-3.1-10.1c-1.8-2.2-7.4-5.4-9.4-6.4-2-1.2-6.2-1.7-6.2-2.6.1-.9 3.6-1.4 6.2-.8 2.5.6 12.2 2.3 13.5 4.5 1.2 2.2 2.9 8.1 4.1 9.2 1.2 1.1 1.1.8 2.9 2.4 1.8 1.6 2.5 3.1 2.5 4.5 0 1.5-1.7 3.3-4.4 3.1-2.7-.3-6.1-3.8-6.1-3.8z"/><path class="st11" d="M410.2 103c-.2.7 13.7-17.3 20.7-17.9s15.6 1.2 18 1.4c2.3.2 11.6-1.3 7.2-4.1-4.4-2.7-21.3-5.4-26.4-3.5-5.2 2-16 12.4-19.5 24.1z"/><path class="st4" d="M424.5 129.4s-15.6 11.6-13.6 34.9c.3.1-6.7-30.7 13.6-34.9z"/></g></svg>