<?xml version="1.0" encoding="utf-8"?>
<!-- Generator: Adobe Illustrator 22.0.1, SVG Export Plug-In . SVG Version: 6.00 Build 0)  -->
<svg version="1.1" id="Layer_1" xmlns="http://www.w3.org/2000/svg" xmlns:xlink="http://www.w3.org/1999/xlink" x="0px" y="0px"
	 viewBox="0 0 680.3 340.2" style="enable-background:new 0 0 680.3 340.2;" xml:space="preserve">
<style type="text/css">
	.st0{fill:#826869;}
	.st1{fill:#FBCFD3;}
	.st2{fill:#C59B9C;}
	.st3{fill:#ECBABC;}
	.st4{fill:#F2737F;}
	.st5{fill:#423536;}
</style>
<path class="st0" d="M294.2,522.4l-0.1,0.1L294.2,522.4z"/>
<path class="st1" d="M295.3,123.5c0,3.2-0.1,5.9-0.2,8.3l-8.6,2.9l-1.9-4.3l-0.5-1.1l-0.6-1.4l-0.1-0.4l-3.7-8.2l4.2-15.6
	l-10.8-11.6l-1.9-14.6l11.3-15.8c1.7,2.8,3.1,6.1,4.3,10.4c3.7,12.5,6,17.1,7.3,28.2c0.4,3.4,0.7,7.2,1.1,12
	c0.1,1.7,0.1,3.4,0.2,4.8L295.3,123.5L295.3,123.5z"/>
<path class="st2" d="M213.3,244.8l-4.8,39.2l-8.9,32c-2.6-0.6-5.2-1.3-7-2.3c-0.8-0.5-1.6-1-2-1.6c0.4-6.6,0.7-17.5,0.1-21.8
	c-1-6.4,4.6-12,4.6-25.8c0-13.8-9.1-23-9.1-23l6.2-10.1L213.3,244.8L213.3,244.8z"/>
<path class="st3" d="M284.2,138.1l-0.5,49.2l-10.8,8.4l-3.2,8.4c0,0-10.2,25.2-13.3,32.7c-3.1,7.6-23.1,55.1-23.9,57.2
	c-0.6,1.6-3,12.1-3.8,19.2c-1.4,1.8-5.8,4.3-7.2,4.3h-4.2c-4.4,0-11.7-0.4-17.7-1.6c-2.6-0.6-5.2-1.3-7-2.3
	c0.5-6.7,1.6-20.1,2.6-24.9c1.6-6.4,14.3-15.2,12.7-33.9l-17.7-15.6c-0.7-0.1-2.2,1-4.2,2.4c-2.4,1.7-5.6,4-9.2,4.9
	c-6.5,1.9-10.7,0-10.7,0l21.7-32.1l15.2-45l10.3-31.3l29.1,10.8L284.2,138.1L284.2,138.1z"/>
<path class="st0" d="M295,150.6c-0.7-7.8-0.2-12.3,0.1-18.7c0.1-2.4,0.2-5,0.2-8.3v-0.1c0-1.9,0-4.2-0.1-6.7
	c-0.1-1.4-0.1-3.1-0.2-4.8c-0.4-4.8-0.7-8.6-1.1-12c0,0.4,0,9-0.7,13.8s-3.8,10.2-4.1,10.5h0.2c-0.1,0.1-0.2,0.1-0.2,0.1l-4.6,6
	l-3.8,4.9c-0.1,0-0.1,0.1-0.1,0.1l-0.2,0.2l-0.4,9.2c-5.4,8.5-14.4,22.3-17.1,24.6c-4,3.4-5.4,9.5-6.5,14.6s-7.6,8.4-4.3,14.7
	c3.2,6.4,6.8,6.4,7.6-2.4c0.7-8.8-0.8-8.4,2.4-14.1c3.4-5.9,7.9-7.9,7.7-4.7c0,0-0.8,18.3-7.6,28.4c-6.7,10.1-13.2,15.2-11.7,19.5
	c1.4,4.4,9.8-11.6,12.6-13.5c2.8-2,10-12.3,10-12.3l10.8-12.3v-0.1c0.5-0.2,4.3-1.8,7.7-6.8C295,175,296.2,164.2,295,150.6
	L295,150.6z"/>
<path class="st2" d="M216.4,231.5c0,0,19.7-13.2,24.2-38.8l4.6-25.7c0,0,38.1-17.1,39.1-28.9l-1.3-28.5l-63.1,40.9
	c0,0,10.2,7.8,8.5,16.4c-1.7,8.6-8.9,12.9-6.2,17s5.6,4.8,9,4.8s5.3-0.4,5.3,3C236.5,195,229.5,218.3,216.4,231.5L216.4,231.5z"/>
<path class="st0" d="M211.4,251.4c0,0,10.3,3.8,9.5,6.6c-0.8,2.8-2.3,6.8-4.8,9.2c-2.4,2.4-4.8,6.4-4.8,6.4s-1.6-7.4,0-9
	c1.6-1.4,0.1-3.5,0-6.2C211.4,255.6,211.4,251.4,211.4,251.4L211.4,251.4z"/>
<path class="st1" d="M283.7,64.4v39.1c0,0-5,8.9-16.7,10.4c-10.9,1.4-42.9-2.6-48.6-1.7c-5.8,1-15.7-1.3-22.5,8.4
	c-7.2,5.4-12.5,4-9.7,10.5c2.8,6.6,8.5,14,12.1,15c-5.8,3.6-6,2-6,2s-7.4-6.8-10.8-6c-3.4,1-17,24-17,26.1c0,2,14.4,11,10.5,15.8
	c-1.4,2.8-5.8,2.2-12.9,0c-7.2-2-10.2,1-8.4,6.6c1.8,5.8,9.6,9,8.2,19.5c-1.4,10.4-2.4,18-2.4,18s-2.2,4.8-7,4.2s-10.8-4.2-10.8-2.2
	c0,2.2,3.8,9.4,2.6,11.7s-3.8,4.4-3.8,4.4s-10.2-13.4-18.9-17s-15.3-5.4-21-3c-5.6,2.4-10.2,6-10.2,6s-3.6-18.3,0-25.2
	c3.6-7,36-60.5,37.2-64.1c1.2-3.6-11-9-11-9s-4.2-5.4-8.3-6.4c-4.1-0.8-6.7-5.6-6.7-5.6s13.4-24.6,39-47.1
	c4.8-3.6,18.9-15.6,24-19.4c5-4,31.8-15.3,36.6-19.2l0.1-0.1c3.5-2.9,7.4-4.8,11.7-5.8c2.4-0.5,28.7,1.2,45.4,12
	c12.3,8.2,19.2,11.6,23.9,19.2L283.7,64.4z"/>
<path class="st4" d="M90.4,232.4c0,0-12.8,6.2-6.4,20.1c6.4,14,30.9,23.1,46.2,18.2c15.2-5,29.7-6.7,7-28.3S111.4,219.4,90.4,232.4
	L90.4,232.4z"/>
<ellipse class="st5" cx="98.7" cy="246.5" rx="5.6" ry="3.4"/>
<path class="st2" d="M284.2,138.1c0,0,4.3-6.1,4.8-10.3s-0.2-10.2-1.2-14.1s-4.1-10.1-4.1-10.1l-7.3,21.6l3.1,8.6l3.2,6.7
	L284.2,138.1L284.2,138.1z"/>
<ellipse class="st5" cx="124.9" cy="251.4" rx="5.4" ry="3.4"/>
<path class="st3" d="M142.4,261.2c0,0-8.5-24.6-22.9-30.5c-14.5-5.9-30.6,3.6-36.6,10.3c0,0,4.2-13.4,25.1-16.8s31.6,17.7,34.4,22.3
	C145.1,251,142.4,261.2,142.4,261.2z"/>
<path class="st4" d="M285,122.9c-1.1,3-1.7,5-2.2,6.5l-0.8,1.3l-0.7,1l-8.4-7.6l10.8-20.5C283.7,103.7,288.1,113.6,285,122.9z"/>
<path class="st4" d="M216.4,134.6c0.4-0.1,10.9,14.9,17.7,17.6c6.8,2.8,16.7,4.4,27.9-2.9c11.3-7.3,16.4-10.3,20.1-19.2
	c3.8-8.9,0.5-20.5,0.5-20.5l0.8-6c0,0-4.8,8.9-17.3,10.4c-12.3,1.7-32.2-2-32.2-2l-10,8.4l-7.8,10.2v4L216.4,134.6L216.4,134.6z
	 M105.8,115.3l-4,6.8c-3.4,1.8-8.3,4-12.9,4.1c-8.4,0.2-15.5-1.6-25.2-12.2s-17.6-29-17-36.6c0.6-7.6-0.5-22.7,0.7-29
	c1.2-6.2,2.2-14.3,2.6-17.3V31c0.1-0.7,0.1-2,0.2-3.5l1.2-4.8l2.2,1.4l0.1-0.4c0.4,0.2,0.7,0.6,1.1,1c1.2,1.2,2.4,2.6,3.1,3.2
	c5.9,4.8,13.9,11.3,15.1,12.2c1.7,1.4,17.4,12.9,22.6,16.7c1.1,0.7,1.7,1.9,1.9,3.2C97.5,60,105.8,115.3,105.8,115.3z"/>
<path class="st2" d="M45.9,55.9c0.6,1.9,12.2,40.4,21.8,45.8c9.8,5.6,19.7,7.9,24.6,6s6.4-7.6,3.2-12s-11.6-5.2-19.2-8.4
	c-6.8-2.9-16.2-18.6-17.7-21.2c-0.1-0.1,0-0.4,0.2-0.4c1.9-0.1,9.4-0.6,16.2,0.2c2,0.2,3.1-2.4,1.4-3.6c-6.8-5-15.6-11.1-18.5-11.4
	c-4.3-0.4-9.6-0.1-10.7,0c-0.1,0-0.2,0.1-0.2,0.2C47,51.1,45.9,55.9,45.9,55.9z M236.1,126.1c0,0-4.6-1.1-7,3.4
	c-2.4,4.4,1.6,8.4,3.5,10.1c2,1.6,22.2-0.1,23.7,0c1.5,0.1,12.8-1.1,13.2-3.4c0.4-2.3-5.6-3.4-9-4.6s-12.7-3.1-10.3-5.8
	s1.8-4.8,0-4.3S238.3,126.1,236.1,126.1L236.1,126.1z M139.2,76.2c-8.8,7.9-16.1,15.9-21.8,23.1l-0.6-2c0,0-12.2-30-19.8-36.6
	S56.3,29.8,51.5,23c9.8,2.6,22.8,15.8,32.7,22.5S126.5,78.3,139.2,76.2z M186.2,131.1c-2.6-6.1,1.8-5.3,8.2-9.4l1.1,22.7
	C192.2,141.6,188.4,136.1,186.2,131.1z M283.7,103.6c-6.6,9.7-13.1,14.7-44.6,11l-10-4.2c6.5,0.1,14.1,0.8,23.1,2.6
	C261.3,113.2,273.1,117,283.7,103.6z"/>
<path class="st3" d="M142.4,261.2l3.7,0.7v-8.3l-3.2-3.5L142.4,261.2z"/>
<path class="st3" d="M142.4,261.2l3.7-7.6l-1.9-5.5l-3.1,3.2L142.4,261.2z"/>
<path class="st2" d="M252,113c-36.1-7.1-51.4,2.2-54.1,4.1l-0.7,0.7c-0.4,0.6-0.7,1.3-1.1,2c-0.2,0.5-0.5,1-1,1.3
	c-6.8,4.8-11.7,3.6-9,10c1.9,4.7,5.3,9.7,8.4,12.6c1.7,1.6,0.8,4.6-1.4,4.8c-0.8,0.1-0.8-0.2-0.8-0.2s-7.4-7-10.8-6s-17,24-17,26.1
	s14.4,11,10.5,15.8c-1.4,2.6-5.8,2.2-12.9,0s-10.2,1-8.4,6.6s9.6,9,8.2,19.4c-1.3,8.9-2.2,15.7-2.4,17.5c0,0.4-0.1,0.7-0.4,1.1
	c-0.7,1.2-2.9,4.1-6.6,3.6c-3.2-0.4-7-2.2-9.1-2.6c0,0-2.4-0.7-2.9-0.1c-2.6,2.5-0.7,13.4-0.1,16.2c0.1,0.4,0.2,0.8,0.5,1.1
	c0.6,0.8,1.9,2.8,2.6,5.3c0.5,1.7-0.2,5.4-1.2,9c-0.6,2.6,2.5,4.4,4.6,2.8c15.2-13.3,52-46.9,54.4-49.5c3-3.4,3.8-17,2.4-21.6
	s-1.4-11.7-1.8-16.8s6.2-16.8,6.2-18.9s-1.8-9.4-5.4-15.6c-3-5.3-3.5-18.1-3.6-21.9c0-0.8,0.4-1.7,1.1-2.2
	c2.6-2.2,11.1-6.4,36.7-3.1c33.3,4.2,39.8-1,46.6-10.8c-10.5,13.4-22.2,9.6-31.2,9.5L252,113L252,113z M127.6,143.1
	c0.8-2.4-4.7-5.8-8.2-7.6l-2.9-1.4c0,0-4.2-5.4-8.3-6.2c-4.1-0.8-6.7-5.8-6.7-5.8s-8.2,22.2-11.4,35S88.8,212,88.8,212l0.4-0.4
	c0.2-1.7,0.6-3.2,1.3-4.4c0.6-1.1,1.8-3.4,3.6-6.2c1.3-2.4,14.4-10,17.3-12.9s3.5-8.4,3.1-12.8c-0.4-4.2,4.8-16.1,5.9-17.1
	C120.3,158.1,127.3,144.3,127.6,143.1z"/>
<path class="st2" d="M120.3,158.1C120.4,158,120.4,158,120.3,158.1z M51.5,22.9c0,0-9.6,46.8,0,68.1s23,33.6,29.1,34.2
	c6,0.6,21-3,21-3s-10,10.3-27.2,3.1c-17.3-7.2-29.1-37.6-29.7-49.9C44.1,63.1,49.7,25.6,51.5,22.9z"/>
<path class="st0" d="M97,60.7l-3.2-2.6l-2.5-2c0,0,9.8,35.5,13.4,53.5c-10.1,10.3-35.1,6.5-37.8,5.9c0.7,0.6,2.5,2.8,6.6,6.8
	c8.9,8.6,28.3,0.5,28.3,0.5l3.8-7.3l11.7-16.1C117.4,99.3,108.2,69.5,97,60.7z"/>
<path class="st0" d="M67.4,115.8h0.3C66.8,115.2,67.4,115.8,67.4,115.8z M116.6,152.1c0,0-12.6,6-15.8,11.3
	c-3.2,5.3-6.6,36.8-6.6,37.5c-1.7,3-3,5.2-3.6,6.2c-0.6,1.2-1.1,2.8-1.3,4.4l-0.4,0.4c0,0-2-42,1.3-54.9c3.4-12.9,11.4-35,11.4-35
	s2.6,4.8,6.7,5.8c3.4,0.7,7,4.7,7.9,5.9c0.2,0.2,0.5,0.5,0.7,0.6c1.2,0.6,1.7,2.2,0.8,3.2c-1.3,1.7-3,3.7-3.4,4.2
	C113.9,142.6,116.6,152.1,116.6,152.1L116.6,152.1z M283.7,103.7c0.2,0.4,0.7,1.8,1.3,4.1C284.7,106.3,284.3,105,283.7,103.7z"/>
<circle class="st5" cx="108.9" cy="144.3" r="2.5"/>
<circle class="st5" cx="179.8" cy="160.6" r="2.6"/>
<path class="st5" d="M177.7,159.1c0,0,9-8.6,11.7-1.1c2.6,7.6,1.2,10,0,11.5c1.3-2.4,5.4-4.1,1.6-11.5
	C187,150.6,180.4,154.5,177.7,159.1z M174.1,167.1c0,0-1.8,4.2,0,5.4C174.1,172.5,173.5,173.1,174.1,167.1z M177.7,149.4
	c0,0,9-6,14.9,2.6C192.5,152.1,189.9,140.1,177.7,149.4z M114.4,139.5c0,0,0.6-14.1-12.6-4.2C101.8,135.3,115.4,119.8,114.4,139.5z
	 M114.5,152.1c0,0-7.8,1.8-13.8,9.6C101.8,160.3,105.6,150,114.5,152.1z"/>
<path class="st4" d="M285,122.9c-1.1,3-1.7,5-2.2,6.5l-1,2.9l-0.6-0.6l-8.4-7.6l10.9-20.5C283.7,103.7,288.1,113.6,285,122.9z"/>
<path class="st2" d="M199.4,117.6l7.6,21.7l3.8,22.4l-2.9,29.9l-2.9,14l-3.5,8.9l-3.8-52.7l1.7-12.1l-4-18.7L199.4,117.6
	L199.4,117.6z"/>
<path class="st0" d="M250.3,155.8C250.3,155.8,250.3,155.8,250.3,155.8c0,0-0.1,0-0.2,0.1c-0.1,0-0.2,0-0.3,0.1c-2,0.6-9.8,3-15.4,2
	c-4.1-0.7-7.5-2.5-9.5-3.8c0,0-0.1,0-0.1-0.1c-0.6-0.4-1.1-0.8-1.7-1.2c0,0,0,0,0,0v0h0c-4.3-3.1-8.3-5.9-9-5.8
	c-1.5,0.3-2.2,6.6-2.8,33.2c-0.6,25.8-9.2,33.7-9.7,34.2c3-3.4,3.8-17,2.4-21.6c-1.4-4.6-1.4-11.7-1.8-16.8
	c-0.4-5.1,6.2-16.8,6.2-18.9c0-2.1-1.8-9.4-5.4-15.6s-3.6-23-3.6-23s4.6-8.4,37.8-4.2c0.7,0.1,1.4,0.1,2,0.2
	c-7.4,0.8-23.5,17.1-21,19.3c21.8,21.8,32.1,20,39.3,17.1c30.3-14.9,29.5-34.9,27.6-43.4C292.5,135,267.9,149.5,250.3,155.8z"/>
<path class="st2" d="M288.9,128.3c0,0-1.8,9.6-6.8,14.7s-3.7-1.8-3.7-1.8L288.9,128.3z"/>
<g>
	<path class="st4" d="M447.9,116l-5.9,5.3c-3.8,0.7-9.1,1.3-13.5,0c-8.1-2.4-14.3-6.2-20.3-19.3c-6-13-8-33-5.1-40
		c2.9-7.1,6.4-21.8,9.5-27.4c3-5.5,6.4-13,7.7-15.7l0-0.1c0.3-0.6,0.7-1.9,1.3-3.3l2.6-4.2l1.7,2l0.2-0.4c0.3,0.3,0.5,0.8,0.7,1.3
		c0.8,1.5,1.5,3.2,2,4c4.2,6.4,9.8,15,10.7,16.2c1.2,1.8,12.7,17.6,16.5,22.8c0.8,1,1,2.3,0.8,3.6C456.7,60.8,447.9,116,447.9,116z"
		/>
	<path class="st2" d="M408.8,41.2c0,2-0.6,42.2,6.9,50.3c7.6,8.3,16.4,13.5,21.6,13.2c5.2-0.3,8.4-5.3,6.7-10.5s-9.5-8.5-15.7-13.8
		c-5.6-4.8-9.8-22.6-10.4-25.6c-0.1-0.1,0.1-0.4,0.3-0.3c1.8,0.5,9.1,2.3,15.4,5.1c1.8,0.8,3.7-1.3,2.4-3
		c-5-6.8-11.5-15.3-14.2-16.5c-4-1.7-9.1-3-10.2-3.2c-0.1,0-0.2,0-0.3,0.1C411.3,37,408.8,41.2,408.8,41.2z"/>
	<path class="st2" d="M491.6,88.8c-10.8,4.9-20.2,10.3-27.8,15.4l0-2.1c0,0-2.5-32.3-7.8-40.9s-29.4-41.8-31.9-49.7
		c8.5,5.5,16.9,22,24.3,31.4S478.8,87,491.6,88.8z"/>
	<path class="st2" d="M448.7,161.2C448.8,161.1,448.8,161.1,448.7,161.2z M424.2,11.5c0,0-23.3,41.7-20.7,64.9
		c2.7,23.2,11.7,39,17.4,41.4c5.5,2.4,20.9,3.5,20.9,3.5s-12.7,6.8-26.9-5.3c-14.3-12.1-16.3-44.7-13.2-56.6S421.6,13.5,424.2,11.5z
		"/>
	<path class="st0" d="M456,61.3l-2.3-3.4l-1.8-2.7c0,0-1.4,36.8-3.5,55c-12.7,6.8-35.4-4.5-37.8-5.8c0.5,0.8,1.5,3.4,4.2,8.5
		c5.9,10.9,26.8,9.1,26.8,9.1l5.8-5.8l16-11.8C463.8,104.2,464,73.1,456,61.3z"/>
</g>
<path class="st1" d="M635.4,123.2c0,3.2-0.1,5.9-0.2,8.3l-8.6,2.9l-1.9-4.3l-0.5-1.1l-0.6-1.4l-0.1-0.4l-3.7-8.2l4.2-15.6
	l-10.8-11.6l-1.9-14.6l11.3-15.8c1.7,2.8,3.1,6.1,4.3,10.4c3.7,12.5,6,17.1,7.3,28.2c0.4,3.4,0.7,7.2,1.1,12
	c0.1,1.7,0.1,3.4,0.2,4.8L635.4,123.2L635.4,123.2z"/>
<path class="st2" d="M553.5,244.5l-4.8,39.2l-8.9,32c-2.6-0.6-5.2-1.3-7-2.3c-0.8-0.5-1.6-1-2-1.6c0.4-6.6,0.7-17.5,0.1-21.8
	c-1-6.4,4.6-12,4.6-25.8c0-13.8-9.1-23-9.1-23l6.2-10.1L553.5,244.5L553.5,244.5z"/>
<path class="st3" d="M624.3,137.8l-0.5,49.2l-10.8,8.4l-3.2,8.4c0,0-10.2,25.2-13.3,32.7c-3.1,7.6-23.1,55.1-23.9,57.2
	c-0.6,1.6-3,12.1-3.8,19.2c-1.4,1.8-5.8,4.3-7.2,4.3h-4.2c-4.4,0-11.7-0.4-17.7-1.6c-2.6-0.6-5.2-1.3-7-2.3
	c0.5-6.7,1.6-20.1,2.6-24.9c1.6-6.4,14.3-15.2,12.7-33.9l-17.7-15.6c-0.7-0.1-2.2,1-4.2,2.4c-2.4,1.7-5.6,4-9.2,4.9
	c-6.5,1.9-10.7,0-10.7,0l21.7-32.1l15.2-45l10.3-31.3l29.1,10.8L624.3,137.8L624.3,137.8z"/>
<path class="st2" d="M556.5,231.2c0,0,19.7-13.2,24.2-38.8l4.6-25.7c0,0,38.1-17.1,39.1-28.9l-1.3-28.5L560,150.2
	c0,0,10.2,7.8,8.5,16.4c-1.7,8.6-8.9,12.9-6.2,17c2.7,4.1,5.6,4.8,9,4.8c3.4,0,5.3-0.4,5.3,3C576.7,194.7,569.7,218,556.5,231.2
	L556.5,231.2z"/>
<path class="st0" d="M551.5,251.1c0,0,10.3,3.8,9.5,6.6c-0.8,2.8-2.3,6.8-4.8,9.2c-2.4,2.4-4.8,6.4-4.8,6.4s-1.6-7.4,0-9
	c1.6-1.4,0.1-3.5,0-6.2C551.5,255.3,551.5,251.1,551.5,251.1L551.5,251.1z"/>
<path class="st1" d="M623.8,64.1v39.1c0,0-5,8.9-16.7,10.4c-10.9,1.4-42.9-2.6-48.6-1.7c-5.8,1-15.7-1.3-22.5,8.4
	c-7.2,5.4-12.5,4-9.7,10.5c2.8,6.6,8.5,14,12.1,15c-5.8,3.6-6,2-6,2s-7.4-6.8-10.8-6c-3.4,1-17,24-17,26.1c0,2,14.4,11,10.5,15.8
	c-1.4,2.8-5.8,2.2-12.9,0c-7.2-2-10.2,1-8.4,6.6c1.8,5.8,9.6,9,8.2,19.5c-1.4,10.4-2.4,18-2.4,18s-2.2,4.8-7,4.2
	c-4.8-0.6-10.8-4.2-10.8-2.2c0,2.2,3.8,9.4,2.6,11.7s-3.8,4.4-3.8,4.4s-10.2-13.4-18.9-17s-15.3-5.4-21-3c-5.6,2.4-10.2,6-10.2,6
	s-3.6-18.3,0-25.2c3.6-7,36-60.5,37.2-64.1c1.2-3.6-11-9-11-9s-4.2-5.4-8.3-6.4c-4.1-0.8-6.7-5.6-6.7-5.6s13.4-24.6,39-47.1
	c4.8-3.6,18.9-15.6,24-19.4c5-4,31.8-15.3,36.6-19.2l0.1-0.1c3.5-2.9,7.4-4.8,11.7-5.8c2.4-0.5,28.7,1.2,45.4,12
	c12.3,8.2,19.2,11.6,23.9,19.2L623.8,64.1z"/>
<path class="st4" d="M430.5,232.1c0,0-12.8,6.2-6.4,20.1c6.4,14,30.9,23.1,46.2,18.2c15.2-5,29.7-6.7,7-28.3
	C454.6,220.5,451.5,219.1,430.5,232.1L430.5,232.1z"/>
<ellipse class="st5" cx="438.8" cy="246.2" rx="5.6" ry="3.4"/>
<path class="st2" d="M624.3,137.8c0,0,4.3-6.1,4.8-10.3s-0.2-10.2-1.2-14.1s-4.1-10.1-4.1-10.1l-7.3,21.6l3.1,8.6l3.2,6.7
	L624.3,137.8L624.3,137.8z"/>
<ellipse class="st5" cx="465" cy="251.1" rx="5.4" ry="3.4"/>
<path class="st3" d="M482.5,260.9c0,0-8.5-24.6-22.9-30.5c-14.5-5.9-30.6,3.6-36.6,10.3c0,0,4.2-13.4,25.1-16.8s31.6,17.7,34.4,22.3
	C485.2,250.7,482.5,260.9,482.5,260.9z"/>
<path class="st4" d="M625.2,122.6c-1.1,3-1.7,5-2.2,6.5l-0.8,1.3l-0.7,1l-8.4-7.6l10.8-20.5C623.8,103.4,628.2,113.3,625.2,122.6z"
	/>
<path class="st4" d="M556.5,134.3c0.4-0.1,10.9,14.9,17.7,17.6c6.8,2.8,16.7,4.4,27.9-2.9c11.3-7.3,16.4-10.3,20.1-19.2
	c3.8-8.9,0.5-20.5,0.5-20.5l0.8-6c0,0-4.8,8.9-17.3,10.4c-12.3,1.7-32.2-2-32.2-2l-10,8.4l-7.8,10.2v4L556.5,134.3L556.5,134.3z"/>
<path class="st2" d="M576.2,125.8c0,0-4.6-1.1-7,3.4c-2.4,4.4,1.6,8.4,3.5,10.1c2,1.6,22.2-0.1,23.7,0s12.8-1.1,13.2-3.4
	c0.4-2.3-5.6-3.4-9-4.6s-12.7-3.1-10.3-5.8c2.4-2.7,1.8-4.8,0-4.3S578.5,125.8,576.2,125.8L576.2,125.8z"/>
<path class="st2" d="M526.3,130.8c-2.6-6.1,1.8-5.3,8.2-9.4l1.1,22.7C532.3,141.3,528.5,135.8,526.3,130.8z"/>
<path class="st2" d="M623.8,103.3c-6.6,9.7-13.1,14.7-44.6,11l-10-4.2c6.5,0.1,14.1,0.8,23.1,2.6
	C601.4,112.9,613.2,116.7,623.8,103.3z"/>
<path class="st3" d="M482.5,260.9l3.7,0.7v-8.3l-3.2-3.5L482.5,260.9z"/>
<path class="st3" d="M482.5,260.9l3.7-7.6l-1.9-5.5l-3.1,3.2L482.5,260.9z"/>
<path class="st2" d="M592.2,112.7c-36.1-7.1-51.4,2.2-54.1,4.1l-0.7,0.7c-0.4,0.6-0.7,1.3-1.1,2c-0.2,0.5-0.5,1-1,1.3
	c-6.8,4.8-11.7,3.6-9,10c1.9,4.7,5.3,9.7,8.4,12.6c1.7,1.6,0.8,4.6-1.4,4.8c-0.8,0.1-0.8-0.2-0.8-0.2s-7.4-7-10.8-6
	c-3.4,1-17,24-17,26.1s14.4,11,10.5,15.8c-1.4,2.6-5.8,2.2-12.9,0c-7.1-2.2-10.2,1-8.4,6.6c1.8,5.6,9.6,9,8.2,19.4
	c-1.3,8.9-2.2,15.7-2.4,17.5c0,0.4-0.1,0.7-0.4,1.1c-0.7,1.2-2.9,4.1-6.6,3.6c-3.2-0.4-7-2.2-9.1-2.6c0,0-2.4-0.7-2.9-0.1
	c-2.6,2.5-0.7,13.4-0.1,16.2c0.1,0.4,0.2,0.8,0.5,1.1c0.6,0.8,1.9,2.8,2.6,5.3c0.5,1.7-0.2,5.4-1.2,9c-0.6,2.6,2.5,4.4,4.6,2.8
	c15.2-13.3,52-46.9,54.4-49.5c3-3.4,3.8-17,2.4-21.6c-1.4-4.6-1.4-11.7-1.8-16.8c-0.4-5.1,6.2-16.8,6.2-18.9s-1.8-9.4-5.4-15.6
	c-3-5.3-3.5-18.1-3.6-21.9c0-0.8,0.4-1.7,1.1-2.2c2.6-2.2,11.1-6.4,36.7-3.1c33.3,4.2,39.8-1,46.6-10.8
	c-10.5,13.4-22.2,9.6-31.2,9.5L592.2,112.7L592.2,112.7z M467.8,142.8c0.8-2.4-4.7-5.8-8.2-7.6l-2.9-1.4c0,0-4.2-5.4-8.3-6.2
	c-4.1-0.8-6.7-5.8-6.7-5.8s-8.2,22.2-11.4,35s-1.3,54.9-1.3,54.9l0.4-0.4c0.2-1.7,0.6-3.2,1.3-4.4c0.6-1.1,1.8-3.4,3.6-6.2
	c1.3-2.4,14.4-10,17.3-12.9c2.9-2.9,3.5-8.4,3.1-12.8c-0.4-4.2,4.8-16.1,5.9-17.1C460.5,157.8,467.5,144,467.8,142.8z"/>
<path class="st0" d="M407.5,115.5h0.3C407,114.9,407.5,115.5,407.5,115.5z M456.8,151.8c0,0-12.6,6-15.8,11.3
	c-3.2,5.3-6.6,36.8-6.6,37.5c-1.7,3-3,5.2-3.6,6.2c-0.6,1.2-1.1,2.8-1.3,4.4l-0.4,0.4c0,0-2-42,1.3-54.9c3.4-12.9,11.4-35,11.4-35
	s2.6,4.8,6.7,5.8c3.4,0.7,7,4.7,7.9,5.9c0.2,0.2,0.5,0.5,0.7,0.6c1.2,0.6,1.7,2.2,0.8,3.2c-1.3,1.7-3,3.7-3.4,4.2
	C454,142.3,456.8,151.8,456.8,151.8L456.8,151.8z M623.8,103.4c0.2,0.4,0.7,1.8,1.3,4.1C624.8,106,624.4,104.7,623.8,103.4z"/>
<circle class="st5" cx="449" cy="144" r="2.5"/>
<circle class="st5" cx="520" cy="160.3" r="2.6"/>
<path class="st5" d="M517.8,158.8c0,0,9-8.6,11.7-1.1c2.6,7.6,1.2,10,0,11.5c1.3-2.4,5.4-4.1,1.6-11.5
	C527.2,150.3,520.5,154.2,517.8,158.8z M514.2,166.8c0,0-1.8,4.2,0,5.4C514.2,172.2,513.7,172.8,514.2,166.8z M517.8,149.1
	c0,0,9-6,14.9,2.6C532.7,151.8,530,139.8,517.8,149.1z M454.5,139.2c0,0,0.6-14.1-12.6-4.2C442,135,455.5,119.5,454.5,139.2z
	 M454.6,151.8c0,0-7.8,1.8-13.8,9.6C442,160,445.8,149.7,454.6,151.8z"/>
<path class="st4" d="M625.2,122.6c-1.1,3-1.7,5-2.2,6.5l-1,2.9l-0.6-0.6l-8.4-7.6l10.9-20.5C623.8,103.4,628.2,113.3,625.2,122.6z"
	/>
<path class="st2" d="M539.5,117.3l7.6,21.7l3.8,22.4l-2.9,29.9l-2.9,14l-3.5,8.9l-3.8-52.7l1.7-12.1l-4-18.7L539.5,117.3
	L539.5,117.3z"/>
<path class="st0" d="M625.2,107.3c1.9,8.5,2.7,28.5-27.6,43.4c-7.2,2.9-17.5,4.7-39.3-17.1c-2.5-2.2,13.6-18.5,21-19.3
	c-0.6-0.1-1.3-0.1-2-0.2c-33.2-4.2-37.8,4.2-37.8,4.2s0,16.8,3.6,23s5.4,13.5,5.4,15.6s-6.6,13.8-6.2,18.9
	c0.4,5.1,0.4,12.2,1.8,16.8c1.4,4.6,0.6,18.2-2.4,21.6c0.5-0.5,9.1-8.4,9.7-34.2c0.6-26.6,1.3-32.9,2.8-33.2s16.5,12,20.1,12.6
	C577.8,160,636.2,147.6,625.2,107.3z"/>
<path class="st0" d="M574.3,159.4c-3.6-0.6-18.6-12.9-20.1-12.6c-7.2-9.2-14.7-28.5-14.7-28.5s4.6-8.4,37.8-4.2
	c0.7,0.1,1.4,0.1,2,0.2c-7.4,0.8-23.5,17.1-21,19.3c21.8,21.8,32.1,20,39.3,17.1c30.3-14.9,29.5-34.9,27.6-43.4
	C636.2,147.6,577.8,160,574.3,159.4z"/>
<path class="st3" d="M611.6,164.6l9.7-16.5c0,0,4.6-9.2,2.2-22.7s-13.8,2-13.8,2"/>
<path class="st3" d="M585.3,166.7l2.5-10.3l19.9-16.4l18.9-22.6c0,0-0.1,10.3-4.3,24.3c-4.2,14-9.4,23-9.4,23l-11.6,6.3L585.3,166.7
	z"/>
<path class="st1" d="M629.9,109.4l-4.1,5.7l-2.3,9l-0.6,10.3v9.2l7-12.8c0,0,2.3-12.8,2.6-13.6C632.7,116.4,629.9,109.4,629.9,109.4
	z"/>
<path class="st2" d="M595.5,154.1c0,0-4.7,2.5-10.1,12.6c-5.4,10-11.7,11.3-11.7,11.3l-2.6-8.2c0,0-1.7-15.3-19.5-23.6
	s13.8-7,13.8-7l15.3,1L595.5,154.1z"/>
<g>
	<path class="st2" d="M626.1,116.5c0,0,2.7-7,2.1-11.2s-2.7-9.8-4.7-13.4s-6.5-8.8-6.5-8.8l-1.7,22.7l5.1,7.6l4.8,5.7L626.1,116.5
		L626.1,116.5z"/>
	<path class="st4" d="M623.1,101.6c-0.3,3.2-0.4,5.3-0.5,6.8l-0.3,3.1l-0.7-0.4l-10-5.3l5.5-22.6C617.1,83.3,623.8,91.8,623.1,101.6
		z"/>
	<g>
		<path class="st2" d="M626.2,116.5c0.2,1.5-0.1,3.2-0.8,5.1c-5.1,12.8-29.9,32.6-29.9,32.6l-12.5-4.4c0,0,0,0,0,0
			c-0.4-0.1-6.7-1.5-15.4-6.2l4.5-4.9l2.7-2.9l4.9-5.3l13.8-15l21.3-23.1l1.7-1.8l1.1-1.2l0.3-0.3l0.6,2.1l3.6,11.9c0,0,0,0,0,0
			l0.5,1.7l0.1,0.4l0.9,3l1.3,4.4l1.1,3.6l0,0L626.2,116.5z"/>
		<path class="st4" d="M559.6,129.9c0.4-0.2,14.2,11.7,21.5,12.7c7.3,1,17.3,0.1,26.3-9.7c9.1-9.9,13.3-14,14.7-23.6
			c1.5-9.6-4.6-20-4.6-20l-0.7-6c0,0-2.4,9.8-14.2,14.4c-11.5,4.7-31.7,6-31.7,6l-7.6,10.6l-5,11.8l1,3.9L559.6,129.9L559.6,129.9z"
			/>
		<path class="st2" d="M576.6,116.8c0,0-4.7,0.1-5.9,5c-1.2,4.9,3.6,7.7,5.9,8.9c2.3,1.1,21.5-5.6,23-5.9c1.5-0.3,12.1-4.2,11.9-6.6
			c-0.2-2.3-6.3-1.9-9.9-2.2c-3.6-0.3-13.1,0.1-11.4-3.1s0.6-5.1-1.1-4.2C587.5,109.7,578.7,116.2,576.6,116.8L576.6,116.8z"/>
		<path class="st2" d="M616.9,83.3c0,0.1-0.1,0.2-0.1,0.2c-4.1,10.9-9.1,17.4-40.7,21.6c-0.5,0.1-1.1,0.1-1.7,0.2
			c-1.8,0.2-3.6,0.5-5.2,0.7c-8.1,1.2-14.1,2.8-18.4,4.4c-0.3,0.1-0.6,0.2-0.8,0.3c-0.6,0.2-1.1,0.4-1.6,0.7
			c-0.3,0.1-0.5,0.2-0.8,0.3c-0.2,0.1-0.5,0.2-0.7,0.3c-4.3,2.1-6.3,4-7.2,5.3c-0.3,0.3-0.5,0.7-0.5,1.1c-0.4-0.6-0.8-1.1-1.3-1.7
			c3.3-3.5,16.4-14.8,50.9-16.8l0.3,0.1c8.5-2.1,20.4-1.4,27.3-15.7c0,0,0,0,0,0c0.1-0.3,0.3-0.6,0.4-0.9l0,0
			C616.9,83.5,616.9,83.4,616.9,83.3z"/>
		<path class="st0" d="M623.7,108.3c-0.4,2.3-1,4.6-1.9,6.8l0,0c-8.3,21-36.3,34.5-38.8,34.7c0,0,0,0,0,0c-0.4-0.1-6.7-1.5-15.4-6.2
			c-8.3-4.5-18.8-12.1-28.1-24.5c-0.1-0.1-0.2-0.2-0.3-0.3c0-0.1-0.1-0.1-0.1-0.2c0,0,0.8-3.1,7.7-6.5c0.2-0.1,0.5-0.2,0.7-0.3
			c0.3-0.1,0.5-0.2,0.8-0.3c0.5-0.2,1.1-0.4,1.6-0.7c0.3-0.1,0.5-0.2,0.8-0.3c4.4-1.6,10.3-3.3,18.5-4.5c1.7-0.3,3.5-0.5,5.4-0.8
			c0.7-0.1,1.4-0.2,2-0.3c-0.2,0.1-0.4,0.2-0.6,0.3c-7,3.4-17.9,22.2-15,23.6c5.2,3.1,9.7,5.4,13.7,7.1c16.4,7,23.6,3.5,28.6-0.2
			c9.2-7.9,14.4-15.4,17-22.1c0.3-0.9,0.6-1.7,0.9-2.5l0,0c0.4-1.3,0.7-2.5,0.9-3.7l0,0c0,0,0,0,0,0c0,0,0,0,0,0
			c0.2-0.8,0.3-1.5,0.4-2.3c0.8-6.9-0.7-12.5-2.4-16.3c0,0,0,0,0-0.1c-0.3-0.6-0.5-1.2-0.8-1.7C623.8,94.4,624.8,101.6,623.7,108.3z
			"/>
	</g>
	<path class="st2" d="M628.3,105.8c0,0,0.6,9.7-3,15.9c-3.6,6.2-4-0.8-4-0.8L628.3,105.8z"/>
	<path class="st4" d="M618.3,88.8c0,0,0,0.1,0.1,0.2c0.3,0.8,1.8,3.7,1.8,3.7s-2.3,1.5-2.4,1.2c-0.2-0.3-2.1-3.2-2.1-3.4
		s1.5-1.9,1.5-1.9L618.3,88.8z"/>
	<path class="st4" d="M622.8,103.3c0,0-0.3,2.8-0.5,3.8c-0.2,1-2-2.1-2-2.2c0-0.1,0.7-3.8,0.7-3.8L622.8,103.3z"/>
</g>
<path class="st0" d="M554.2,146.8c0,0,17.9,6.5,28.8,3c10.8-3.5,0-6.9,0-6.9l-27.9-1.2L554.2,146.8z"/>
<path class="st0" d="M561.1,134.2l9.9,8.7c0,0-7.6,2.9-8.4,3.6s-8.4,0.3-8.4,0.3s1-2-1.1,1.8c-2,3.8-4.8-2.1-4.8-2.1l-5.2-7.3
	l5.2-7.2L561.1,134.2z"/>
<path class="st0" d="M631.8,180.1c-3.4,5-7.2,6.6-7.7,6.8v0.1l-10.8,12.3c0,0-7.2,10.3-10,12.3c-2.8,1.9-11.2,17.9-12.6,13.5
	c-1.5-4.3,5-9.4,11.7-19.5c6.8-10.1,7.6-28.4,7.6-28.4c0.2-3.2-4.3-1.2-7.7,4.7c-3.2,5.7-1.7,5.3-2.4,14.1c-0.8,8.8-4.4,8.8-7.6,2.4
	c-3.3-6.3,3.2-9.6,4.3-14.7c1.1-5.1,2.5-11.2,6.5-14.6c2.7-2.3,11.7-16.1,17.1-24.6c0,0,8.6-11.1,12.3-27.3c0.4-1.2,0.7-2.5,0.9-3.7
	c0.2-1.2,0.3-2.6,0.4-4.1c0-0.1,0-0.2,0-0.2c0.3-4.4,0.3-9.2,0.3-9.5c0.4,3.4,0.7,7.2,1.1,12c0.1,1.7,0.1,3.4,0.2,4.8
	c0.1,2.5,0.1,4.8,0.1,6.7v0.1c0,3.3-0.1,5.9-0.2,8.3c-0.3,6.4-0.8,10.9-0.1,18.7C636.3,163.9,635.2,174.7,631.8,180.1z"/>
<path class="st0" d="M250.3,155.8c0,0-0.1,0-0.2,0.1c-0.1,0-0.2,0-0.3,0.1c-2,0.6-9.8,3-15.4,2c-4.1-0.7-7.5-2.5-9.5-3.8
	c0,0-0.1,0-0.1-0.1c-0.9-0.6-1.5-1.1-1.7-1.2c0,0,0,0,0,0s0,0,0,0h0L250.3,155.8z"/>
</svg>
