<svg id="Layer_1" xmlns="http://www.w3.org/2000/svg" viewBox="0 0 680.3 340.2"><style>.st0{fill:#97332f}.st1{fill:#723b21}.st2{fill:#b7866d}.st3{fill:#ecba7e}.st4{fill:#efe8d8}.st5{fill:#ffd496}.st6{fill:#ddd6c4}.st7{fill:#9a6937}.st8{fill:#010101}.st9{fill:#44361e}.st10{fill:#fff}.st11{fill:#86cce8}.st12{fill:#9fd8e5}</style><path class="st0" d="M183.6 273.9s-4.1 1.4-6.3-1.8c-2.1-3.2-2.1-9.3-2.1-9.3l3.4-1.5h3.1l3 5.1-1.1 7.5m-11.3 1.2s-2.1.1-2.9-.8c-.8-1-2.2 0-2.2 0l-3.2-2.4v-7.2l3.6-2.2 4.7 2.6.8 3.6-.8 6.4m-17.9.4s3.6.3 5.1-2.2c1.5-2.6 1.6-5.1 1.6-5.3 0-.2-1-3-1-3l-1-.8-2.6 2.1-1.4 3.6-.8 2.2.1 3.4"/><path class="st1" d="M133.8 270s-6.2.2-8.8-.5c-2.6-.7-4.5-.6-5.3.5s-6 5.5-8.7 5.1-4.2-.6-3.7-2.4 3-3.7 2.4-4.1c-.6-.3-2.1.2-3.9 2.4-1.8 2.2-3 4.2-5.9 4.1-2.9 0-6 0-6.3-1.1 0-.5-.7 1-2.4 1s-8.3-.6-7.9-1.6c.5-1 10.7-11.4 11.1-11.5s11.8-3 11.8-3L113 248l2-5.9 14.1 4.4 3.8 2.9 2.4 7.9-1.5 12.7"/><path class="st2" d="M256.4 252.5s.2 4.7-1.8 7.1c-2.1 2.3-11.2 2.6-14 2.6s-6.7-1.3-6.3-1.8c.3-.5 1-7.1 1-7.1l8.3-5.2c-.1 0 10.5.9 12.8 4.4zm-68.6 17.7s-2.6 3.8-4.2 3.7-2.6-2.2-1.8-3.6 1.4-1.8.2-3c-1.1-1.1-2.6-4.5-2.6-4.5s-2.2 1.1-2.2 3.9.6 3.9 0 5.5-4.5 3.9-5.1 2.9-2.4-7.1-4.2-9.1c0 0-1.8 2.6-1.8 5s1.6 2.8-1 3.4c-2.6.7-5.7 2.4-5.9-2.6s-1-6.7-1-6.7-2.9 3.6-3.4 6c-.6 2.4-.6 4.1-.6 4.1s-2.4-1.4-2.9-5.1c-.5-3.8 4.4-11.8 4.4-11.8l12.8-4.5 14-1.5 7 4.5 2.3 8.3-4 5.1z"/><path class="st3" d="M75.4 222.9c9.9 22.6 16.2 37 16.2 37l9.9-1.8s4.9-15.1 10.9-12.2c.8.3 1.8.8 2.8 1.3 6.3 3 15.6 7.3 16.4 12.7 1 6-.2 9.1 2.1 9.9s17.2-.2 17.2-.2 7.6-9.4 13.5-10.7c5.8-1.4 18.8-1.1 23.2 5.5.2 3.4-.6 5.5.2 5.9.6.3 16.9-1.4 29.2-2.9 7.2-.8 13-1.6 13.5-1.8 1.1-.6 6.3-10.4 12.2-12.5 3.2-1.1 5.5-1 8.1-1 2.1.1 4.2.2 7-.2 0 0 28.9-14.5 28.9-63.8s-25.7-61.4-28.9-64c-3.2-2.6-20-26.9-37.7-38.3-4.7-5-16.4-12.2-29.9-16.8-9.1-3.1-19.1-5-27.8-4.1-3.4.3-7.2 1-10.7 1.6-18.2 3.8-36.2 11.5-45 20-1.8 2.6-1.5 5.6-1.5 5.6s-12.3-10.9-23.9.7c.6-.2 17.9-7 24.5 5-1.1 4.7-11.2-1.8-13.8 1-2.6 2.7-13.5 9.4-16.7 12-3.2 2.6-5.2 6.3-3.4 6.7 1.8.3 15.4-4.4 20.4-2.1s10.9 5.5 10.1 6.5-10.4 3.7-13.1 6.7-14.1 18.5-16.4 28.1c-2.5 9.5-7.3 43.6 2.5 66.2z"/><path class="st4" d="M165.8 226.1s-27.9-9.5-34.9-8.1c-7 1.4-36.7 14.1-45.5-7.6s-14.8-38.7 11.6-63c9.9-11.4 13.3-15.3 16.2-24.9s18.3-37 21.8-40.8c3.4-3.7 13-7.9 15.6 7.9s-3.4 37.3-1.4 45c2.1 7.7 9.1 21.1 21.4 23.2 12.3 2.1 39.4-7 46.4 4.1 7 11 7 37.7-7.5 50.3-14.5 12.2-37.4 15.9-43.7 13.9z"/><path class="st2" d="M133.1 208.9s-7 1.3-8.7 0c0 0-4.1 3-6.7.2s-3.6-5.9-3.9-10.3c-.3-4.4 0-3.6 0-3.6s-6.3-3.2-6.8-9.4c-.6-6.2 6.3-5.7 9.1-5.8 2.8-.1 11.5-3.4 13.7-2.3 2.2 1 3.4 3.9 3.4 5.2s.5 8.4-2.2 11c-1.4 2-1 7 .1 9.5 1 2.6 3.6 3.6 2 5.5zm5.5 4s-6.5-4.4-15.2 0l1.6 1s10.4-2.4 13.6-1z"/><path class="st0" d="M123.2 190.9s1.8-2.3 3.9-2.9c2.1-.6 3.7-2.3 3.7-2.3s-4.2 5.1-6.8 5.2m-10.7 0s-1.4-1.8-3-2.6c0 0-.1 1.5 3 2.6zm85.7-108s13.8-5.5 18.8 2.2 3.1 10.2 5.2 11.6c2.1 1.4 10.6 4.2 11.8 6.3.7 1.1 1.5 3 1.8 6.3.2 3-.2 6.8-.5 8.3-.5 3-11.5 10.7-11.5 10.7l-13.7 4.9-16.4-16v-9.9s-3.1-11.5-2.9-12.3c.3-.7 7.4-12.1 7.4-12.1z"/><path class="st5" d="M148.7 129.7s2.4-16.9 5.1-17.4 8.1-.5 10.2 1.3c2.1 1.8 5.8.3 5.8.3l13-1.8 2.1 11.2 1 6.3s4.3 9.1 5.8 10.3 5 4.7 8.1 6.3 5.3 1 4.3 3.4c-1 2.3-3.7 2.9-6.8 2.8-3.1-.1-4.2.1-7.2 1.5s-11.9 3.8-11.9 3.8l-21.8-1-13.2-19.5 5.5-7.5"/><path class="st6" d="M101.9 229.3c.2 2.1 9.5 3.1 13.2 3.7 3.8.6 6.5 3.4 3.9 6.7-2.6 3.2-3.9 7.6-3.9 7.6s10.9 5.5 14.4 8.7c.6.5 1.1 1.5 1.8 2 2.6 2.9 4.5 5.7 6.7 7.4 2.6 2.1 8.6-.7 11.9-2.6 3.2-2 8.7-6.2 10.4-9.3 1.7-3.1 8.7-20.6 8.7-20.6s.8-2.8 1.3-6.3c-1.8 0-3.4-.2-4.5-.6 0 0-27.9-9.5-34.9-8.1-3.9.8-15.3 5.3-26 5-1.9 2.8-3.1 5-3 6.4zm113.7 36.8l1.4 1.3c7.2-.8 13-1.6 13.5-1.8 1.1-.6 6.3-10.4 12.2-12.5 3.2-1.1 5.5-1 8.1-1l5.3-13.6c15.1-23.5 7.8-79.7 7.6-81.6-.1-1.8-.2-6.3-2.9-4.7 1 3.6 2.1 43.5-3.7 65.5-5.8 21.9-41.5 48.4-41.5 48.4z"/><path class="st5" d="M234.4 120.5s21.1 34.4 11.8 65.3c-9.3 30.8-9.5 38.7-21.7 52.8-10.4 8.1-13.3 11.4-15.3 10.4s4.7-11.4 6.3-16c1.8-4.7-.2-6.3-3.7-5.2-3.4 1.1-10.2-.6-7-3.4s24.9-7.2 27.3-49.6c.6-22.1-3.6-44-7.3-46.4l9.6-7.9zm-82.8-45c2.3 1.4 11.6-4.4 13.9-5.5 2.3-1.1 11 .2 12.5.8s12-1.8 12-1.8c-9.1-3.1-19.1-5-27.8-4.1-3.4.3-7.2 1-10.7 1.6-2.8 3.6-2.3 7.5.1 9zm-32.5 33.6s-7.1-1.3-8.8 2.1-2.8 8.6-3.2 10.2c-.3 1.6-2.9 7-3.2 7.6-.3.7-1.8 3.1-1.8 5.9 0 2.6-.8 8.7.6 9.5 1.4.7 11.9-10.1 11.9-10.1l7.2-14.5c-.1.1-2.7-10.7-2.7-10.7z"/><path class="st7" d="M180.3 259.4s-1.5-7.3-6.2-7-13.2.2-13.9 1.1c-.7 1-4.7 6.2-9.1 8.4-4.4 2.3-9.7 5-11.8 3.9-2.1-1-9.4-9.5-10.1-10.3l2.4 4.7.1 5.1-.2 2.8s-.5 2.1 7.1 2c7.5-.2 13-.6 13-.6s8.6-10.3 13.9-11c5.3-.5 9.8-.3 14.8.9zm-65.2-12s-1.1 6-1.8 8.3c-.7 2.2-4.9 5.2-6.3 6.3-1.4 1-7.5 6.3-7.5 6.3s-5 .2-5.5 2c0 0-.2-1.8 7.9-7.5 0 0-1-1.4-2.8-.7-1.8.7-12.8 7.1-14.3 9.5l-1.8 1.5s2.3-5.9 5.3-9.5l3-3.6 9.9-1.8s3.7-12 8.8-13.1c3.3.8 5.1 2.3 5.1 2.3z"/><path class="st1" d="M82.3 92.2s-6.5 2.1-7.6 9.3c-1.1 7.2 1.3 8.6 1.3 8.6s-6.2-12.8 15.8-17.5c0 0 6.7-1 8.9-.7-.6-.2-6.3-3.3-18.4.3zM199 82.9s8.9-4.2 15.2-1.8c6.3 2.3 6.8 9.1 7.3 10.2.5 1 2.1 5.1 6.6 6.6s12 5.5 9.3 14.3c-.3 2-.2 4.2-1.6 6.3 0 0 2.4-10.1-.7-14.5-3-4.4-11-4.9-13.6-9.1s-3.1-11.5-6.8-12-8.1-2.2-15.7 0z"/><path class="st7" d="M179.7 95.7c4.4-3.7 18.5-13 19.5-12.8s-3.4 8.7-2.9 13.7c.2 2 .2 3.8.5 5.7 0 0 8.1-.6 13.3-1.8 5.2-1.1 16-1.4 17.5-1 1.5.3 4.9 1.8 5.9 2.8s-14.6 2.9-16 4.2 3.4 2.3 5.8 3.4c2.4 1 5.1 4.5.7 3.9-4.4-.6-8.1-1.4-11.8-2s-5.7-.7-7 0-1.8 2-1.8 2c.8 1.8 1.4 3.4 2.2 4.7 1.8 2.6 6 9.5 10.2 10.2s6.6-4.7 9.1 0c0 0-2.6 11.4-9.1 15.1-6.6 3.7-36.9-6-37.5-8.3-.7-2.3-3.2-6-1.8-8.1s3.4.2 3.2-5.5c-.2-5.8-.6-7.2-3.6-7.5s-5.9 0-5.9 0 5.1-14.9 9.5-18.7zm-86.4 29.8s-12.2-10.2-12.4-10.1c-.2.1 8.7-2.3 11.8-1 3.1 1.4 11.1 6.3 9.5 7.1-1.4.9-8.9 4-8.9 4zm11.6-26.1s-7.8 1-9.1 2c-1.5.8-19.7 8.8-19.7 8.8s-.6-.6-.8-1.6c-.7-3.2-1.1-10.4 6.3-13.2 9.9-3.7 5.8-4.2 18.5-3.4 3.4.8 5.5 5.1 5.5 5.1s.7 1.5-.7 2.3z"/><path class="st6" d="M136 180.5c1.4-.7 2.6-1.3 4.1-2 1.4-.6 2.8-1.3 4.1-1.8l4.2-1.8 4.2-1.6c5.7-2.1 11.4-3.8 17.2-5.3s11.7-2.6 17.7-3.4c5.9-.8 11.9-1.4 18-1.5-6 .5-11.9 1.1-17.9 2.1s-11.8 2.2-17.6 3.6c-5.8 1.5-11.6 3.2-17.2 5.2l-4.2 1.5-4.2 1.6-4.2 1.8c-1.4.5-2.8 1-4.2 1.6zm2.9 3.9c2.3-2.1 5.5-2.8 8.4-3.2 1.5-.2 3-.3 4.5-.6l4.5-.5c6-.6 12.2-1 18.2-1.1s12.2-.1 18.2.2 12.2.8 18.2 1.6c-6-.5-12-.8-18.2-1-6-.2-12.2-.2-18.2-.1s-12 .5-18.2 1l-4.5.3c-1.5.1-3 .2-4.5.5-2.8.5-5.9 1-8.4 2.9zm2.8 5.7c3.7-1 7.5-.8 11.2-.1 1.8.3 3.7.8 5.5 1.4 1.8.6 3.6 1.3 5.2 2 3.4 1.5 6.8 3.1 10.2 4.7s6.8 2.9 10.4 4.1c7.1 2.3 14.4 4.1 21.6 6.3 7.1 2.4 14 5.7 19.6 10.7-5.7-4.9-12.7-8-19.7-10.2-7.1-2.3-14.4-3.9-21.6-6.3-3.6-1.1-7.1-2.6-10.4-4.2l-10.1-4.9c-1.8-.8-3.4-1.5-5.2-2.1s-3.6-1.1-5.3-1.5c-3.9-.3-7.7-.5-11.4.1zm.2 5c3.6 1.5 7.1 3.1 10.6 4.9.8.5 1.8 1 2.6 1.4l2.6 1.5c1.8 1 3.2 2.1 4.9 3.1 6.5 4.3 12.4 9.3 18 14.8 5.5 5.5 10.4 11.5 14.8 17.9 2.1 3.2 4.3 6.5 5.9 9.9 1.6 3.4 2.6 7.4 2.2 11.2.3-3.8-.8-7.6-2.6-11.1-1.8-3.4-3.9-6.6-6-9.9-4.4-6.3-9.4-12.3-14.8-17.6-5.5-5.5-11.4-10.3-17.7-14.8-1.6-1-3.1-2.2-4.9-3.1l-2.4-1.5c-.8-.5-1.6-1-2.6-1.4l-10.6-5.3z"/><path class="st6" d="M141 198.6l4.5 3.1 2.2 1.6 2.2 1.6c3 2.2 5.9 4.3 8.6 6.8 2.8 2.4 5.1 5.3 7 8.6 1.8 3.1 3.2 6.6 4.1 10.2-1-3.4-2.6-6.8-4.5-9.9-2-3-4.3-5.8-7-8.3-2.6-2.4-5.5-4.7-8.4-6.8l-2.2-1.8-2.1-1.8c-1.5-.9-3-2-4.4-3.3zm-9.7-1.2c1 .7 2 1.5 2.9 2.3.5.5 1 .8 1.4 1.3.5.5.8 1 1.3 1.3 1.6 1.8 3.1 3.8 4.4 5.9s2.3 4.4 2.8 6.8c.5 2.4.3 5.1-.7 7.3.8-2.3.7-4.9.1-7.1-.6-2.3-1.6-4.5-2.9-6.6-1.3-2.1-2.6-4.1-4.2-5.9-.3-.5-.8-1-1.1-1.4-.3-.5-.8-1-1.3-1.4-.9-.7-1.7-1.7-2.7-2.5zM103 167c-.3-.6-.7-1-1-1.5s-.7-1-1-1.5l-1.1-1.4-1.1-1.4c-1.6-1.8-3.4-3.4-5.3-5-1.8-1.5-3.9-2.9-6.2-4.1-2.2-1.1-4.4-2.1-6.7-2.9 2.4.5 4.7 1.3 7.1 2.4 2.2 1 4.4 2.4 6.3 3.9 2 1.5 3.7 3.2 5.3 5.2l1.1 1.5 1 1.5c.3.6.6 1 1 1.6 0 .5.2 1.1.6 1.7zm-5.8 5.1c-1 .7-2.4.3-3.6-.1-.6-.2-1.1-.6-1.6-.8-.6-.3-1-.6-1.6-.8-2.2-1-4.5-1.4-7-1.6-2.4-.2-4.7-.2-7.2-.1-2.4 0-4.9.1-7.2.2 2.4-.5 4.7-.7 7.2-1 2.4-.1 4.9-.2 7.3 0s4.9.7 7.2 1.8c.6.3 1 .6 1.6 1 .5.3 1 .7 1.5 1 1.1.4 2.3.7 3.4.4zm2.5 9.1c-2.2-.2-4.4-.2-6.6-.3h-6.7c-4.4 0-8.9 0-13 1.4s-7.5 4.3-10.7 7.4-5.9 6.5-9.3 9.4c3.1-3.1 5.8-6.6 8.8-9.9 3-3.2 6.5-6.3 10.7-7.8 4.3-1.5 8.8-1.4 13.2-1.3l3.4.1c1.1 0 2.2.1 3.4.1 2.4.2 4.5.4 6.8.9zm-3.9 9.4c-2.3.1-4.5.5-6.7 1.1l-1.6.5-1.6.6-3.1 1.4c-4.1 2.1-7.6 4.9-10.9 8-3.2 3.1-6 6.7-8.7 10.4-2.6 3.7-5 7.5-7.5 11.4 2.2-3.9 4.5-8 7-11.8 2.6-3.8 5.3-7.4 8.6-10.7 3.2-3.2 7-6 11.1-8l3.1-1.4 1.6-.6 1.6-.5c2.5-.2 4.8-.5 7.1-.4zm2.6 9.7c-1.1 1-2.3 2-3.4 3l-1.8 1.5-1.8 1.5c-2.3 2-4.9 3.8-7.1 5.8-2.3 2-4.2 4.4-5.7 7.1-1.5 2.6-2.8 5.5-4.1 8.3 1-2.9 2.1-5.8 3.4-8.6 1.4-2.8 3.4-5.3 5.7-7.4 2.3-2.1 4.7-3.9 7.2-5.8l1.8-1.4 1.8-1.4c1.5-.8 2.7-1.7 4-2.6zm2.3 4.6c-1.4.7-2.6 1.6-3.7 2.8-.6.6-1 1.1-1.5 1.8-.5.6-1 1.3-1.3 1.8-1.6 2.6-3.1 5.3-4.5 8.1s-2.6 5.5-3.7 8.6c-1 2.9-1.8 5.9-2.1 9.1.1-3.1.7-6.3 1.5-9.3 1-3 2.1-5.9 3.6-8.7 1.4-2.8 3-5.5 4.7-8.1.5-.7 1-1.3 1.4-1.8.5-.6 1-1.1 1.6-1.8 1.2-1.1 2.6-2 4-2.5zm3.5 5.8c-.7.8-1.4 1.8-2 2.6-.3.5-.7 1-1 1.3-.3.5-.6 1-1 1.4-1.1 1.8-2.2 3.7-3 5.7s-1.3 4.1-1.4 6.3c-.1 2.1.1 4.3.7 6.3-1-2-1.4-4.2-1.4-6.5 0-2.2.5-4.4 1.3-6.5s1.8-4.1 3.2-5.8c.3-.5.7-1 1-1.3.3-.5.7-.8 1-1.3 1-.7 1.8-1.5 2.6-2.2z"/><path class="st8" d="M106.5 129.4s-1.3 7.9-1.8 8.3-1.5-2.2-1.3-3.6c.3-1.5 1.3-4 3.1-4.7z"/><path class="st9" d="M106.5 129.4s-2.1.5-2.8 3.4c0 .1 1.2-1.5 2.8-3.4z"/><circle class="st10" cx="105.2" cy="130.8" r="1"/><path class="st9" d="M163.8 130.4s5.3 1.5 7.2 7.9c0-.1.8-9.4-7.2-7.9z"/><path class="st8" d="M171 138.2s-1 6.7-6.8 5.7-4.7-3.6-4.7-3.6 1.4-10.9 4.7-9.9 5.4.6 6.8 7.8z"/><path class="st9" d="M167 143.7s-5.5 2.1-6.7 1.6c-1.1-.5-1-4.7-1-4.7s3.8 4.4 7.7 3.1z"/><circle class="st10" cx="163.5" cy="132.3" r="1.5"/><g><path class="st0" d="M523.8 273.9s-4.1 1.4-6.3-1.8c-2.1-3.2-2.1-9.3-2.1-9.3l3.4-1.5h3.1l3 5.1-1.1 7.5m-11.3 1.2s-2.1.1-2.9-.8c-.8-1-2.2 0-2.2 0l-3.2-2.4v-7.2l3.6-2.2 4.7 2.6.8 3.6-.8 6.4m-17.9.4s3.6.3 5.1-2.2c1.5-2.6 1.6-5.1 1.6-5.3s-1-3-1-3l-1-.8-2.6 2.1-1.4 3.6-.8 2.2.1 3.4"/><path class="st1" d="M474 270s-6.2.2-8.8-.5-4.5-.6-5.3.5-6 5.5-8.7 5.1c-2.6-.5-4.2-.6-3.7-2.4s3-3.7 2.4-4.1c-.6-.3-2.1.2-3.9 2.4-1.8 2.2-3 4.2-5.9 4.1s-6 0-6.3-1.1c0-.5-.7 1-2.4 1-1.8-.1-8.3-.6-7.9-1.6.5-1 10.7-11.4 11.1-11.5.3-.1 11.8-3 11.8-3l6.8-10.9 2-5.9 14.1 4.4 3.8 2.9 2.4 7.9L474 270"/><path class="st2" d="M596.6 252.5s.2 4.7-1.8 7.1c-2.1 2.3-11.2 2.6-14 2.6s-6.7-1.3-6.3-1.8c.3-.5 1-7.1 1-7.1l8.3-5.2c-.1 0 10.5.9 12.8 4.4zM528 270.2s-2.6 3.8-4.2 3.7-2.6-2.2-1.8-3.6 1.4-1.8.2-3c-1.1-1.1-2.6-4.5-2.6-4.5s-2.2 1.1-2.2 3.9.6 3.9 0 5.5-4.5 3.9-5.1 2.9c-.6-1-2.4-7.1-4.2-9.1 0 0-1.8 2.6-1.8 5s1.6 2.8-1 3.4-5.7 2.4-5.9-2.6c-.2-5-1-6.7-1-6.7s-2.9 3.6-3.4 6c-.6 2.4-.6 4.1-.6 4.1s-2.4-1.4-2.9-5.1 4.4-11.8 4.4-11.8l12.8-4.5 14-1.5 7 4.5 2.3 8.3-4 5.1z"/><path class="st3" d="M415.6 222.9c9.9 22.6 16.2 37 16.2 37l9.9-1.8s4.9-15.1 10.9-12.2c.8.3 1.8.8 2.8 1.3 6.3 3 15.6 7.3 16.4 12.7 1 6-.2 9.1 2.1 9.9 2.3.8 17.2-.2 17.2-.2s7.6-9.4 13.5-10.7c5.8-1.4 18.8-1.1 23.2 5.5.2 3.4-.6 5.5.2 5.9.6.3 16.9-1.4 29.2-2.9 7.2-.8 13-1.6 13.5-1.8 1.1-.6 6.3-10.4 12.2-12.5 3.2-1.1 5.5-1 8.1-1 2.1.1 4.2.2 7-.2 0 0 28.9-14.5 28.9-63.8s-25.7-61.4-28.9-64-20-26.9-37.7-38.3c-4.7-5-16.4-12.2-29.9-16.8-9.1-3.1-19.1-5-27.8-4.1-3.4.3-7.2 1-10.7 1.6-18.2 3.6-36.2 11.2-45 19.8-1.8 2.6-1.4 5.5-1.4 5.5s-12.3-10.9-23.9.7c.6-.2 17.9-7 24.5 5-1.1 4.7-11.2-1.8-13.8 1-2.6 2.6-13.5 9.4-16.7 12s-5.2 6.3-3.4 6.7c1.8.3 15.4-4.4 20.4-2.1s10.9 5.5 10.1 6.5-10.4 3.7-13.1 6.7c-2.7 3-14.1 18.5-16.4 28.1-2.6 9.8-7.4 43.9 2.4 66.5z"/><path class="st4" d="M506 226.1s-27.9-9.5-34.9-8.1-36.7 14.1-45.5-7.6c-8.7-21.8-14.8-38.7 11.6-63 9.9-11.4 13.3-15.3 16.2-24.9 2.9-9.6 18.3-37 21.8-40.8 3.4-3.7 13-7.9 15.6 7.9s-3.4 37.3-1.4 45c2.1 7.6 9.1 21.1 21.4 23.2 12.4 2.1 39.4-7 46.4 4.1 7 11 7 37.7-7.5 50.3-14.4 12.3-37.4 15.9-43.7 13.9z"/><path class="st2" d="M473.3 208.9s-7 1.3-8.7 0c0 0-4.1 3-6.7.2s-3.6-5.9-3.9-10.3c-.3-4.4 0-3.6 0-3.6s-6.3-3.2-6.8-9.4c-.6-6.2 6.3-5.7 9.1-5.8 2.8-.1 11.5-3.4 13.7-2.3 2.2 1 3.4 3.9 3.4 5.2s.5 8.4-2.2 11c-1.4 2-1 7 .1 9.5 1 2.6 3.6 3.6 2 5.5zm5.5 4s-6.5-4.4-15.2 0l1.6 1s10.4-2.4 13.6-1z"/><path class="st0" d="M463.4 190.9s1.8-2.3 3.9-2.9c2.1-.6 3.7-2.3 3.7-2.3s-4.2 5.1-6.8 5.2m-10.7 0s-1.4-1.8-3-2.6c0 0-.1 1.5 3 2.6zm85.7-108s13.8-5.5 18.8 2.2 3.1 10.2 5.2 11.6 10.6 4.2 11.8 6.3c.7 1.1 1.5 3 1.8 6.3.2 3-.2 6.8-.5 8.3-.5 3-11.5 10.7-11.5 10.7l-13.7 4.9-16.4-16v-9.9s-3.1-11.5-2.9-12.3c.3-.7 7.4-12.1 7.4-12.1z"/><path class="st5" d="M488.9 129.7s2.4-16.9 5.1-17.4c2.6-.5 8.1-.5 10.2 1.3s5.8.3 5.8.3l13-1.8 2.1 11.2 1 6.3s4.3 9.1 5.8 10.3c1.6 1.3 5 4.7 8.1 6.3s5.3 1 4.3 3.4c-1 2.3-3.7 2.9-6.8 2.8-3.1-.1-4.2.1-7.2 1.5s-11.9 3.8-11.9 3.8l-21.8-1-13.2-19.5 5.5-7.5"/><path class="st6" d="M442.1 229.3c.2 2.1 9.5 3.1 13.2 3.7 3.8.6 6.5 3.4 3.9 6.7-2.6 3.2-3.9 7.6-3.9 7.6s10.9 5.5 14.4 8.7c.6.5 1.1 1.5 1.8 2 2.6 2.9 4.5 5.7 6.7 7.4 2.6 2.1 8.6-.7 11.9-2.6 3.2-2 8.7-6.2 10.4-9.3 1.8-3.1 8.7-20.6 8.7-20.6s.8-2.8 1.3-6.3c-1.8 0-3.4-.2-4.5-.6 0 0-27.9-9.5-34.9-8.1-3.9.8-15.3 5.3-26 5-1.9 2.8-3.1 5-3 6.4zm113.7 36.8l1.4 1.3c7.2-.8 13-1.6 13.5-1.8 1.1-.6 6.3-10.4 12.2-12.5 3.2-1.1 5.5-1 8.1-1l5.3-13.6c15.1-23.5 7.8-79.7 7.6-81.6-.1-1.8-.2-6.3-2.9-4.7 1 3.6 2.1 43.5-3.7 65.5-5.8 21.9-41.5 48.4-41.5 48.4z"/><path class="st5" d="M574.6 120.5s21.1 34.4 11.8 65.3c-9.3 30.8-9.5 38.7-21.7 52.8-10.4 8.1-13.3 11.4-15.3 10.4s4.7-11.4 6.3-16c1.8-4.7-.2-6.3-3.7-5.2-3.4 1.1-10.2-.6-7-3.4s24.9-7.2 27.3-49.6c.6-22.1-3.6-44-7.3-46.4l9.6-7.9zm-82.8-45c2.3 1.4 11.6-4.4 13.9-5.5s11 .2 12.5.8 12-1.8 12-1.8c-9.1-3.1-19.1-5-27.8-4.1-3.4.3-7.2 1-10.7 1.6-2.8 3.6-2.3 7.5.1 9zm-32.5 33.6s-7.1-1.3-8.8 2.1-2.8 8.6-3.2 10.2c-.3 1.6-2.9 7-3.2 7.6-.3.7-1.8 3.1-1.8 5.9s-.8 8.7.6 9.5c1.4.7 11.9-10.1 11.9-10.1l7.2-14.5c-.1.1-2.7-10.7-2.7-10.7z"/><path class="st7" d="M520.5 259.4s-1.5-7.3-6.2-7-13.2.2-13.9 1.1c-.7 1-4.7 6.2-9.1 8.4-4.4 2.3-9.7 5-11.8 3.9-2.1-1-9.4-9.5-10.1-10.3l2.4 4.7.1 5.1-.2 2.8s-.5 2.1 7.1 2c7.5-.2 13-.6 13-.6s8.6-10.3 13.9-11c5.3-.5 9.8-.3 14.8.9zm-65.2-12s-1.1 6-1.8 8.3c-.7 2.2-4.9 5.2-6.3 6.3-1.4 1-7.5 6.3-7.5 6.3s-5 .2-5.5 2c0 0-.2-1.8 7.9-7.5 0 0-1-1.4-2.8-.7-1.8.7-12.8 7.1-14.3 9.5l-1.8 1.5s2.3-5.9 5.3-9.5l3-3.6 9.9-1.8s3.7-12 8.8-13.1c3.3.8 5.1 2.3 5.1 2.3z"/><path class="st1" d="M422.5 92.2s-6.5 2.1-7.6 9.3c-1.1 7.2 1.3 8.6 1.3 8.6S410 97.3 432 92.6c0 0 6.7-1 8.9-.7-.6-.2-6.3-3.3-18.4.3zm116.7-9.3s8.9-4.2 15.2-1.8c6.3 2.4 6.8 9.1 7.3 10.2.5 1 2.1 5.1 6.6 6.6 4.5 1.4 12 5.5 9.3 14.3-.3 2-.2 4.2-1.6 6.3 0 0 2.4-10.1-.7-14.5-3.1-4.4-11-4.9-13.6-9.1s-3.1-11.5-6.8-12-8.1-2.2-15.7 0z"/><path class="st7" d="M519.9 95.7c4.4-3.7 18.5-13 19.5-12.8s-3.4 8.7-2.9 13.7c.2 2 .2 3.8.5 5.7 0 0 8.1-.6 13.3-1.8 5.2-1.1 16-1.4 17.5-1s4.9 1.8 5.9 2.8-14.6 2.9-16 4.2c-1.4 1.3 3.4 2.3 5.8 3.4s5.1 4.5.7 3.9-8.1-1.4-11.8-2-5.7-.7-7 0-1.8 2-1.8 2c.8 1.8 1.4 3.4 2.2 4.7 1.8 2.6 6 9.5 10.2 10.2s6.6-4.7 9.1 0c0 0-2.6 11.4-9.1 15.1-6.6 3.7-36.9-6-37.5-8.3-.7-2.3-3.2-6-1.8-8.1s3.4.2 3.2-5.5c-.2-5.8-.6-7.2-3.6-7.5s-5.9 0-5.9 0 5.1-14.9 9.5-18.7zm-86.4 29.8s-12.2-10.2-12.4-10.1c-.3.1 8.7-2.3 11.8-1s11.1 6.3 9.5 7.1c-1.4.9-8.9 4-8.9 4zm11.6-26.1s-7.8 1-9.1 2c-1.5.8-19.7 8.8-19.7 8.8s-.6-.6-.8-1.6c-.7-3.2-1.1-10.4 6.3-13.2 9.9-3.7 5.8-4.2 18.5-3.4 3.4.8 5.5 5.1 5.5 5.1s.7 1.5-.7 2.3z"/><path class="st6" d="M476.2 180.5c1.4-.7 2.6-1.3 4.1-2 1.4-.6 2.8-1.3 4.1-1.8l4.2-1.8 4.2-1.6c5.7-2.1 11.4-3.8 17.2-5.3 5.8-1.5 11.7-2.6 17.7-3.4 5.9-.8 11.9-1.4 18-1.5-6 .5-11.9 1.1-17.9 2.1-5.9 1-11.8 2.2-17.6 3.6-5.8 1.5-11.6 3.2-17.2 5.2l-4.2 1.5-4.2 1.6-4.2 1.8c-1.4.5-2.8 1-4.2 1.6zm2.9 3.9c2.3-2.1 5.5-2.8 8.4-3.2 1.5-.2 3-.3 4.5-.6l4.5-.5c6-.6 12.2-1 18.2-1.1s12.2-.1 18.2.2 12.2.8 18.2 1.6c-6-.5-12-1-18.2-1-6-.2-12.2-.2-18.2-.1s-12 .5-18.2 1l-4.5.3c-1.5.1-3 .2-4.5.5-2.8.5-5.9 1-8.4 2.9zm2.8 5.7c3.7-1 7.5-.8 11.2-.1 1.8.3 3.7.8 5.5 1.4 1.8.6 3.6 1.3 5.2 2 3.4 1.5 6.8 3.1 10.2 4.7 3.4 1.6 6.8 2.9 10.4 4.1 7.1 2.3 14.4 4.1 21.6 6.3 7.1 2.4 14 5.7 19.6 10.7-5.7-4.9-12.7-8-19.7-10.2-7.1-2.3-14.4-3.9-21.6-6.3-3.6-1.1-7.1-2.6-10.4-4.2l-10.1-4.9c-1.8-.8-3.4-1.5-5.2-2.1-1.8-.6-3.6-1.1-5.3-1.5-3.9-.3-7.7-.5-11.4.1zm.2 5c3.6 1.5 7.1 3.1 10.6 4.9.8.5 1.8 1 2.6 1.4l2.6 1.5c1.8 1 3.2 2.1 4.9 3.1 6.5 4.3 12.4 9.3 18 14.8 5.5 5.5 10.4 11.5 14.8 17.9 2.1 3.2 4.3 6.5 5.9 9.9 1.6 3.4 2.6 7.4 2.2 11.2.3-3.8-.8-7.6-2.6-11.1-1.8-3.4-3.9-6.6-6-9.9-4.4-6.3-9.4-12.3-14.8-17.6-5.5-5.5-11.4-10.3-17.7-14.8-1.6-1-3.1-2.2-4.9-3.1l-2.4-1.5c-.8-.5-1.6-1-2.6-1.4l-10.6-5.3z"/><path class="st6" d="M481.2 198.6l4.5 3.1 2.2 1.6 2.2 1.6c3 2.2 5.9 4.3 8.6 6.8 2.8 2.4 5.1 5.3 7 8.6 1.8 3.1 3.2 6.6 4.1 10.2-1-3.4-2.6-6.8-4.5-9.9-1.9-3-4.3-5.8-7-8.3-2.6-2.4-5.5-4.7-8.4-6.8l-2.2-1.8-2.1-1.8c-1.5-.9-3-2-4.4-3.3zm-9.7-1.2c1 .7 2 1.5 2.9 2.3.5.5 1 .8 1.4 1.3.5.5.8 1 1.3 1.3 1.6 1.8 3.1 3.8 4.4 5.9 1.3 2.1 2.3 4.4 2.8 6.8.5 2.4.3 5.1-.7 7.3.8-2.3.7-4.9.1-7.1-.6-2.3-1.6-4.5-2.9-6.6s-2.6-4.1-4.2-5.9c-.3-.5-.8-1-1.1-1.4-.3-.5-.8-1-1.3-1.4-.9-.7-1.7-1.7-2.7-2.5zM443.2 167c-.3-.6-.7-1-1-1.5s-.7-1-1-1.5l-1.1-1.4-1.1-1.4c-1.6-1.8-3.4-3.4-5.3-5-1.8-1.5-3.9-2.9-6.2-4.1-2.2-1.1-4.4-2.1-6.7-2.9 2.4.5 4.7 1.3 7.1 2.4 2.2 1 4.4 2.4 6.3 3.9 2 1.5 3.7 3.2 5.3 5.2l1.1 1.5 1 1.5c.3.6.6 1 1 1.6 0 .5.2 1.1.6 1.7zm-5.8 5.1c-1 .7-2.4.3-3.6-.1-.6-.2-1.1-.6-1.6-.8-.6-.3-1-.6-1.6-.8-2.2-1-4.5-1.4-7-1.6-2.4-.2-4.7-.2-7.2-.1-2.4 0-4.9.1-7.2.2 2.4-.5 4.7-.7 7.2-1 2.4-.1 4.9-.2 7.3 0s4.9.7 7.2 1.8c.6.3 1 .6 1.6 1 .5.3 1 .7 1.5 1 1.1.4 2.3.7 3.4.4zm2.5 9.1c-2.2-.2-4.4-.2-6.6-.3h-6.7c-4.4 0-8.9 0-13 1.4s-7.5 4.3-10.7 7.4c-3.1 3.1-5.9 6.5-9.3 9.4 3.1-3.1 5.8-6.6 8.8-9.9 3-3.2 6.5-6.3 10.7-7.8 4.3-1.5 8.8-1.4 13.2-1.3l3.4.1c1.1 0 2.2.1 3.4.1 2.4.2 4.5.4 6.8.9zm-3.9 9.4c-2.3.1-4.5.5-6.7 1.1l-1.6.5-1.6.6-3.1 1.4c-4.1 2.1-7.6 4.9-10.9 8-3.2 3.1-6 6.7-8.7 10.4-2.6 3.7-5 7.5-7.5 11.4 2.2-3.9 4.5-8 7-11.8 2.6-3.8 5.3-7.4 8.6-10.7 3.2-3.2 7-6 11.1-8l3.1-1.4 1.6-.6 1.6-.5c2.5-.2 4.8-.5 7.1-.4zm2.6 9.7c-1.1 1-2.3 2-3.4 3l-1.8 1.5-1.8 1.5c-2.3 2-4.9 3.8-7.1 5.8-2.3 2-4.2 4.4-5.7 7.1-1.5 2.6-2.8 5.5-4.1 8.3 1-2.9 2.1-5.8 3.4-8.6 1.4-2.8 3.4-5.3 5.7-7.4 2.3-2.1 4.7-3.9 7.2-5.8l1.8-1.4 1.8-1.4c1.5-.8 2.7-1.7 4-2.6zm2.3 4.6c-1.4.7-2.6 1.6-3.7 2.8-.6.6-1 1.1-1.5 1.8-.5.6-1 1.3-1.3 1.8-1.6 2.6-3.1 5.3-4.5 8.1s-2.6 5.5-3.7 8.6c-1 2.9-1.8 5.9-2.1 9.1.1-3.1.7-6.3 1.5-9.3 1-3 2.1-5.9 3.6-8.7 1.4-2.8 3-5.5 4.7-8.1.5-.7 1-1.3 1.4-1.8.5-.6 1-1.1 1.6-1.8 1.2-1.1 2.6-2 4-2.5zm3.5 5.8c-.7.8-1.4 1.8-2 2.6-.3.5-.7 1-1 1.3-.3.5-.6 1-1 1.4-1.1 1.8-2.2 3.7-3 5.7s-1.3 4.1-1.4 6.3c-.1 2.1.1 4.3.7 6.3-1-2-1.4-4.2-1.4-6.5 0-2.2.5-4.4 1.3-6.5s1.8-4.1 3.2-5.8c.3-.5.7-1 1-1.3.3-.5.7-.8 1-1.3 1-.7 1.8-1.5 2.6-2.2z"/><path class="st8" d="M446.7 129.4s-1.3 7.9-1.8 8.3c-.5.3-1.5-2.2-1.3-3.6.3-1.5 1.3-4 3.1-4.7z"/><path class="st9" d="M446.7 129.4s-2.1.5-2.8 3.4c0 .1 1.2-1.5 2.8-3.4z"/><circle class="st10" cx="445.4" cy="130.8" r="1"/><path class="st11" d="M517.8 159.7s-.3 1.4.7 2.8 2.4 2.4 3.7 2.4 3.4-1.6 2.3-2.8c-1-1.1-2-2.2-3.6-2.4-1.6-.2-1.1-2.2-3.1 0z"/><path class="st12" d="M523.5 164.4s-2.6-.6-3.7-1.6c-1-1-2.4-2.8-2.1-3.1.3-.3 1-1.1 1.6-1 .7.1.5 0 1.1.6.7.6 3.2 1.3 3.7 2.3.5.9 1.5 2.1-.6 2.8z"/><path d="M523.5 163.6s-.8.2-1.4 0c-.6-.2-1.8-.8-1.6-1 .1-.2.7-.8 1-.3s.6.8 1.1.7 1 .2.8-.2c-.1-.5.5-.2.7-.1.3 0 0 .9-.6.9z" opacity=".62" fill="#fff"/><path class="st11" d="M500.7 145.4s.3 2.4 2.2 3.1c1.8.7 2.6 2.6 3.1 3.7.6 1 3.2 4.2 5.2 3.6 2-.6-3.1-8.4-3.1-8.4l-6.2-2.1-1.2.1z"/><path class="st12" d="M502.2 146.1s3.4 2.3 4.4 3.7.8 2.3 1.8 3.4 1 2.3 3.4 2.6c2.3.2 2.8-1.1 2.8-2.2 0-1-4.1-6.2-3.2-7.4.8-1.4 1.1-.7 2.3-1.3 1.1-.6-2.3-5.5-2.4-6-.1-.3-.7 2.1-2.8 3.7s-6 2.4-6.5 2.2c-1.1-.3.2 1.3.2 1.3z"/><path d="M509.2 150.4s-1 1.6.3 3.1 2 1.8 2.2 1.5-.2-.8-.5-2c-.2-1.2.5-2-.5-2.6-.9-.6-1.5 0-1.5 0z" opacity=".42" fill="#fff"/><path class="st12" d="M511.1 138.6s-.8 4.2-5.1 5.5c-1.1.3-3.9 1.1-4.4 1.1-.3.3 2.4.8 2.4.8l1.8.1 4.4-3.1 1.8-2.6-.9-1.8z"/><path class="st9" d="M504 130.4s5.3 1.5 7.2 7.9c0-.1.8-9.4-7.2-7.9z"/><path class="st8" d="M511.2 138.2s-1 6.7-6.8 5.7-4.7-3.6-4.7-3.6 1.4-10.9 4.7-9.9c3.3 1 5.4.6 6.8 7.8z"/><path class="st9" d="M507.2 143.7s-5.5 2.1-6.7 1.6c-1.1-.5-1-4.7-1-4.7s3.8 4.4 7.7 3.1z"/><circle class="st10" cx="503.7" cy="132.3" r="1.5"/></g></svg>