<svg id="Layer_1" xmlns="http://www.w3.org/2000/svg" viewBox="0 0 680.3 340.2"><style>.st0{fill:#97332f}.st1{fill:#723b21}.st2{fill:#b7866d}.st3{fill:#ecba7e}.st4{fill:#efe8d8}.st5{fill:#ffd496}.st6{fill:#ddd6c4}.st7{fill:#9a6937}.st8{fill:#44361e}.st9{fill:#010101}.st10{fill:#fff}.st12{fill:#48bfac}</style><path class="st0" d="M156.7 272.5s4 1.4 6.2-1.7 2.1-9.2 2.1-9.2l-3.5-1.5h-3.1l-3 5.1 1.3 7.3m11.3 1.1s2.1.1 2.9-.8c.8-.9 2.2 0 2.2 0l3.2-2.4v-7.1l-3.5-2.2-4.6 2.6-.8 3.5.6 6.4m17.7.4s-3.5.3-5.1-2.2c-1.5-2.5-1.6-5.1-1.6-5.3s.9-3 .9-3l1-.8 2.5 2.1 1.4 3.5.8 2.2.1 3.5"/><path class="st1" d="M206.2 268.6s6.1.2 8.8-.5c2.6-.7 4.5-.5 5.3.5s6 5.5 8.6 5.1 4.2-.5 3.7-2.4c-.5-1.8-3-3.7-2.4-4 .5-.3 2.1.2 3.9 2.4 1.8 2.2 3 4.2 5.9 4 2.9 0 6 0 6.2-1.2 0-.5.7 1 2.4.9s8.3-.5 7.9-1.6c-.5-1-10.7-11.3-11-11.4-.3-.1-11.7-3-11.7-3l-6.9-10.9-1.9-5.9-14 4.4-3.8 2.9-2.4 7.9 1.4 12.8"/><path class="st2" d="M84.4 251.1s-.2 4.7 1.8 7c2.1 2.3 11.2 2.5 14 2.5 2.6 0 6.7-1.2 6.3-1.7-.3-.5-1-7-1-7l-8.2-5.2c-.2 0-10.6 1-12.9 4.4zm68.2 17.7s2.5 3.8 4.2 3.7c1.6-.1 2.5-2.2 1.7-3.5-.8-1.4-1.4-1.8-.2-3s2.5-4.5 2.5-4.5 2.2 1.2 2.2 3.9-.5 3.9 0 5.5 4.5 3.9 5.1 2.9c.5-1 2.4-7 4.2-9 0 0 1.7 2.5 1.7 4.9s-1.6 2.8 1 3.5 5.6 2.4 5.9-2.5.9-6.7.9-6.7 2.9 3.5 3.5 6c.5 2.4.5 4 .5 4s2.4-1.4 2.9-5.1-4.4-11.7-4.4-11.7l-12.6-4.5-14-1.5-6.9 4.5-2.3 8.2 4.1 4.9z"/><path class="st3" d="M264.3 221.8l-16.1 36.8-9.8-1.7s-4.9-15-10.9-12.1c-.8.3-1.7.8-2.8 1.2-6.3 3-15.6 7.2-16.3 12.6-.9 6 .2 9-2.1 9.8-2.3.8-17.2-.2-17.2-.2s-7.6-9.3-13.3-10.7c-5.8-1.4-18.7-1.2-23 5.5-.2 3.5.5 5.4-.2 5.9-.5.3-16.8-1.4-29.1-2.9-7.2-.8-12.9-1.6-13.3-1.8-1.2-.5-6.3-10.4-12.1-12.4-3.2-1.2-5.5-1-8.1-.9-2.1.1-4.2.2-6.9-.2 0 0-28.8-14.4-28.8-63.4s25.6-61 28.8-63.6c3.2-2.5 19.8-26.7 37.5-38 4.6-4.9 16.3-12.1 29.8-16.7 9.1-3.1 19-4.9 27.7-4 3.5.3 7.2.9 10.6 1.6 18 3.5 35.9 11.2 44.7 19.7 1.7 2.5 1.4 5.5 1.4 5.5s12.2-10.9 23.7.6c-.5-.2-17.7-6.9-24.3 4.9 1.2 4.6 11.2-1.7 13.7.9s13.3 9.3 16.6 11.9c3.2 2.6 5.2 6.3 3.5 6.7-1.7.3-15.3-4.4-20.3-2.1-4.9 2.3-10.9 5.5-10 6.5.8.9 10.4 3.7 12.9 6.7s14 18.4 16.3 27.9 7.2 43.5-2.6 66z"/><path class="st4" d="M174.5 224.9s27.7-9.5 34.7-8.1c6.9 1.4 36.5 14 45.2-7.6 8.6-21.7 14.7-38.5-11.5-62.7-9.9-11.3-13.3-15.2-16.1-24.7-2.9-9.6-18.2-36.8-21.7-40.5s-12.9-7.9-15.6 7.9c-2.7 15.7 3.5 37.1 1.4 44.7-2.1 7.6-9 21-21.4 23-12.3 2.1-39.2-6.9-46.1 4s-6.9 37.5 7.5 50c14.5 12.3 37.2 16 43.6 14z"/><path class="st2" d="M206.8 207.8s6.9 1.2 8.6 0c0 0 4 3 6.7.2 2.6-2.8 3.5-5.9 3.9-10.3.3-4.4 0-3.5 0-3.5s6.2-3.2 6.8-9.3c.5-6.1-6.2-5.6-9-5.8-2.8-.1-11.4-3.3-13.6-2.3-2.2 1-3.5 3.9-3.5 5.2 0 1.2-.5 8.4 2.2 10.9 1.4 1.9.9 6.9-.1 9.5-.9 2.6-3.5 3.5-2 5.4zm-5.3 2.4s6.5 4.4 15.1 0l-1.6-1s-10.3 2.3-13.5 1z"/><path class="st0" d="M216.6 189.9s-1.8-2.3-3.9-2.9c-2.1-.5-3.7-2.3-3.7-2.3s4.2 5.1 6.8 5.2m10.8 0s1.4-1.8 3-2.5c0-.1.1 1.4-3 2.5zM141.4 82.6s-13.7-5.5-18.7 2.2c-4.9 7.7-3.1 10.2-5.2 11.5-2.1 1.4-10.5 4.2-11.7 6.3-.7 1.2-1.5 3-1.7 6.3-.2 3 .2 6.8.5 8.3.5 3 11.4 10.6 11.4 10.6l13.6 4.9 16.3-15.9v-9.9s3.1-11.4 2.9-12.2c-.4-.8-7.4-12.1-7.4-12.1z"/><path class="st5" d="M191.3 129.1s-2.4-16.8-5.1-17.3c-2.6-.5-8.1-.5-10.2 1.2s-5.8.3-5.8.3l-12.7-1.8-2.1 11.2-1 6.3s-4.2 9-5.8 10.3c-1.5 1.2-4.9 4.7-8.1 6.2-3.2 1.5-5.3 1-4.2 3.3 1 2.3 3.7 2.9 6.8 2.8s4.2.1 7.2 1.5 11.9 3.8 11.9 3.8l21.7-.9 13.1-19.3-5.7-7.6"/><path class="st6" d="M237.9 228.1c-.2 2.1-9.5 3.1-13.1 3.7-3.8.5-6.5 3.5-3.9 6.7 2.5 3.2 3.9 7.6 3.9 7.6s-10.9 5.5-14.3 8.6c-.5.5-1.2 1.5-1.7 1.9-2.6 2.9-4.5 5.6-6.7 7.4-2.5 2.1-8.6-.7-11.9-2.6-3.2-1.9-8.6-6.1-10.4-9.2s-8.6-20.5-8.6-20.5-.8-2.8-1.2-6.3c1.8 0 3.5-.2 4.5-.5 0 0 27.7-9.5 34.7-8.1 3.9.8 15.2 5.3 25.8 4.9 1.8 2.8 3 5 2.9 6.4zm-113 36.5l-1.4 1.2c-7.2-.8-12.9-1.6-13.3-1.8-1.2-.5-6.3-10.4-12.1-12.4-3.2-1.2-5.5-1-8.1-.9l-5.3-13.5c-15-23.4-7.7-79.2-7.6-81.1.1-1.8.2-6.3 2.9-4.6-.9 3.5-2.1 43.3 3.7 65.1s41.2 48 41.2 48z"/><path class="st5" d="M106.1 119.9s-21 34.2-11.7 64.9c9.2 30.7 9.5 38.5 21.7 52.6 10.4 8.1 13.3 11.3 15.2 10.4s-4.6-11.3-6.3-15.9c-1.7-4.6.2-6.3 3.7-5.2s10.2-.5 6.9-3.5c-3.2-2.9-24.7-7.2-27.1-49.3-.5-21.9 3.5-43.8 7.2-46.1l-9.6-7.9zm82.5-44.8c-2.3 1.4-11.5-4.4-13.8-5.4-2.3-1.2-10.9.2-12.4.8-1.5.5-11.9-1.7-11.9-1.7 9.1-3.1 19-4.9 27.7-4 3.5.3 7.2.9 10.6 1.6 2.7 3.4 2.1 7.3-.2 8.7zm32.3 33.5s7-1.2 8.8 2.1c1.7 3.3 2.8 8.6 3.2 10.2.3 1.6 2.9 6.9 3.2 7.6.3.7 1.8 3.1 1.8 5.9 0 2.6.8 8.6-.5 9.5-1.4.7-11.9-10-11.9-10l-7.2-14.4 2.6-10.9z"/><path class="st7" d="M160 258.1s1.5-7.2 6.1-6.9 13.1.2 13.8 1.2c.7.9 4.7 6.1 9.1 8.4 4.4 2.3 9.7 4.9 11.7 3.9 2.1-1 9.3-9.5 10-10.3l-2.4 4.7-.1 5.1.2 2.8s.5 2.1-7 1.9-12.9-.5-12.9-.5-8.6-10.3-13.8-10.9c-5.3-1-9.7-.7-14.7.6zm64.8-12s1.2 6 1.8 8.2c.7 2.2 4.9 5.2 6.2 6.2 1.4 1 7.5 6.3 7.5 6.3s4.9.2 5.5 1.9c0 0 .2-1.7-7.9-7.5 0 0 1-1.4 2.8-.7 1.7.7 12.6 7 14 9.5l1.7 1.6s-2.3-5.9-5.3-9.5l-3-3.5-9.8-1.7s-3.7-11.9-8.8-13c-2.9.7-4.7 2.2-4.7 2.2z"/><path class="st1" d="M257.4 91.8s6.5 2.1 7.6 9.2c1.2 7.2-1.2 8.6-1.2 8.6s6.1-12.6-15.6-17.4c0 0-6.7-1-8.9-.7.4-.3 6.1-3.3 18.1.3zm-116-9.2s-8.9-4.2-15.1-1.8c-6.2 2.3-6.8 9.1-7.2 10.2-.5 1-2.1 5.1-6.6 6.6-4.5 1.4-11.9 5.4-9.2 14.2.3 1.9.2 4.2 1.6 6.2 0 0-2.4-10 .7-14.4 3-4.4 10.9-4.9 13.5-9 2.5-4.2 3.1-11.4 6.8-11.9 3.6-.8 8-2.3 15.5-.1z"/><path class="st7" d="M160.6 95.3c-4.4-3.7-18.4-12.9-19.3-12.6s3.5 8.6 2.9 13.6c-.2 1.9-.2 3.8-.5 5.6 0 0-8.1-.5-13.3-1.7s-15.9-1.4-17.4-1-4.9 1.8-5.9 2.8 14.5 2.9 15.9 4.2c1.4 1.2-3.3 2.3-5.8 3.3-2.4 1-5.1 4.5-.7 3.9 4.4-.5 8.1-1.4 11.7-1.9 3.7-.5 5.6-.7 6.9 0 1.2.7 1.7 1.9 1.7 1.9-.8 1.7-1.4 3.5-2.2 4.6-1.7 2.5-6 9.5-10.2 10.2s-6.6-4.6-9.1 0c0 0 2.5 11.3 9.1 15 6.6 3.7 36.6-6 37.3-8.3s3.2-6 1.8-8.1c-1.4-2.1-3.5.2-3.2-5.5.2-5.8.5-7.2 3.5-7.5s5.9 0 5.9 0-4.7-14.7-9.1-18.5zm85.8 29.6s12.1-10.2 12.3-10c.2.1-8.6-2.3-11.7-.9-3.1 1.4-11 6.2-9.5 7 1.5.7 8.9 3.9 8.9 3.9zm-11.4-26s7.7 1 9.1 1.9c1.4.9 19.6 8.8 19.6 8.8s.5-.5.8-1.6c.7-3.2 1.2-10.4-6.3-13.1-9.8-3.7-5.8-4.2-18.4-3.5-3.5.8-5.5 5.1-5.5 5.1s-.7 1.6.7 2.4z"/><path class="st6" d="M204 179.6l-4.2-1.7-4.2-1.7-4.2-1.6-4.2-1.5c-5.6-1.9-11.3-3.7-17-5.2-5.8-1.5-11.6-2.6-17.5-3.5s-11.7-1.6-17.7-2.1c6 .1 11.9.7 17.9 1.5 5.9.8 11.7 1.9 17.7 3.5 5.8 1.5 11.5 3.2 17.2 5.3l4.2 1.6 4.2 1.7c1.4.5 2.8 1.2 4 1.8s2.5 1.2 3.8 1.9zm-2.8 3.9c-2.4-1.9-5.4-2.5-8.4-2.8-1.5-.2-3-.3-4.5-.5l-4.5-.3c-6-.5-11.9-.8-18.1-.9-6-.1-12.1-.1-18.1.1-6 .2-12.1.5-18.1 1 6-.8 11.9-1.4 18.1-1.6 6-.3 12.1-.5 18.1-.2 6 .1 12.1.5 18.1 1.2l4.5.5c1.5.2 3 .3 4.5.5 2.9.1 6.1 1 8.4 3zm-2.9 5.7c-3.7-.7-7.4-.5-11 .3-1.8.3-3.5.9-5.3 1.5s-3.5 1.2-5.2 2.1c-3.3 1.5-6.7 3.2-10 4.9-3.3 1.6-6.9 2.9-10.4 4.2-7.2 2.3-14.4 3.9-21.4 6.2s-14 5.3-19.6 10.2c5.4-5.1 12.4-8.4 19.5-10.7 7-2.4 14.3-4.2 21.4-6.3 3.5-1.2 7-2.4 10.4-4 3.3-1.5 6.7-3.2 10.2-4.7 1.7-.7 3.5-1.4 5.2-1.9s3.5-1 5.4-1.4c3.4-1.3 7.2-1.4 10.8-.4zm0 4.9c-3.5 1.6-6.9 3.3-10.3 5.3-.8.5-1.7.9-2.5 1.4l-2.4 1.5c-1.6.9-3.2 2.1-4.9 3.1-6.3 4.4-12.2 9.2-17.7 14.6s-10.4 11.3-14.7 17.5c-2.2 3.1-4.4 6.3-6 9.8-1.7 3.5-2.9 7.2-2.5 11-.5-3.8.5-7.7 2.2-11.2 1.6-3.5 3.7-6.7 5.9-9.9 4.2-6.3 9.2-12.3 14.6-17.7 5.5-5.4 11.4-10.4 17.9-14.6l4.9-3.1 2.5-1.5c.8-.5 1.7-.9 2.5-1.4 3.5-1.8 6.9-3.4 10.5-4.8z"/><path class="st6" d="M199.1 197.6c-1.4 1.2-2.8 2.3-4.2 3.5l-2.2 1.7-2.2 1.7c-2.9 2.2-5.8 4.4-8.4 6.8-2.6 2.4-5.1 5.2-6.9 8.2-1.9 3-3.5 6.3-4.5 9.8.8-3.5 2.2-7 4-10.2s4.2-6 6.9-8.6c2.8-2.4 5.6-4.6 8.6-6.8l2.2-1.6 2.2-1.6c1.4-.9 2.9-1.9 4.5-2.9zm9.6-1.2c-.9.8-1.7 1.7-2.5 2.5-.5.5-.8.9-1.2 1.4-.3.5-.8.9-1.2 1.4-1.5 1.8-3 3.8-4.2 5.9-1.2 2.1-2.3 4.2-2.9 6.6-.5 2.3-.7 4.7.1 7-1-2.2-1.2-4.9-.7-7.2.5-2.4 1.5-4.7 2.8-6.8 1.2-2.1 2.8-4 4.4-5.9.5-.5.8-.9 1.2-1.2.5-.5.9-.8 1.4-1.2.8-1 1.7-1.8 2.8-2.5zm28.2-30.3c.3-.5.5-1.2.8-1.6.3-.5.5-1 .9-1.6l1-1.5 1.2-1.5c1.6-1.9 3.3-3.7 5.3-5.2 1.9-1.5 4-2.9 6.3-3.9 2.2-1 4.6-1.8 7-2.4-2.3.8-4.6 1.7-6.7 2.9-2.2 1.2-4.2 2.5-6.1 4-1.8 1.5-3.7 3.1-5.3 4.9l-1.2 1.4-1.2 1.4c-.3.5-.7.9-1 1.5-.3.5-.6 1-1 1.6zm5.8 5c1.2.5 2.3.1 3.3-.5.5-.2 1-.5 1.5-.9s1-.7 1.6-.9c2.2-1.2 4.7-1.6 7.2-1.8 2.4-.2 4.9-.1 7.2 0 2.4.1 4.9.5 7.2.9-2.4-.1-4.9-.2-7.2-.2-2.4 0-4.9 0-7.2.1-2.4.2-4.7.5-6.9 1.6-.5.2-1 .5-1.6.8-.5.2-1 .5-1.6.8-1.1.5-2.5.7-3.5.1zm-2.6 9c2.2-.3 4.4-.5 6.6-.7 1.2-.1 2.2-.1 3.3-.1l3.3-.1c4.4-.1 8.9-.2 13.1 1.2 4.2 1.5 7.7 4.5 10.7 7.7s5.6 6.7 8.8 9.8c-3.3-2.9-6.1-6.3-9.2-9.3-3.1-3.1-6.5-6-10.6-7.4-4-1.4-8.6-1.2-12.9-1.4h-6.7c-1.9.1-4.1.3-6.4.3zm4 9.4c2.3-.1 4.5.2 6.8.7l1.6.5 1.6.5c1 .3 2.1.8 3.1 1.4 4.2 1.9 7.9 4.7 11 7.9 3.2 3.2 6 6.8 8.6 10.6 2.5 3.9 4.7 7.7 6.9 11.7-2.4-3.8-4.9-7.6-7.5-11.3s-5.4-7.2-8.6-10.4-6.8-5.9-10.9-7.9l-3.1-1.4-1.6-.5-1.6-.5c-1.9-.7-4.2-1.1-6.3-1.3zm-2.7 9.7c1.2.9 2.5 1.7 3.7 2.6l1.8 1.4 1.8 1.4c2.4 1.8 4.9 3.7 7.2 5.8 2.3 2.1 4.2 4.6 5.6 7.4 1.4 2.8 2.5 5.6 3.5 8.6-1.2-2.8-2.5-5.5-4-8.2-1.5-2.6-3.3-5.1-5.6-7-2.2-2.1-4.7-3.8-7-5.8l-1.7-1.5-1.7-1.5-3.6-3.2zm-2.4 4.6c1.5.5 2.8 1.4 3.9 2.4.5.5 1.2 1.2 1.6 1.7.5.5.9 1.2 1.4 1.8 1.7 2.5 3.3 5.3 4.7 8.1s2.6 5.6 3.5 8.6 1.5 6.1 1.5 9.2c-.3-3.1-1.2-6.1-2.1-9-1-2.9-2.3-5.8-3.7-8.6s-2.9-5.4-4.5-8.1c-.5-.7-.8-1.2-1.2-1.8-.5-.5-.9-1.2-1.5-1.7-.9-.9-2.2-1.9-3.6-2.6zm-3.3 5.7c.8.7 1.6 1.5 2.3 2.3.3.5.7.8 1 1.2.3.5.7.8 1 1.2 1.2 1.7 2.4 3.7 3.2 5.8s1.2 4.2 1.2 6.5c0 2.2-.3 4.5-1.4 6.5.7-2.1.9-4.2.7-6.3-.1-2.2-.7-4.2-1.4-6.2-.8-1.9-1.8-3.9-3-5.6-.3-.5-.5-.9-.9-1.4-.3-.5-.5-.9-.9-1.2-.5-1-1.2-1.9-1.8-2.8z"/><path class="st8" d="M176.4 129.7s-5.3 1.5-7.2 7.9c.1-.1-.8-9.4 7.2-7.9z"/><path class="st9" d="M169.3 137.5s1 6.7 6.8 5.6c5.8-1.1 4.7-3.5 4.7-3.5s-1.4-10.9-4.7-9.8c-3.4.9-5.4.6-6.8 7.7z"/><path class="st8" d="M173.3 142.9s5.5 2.1 6.7 1.6.9-4.6.9-4.6-3.8 4.3-7.6 3z"/><path class="st9" d="M233.4 128.8s1.2 7.9 1.7 8.2c.5.5 1.5-2.2 1.2-3.5s-1.3-4-2.9-4.7z"/><path class="st8" d="M233.4 128.8s2.1.5 2.8 3.5c0-.1-1.2-1.7-2.8-3.5z"/><circle class="st10" cx="176.8" cy="131.7" r="1.5"/><path class="st10" d="M234.7 129.3c.5 0 .9.4.9.9s-.4.9-.9.9-.9-.4-.9-.9.4-.9.9-.9z"/><g><path class="st0" d="M496.8 272.5s4 1.4 6.2-1.7 2.1-9.2 2.1-9.2l-3.5-1.5h-3.1l-3 5.1 1.3 7.3m11.3 1.1s2.1.1 2.9-.8 2.2 0 2.2 0l3.2-2.4v-7.1l-3.5-2.2-4.6 2.6-.8 3.5.6 6.4m17.7.4s-3.5.3-5.1-2.2c-1.5-2.5-1.6-5.1-1.6-5.3s.9-3 .9-3l1-.8 2.5 2.1 1.4 3.5.8 2.2.1 3.5"/><path class="st1" d="M546.3 268.6s6.1.2 8.8-.5c2.6-.7 4.5-.5 5.3.5s6 5.5 8.6 5.1c2.6-.5 4.2-.5 3.7-2.4-.5-1.8-3-3.7-2.4-4 .5-.3 2.1.2 3.9 2.4 1.8 2.2 3 4.2 5.9 4 2.9 0 6 0 6.2-1.2 0-.5.7 1 2.4.9s8.3-.5 7.9-1.6c-.5-1-10.7-11.3-11-11.4s-11.7-3-11.7-3l-6.9-10.9-1.9-5.9-14 4.4-3.8 2.9-2.4 7.9 1.4 12.8"/><path class="st2" d="M424.5 251.1s-.2 4.7 1.8 7c2.1 2.3 11.2 2.5 14 2.5 2.6 0 6.7-1.2 6.3-1.7-.3-.5-1-7-1-7l-8.2-5.2c-.2 0-10.6 1-12.9 4.4zm68.2 17.7s2.5 3.8 4.2 3.7c1.6-.1 2.5-2.2 1.7-3.5-.8-1.4-1.4-1.8-.2-3s2.5-4.5 2.5-4.5 2.2 1.2 2.2 3.9-.5 3.9 0 5.5 4.5 3.9 5.1 2.9c.5-1 2.4-7 4.2-9 0 0 1.7 2.5 1.7 4.9s-1.6 2.8 1 3.5 5.6 2.4 5.9-2.5.9-6.7.9-6.7 2.9 3.5 3.5 6c.5 2.4.5 4 .5 4s2.4-1.4 2.9-5.1-4.4-11.7-4.4-11.7l-12.6-4.5-14-1.5-6.9 4.5-2.3 8.2 4.1 4.9z"/><path class="st3" d="M604.4 221.8l-16.1 36.8-9.8-1.7s-4.9-15-10.9-12.1c-.8.3-1.7.8-2.8 1.2-6.3 3-15.6 7.2-16.3 12.6-.9 6 .2 9-2.1 9.8s-17.2-.2-17.2-.2-7.6-9.3-13.3-10.7c-5.8-1.4-18.7-1.2-23 5.5-.2 3.5.5 5.4-.2 5.9-.5.3-16.8-1.4-29.1-2.9-7.2-.8-12.9-1.6-13.3-1.8-1.2-.5-6.3-10.4-12.1-12.4-3.2-1.2-5.5-1-8.1-.9-2.1.1-4.2.2-6.9-.2 0 0-28.8-14.4-28.8-63.4s25.6-61 28.8-63.6c3.2-2.5 19.8-26.7 37.5-38 4.6-4.9 16.3-12.1 29.8-16.7 9.1-3.1 19-4.9 27.7-4 3.5.3 7.2.9 10.6 1.6 18 3.5 35.9 11.2 44.7 19.7 1.7 2.5 1.4 5.5 1.4 5.5s12.2-10.9 23.7.6c-.5-.2-17.7-6.9-24.3 4.9 1.2 4.6 11.2-1.7 13.7.9s13.3 9.3 16.6 11.9c3.2 2.6 5.2 6.3 3.5 6.7-1.7.3-15.3-4.4-20.3-2.1-4.9 2.3-10.9 5.5-10 6.5.8.9 10.4 3.7 12.9 6.7s14 18.4 16.3 27.9c2.3 9.5 7.2 43.5-2.6 66z"/><path class="st4" d="M514.6 224.9s27.7-9.5 34.7-8.1c6.9 1.4 36.5 14 45.2-7.6 8.6-21.7 14.7-38.5-11.5-62.7-9.9-11.3-13.3-15.2-16.1-24.7-2.9-9.6-18.2-36.8-21.7-40.5s-12.9-7.9-15.6 7.9c-2.7 15.7 3.5 37.1 1.4 44.7-2.1 7.6-9 21-21.4 23-12.3 2.1-39.2-6.9-46.1 4s-6.9 37.5 7.5 50c14.5 12.3 37.2 16 43.6 14z"/><path class="st2" d="M546.9 207.8s6.9 1.2 8.6 0c0 0 4 3 6.7.2 2.6-2.8 3.5-5.9 3.9-10.3.3-4.4 0-3.5 0-3.5s6.2-3.2 6.8-9.3c.5-6.1-6.2-5.6-9-5.8-2.8-.1-11.4-3.3-13.6-2.3-2.2 1-3.5 3.9-3.5 5.2 0 1.2-.5 8.4 2.2 10.9 1.4 1.9.9 6.9-.1 9.5-.9 2.6-3.5 3.5-2 5.4zm-5.3 2.4s6.5 4.4 15.1 0l-1.6-1s-10.3 2.3-13.5 1z"/><path class="st0" d="M556.7 189.9s-1.8-2.3-3.9-2.9c-2.1-.5-3.7-2.3-3.7-2.3s4.2 5.1 6.8 5.2m10.8 0s1.4-1.8 3-2.5c0-.1.1 1.4-3 2.5zM481.5 82.6s-13.7-5.5-18.7 2.2c-4.9 7.7-3.1 10.2-5.2 11.5-2.1 1.4-10.5 4.2-11.7 6.3-.7 1.2-1.5 3-1.7 6.3-.2 3 .2 6.8.5 8.3.5 3 11.4 10.6 11.4 10.6l13.6 4.9 16.3-15.9v-9.9s3.1-11.4 2.9-12.2c-.4-.8-7.4-12.1-7.4-12.1z"/><path class="st5" d="M531.4 129.1s-2.4-16.8-5.1-17.3c-2.6-.5-8.1-.5-10.2 1.2-2.1 1.7-5.8.3-5.8.3l-12.7-1.8-2.1 11.2-1 6.3s-4.2 9-5.8 10.3c-1.5 1.2-4.9 4.7-8.1 6.2s-5.3 1-4.2 3.3c1 2.3 3.7 2.9 6.8 2.8s4.2.1 7.2 1.5 11.9 3.8 11.9 3.8l21.7-.9 13.1-19.3-5.7-7.6"/><path class="st6" d="M578 228.1c-.2 2.1-9.5 3.1-13.1 3.7-3.8.5-6.5 3.5-3.9 6.7 2.5 3.2 3.9 7.6 3.9 7.6s-10.9 5.5-14.3 8.6c-.5.5-1.2 1.5-1.7 1.9-2.6 2.9-4.5 5.6-6.7 7.4-2.5 2.1-8.6-.7-11.9-2.6-3.2-1.9-8.6-6.1-10.4-9.2-1.8-3.2-8.6-20.5-8.6-20.5s-.8-2.8-1.2-6.3c1.8 0 3.5-.2 4.5-.5 0 0 27.7-9.5 34.7-8.1 3.9.8 15.2 5.3 25.8 4.9 1.8 2.8 3 5 2.9 6.4zm-113 36.5l-1.4 1.2c-7.2-.8-12.9-1.6-13.3-1.8-1.2-.5-6.3-10.4-12.1-12.4-3.2-1.2-5.5-1-8.1-.9l-5.3-13.5c-15-23.4-7.7-79.2-7.6-81.1.1-1.8.2-6.3 2.9-4.6-.9 3.5-2.1 43.3 3.7 65.1 5.7 21.8 41.2 48 41.2 48z"/><path class="st5" d="M446.2 119.9s-21 34.2-11.7 64.9c9.2 30.7 9.5 38.5 21.7 52.6 10.4 8.1 13.3 11.3 15.2 10.4 1.9-.8-4.6-11.3-6.3-15.9-1.7-4.6.2-6.3 3.7-5.2 3.5 1.2 10.2-.5 6.9-3.5-3.2-2.9-24.7-7.2-27.1-49.3-.5-21.9 3.5-43.8 7.2-46.1l-9.6-7.9zm82.5-44.8c-2.3 1.4-11.5-4.4-13.8-5.4-2.3-1.2-10.9.2-12.4.8s-11.9-1.7-11.9-1.7c9.1-3.1 19-4.9 27.7-4 3.5.3 7.2.9 10.6 1.6 2.7 3.4 2.1 7.3-.2 8.7zm32.3 33.5s7-1.2 8.8 2.1c1.7 3.3 2.8 8.6 3.2 10.2.3 1.6 2.9 6.9 3.2 7.6.3.7 1.8 3.1 1.8 5.9 0 2.6.8 8.6-.5 9.5-1.4.7-11.9-10-11.9-10l-7.2-14.4 2.6-10.9z"/><path class="st7" d="M500.1 258.1s1.5-7.2 6.1-6.9 13.1.2 13.8 1.2 4.7 6.1 9.1 8.4c4.4 2.3 9.7 4.9 11.7 3.9 2.1-1 9.3-9.5 10-10.3l-2.4 4.7-.1 5.1.2 2.8s.5 2.1-7 1.9-12.9-.5-12.9-.5-8.6-10.3-13.8-10.9c-5.3-1-9.7-.7-14.7.6zm64.8-12s1.2 6 1.8 8.2c.7 2.2 4.9 5.2 6.2 6.2 1.4 1 7.5 6.3 7.5 6.3s4.9.2 5.5 1.9c0 0 .2-1.7-7.9-7.5 0 0 1-1.4 2.8-.7 1.7.7 12.6 7 14 9.5l1.7 1.6s-2.3-5.9-5.3-9.5l-3-3.5-9.8-1.7s-3.7-11.9-8.8-13c-2.9.7-4.7 2.2-4.7 2.2z"/><path class="st1" d="M597.5 91.8s6.5 2.1 7.6 9.2c1.2 7.2-1.2 8.6-1.2 8.6S610 97 588.3 92.2c0 0-6.7-1-8.9-.7.4-.3 6.1-3.3 18.1.3zm-116-9.2s-8.9-4.2-15.1-1.8c-6.2 2.4-6.8 9.1-7.2 10.2-.5 1-2.1 5.1-6.6 6.6-4.5 1.4-11.9 5.4-9.2 14.2.3 1.9.2 4.2 1.6 6.2 0 0-2.4-10 .7-14.4 3-4.4 10.9-4.9 13.5-9s3.1-11.4 6.8-11.9c3.6-.8 8-2.3 15.5-.1z"/><path class="st7" d="M500.7 95.3c-4.4-3.7-18.4-12.9-19.3-12.6s3.5 8.6 2.9 13.6c-.2 1.9-.2 3.8-.5 5.6 0 0-8.1-.5-13.3-1.7-5.2-1.2-15.9-1.4-17.4-1s-4.9 1.8-5.9 2.8c-1 .9 14.5 2.9 15.9 4.2 1.4 1.2-3.3 2.3-5.8 3.3-2.4 1-5.1 4.5-.7 3.9 4.4-.5 8.1-1.4 11.7-1.9 3.7-.5 5.6-.7 6.9 0 1.2.7 1.7 1.9 1.7 1.9-.8 1.7-1.4 3.5-2.2 4.6-1.7 2.5-6 9.5-10.2 10.2-4.2.7-6.6-4.6-9.1 0 0 0 2.5 11.3 9.1 15s36.6-6 37.3-8.3c.7-2.3 3.2-6 1.8-8.1-1.4-2.1-3.5.2-3.2-5.5.2-5.8.5-7.2 3.5-7.5s5.9 0 5.9 0-4.7-14.7-9.1-18.5zm85.8 29.6s12.1-10.2 12.3-10c.2.1-8.6-2.3-11.7-.9-3.1 1.4-11 6.2-9.5 7 1.5.7 8.9 3.9 8.9 3.9zm-11.4-26s7.7 1 9.1 1.9c1.4.9 19.6 8.8 19.6 8.8s.5-.5.8-1.6c.7-3.2 1.2-10.4-6.3-13.1-9.8-3.7-5.8-4.2-18.4-3.5-3.5.8-5.5 5.1-5.5 5.1s-.7 1.6.7 2.4z"/><path class="st6" d="M544.1 179.6l-4.2-1.7-4.2-1.7-4.2-1.6-4.2-1.5c-5.6-1.9-11.3-3.7-17-5.2-5.8-1.5-11.6-2.6-17.5-3.5s-11.7-1.6-17.7-2.1c6 .1 11.9.7 17.9 1.5 5.9.8 11.7 1.9 17.7 3.5 5.8 1.5 11.5 3.2 17.2 5.3l4.2 1.6 4.2 1.7c1.4.5 2.8 1.2 4 1.8 1.2.6 2.5 1.2 3.8 1.9zm-2.8 3.9c-2.4-1.9-5.4-2.5-8.4-2.8-1.5-.2-3-.3-4.5-.5l-4.5-.3c-6-.5-11.9-.8-18.1-.9-6-.1-12.1-.1-18.1.1s-12.1.5-18.1 1c6-.8 11.9-1.4 18.1-1.6 6-.3 12.1-.5 18.1-.2 6 .1 12.1.5 18.1 1.2l4.5.5c1.5.2 3 .3 4.5.5 2.9.1 6.1 1 8.4 3zm-2.9 5.7c-3.7-.7-7.4-.5-11 .3-1.8.3-3.5.9-5.3 1.5-1.8.5-3.5 1.2-5.2 2.1-3.3 1.5-6.7 3.2-10 4.9-3.3 1.6-6.9 2.9-10.4 4.2-7.2 2.3-14.4 3.9-21.4 6.2s-14 5.3-19.6 10.2c5.4-5.1 12.4-8.4 19.5-10.7 7-2.4 14.3-4.2 21.4-6.3 3.5-1.2 7-2.4 10.4-4 3.3-1.5 6.7-3.2 10.2-4.7 1.7-.7 3.5-1.4 5.2-1.9s3.5-1 5.4-1.4c3.4-1.3 7.2-1.4 10.8-.4zm0 4.9c-3.5 1.6-6.9 3.3-10.3 5.3-.8.5-1.7.9-2.5 1.4l-2.4 1.5c-1.6.9-3.2 2.1-4.9 3.1-6.3 4.4-12.2 9.2-17.7 14.6s-10.4 11.3-14.7 17.5c-2.2 3.1-4.4 6.3-6 9.8-1.7 3.5-2.9 7.2-2.5 11-.5-3.8.5-7.7 2.2-11.2 1.6-3.5 3.7-6.7 5.9-9.9 4.2-6.3 9.2-12.3 14.6-17.7 5.5-5.4 11.4-10.4 17.9-14.6l4.9-3.1 2.5-1.5c.8-.5 1.7-.9 2.5-1.4 3.5-1.8 6.9-3.4 10.5-4.8z"/><path class="st6" d="M539.2 197.6c-1.4 1.2-2.8 2.3-4.2 3.5l-2.2 1.7-2.2 1.7c-2.9 2.2-5.8 4.4-8.4 6.8-2.6 2.4-5.1 5.2-6.9 8.2-1.9 3-3.5 6.3-4.5 9.8.8-3.5 2.2-7 4-10.2s4.2-6 6.9-8.6c2.8-2.4 5.6-4.6 8.6-6.8l2.2-1.6 2.2-1.6c1.4-.9 2.9-1.9 4.5-2.9zm9.6-1.2c-.9.8-1.7 1.7-2.5 2.5-.5.5-.8.9-1.2 1.4-.3.5-.8.9-1.2 1.4-1.5 1.8-3 3.8-4.2 5.9-1.2 2.1-2.3 4.2-2.9 6.6-.5 2.3-.7 4.7.1 7-1-2.2-1.2-4.9-.7-7.2.5-2.4 1.5-4.7 2.8-6.8 1.2-2.1 2.8-4 4.4-5.9.5-.5.8-.9 1.2-1.2.5-.5.9-.8 1.4-1.2.8-1 1.7-1.8 2.8-2.5zm28.2-30.3c.3-.5.5-1.2.8-1.6.3-.5.5-1 .9-1.6l1-1.5 1.2-1.5c1.6-1.9 3.3-3.7 5.3-5.2 1.9-1.5 4-2.9 6.3-3.9 2.2-1 4.6-1.8 7-2.4-2.3.8-4.6 1.7-6.7 2.9-2.2 1.2-4.2 2.5-6.1 4-1.8 1.5-3.7 3.1-5.3 4.9l-1.2 1.4-1.2 1.4c-.3.5-.7.9-1 1.5-.3.5-.6 1-1 1.6zm5.8 5c1.2.5 2.3.1 3.3-.5.5-.2 1-.5 1.5-.9s1-.7 1.6-.9c2.2-1.2 4.7-1.6 7.2-1.8 2.4-.2 4.9-.1 7.2 0 2.4.1 4.9.5 7.2.9-2.4-.1-4.9-.2-7.2-.2-2.4 0-4.9 0-7.2.1-2.4.2-4.7.5-6.9 1.6-.5.2-1 .5-1.6.8-.5.2-1 .5-1.6.8-1.1.5-2.5.7-3.5.1zm-2.6 9c2.2-.3 4.4-.5 6.6-.7 1.2-.1 2.2-.1 3.3-.1l3.3-.1c4.4-.1 8.9-.2 13.1 1.2s7.7 4.5 10.7 7.7 5.6 6.7 8.8 9.8c-3.3-2.9-6.1-6.3-9.2-9.3-3.1-3.1-6.5-6-10.6-7.4-4-1.4-8.6-1.2-12.9-1.4h-6.7c-1.9.1-4.1.3-6.4.3zm4 9.4c2.3-.1 4.5.2 6.8.7l1.6.5 1.6.5c1 .3 2.1.8 3.1 1.4 4.2 1.9 7.9 4.7 11 7.9 3.2 3.2 6 6.8 8.6 10.6 2.5 3.9 4.7 7.7 6.9 11.7-2.4-3.8-4.9-7.6-7.5-11.3s-5.4-7.2-8.6-10.4c-3.2-3.2-6.8-5.9-10.9-7.9l-3.1-1.4-1.6-.5-1.6-.5c-1.9-.7-4.2-1.1-6.3-1.3zm-2.7 9.7c1.2.9 2.5 1.7 3.7 2.6l1.8 1.4 1.8 1.4c2.4 1.8 4.9 3.7 7.2 5.8s4.2 4.6 5.6 7.4c1.4 2.8 2.5 5.6 3.5 8.6-1.2-2.8-2.5-5.5-4-8.2-1.5-2.6-3.3-5.1-5.6-7-2.2-2.1-4.7-3.8-7-5.8l-1.7-1.5-1.7-1.5-3.6-3.2zm-2.4 4.6c1.5.5 2.8 1.4 3.9 2.4.5.5 1.2 1.2 1.6 1.7s.9 1.2 1.4 1.8c1.7 2.5 3.3 5.3 4.7 8.1s2.6 5.6 3.5 8.6 1.5 6.1 1.5 9.2c-.3-3.1-1.2-6.1-2.1-9-1-2.9-2.3-5.8-3.7-8.6s-2.9-5.4-4.5-8.1c-.5-.7-.8-1.2-1.2-1.8-.5-.5-.9-1.2-1.5-1.7-.9-.9-2.2-1.9-3.6-2.6zm-3.3 5.7c.8.7 1.6 1.5 2.3 2.3.3.5.7.8 1 1.2.3.5.7.8 1 1.2 1.2 1.7 2.4 3.7 3.2 5.8s1.2 4.2 1.2 6.5c0 2.2-.3 4.5-1.4 6.5.7-2.1.9-4.2.7-6.3-.1-2.2-.7-4.2-1.4-6.2-.8-1.9-1.8-3.9-3-5.6-.3-.5-.5-.9-.9-1.4-.3-.5-.5-.9-.9-1.2-.5-1-1.2-1.9-1.8-2.8z"/><path class="st8" d="M516.5 129.7s-5.3 1.5-7.2 7.9c.1-.1-.8-9.4 7.2-7.9z"/><path class="st9" d="M509.4 137.5s1 6.7 6.8 5.6c5.8-1.1 4.7-3.5 4.7-3.5s-1.4-10.9-4.7-9.8c-3.4.9-5.4.6-6.8 7.7z"/><path class="st8" d="M513.4 142.9s5.5 2.1 6.7 1.6.9-4.6.9-4.6-3.8 4.3-7.6 3z"/><path class="st9" d="M573.5 128.8s1.2 7.9 1.7 8.2c.5.5 1.5-2.2 1.2-3.5s-1.3-4-2.9-4.7z"/><path class="st8" d="M573.5 128.8s2.1.5 2.8 3.5c0-.1-1.2-1.7-2.8-3.5z"/><circle class="st10" cx="516.9" cy="131.7" r="1.5"/><path class="st10" d="M574.8 129.3c.5 0 .9.4.9.9s-.4.9-.9.9-.9-.4-.9-.9.4-.9.9-.9z"/></g><g id="krem_jasne"><path class="st3" d="M523.9 254.4s-.6-4.1 2.7-5.5c3.3-1.6 35.7-2.1 35.7-2.1l4.6 2.1s4.3 2.3 3.2 4.7c-1.1 2.3-41 3.8-41 3.8l-5.2-3z"/><path d="M570.3 253.5l-7.9 17.3-.6 1.5c-14.8 6.5-29.7 0-29.7 0l-.5-1-7.7-17c.2-1.7 1.5-1.1 2.3-.6.3.2.6.5.7.6 2.2-1.8 3.8.2 3.8.2 2-1.8 3.8.5 3.8.5 1.2-2 4 .3 4 .3 1.2-1.7 3.2-.7 4-.1.2.1.3.2.3.2 2-2 4.1 0 4.1 0 .1-.1.2-.2.3-.2 2.5-1.5 4.3.3 4.3.3 1.8-2 3.8-.2 3.8-.2 1.6-2.2 4.1-.5 4.1-.5 2-2 3.8-.2 3.8-.2 1.1-2.3 3.5-.7 3.5-.7l.3-.3c2.1-1.3 3.3-.1 3.3-.1z" fill="#ceebf0"/><path class="st12" d="M534.4 271.4l-7.4-17c2.2-1.8 3.8.2 3.8.2l3.6 16.8zm2.2 0l-5.8-16.7c2-1.8 3.8.5 3.8.5l2 16.2zm2.7 0l-4.6-16.2c1.2-2 4 .3 4 .3l.6 15.9z"/><path class="st12" d="M542.6 255.4l-.3 16-3.7-15.8c1.2-1.9 3.2-.9 4-.2zm-11 15.8l-7.7-17c.2-1.7 1.5-1.1 2.3-.6.3.2.6.5.7.6l4.7 17zm15.5-15.6l-1.5 15.7-2.5-15.7c1.9-1.9 4 0 4 0zm4.7.1l-3.3 15.6-.8-16c2.3-1.4 4.1.4 4.1.4zm3.8-.2l-4.3 15.8.5-15.6c1.9-2 3.8-.2 3.8-.2zm4.2-.5l-4.8 16.3.7-15.8c1.7-2.3 4.1-.5 4.1-.5z"/><path class="st12" d="M563.6 254.7l-6 16.5 2.1-16.3c2.1-1.9 3.9-.2 3.9-.2zm3.5-.7l-6.8 16.8 3.3-16.1c1.1-2.3 3.5-.7 3.5-.7zm3.2-.5l-7.9 17.3 5-17.2c1.7-1.3 2.9-.1 2.9-.1z"/><path d="M567.1 248.7c-22 5.5-40.5 0-40.5 0-4.5-4.5 2.2-6.9 2.2-6.9-2.7-6.7 5.5-8.5 5.5-8.5-1.6-4.5 3-3.6 8.3-7.5s1.7-9.7 1.7-9.7c3.7.8 6.5 2.8 8.5 5 3 3.2 4.6 7.2 5.2 9.5 0 .1.1.2.1.3.1.2.1.5.1.7.1.3.1.6.1.7 0 .2.1.3.1.3 1.8.6 3.2 1.5 4.2 2.3 3.3 3.1 2 6.9 1.8 7.2 2 .6 2.7 1.5 3.1 2.6.8 2.2-.4 4-.4 4z" fill="#eabab9"/><path d="M567.1 248.7c-22 5.5-40.5 0-40.5 0-.1-.1-.8-1.5 7.2-.2 8.4 1.2 30.3 1.1 34-3.3.5 1.7-.7 3.5-.7 3.5zm-2.3-6.2c-1.5.8-6.5 2.3-13 2.3-17.5 3-22.8-2.8-23-3.1 9.5 4.5 26.2.3 29.3-.2 3.1-.6 3.1-4.6 4.2-6 .1-.1.2-.1.5-.2 3.3 3.1 2 6.9 2 7.2zm-30.4-9.3s14 7.7 24.3-.2c0 0-1.8-9.7-5.8-11.8 0 0 3.8 8.2.2 10.3-3.6 2-5.3 3.9-18.7 1.7z" fill="#ef4a62"/><path d="M551.8 224.2s1.5 5-3 6.3c-4.5 1.2-10.7-.5-11 0s-.3 2.1 4.2 1.8c4.5-.1 12.6.6 9.8-8.1zm-3 14.4s-12.6-.3-15.3-2.7c-1.3.7-1.3 1.2-.5 1.8.8.7 11.5 2.5 15.8.9zm-9.5 8.5s-11.5.1-11.5-1.2c0-1.5-1.2-1.4 11.5 1.2z" fill="#f8dae9"/></g></svg>