<svg id="Layer_1" xmlns="http://www.w3.org/2000/svg" viewBox="0 0 680.3 340.2"><style>.st0{fill:#f26748}.st1{fill:#4d3632}.st2{fill:#6d443a}.st3{fill:#b3533e}.st4{fill:#d6c9c4}.st5{fill:#c2afa4}.st6{fill:#27130e}.st7{fill:#fff}</style><path class="st0" d="M72.5 277.9c-.6-1-1.3-2-1.9-3.2-.1-.4-.4-.6-.6-1-1.2-2.2-2.3-4.5-3.5-6.8-.6-.9-.9-1.9-1.4-2.7-1.2-2.3-2.3-4.8-3.5-7.4v-.1C41.8 213.1 27 153.3 42.2 123.2c8-15.6 17.4-28.7 27.6-38.3 2-5.1 4.8-9.7 8.1-12l.1-.1c.6-.6 1.4-1 2.3-1.4l1.9-.4 7.8-1.4v.7l.1 9 .1 7.1.6 26.3 5.7 31.8 11.3 62.5s-5.5 19.3-11.6 40c0 .1-.1.3-.1.3-.6 2.2-1.3 4.5-1.9 6.8-.7 2.5-1.4 4.9-2.2 7.3-3.3 11.5-6.8 22.2-9.1 29-2.9-2.5-5.5-5.2-7.8-8.3-.4-.6-.9-1.2-1.3-1.7v-.1c-.1-.1-.1-.3-.3-.4-.3-.7-.6-1.3-1-2z"/><path class="st1" d="M199.3 257.3l-1 10.7-.3.1-6.4 4.2s-12.1 5.4-18.5 11.2c-6.2 5.8-8.1 9.4-14.3 24.2-.3.6-.4 1-.6 1.6-.7.1-21.9 2.6-44.2-3.3-.1 0-.4-.1-.6-.1-1-.3-1.9-.6-3-.9-1.9-.6-3.6-1.2-5.5-1.9-1-.4-1.9-.7-3-1.2l.9-7.1 1.9-14.3 5.8-6.1 3.9-4.2 4.5-4.8 3.2-3.8 11.2-13.4 3.3-4.2 4.8-1.4.9-.3 6.1-1.9 4.5-1.3 2.3-.6 10.4-2 14.9 4.1 5.4 4.8 2.5 2.2 1.6 1.4 9.3 8.3z"/><path class="st0" d="M298.5 69.4s-5.2 14.2-6.2 20.2c-1 5.8-3.9 22-4.2 23l-5.4 9.5-1.7 3.2-6.8 11.9-6.1 10.8-30.4 53.8-4.9.3-8.3.4-24.6 1.3-.7 2.3-2.7 8.3-4.7 14.6h-20.7l-3.6-1.3-16.1-5.5-6.7 2.5-14.7 5.6-1 .4-1.9.7-5.8 5.7-4.5 4.5-2.7 2.7-4.2 4.1-2.6 2.5-8.8 8.7-.6.6-2.3.6-3 .6-19.8 3.9V82s.1 0 .3-.3c1-.7 4.5-3.8 6-6.2.6-1 1.6-1.7 2.7-2.3 1.7-.9 3.9-1.6 6.5-2.6.6-.3 1.3-.6 1.9-1h.1c.1 0 0 0 0 0 1.2-.6 3-1 5.1-1.3 5.2-.6 12.1-.3 15.1 0h1.4l17.8 2.6H151l3.6-2c1.7-1 3.2-2.2 3.3-2.9.1-1.3-.7-8.1 0-13.9s1.9-12 7.5-16.7c5.8-4.6 17.7 8.6 17.7 8.6v.3c.3 1.3 1.9 8.6 4.2 13.3 2.5 5.1 7.7 7 7.7 7h.7l17.3-.1h4.1s5.2-.9 11 0 4.5 2 6 4.1c1.4 1.9 12.8 5.5 12.8 5.5s4.7-1.9 7.7-5.1 7.5-11 16.3-17.5 17.4-.3 22.3 3.2 5.3 14.7 5.3 14.7z"/><path class="st2" d="M175.7 211.3s10 7.8 11.6 11 1.9 10.3 1.9 10.3l5.1 3.2 15.4.6 5.4-6.7 4.9-6 4.1-6.1s-1.9-6.7-2.3-6.5c-.6.1-10.1-3.8-10.1-3.8l-11.6-1.4h-10.7l-7.1 2.2-6.6 3.2z"/><path class="st3" d="M177.3 213.6s-3-2.3 2.3-2.3 7.7 3.2 13.3 3.2 22.5-1.3 24.4 0c1.7 1.3 4.2 2.3 4.2 2.3s-3 .9-6.1 2.2c-3.2 1.4-1.6 3.2-1.6 3.2l3.5 5.6 4.2 1.9 16.2-3.2 11.2-6.1-3.3-8.2-2.2-3 13.6-14.8 5.7-13-.7-7.1 11.5 23.2 1.4 4.2h3.5s11.3-15.6 12.1-24.6c.7-8.8 3.3-40 3.3-40s-4.6-22.6-5.6-24.7c-.9-2-4.5-2.9-4.5-2.9s-12.8-6.4-12.8-3.3c0 3 1.7 6.4 1.7 6.4s1.4 6.9.6 12.9c-.9 6-8.2 12.8-8.2 12.8l-3.6 1.2s-.4 12.1-4.1 13.9c-3.6 1.9-11.9 10.3-11.9 10.3l-9.9-1.3s-1.3-31-10.9-28.4c-9.5 2.6-6.5 6.9-9.3 7.5-2.7.6-5.5-.6-5.2-3.8.1-3.2 1.9-10.6 0-10.3-1.9.3-5.6 4.2-6.1 16.4s-3.2 16.1-5.4 19.8c-2.2 3.6-7.3 12.9-11 17.8-3.9 4.9-8 15.6-10.1 20.2-2.2 4.5-3.2 10.8-1 11.9l.8.1z"/><path class="st2" d="M220.2 148.6s-2.9 12.6-3.2 23.5c-.3 10.8 2.5 19.8 4.3 22.3 1.9 2.5 3.8 3.9 3 7.7-.7 3.8-1.4 5.7.1 5.1 1.6-.6 10.4-2.6 11.3-13.4s.4-11.3-.6-14.6-.7-6.4-.7-6.4l-5.1-16.7c.2-.1-5.3-12.2-9.1-7.5zm-71.9 92l-.1 1.6-.3 2.5-.1 1-.3 2.5-.1 1.2v.3l-.7 5.8s-.1.6-.6 1.6c-.1.6-.4 1.3-.6 2.2-1 3.9-2.9 10.1-4.1 14.6-1.9 7.1-12 11.5-16.5 12.3-4.5 1-10.7 8.4-10.7 8.4-.1.6-.6 5.7-.7 10.8-1-.3-1.9-.6-3-.9-1.9-.6-3.6-1.2-5.5-1.9-1-.4-1.9-.7-3-1.2-.3-.1-.6-.3-1-.4-6.2-2.7-12.2-6.2-17.6-10.9-2.9-2.5-5.5-5.2-7.8-8.3-.6-.6-1-1.4-1.6-2-.4-.6-.7-1.2-1.2-1.7v-20.9s2.6-1.7 4.9-4.8c.6-1 1.7-.6 2.6 0 2.2 1.6 4.3 4.8 3.9 0-.6-7-1.6-16.4-2.2-32.8-.4-12.9 6.4-10.6 9.4-9 .7.4 1.3.7 1.3.7s-.7-8.6-.3-25.8c.3-12.1.6-24.6 4.5-41 1.7-6.9 4.1-14.6 7.3-23.2 2.7-7.3 6.1-13.3 9.5-18.1 5.4-7.4 11-12.1 15.9-15.4 4.3-2.9 7.8-4.5 9.4-5.8 2.5-1.9 5.6-1.9 8.1-.6l1.2.7c.9.7 1.7 1.9 2.2 3.2.3.6.4 1.2.4 1.9.3 4.2-4.5 20.3-6.8 28.3-.9 2.7-1.4 4.5-1.4 4.5l-.1.1-2 2-8.1 8-5.5 22.3 17.7 72.2 2.3 9.4 1.3 6.6z"/><path class="st4" d="M287.9 117.1s5.5 15.6 4.3 24.5-3.9 36.2-5.2 40c-1.3 3.9-5.6 8.8-6.8 11.9-1.2 3-5.7 10.3-5.7 10.3l-3.5 11.9s-19.1 10.7-20.4 11c-1.3.4-5.7 4.8-7.5 7-1.9 2-7.4 10.7-18.6 13.3s-14.5 2.5-18.7.9c-4.5-1.4-10.3-7.3-10.3-7.3s-5.1 7.1-7 6.9c-1.9-.1-18.6-6.2-18.6-6.2h-4.2s8.6 17.3 17.4 21.9 22.9 9.6 43.9-3.8c21-13.4 19.9-15.8 26.5-21 6.8-5.2 14.9-9.9 22.3-25.1s20.2-36.4 20.2-54.5.4-26.3-1.6-32.3c-1.9-5.9-5.6-16.4-6.5-14.1-.6 2.5 0 4.7 0 4.7z"/><path class="st4" d="M142.5 120.2s-5.2-4.5-9.9-1.6c-4.7 3-6.4 11.9-8 13-1.6 1-2.5.9-2.6-3.9-.1-4.8 1.9-10.3-1.3-9.1-3.2 1.3-11.7 34.6-10.4 50.5 1.3 16 13.5 56.2 21.9 64.7 8.3 8.5 15.5 12.6 21.7 14.7 6.4 2 15.4-.3 15.4-.3l55.1 2.2s1.4-15.2-7-17.7-16.2-1.4-16.2-1.4-3.2 1.2-6.1 1.4-4.9-2.7-4.9-2.7-4.8-10.6-9.4-11.6c-4.5-1-12.6-2.9-15.1-6-2.5-3.2-10.6-8.7-11.6-9s-12.8-20.2-12.8-20.2l-7.1-30.6c0 .2 7.8-29.7 8.3-32.4z"/><path class="st4" d="M201.1 231.3s3.6-5.6 5.8-7.1c2.2-1.6 9.5-4.3 9.5-4.3s6.8-1.3 6.8 1.3-.9 7.4 0 6.9c.9-.4 14.9-4.1 14.9-4.1h2.9l11.9-.7-.6 5.8-12.8 13.2-19.6 10-14.3-8.3-4.5-12.7z"/><path class="st5" d="M161.5 135.4s3.6-.4 4.2 1.9c.6 2.3 2.3 8.1 7.7 10.3 5.4 2.3 7.3-.4 7.3-.4l-.3 4.9s-.9 3.2-1.6 3.9c-.6.6-4.2 6.5-5.6 5.5-1.4-1 1.4-3.6 1-4.9-.4-1.4-1-3.6-1.3-3.9-.1-.1-2.2 1-4.5-.6-1-.6-3.2-2.6-4.2-3.2-1.6-1-1.7-3.2-1.7-3.2l-1.4-4.3.4-6zm76.7 30s2.7 1 2.9-1c.1-2 18.9-12.8 19.4-14.2s1.9-5.4 1.9-5.4l-6.7.3s-2.6 8.4-5.5 9.3c-2.9.8-12.9 1.2-14.3 3.8s-1.7 6.2-.7 6.8 2.6.1 2.6.1l.4.3zm45.7-8s-2.3-2.9-5.4-1.4c-3.2 1.6-7 5.6-7 5.6s-1.6 3.3-3 4.3c-1.4.9-4.7-3-7.1 1.4-2.5 4.5-.4 7.1-.4 7.1l-4.2 1.4s.3.6 0 3.9c-.3 3.2-.6 6-.6 6s-3.3 3.6-4.7 5.7c-1.3 1.9-8.3 17.8-8.3 17.8s4.2 5.6 2 9.1c-2.1 3.5-8.6 8.1-7.3 9.5s12.2-3.9 12.2-3.9 21.2-6.1 21.7-7.1c.6-1 5.1-19.4 6.9-24.5s8.1-24.9 6.8-28c-1.2-2.8-1.6-6.9-1.6-6.9zm-98.7-12s-.6 4.3.6 4.3c1.3 0 1.9-17.4 2.5-21.3.6-3.9 6.4-10.9 7.3-12.2.9-1.2-2.2-7.7-2.7-8.3-.6-.6-4.2-1.9-3.2-4.1s1.9-2.7 0-4.8c-1.9-2 1.9-6.1 0-6.1s-7-.9-8.6 2-6.4 9-6.4 9-.7-2.3-2.9 0c-2 2.3-6.1 4.1-6.7 7.3-.6 3.2-4.9 8.8-3.6 10.4 1.3 1.7-1.3 2.6 4.2 3.6s4.9-1.4 5.5 1c.6 2.5 10 6.4 12 10.9 1.9 4.7 2 8.3 2 8.3zm-48.6 2.6s.3-6.1 3.2-4.1c3 2 2.6 5.4 2.9 9.7.3 4.5 3.2 7.5 4.7 9.4 1.3 1.9 4.2 3.6 6.8 7.1s3.3 4.8 3.5 6.1c.1 1.3 1.3 7.1 1.2 9s-.4-.7-1.9 3.2c-1.6 3.9-.7 2.7-1 5.7s1.3 3.9 0 6.4.6 4.2-2.9 2.9-8.2-4.5-9.6-7.5c-1.3-3-6.2-8.7-7.8-15.2s-1.4-32-1.4-32l2.3-.7z"/><path class="st5" d="M166.9 134.1s-1.4 1.7-1 3.9 8.4 17.1 14.3 7.7c6-9.4 1.9-10.3 1.9-10.3s-5.2-6.7-11.3-4.5c-6.2 2.1-3.9 3.2-3.9 3.2zm70.7 7.9s-3.5 3.3-1.7 8.2 4.8 5.1 4.8 5.1 7.7-.3 8.8-1.2c1.2-.9 4.1-6.2 4.1-6.2V143l-1.4-2.3-1.3-.7-5.5.4-4.2.4-3.6 1.2z"/><path class="st5" d="M229.5 156s-1-11.7.7-16.5c1.9-4.8 3.9-13.4 2.9-16.5-1-3.2-.3-7.7 1.6-9s3.5-4.3 3.5-4.3-2.7-3-2.2-4.3c.6-1.3 3.9 0 5.2-1.6s-6.5-4.9-6.5-4.9l-4.3-2s4.8-3 8.3-1c3.5 1.9 11 2.9 12.2 6.5s1.7 5.1 2 8.7-.4 4.9.9 6.8c1.3 1.9 2.2 1.6 3.3 5.1 1.2 3.5 2.5 3.9 1.6 6.7-.9 2.7-1.7 2-1.9 4.5-.1 2.3 4.1 2.3 4.3 3.2.4.7 1.2 2 1.2 2l-2.3 2.9-9.3-2.5s-6.2-.6-9.7.7c-3.5 1.4-6.4 3.3-6.5 8.1s0 6.8 0 6.8l-5 .6zm-50-91.9s9.1-20.2-.6-28.9-18.9-4.5-22.2 1.7c-3.2 6.2-6.9 22.8-5.7 25 1.2 2.2 4.8 3.2 3.8 6.4s-3.2.7-3.8 6-1.2 10.9-.3 13.2 5.6 2.6 7.3-1c1.8-3.6.6-6.5.6-6.5s4.5-4.7 5.6-5.6c1.2-.9-1.3-6.7-1.9-10.1 0 0-4.9-13.9 1-21.5 6.1-7.5 11.6-2.9 12.1 4.5s-2.2 19.3 0 18.6c2.5-.8 4.1-1.8 4.1-1.8zm110.6 17.5s10.6-15.2 4.2-22c-6.2-6.7-15.5-7.8-21.9-4.1-6.4 3.6-10 7.1-12 10.1-1.9 3-3.2 8.7-5.5 4.9-2.2-3.6 3.5-23.5 22.8-23.6 19.3-.3 28.4 10.1 26.1 22.3-2.3 12.1-6.8 12.6-9.1 16-2.3 3.3-.7 4.5-4.7 4.5-3.7.4.1-8.1.1-8.1z"/><path class="st6" d="M250.5 226.8s18-4.5 19.9-7.5 3.2-6.2 0-5.5c-3.2.9-8.4 5.5-12.1 6.4-3.6.9-3.5 1.4-5.2 2.2-1.6.8-4 1.5-2.6 4.4zm-29 2.4s22.3-2.6 23.6-10.7c1.3-8.1-2.9-10.1-4.9-8.7-2.2 1.6-3.9 3.2-3.2 3.8.6.6 2.9-.6 4.2 0s3.2 5.7 0 7.5c-3.3 1.8-21.6 3.7-19.7 8.1zm-5 8.1s21.2 1.3 27.6-7.4c-.1.1-23.4 4.8-27.6 7.4zm20.4 3.3l-20.4 2.3c0 .2 16.9 3.4 20.4-2.3zm-53.1-3.2s-24.4-.9-28-9.4c0 .1 21.5 8.7 28 9.4zm-6.5-6.1s-22.3-5.8-23.2-14.3c-.1 0 19.7 12.8 23.2 14.3zm-5.8-10.2s-13.3-6.2-15.9-14.9c.2-.1 10.1 8.3 15.9 14.9zm18.3 10.2s3.5-10.7-13.6-17.7c-.1 0 12.8 12.9 13.6 17.7zm11.3 0s-1-16.1 20.3-14.3c0 0-16.1 9.1-20.3 14.3zm-57.3-35.6l9.1 7.5s-1.6 5.6-1.6 8.1c.1 0-8.2-11.1-7.5-15.6zm10.2-91.8s-23.6 31.5-18.5 76.5c0 0-13.4-43.3 17.3-76.5h1.2zm-4.7 21.8s-7.4 34.9-7.8 43.3c-.4 8.4.1 15.4 2.3 14.7 2.2-.6.4-8.7 1.4-8.4 1.2.3 11.9 5.5 12.9 1.7-2.3-3.5-9.5-4.9-11-7.4-1.6-2.3 7.1-49.4 4.8-47.9-2.4 1.6-2.6 4-2.6 4z"/><path class="st6" d="M153 145.4s-4.2 16.2 0 19.3c5.2 0 4.2-1 2.9-3.2-1.4-2.3-3.2-12.1-2.9-16.1zm21.4 29.1s11.7-14.6 10.1-16.2c-1.4-1.8-6.9-2.3-10.1 16.2zM159.5 151s4.2 2.2 4.2 4.9c-.1.1-2.9.3-4.2-4.9zm2-15.2s-2 14.9 11.6 16.9c-.9 3.2-1.3 2.2-3.6 2.2s-11.8-2.6-8-19.1zm-3.3-9.1s-1.6 1.9-1.3 4.8c.3 2.9 3.2 3.5 3.8 1.6.4-2-2.5-6.4-2.5-6.4zm1.3-5s-1.3-16.2 10-25.8c0 0-5.7 14.6-5.1 17.3.6 2.9-2.7 9.6-4.9 8.5zm4.9 11.1s9.1-6.1 15.2-1.3 5.5 8.4 5.2 12.1c-.3 3.7-1-2.3-2-4.8-1-2.3-3.9-6.2-6.2-6.5s-8 1.6-9.5 1.9c-1.8.2-2.7-1.4-2.7-1.4zm1.3 4.4s1.6 9.5 7.4 11.6c5.8 2 6 3 6.5 3.9s2.2-2.3 1.2-5.6c-1-3.2 0-.6-2.3 0-2.5.6-6 4.2-12.8-9.9zm15.4-10.5s-4.5-12.8-6.7-13.9c-2.2-1-6.9 4.2-6.5 6.1s5.5 8.7 5.5 8.7-2.5-6.7 0-5.8c2.6.5 7.7 4.9 7.7 4.9zm4.8 1.8s-1.6-10.1 0-12.1c1.6-1.9 2.3-6.8 0-4.5-2.3 2.2-3.2 13.9-2.6 14.9.7 1 2.6 1.7 2.6 1.7zm-11.2-24.6s7.3-16.5 8.4-13.6c1.1 2.8-8.4 13.6-8.4 13.6zM173.1 90s8.8-8.3 5.8-9.6c-3-1.3-5.7.3-5.6 2.6.2 2.2-.2 7-.2 7zm6.5 18.8s10.4-5.6 15.9-4.9c5.5.6 4.2 2.5 4.2 2.5l-20.1 2.4zm12 17.9s1-8.1 6.9-14.1c0 .2-1.7 10-6.9 14.1zm1.3 7.4s10.7-10.3 12.8-16.1c0 .1-12.1 11.4-12.8 16.1zm15.3-25.3s-10.4-.6-8.6 2.3c1.8 3 7.1 1 8.6-2.3zm1.1-14.2s-9.1-5.1-22.8 2.3c0 .1 21.1-.2 22.8-2.3zm-5.5-16.1s-12 2.9-16.5 6.4c.2 0 15.2 3.2 16.5-6.4zM195 64.2s19.1-.4 20.2 0c1.1.6-8 18.1-20.2 0zm20.3 61s-1.9-10.4-2.2-15.4c0 0-7.8 13.3-7.4 15.4.4 2.2 3.8-4.1 4.8-3.3 1 .4 3.8 6.7 4.8 3.3zM212.8 90s.4 1.4 2.5-1.2c2-2.6 2.5-1.2 2.5 1.6 0 2.7 1.3 3.3 1 5.6-.3 2.2 1.6 7.8-.9 6.2-2.3-1.6-2.6-3.9-3.9-3-1.2.8-2.5-9.2-1.2-9.2zm5.2-12.5s-10.1.6-7.5 4.5c2.6 4 15.4 2.6 13.8 0-1.6-2.6 0-9.1-1.9-9.6-2-.5-3.2 5-4.4 5.1zm.4 32.2s0 13 .7 16.9c.9 3.9 3.8 4.5 3.8 3.6 0-.9-4.3-13.4-2.3-15.9 2-2.3 3.3.1 3.6-1.9.6-2-3.8-5-5.8-2.7zm7-12.7s5.6 4.9 17.2 5.5c0 0-15.4-11.3-18.1-9.5 0 0-.9 1.9 0 3l.9 1zm5.7-24.7l-1 5.2s-3.6 1.2-2.9 2.3c.9 1.2 13.4 14.6 17.8 10.1 0-8-11.6-8.4-11.6-10.1-.1-1.7-2.3-7.5-2.3-7.5zm21.8 20.4s7.1 8 7.5 6-7.5-6-7.5-6zm-25.9 38s-.3-13.6 3.2-15.2c.9 4.7-3 12.9-3.2 15.2zm3.2-23.3s11.9 5.2 14.6 8.1c4.2 0-3.5-4.2-4.8-5.6-1.2-1.5-6.5-3.8-9.8-2.5zm5.8 26.7s4.8-11.2 3.8-14.5c3.3 0 .3 10.8-3.8 14.5zm8-3.4s5.6-12.6 10.8-10.9-.9 14.6-2.9 14.3c.9-4.5 2.2-7.8.9-7.4-1.2.3-8.8 4-8.8 4zm18 0s3.2-18.9 0-24.4c-1.5 9.2 0 24.4 0 24.4zM229.5 156s-2.2 15.4-.9 17.6c1.3 2.2 4.8 3.6 5.8 2.2 1-1.6 4.2-6.2 3.6-8.7-.6-2.5-1.3-4.9-1-6.8.3-1.7 3.5-3.9 9-4.3 5.5-.4 10-7.8 9.6-10.9 2.6-.3 6.7-.3 6.7-.3v-5.5s-7.1-.4-9.5-.9c-2.3-.4-1.3 3-1 5.5.3 2.3 3.5 10.8-9.4 9.6-12.6-1.2-12.9 2.5-12.9 2.5z"/><path class="st6" d="M233.3 153.6s-1.4-10.7 5.4-13.9c6.8-3.2 14.3-1.3 14.3-1.3l-1.3 4.1s-12.5-4.3-14.6 3.3c-2 7.7 4.1 8 4.1 8h-7.8l-.1-.2zm27.2-3.5s-10.6 8.8-14.5 9.1c-3.8.3-5.2 3-4.9 3.9s.9 4.9 2.9 4.8c1.9-.3 6-.1 6-2s-.6-3.6.4-4.3c1.1-.6 9.8-6.2 10.1-11.5zm5.4-12.3s5.2 22.9 4.2 25.9c7.1-10.1 6.2-25.8 4.9-26.5-1.3-.8-9.1.6-9.1.6zM271 169s1 14.7-14.2 16.7c9.3 4.9 12.9 8.1 9.3 12 10-6.8 7.4-7.8 4.9-9.5-2.3-1.7-4.9-2.3-4.9-2.3s8.2-8.8 4.9-16.9zm-10.5-1l-7.5 7.5s8.2 1.7 8.4-2.3c.3-4.2-.9-5.2-.9-5.2zm-10.4 25.6s3.2 4.8 1.9 6.1c-1.7 1.2-1.9-6.1-1.9-6.1zm-1.2 12.5s4.5-1.3 4.9 0-1 3.9-2.5 3.2c-1.4-.6-2.4-3.2-2.4-3.2zm12.5-2.6s-2.6.9-2.6 2.6c0 1.7 2.5 0 2.5 0l.1-2.6zm-6 8.7s2.6-.9 3.5-.9 0 2.3 0 2.3l-3.5-1.4zm-78.1-23s.4 7.4-1 6.5c-1.6-.9-1.4-3.2-1.4-3.2v-3.2h2.4v-.1zm-24.3-1.1s.9 8.8 0 8.6c-.9-.3-5.2-1.9-4.5-3.2.5-1.2 2.7-6.9 4.5-5.4zm-20.3-4.3s5.1 17.7 2.7 18c-2.4.3-3.9-15.8-2.7-18zm28.8 66.8s2 7.4 4.2 10 1 9.4 0 8.1-6.8-5.2-7.5-7.4c-1-2.3-2.4-12 3.3-10.7zm-15.5-.1s-1.2 12.1 3.8 19.7c4.9 7.5 14.1 17.2 14.9 16.2.9-.9 2.9-2.2 0-4.5s-14.5-18.6-14.9-25.7c-.5-6.9-2.3-7.9-3.8-5.7zm-70.5 31.6c-.6-.6-1-1.4-1.6-2-.4-.6-.7-1.2-1.2-1.7v-5.8c0 .4.1 1 .4 1.7v.1c.4 1.7 1.2 4.5 2.4 7.7zM114 295c0 .6-.4 6.4-.3 10.9-.1 0-.4-.1-.6-.1-1-.3-1.9-.6-3-.9.4-3.9.9-8.1.9-9.9.2-4.1 3.1-.2 3 0 .1-.2.1-.2 0 0zm-9 7.7c0 .1 0 .1-.1.3-1-.4-1.9-.7-3-1.2-.3-.1-.6-.3-1-.4-.6-1-1.2-2.3-1.3-3.2-.6-2.5-2.3-9.6-1.9-12.9.3-1.4-.9-12.3-2.3-24.5-.3-2.2-.6-4.5-.7-6.8-1.7-13.9-3.5-27.4-3.5-27.4s-1.3-14.5.1-16.2c.3-.4.7-.1 1.3.7 0 6.1 1.9 21 3.9 35.7v.3c.6 4.3 1.2 8.4 1.7 12.6.9 7.1 1.7 13.6 2.2 18.4.6 7 1.6 12.5 2.5 16.5 1.1 5.5 2.1 8.1 2.1 8.1zm5.1-30.3s3.6 23.8 4.5 10.7c.9-13.3-2.7-25.4-4.5-32.5-1.9-7-3.3-16.5-5.1-16.8-1.7-.3 3.6 24.1 3.9 29 .3 4.9 1.2 9.6 1.2 9.6zm-1.8-87.3s-.6 40.6 2.9 50.5c3.5 10 7.4 27.7 8.2 31.5.6 3.6 3.5 1 2.6-5.8-.9-6.9-8.7-28.7-9.4-33.2-.6-4.5-1.4-45.2-2.5-46.2-1.1-1.2-1.8 3.2-1.8 3.2zm39.9-97.7S128.5 107 124.6 127c3.5-26.4 22.3-45.3 22.3-45.3l1.2-1.9v7.6h.1zm16.2-19.2s-.6 6.2-2.9 6.7c-2.2.4-4.5 5.2-2.7 6.8 1.9 1.6 3.2 5.4 4.8 2.9s6.9-4.8 5.8-7.7-1.9-10.8-2.6-10.9c-.7-.2-2.4 2.2-2.4 2.2zm-17.5 2.5s-32.8 29.4-40.1 49c6.9-23.8 27.6-45.1 33.1-49h7zm-22.2 9.1s-14.7 14.3-20.6 24.1c0 0 6.1-18.8 20.6-24.1z"/><path class="st6" d="M129.8 70.7s-27.6 17.6-35.5 39c-.2 0 11.1-37.2 35.5-39zm-17.9-2.5s-39.3 23.9-39.3 58.7V107s18.5-41.6 39.3-38.8zm-21.7 1.2c-.4.1-1.1.6-2 1-2 1-5.5 3-8.6 5.7-.7.6-1.6 1.3-2.2 2-1.9 2-3.6 4.5-4.5 7v-1.3c0-.6.1-1.3.3-2.2v-.1c.6-2.7 1.7-6.5 5.1-9.1.6-.6 1.4-1 2.3-1.4.4-.3.7-.4 1-.6 2.2-.6 5.1-1.1 8.6-1zm185.7 49s10.7 7.8 9.3 31.6c-1.4 23.8-4.5 38.9-6.5 42.3 0 0 14.6-29.1 10.9-50s-14.1-32-16.4-31.3c-2.4.7 2.7 7.4 2.7 7.4zm-7.7-20.9c-.1.9.3 1.9 1 2.3 3.2 2.5 12.5 9.1 14.5 9.9 2.5.9 3.3-10.3 3.2-14.8-.1-4.5 6.5-15.2 5.1-19.4s-8.4-9.7-14.2-5.4c-5.8 4.3-8 14.8-8.6 19-.4 2.9-.8 6.4-1 8.4zm-97.4 143.8s18.9 9.6 23.3-.6v-8s1.9-2.2 1.9 0c.1 2.2 0 6.8 0 6.8s7 8 15.9 8.1 14.7-1 14.7-1-11.5 4.3-19 2.7-12.3-8.7-12.3-8.7-2.5 6.8-7 6.9c-4.5.1-18.6-6.2-18.6-6.2h1.1z"/><circle class="st6" cx="244" cy="146.8" r="2.9"/><circle class="st6" cx="174.7" cy="139.7" r="2.9"/><path class="st6" d="M171.2 58.2s-2.3-11.7-5.5-13-6 3.5-4.2 6.5c1.9 3 3.2 4.3 4.5 6.5s1 11.2 3.8 11.3c2.8.2 1.4-11.3 1.4-11.3z"/><circle class="st7" cx="177.6" cy="139.7" r="1.9"/><circle class="st7" cx="246.9" cy="146.8" r="1.9"/><path class="st4" d="M241.6 244.7c.7-.3 1.6-.3 2.3 0s1.4.6 2.2.9c.6.4 1.4.6 2 1s1.3.7 2 1.2c2.7 1.7 5.2 3.6 7.4 6 2.2 2.2 4.2 4.7 6 7.4 1.7 2.6 3.2 5.5 4.2 8.4-1.3-2.9-2.9-5.6-4.7-8.1-1.9-2.6-3.8-4.9-6-7.1-2.2-2.2-4.5-4.2-7.1-6-.6-.4-1.3-.9-1.9-1.3l-1.9-1.1c-.6-.4-1.3-.7-2-1-1-.3-1.7-.6-2.5-.3zm-1.2 3c.7.4 1.7.7 2.5 1.2l1.2.6 1.2.6c1.6.9 3 1.9 4.5 3 1.4 1 2.9 2.2 4.1 3.6 1.2 1.3 2.2 3.2 2 4.9-.3-1.9-1.3-3.2-2.6-4.5-1.3-1.2-2.7-2.2-4.2-3.3l-4.3-3.2-1-.7-1-.7c-.8-.3-1.4-.8-2.4-1.5z"/><path class="st4" d="M240.4 247.7c.6.1 1 .1 1.4.3.6.1 1 .3 1.4.4l1.4.6 1.4.6c1.9.7 3.5 1.9 5.1 3.2s2.9 2.9 4.1 4.5c1.2 1.6 2 3.5 2.6 5.5-.9-1.9-1.9-3.5-3.2-5.1-1.2-1.6-2.6-3-4.1-4.2-1.6-1.3-3.2-2.3-4.8-3.2l-1.3-.6-1.3-.6c-.4-.1-.9-.4-1.4-.6-.3-.5-.8-.6-1.3-.8zM236 251c.9 0 1.9.1 2.7.4.4.1.9.3 1.3.4.4.1.9.4 1.3.6 1.7.7 3.2 1.9 4.5 3.3 1.3 1.4 2.3 3 3.2 4.7.7 1.7 1.3 3.5 1.7 5.4-.6-1.7-1.4-3.3-2.3-4.9-.9-1.6-1.9-3-3.2-4.5-1.2-1.3-2.6-2.5-4.2-3.3-.4-.3-.7-.4-1.2-.6-.4-.3-.7-.4-1.2-.6-1-.4-1.7-.7-2.6-.9zm-1 2.4c1 .6 1.9 1.4 2.7 2.2.4.4.7.7 1.2 1.3.4.4.7.9 1.2 1.4 1.4 1.9 2.6 4.1 3.5 6.1.9 2.2 1.7 4.5 2.3 6.7s1 4.5 1.6 6.9c-.7-2.6-1.6-4.5-2.2-6.7-.7-2.2-1.6-4.5-2.5-6.5s-2-4.2-3.3-6.1c-.3-.6-.6-.9-1-1.4-.4-.6-.6-.9-1-1.3-.9-1.1-1.8-1.9-2.5-2.6zm-5.9 2.4c1.6.6 2.7 1.7 3.8 3 .6.6 1 1.3 1.4 2 .4.6.7 1.4 1.2 2.2 1.3 3 2.2 6.2 2.6 9.4.4 3.2.4 6.5 0 9.7s-1.3 6.4-2.7 9.4c1-3.2 1.7-6.2 1.9-9.4.3-3.2.3-6.4-.1-9.6-.4-3.2-1.3-6.2-2.5-9.3-.3-.7-.6-1.4-1-2.2-.4-.6-.7-1.4-1.2-2-1-1.1-2-2.3-3.4-3.2zm2.9-2.2c.7.4 1.4.7 2 1.3.3.3.6.6.9.7.3.2.6.6.7.9 1 1.3 1.9 2.7 2.3 4.3.6 1.6.7 3.2.9 4.8 0 1.7-.1 3.2-.6 4.8 0-1.6 0-3.2-.1-4.8s-.6-3.2-1-4.5c-.6-1.4-1.2-2.9-2-4.2-.3-.3-.4-.6-.6-.9-.3-.3-.6-.6-.7-.9-.7-.3-1.2-.9-1.8-1.5zm-62.1-10.2c-2 .6-4.2 1.2-6.1 1.9-1 .4-1.9.9-2.9 1.4l-2.7 1.6c-3.6 2.2-6.9 5.1-9.7 8.2-2.9 3.2-5.4 6.8-7.4 10.4-2 3.8-3.8 7.7-5.4 11.7 1.2-4.2 2.7-8.2 4.7-12 1.9-3.8 4.5-7.4 7.3-10.7 2.9-3.2 6.2-6.1 10-8.2.9-.6 1.9-1 2.9-1.6 1-.4 1.9-.9 3-1.3 2-.7 4-1.3 6.3-1.4zm-8.8-1.5c-1.9.7-3.3 1.6-4.9 2.3l-2.5 1.2-2.5 1.2c-3.2 1.7-6.5 3.5-9.5 5.6-3 2-5.8 4.5-8.3 7s-4.7 5.6-6.5 8.8c1.4-3.3 3.5-6.5 6-9.3 2.5-2.7 5.4-5.2 8.3-7.3 3-2 6.2-3.9 9.6-5.5l2.5-1.2 2.6-1c1.7-.5 3.4-1.2 5.2-1.8z"/><path class="st4" d="M164.4 244.1c-3.2-.6-6.1-1.2-9-1.7l-4.5-.9-4.5-.9c-6-1.3-12-2.3-18.1-2.7-6.1-.4-12.2 0-18 2-5.7 1.9-10.9 5.4-16 8.6 4.9-3.6 10-7.1 15.9-9.4 5.8-2.2 12.1-2.7 18.3-2.3 6.1.4 12.2 1.4 18.3 2.9l4.5 1 4.5 1c2.6 1 5.4 1.7 8.6 2.4zm-8.4-4.5c-1.2-1.4-2.7-2.3-4.3-3-.7-.4-1.7-.6-2.5-1-.7-.4-1.7-.6-2.5-.9-3.3-1.2-6.9-1.9-10.4-2.6-3.5-.6-7.1-.9-10.7-.7-3.6 0-7.1.3-10.8.9 3.5-.9 7.1-1.4 10.7-1.6 3.6-.1 7.3.1 10.8.6 3.6.6 7.1 1.4 10.6 2.7.9.3 1.7.6 2.5 1 .7.4 1.7.7 2.5 1.2 1.7.9 3.2 1.9 4.1 3.4z"/><path class="st4" d="M154.4 242.2c-1.9.1-3.5.1-5.2.3l-2.6.1-2.6.1c-3.3.3-6.9.7-10.1 1.6-3.3.7-6.7 1.9-9.6 3.5-3 1.6-5.8 3.5-8.3 6 2.2-2.7 4.9-4.9 8-6.7 3-1.7 6.4-2.9 9.7-3.8 3.3-.7 6.9-1.2 10.3-1.4l2.6-.1h2.6c1.7.1 3.5.1 5.2.4zm2.6 2.5h-5.2l-2.6.1-2.6.3c-3.5.6-6.9 1.2-10.3 2.3-3.3 1-6.7 2.5-9.6 4.2-3.2 1.7-6 3.6-8.8 5.8 2.5-2.5 5.5-4.5 8.4-6.4 3.2-1.9 6.4-3.2 9.7-4.5 3.3-1 6.9-1.9 10.4-2.2l2.6-.1h2.7c.9 0 1.9.1 2.6.1 1 .2 1.7.4 2.7.4z"/><path class="st4" d="M162.2 242.2c-1.7.9-3.3 1.7-5.1 2.5l-2.5 1.2c-.7.4-1.7.7-2.5 1.3-3.2 1.9-6.4 3.9-9.1 6.4-2.7 2.5-5.4 5.2-7.4 8.2-2.2 3-4.1 6.2-5.6 9.7 1.2-3.5 2.9-7 4.9-10.1 2-3.2 4.7-6 7.4-8.6 2.9-2.5 6-4.7 9.4-6.4.9-.4 1.7-.7 2.6-1.2l2.6-1c1.6-.8 3.3-1.4 5.3-2z"/><path class="st0" d="M72.6 118.7s2.9-8.3 3.9-10.8 6-.9 6-.9L78 121.7l-3.5 7.3-3.9-3.5 2-6.8z"/><path class="st2" d="M80.2 252.3l-2.6 5.1-3.2 2.2s-.6.3-1.6.6c-1.2.6-2.9 1.2-3.9 1.7-.7.4-1.6 2.5-2.2 4.9-.6-.9-.9-1.9-1.3-2.7-1.2-2.3-2.3-4.8-3.5-7.4v-.1c-.6-1.7 2-3.6 4.8-5.7 2.3-1.9 3.3-1.3 6.2-1.4.6 0 1 0 1.6-.1 3.8-.4 5.7 2.9 5.7 2.9z"/><path class="st6" d="M86.6 115.8s-8.7 12.3-10 26.4-1.3 23.9 0 39.4 3.5 21.9 3.5 21.9-9.7-30-8.6-46.1c1.1-16.1 7.4-35.7 15.1-41.6zm-22.2 1.8s-10.9 31.3-7 56.1S69 220.2 69 220.2 54.8 193 53.1 176.4c-1.7-16.5-2.6-30 2.2-41 4.7-11.2 9.1-17.8 9.1-17.8zm17.2-44.4c-.7 1.3-1.9 2.9-2 3.2l-.6.9-6.1 8.2s-3.2 3.9-6.2 12.2c-1.9 5.5-2.5 7.1-2.6 7.5.4-1.6 2.3-11.6 6-20.4 2-5.1 4.8-9.7 8.1-12 0 0 .1 0 .1-.1 1-.6 1.7-1.2 2.3-1.4.4-.3.7-.4 1-.6.6-.1.9-.1.9.1.2.4-.3 1.4-.9 2.4z"/><path class="st2" d="M72.6 257.3v20.9c-.7-1-1.4-2.2-2-3.3-.3-.4-.4-.6-.6-1-1.2-2.2-2.3-4.5-3.5-6.8-.6-.9-.9-1.9-1.3-2.7-.1-.3 7.4-7.1 7.4-7.1z"/><path class="st6" d="M72.6 278.2c.4.6.7 1.2 1.2 1.9-.3-1.9-.6-3.9-.7-5.7v-.1c-.1-.6-.3-1.3-.4-1.9-.9-3.8-2.5-7.8-2.5-7.8-.7-.6-1.4.7-1.4.7l1.9 9.5c.6 1 1.2 2 1.9 3v.1c-.1 0 0 .3 0 .3zm0-171.2s-4.8 13.3-3.6 23.8c0 0 6-22.3 11-30.2l-7.4 6.4z"/><g><g id="Layer_8"><path class="st0" d="M437 144.5l-5.8-31.8-.6-26.3-.1-7.1-.1-9v-.7l-7.8 1.4-1.9.4c-.9.4-1.7.9-2.3 1.4 0 0-.1 0-.1.1-3.2 2.2-6 6.9-8.1 12-10 9.4-19.6 22.4-27.6 38.1-15.4 30-.6 89.9 19.1 133.4v.1l3.5 7.4c.4.9.9 1.9 1.3 2.7 1.2 2.3 2.3 4.5 3.5 6.8.3.4.4.6.6 1 .6 1.2 1.3 2.3 2 3.3.4.6.7 1.2 1.2 1.9.6.7 1 1.4 1.6 2 2.3 3.2 5.1 5.8 7.8 8.3 2.3-6.9 5.6-17.6 9.1-29 .6-2.5 1.4-4.9 2.2-7.3.6-2.2 1.3-4.5 1.9-6.8 6.1-21 11.6-40.3 11.6-40.3l-11-62z"/><path class="st6" d="M445.2 302.6c0 .1 0 .3-.1.3-1-.4-1.9-.7-3-1.2-.3-.1-.6-.3-1-.4-.6-1-1.2-2.3-1.3-3.2-.6-2.5-2.3-9.6-1.9-12.9.3-1.4-.9-12.3-2.3-24.5-.3-2.2-.6-4.5-.7-6.8-1.7-13.9-3.5-27.4-3.5-27.4s-1.3-14.5.1-16.2c.3-.4.7-.3 1.3.7 0 6.1 1.9 21.1 3.9 35.9.6 4.3 1.2 8.4 1.7 12.6.9 7.1 1.7 13.6 2.2 18.4.6 7 1.6 12.5 2.5 16.5 1 5.6 2.1 8.2 2.1 8.2z"/><path class="st2" d="M412.8 257.2v21c-.7-1-1.4-2.2-2-3.3-.3-.4-.4-.6-.6-1-1.2-2.2-2.3-4.5-3.5-6.8-.6-.9-.9-1.9-1.3-2.7-.1-.2 7.4-7.2 7.4-7.2z"/><path class="st2" d="M420.3 252.3l-2.6 5.1-3.2 2.2s-.6.3-1.6.6c-1.2.6-2.9 1.2-3.9 1.7-.7.4-1.6 2.5-2.2 4.9-.6-.9-.9-1.9-1.3-2.7-1.2-2.3-2.3-4.8-3.5-7.4v-.1c-.6-1.7 2-3.6 4.8-5.7 2.3-1.9 3.3-1.3 6.2-1.4.6 0 1 0 1.6-.1 3.9-.4 5.7 2.9 5.7 2.9z"/><path class="st6" d="M414 279.7c-.3-1.9-.6-3.9-.7-5.6v-.1c-.1-.6-.3-1.3-.4-1.7v-.1c-.9-3.8-2.5-7.8-2.5-7.8-.7-.6-1.4.9-1.4.9l1.9 9.5c.6.9.9 1.7 1.4 2.5l.1.1c-.1 0 1.6 2.3 1.6 2.3z"/></g><path class="st1" d="M539.4 257.2l-.3 2.2-.1.9-.1 1-.3 2.5v1.4l-.3 2.7-.3.1-6.4 4.2s-6.7 2.9-12.6 6.8c-2 1.3-4.2 2.9-5.7 4.5-6.2 5.8-8.1 9.4-14.3 24.2-.3.6-.4 1-.6 1.6-.7.1-21.9 2.6-44.2-3.3-.1 0-.4-.1-.6-.1-1-.3-1.9-.6-3-.9-1.9-.6-3.6-1.2-5.5-1.9-1-.4-1.9-.7-3-1.2l.9-7.1 1.9-14.3 5.8-6.1 3.9-4.2 4.5-4.8 3.2-3.6 3.2-3.9 8.2-9.9 3-3.6 5.7-1.7 6.1-1.9 4.5-1.3 12.8-2.6 14.9 4.1 5.4 4.8 1.3 1.2 1.2 1 1.6 1.4 9.2 7.8z"/><path class="st0" d="M628.2 112.7s3-17.1 4.2-23c1-6 6.2-20.2 6.2-20.2s-.3-11.5-5.2-15.1-13.4-9.7-22.3-3.2c-8.8 6.5-13.3 14.3-16.2 17.4-3 3.2-7.7 5.1-7.7 5.1s-11.2-3.5-12.8-5.5c-1.4-1.9-.1-3.2-6-4.1-5.8-.9-11 0-11 0l-22.2.1s-5.2-1.9-7.7-7-4.2-13.4-4.2-13.4-11.9-13.2-17.6-8.6c-5.7 4.5-6.7 10.7-7.5 16.7-.7 5.8.1 12.6 0 13.9s-7 4.9-7 4.9H470l-17.8-2.6s-16.4-1.6-21.7 1.3c-5.2 2.9-9.7 3.2-11.5 6-1.7 2.9-6.2 6.5-6.2 6.5v183.3l25.1-4.9 29-28.7 24.4-9.3 19.9 6.7h20.6l8.1-25.4 38-1.9 50.3-89z"/><path class="st2" d="M515.9 211.3s10 7.8 11.6 11c1.4 3.2 1.9 10.3 1.9 10.3l5.1 3.2 15.4.6 5.4-6.7 4.9-6 4.1-6.1s-1.9-6.7-2.3-6.5c-.4 0-10.1-3.8-10.1-3.8l-11.6-1.4h-10.7l-7.1 2.2-6.6 3.2z"/><path class="st3" d="M517.5 213.6s-3-2.3 2.3-2.3 7.7 3.2 13.3 3.2c5.6 0 22.5-1.3 24.4 0 1.7 1.3 4.2 2.3 4.2 2.3s-3 .9-6.1 2.2c-3.2 1.4-1.6 3.2-1.6 3.2l3.5 5.6 4.2 1.9 16.2-3.2 11.2-6.1-3.3-8.2-2.2-3 13.6-14.8 5.7-13-.7-7.1 11.5 23.2 1.4 4.2h3.5s11.3-15.6 12.1-24.6c.7-8.8 3.3-40 3.3-40s-4.5-22.5-5.5-24.6c-.9-2-4.5-2.9-4.5-2.9s-12.8-6.4-12.8-3.3c0 3 1.7 6.4 1.7 6.4s1.4 6.9.6 12.9c-.9 6.1-8.2 12.8-8.2 12.8l-3.6 1.2s-.4 12.1-4.1 13.9c-3.6 1.9-11.9 10.3-11.9 10.3l-9.9-1.3s-1.3-31-10.9-28.4c-9.5 2.6-6.5 6.9-9.3 7.5-2.8.6-5.5-.6-5.2-3.8.1-3.2 1.9-10.6 0-10.3-1.9.3-5.6 4.2-6.1 16.4-.6 12.2-3.2 16.1-5.4 19.8-2.2 3.6-7.3 12.9-11 17.8-3.9 4.9-8 15.6-10.1 20.2-2.2 4.5-3.2 10.8-1 11.9h.7z"/><path class="st2" d="M560.4 148.5s-2.9 12.6-3.2 23.5c-.1 10.8 2.5 19.8 4.3 22.3 1.9 2.5 3.8 3.9 3 7.7-.7 3.8-1.4 5.7.1 5.1 1.7-.6 10.4-2.6 11.3-13.4.9-10.8.4-11.3-.6-14.6-.9-3.2-.7-6.4-.7-6.4l-5.1-16.7c.2-.1-5.3-12.1-9.1-7.5z"/><path d="M412.8 296.1v-12.6" fill="none"/><path class="st2" d="M488.5 240.6v.3l-.6 4.9-.6 3.6-.7 6.1s-.1.6-.6 1.6c-.9 3.3-3.2 11.5-4.7 16.9-1.9 7.1-12 11.5-16.5 12.3-4.5 1-10.7 8.4-10.7 8.4v.1c-.1.6-.6 5.7-.7 10.8-1-.3-1.9-.6-3-.9-1.9-.6-3.6-1.2-5.5-1.9-1-.4-1.9-.7-3-1.2-.3-.1-.6-.3-1-.4-6.2-2.7-12.2-6.2-17.6-10.9-2.9-2.5-5.5-5.2-7.8-8.3-.6-.6-1-1.4-1.6-2-.4-.6-.7-1.2-1.2-1.9v-21s2.6-1.7 4.9-4.8c.6-1 1.7-.6 2.6 0 2.2 1.6 4.3 4.8 3.9 0-.6-7-1.6-16.4-2.2-32.8-.4-12.9 6.4-10.6 9.4-9 .7.4 1.3.7 1.3.7s-.7-8.6-.3-25.8c.3-12.1.6-24.6 4.5-41 1.7-6.9 4.1-14.6 7.3-23.2 2.7-7.3 6.1-13.3 9.5-18.1 5.4-7.4 11-12.1 15.9-15.4 4.3-2.9 7.8-4.5 9.4-5.8 2.5-1.9 5.6-1.9 8.1-.6l1.2.7c.9.7 1.7 1.9 2.2 3.2.3.6.4 1.2.4 1.9.3 4.2-4.5 20.3-6.8 28.3-.9 2.7-1.4 4.5-1.4 4.5l-.1.1-2 2-8.1 8-5.5 22.3 17.7 72.2 3.3 13.8.6 2.3z"/><path class="st4" d="M628.1 117.1s5.5 15.6 4.3 24.5c-1 9-3.9 36.2-5.2 40-1.3 3.9-5.6 8.8-6.8 11.9-1.2 3-5.7 10.3-5.7 10.3l-3.5 11.9s-19.1 10.7-20.4 11c-1.3.4-5.7 4.8-7.5 7-1.9 2-7.4 10.7-18.6 13.3s-14.5 2.5-18.7.9c-4.3-1.6-10.3-7.3-10.3-7.3s-5.1 7.1-7 6.9c-1.9-.1-18.6-6.2-18.6-6.2h-4.2s8.6 17.3 17.4 21.9c8.8 4.5 22.9 9.6 43.9-3.8 21-13.4 19.9-15.8 26.5-21 6.8-5.2 14.9-9.9 22.3-25.1 7.4-15.2 20.2-36.4 20.2-54.5 0-18.2.4-26.3-1.6-32.3-1.9-6.1-5.6-16.4-6.5-14.1-.7 2.5 0 4.7 0 4.7z"/><path class="st4" d="M482.7 120.1s-5.2-4.5-9.9-1.6c-4.7 3-6.4 11.9-8 13-1.6 1-2.5.9-2.6-3.9-.1-4.8 1.9-10.3-1.3-9.1-3.2 1.2-11.7 34.6-10.4 50.5 1.3 15.9 13.5 56.2 21.9 64.7 8.3 8.5 15.5 12.6 21.7 14.7 6.4 2 15.4-.3 15.4-.3l55.1 2.2s1.4-15.2-7-17.7-16.2-1.4-16.2-1.4-3.2 1.2-6.1 1.4c-2.9.3-4.9-2.7-4.9-2.7s-4.8-10.6-9.4-11.6c-4.5-1-12.6-2.9-15.1-6s-10.6-8.7-11.6-9-12.8-20.2-12.8-20.2l-7.1-30.6c-.1.2 7.7-29.6 8.3-32.4z"/><path class="st4" d="M541.3 231.3s3.6-5.6 5.8-7.1c2.2-1.5 9.5-4.3 9.5-4.3s6.8-1.3 6.8 1.3-.9 7.4 0 6.9c.9-.4 14.9-4.1 14.9-4.1h2.9l11.9-.7-.6 5.8-12.8 13.2-19.6 10-14.3-8.3-4.5-12.7z"/><path class="st5" d="M501.7 135.3s3.6-.4 4.2 1.9 2.3 8.1 7.7 10.3c5.4 2.3 7.3-.4 7.3-.4l-.3 4.9s-.9 3.2-1.6 3.9c-.6.6-4.2 6.5-5.6 5.5-1.4-1 1.4-3.6 1-4.9-.4-1.4-1-3.6-1.3-3.9-.1-.1-2.2 1-4.5-.6-1-.6-3.2-2.6-4.2-3.2-1.6-1-1.7-3.2-1.7-3.2l-1.4-4.3.4-6zm76.7 30s2.7 1 2.9-1c.1-2 18.9-12.8 19.4-14.2.6-1.6 1.9-5.4 1.9-5.4l-6.7.3s-2.6 8.4-5.5 9.3c-2.9.9-12.9 1.2-14.3 3.8s-1.7 6.2-.7 6.8c.9.6 2.6.1 2.6.1l.4.3zm45.6-7.9s-2.3-2.9-5.4-1.4c-3.2 1.6-7 5.6-7 5.6s-1.6 3.3-3 4.3c-1.4.9-4.7-3-7.1 1.4-2.4 4.4-.4 7.1-.4 7.1l-4.2 1.4s.3.6 0 3.9c-.3 3.2-.6 6-.6 6s-3.3 3.6-4.7 5.7c-1.3 1.9-8.3 17.8-8.3 17.8s4.2 5.6 2 9.1c-2.1 3.5-8.6 8.1-7.3 9.5 1.3 1.4 12.2-3.9 12.2-3.9s21.2-6.1 21.7-7.1c.6-1 5.1-19.4 6.9-24.5 1.9-5.1 8.1-24.9 6.8-28-1.1-2.9-1.6-6.9-1.6-6.9zm-98.7-12s-.6 4.3.6 4.3c1.3 0 1.9-17.4 2.5-21.3.6-3.9 6.4-10.9 7.3-12.2.9-1.2-2.2-7.7-2.7-8.3-.6-.6-4.2-1.9-3.2-4.1s1.9-2.7 0-4.8c-1.9-2 1.9-6.1 0-6.1s-7-.9-8.6 2c-1.6 2.9-6.4 9-6.4 9s-.7-2.3-2.9 0c-2.1 2.3-6.1 4.1-6.7 7.3-.6 3.2-4.9 8.8-3.6 10.4 1.3 1.7-1.3 2.6 4.2 3.6s4.9-1.4 5.5 1c.6 2.5 10 6.4 12 10.9 2 4.6 2 8.3 2 8.3zm-48.6 2.6s.3-6.1 3.2-4.1c2.9 1.9 2.6 5.4 2.9 9.7.3 4.4 3.2 7.5 4.7 9.4 1.3 1.9 4.2 3.6 6.8 7.1s3.3 4.8 3.5 6.1c.1 1.3 1.3 7.1 1.2 9s-.4-.7-1.9 3.2c-1.6 3.9-.7 2.7-1 5.7-.3 3 1.3 3.9 0 6.4-1.3 2.5.6 4.2-2.9 2.9s-8.2-4.5-9.6-7.5c-1.3-3-6.2-8.7-7.8-15.2s-1.4-32-1.4-32l2.3-.7z"/><path class="st5" d="M507 134s-1.4 1.7-1 3.9c.4 2.2 8.4 17.1 14.3 7.7 5.8-9.4 1.9-10.3 1.9-10.3s-5.2-6.7-11.3-4.5c-6.2 2.1-3.9 3.2-3.9 3.2zm70.8 8s-3.5 3.3-1.7 8.2c1.8 4.9 4.8 5.1 4.8 5.1s7.7-.3 8.8-1.2c1.2-.9 4.1-6.2 4.1-6.2V143l-1.4-2.3-1.3-.7-5.5.4-4.2.4-3.6 1.2z"/><path class="st5" d="M569.7 155.9s-1-11.7.7-16.5c1.9-4.8 3.9-13.4 2.9-16.5-1-3.2-.3-7.7 1.6-9 1.9-1.3 3.5-4.3 3.5-4.3s-2.7-3-2.2-4.3c.6-1.3 3.9 0 5.2-1.6 1.3-1.4-6.5-4.9-6.5-4.9l-4.3-2s4.8-3 8.3-1 11 2.9 12.2 6.5 1.7 5.1 2 8.7c.4 3.6-.4 4.9.9 6.8s2.2 1.6 3.3 5.1c1.2 3.3 2.5 3.9 1.6 6.7-.9 2.7-1.7 2-1.9 4.5-.2 2.4 4.1 2.3 4.3 3.2.2.8 1.2 2 1.2 2l-2.3 2.9-9.3-2.5s-6.2-.6-9.7.7c-3.5 1.4-6.4 3.3-6.5 8.1-.1 4.7 0 6.8 0 6.8l-5 .6zm-50-91.9s9.1-20.2-.6-28.9-18.9-4.5-22.2 1.7c-3.2 6.2-6.9 22.8-5.7 25 1.2 2.2 4.8 3.2 3.8 6.4s-3.2.7-3.8 6c-.6 5.2-1.2 10.9-.3 13.2.9 2.2 5.6 2.6 7.3-1 1.7-3.5.6-6.5.6-6.5s4.5-4.7 5.6-5.6c1.2-.9-1.3-6.7-1.9-10.1 0 0-4.9-13.9 1-21.5 6.1-7.5 11.6-2.9 12.1 4.5.6 7.4-2.2 19.3 0 18.6 2.5-.8 4.1-1.8 4.1-1.8zm110.6 17.6s10.6-15.2 4.2-22c-6.2-6.7-15.5-7.8-21.9-4.1-6.4 3.6-10 7.1-12 10.1-1.9 3-3.2 8.7-5.5 4.9-2.2-3.6 3.5-23.5 22.8-23.6 19.3-.3 28.4 10.1 26.1 22.3-2.3 12.1-6.8 12.6-9.1 16-2.3 3.3-.7 4.5-4.7 4.5-3.7.4.1-8.1.1-8.1z"/><path class="st6" d="M590.7 226.8s18-4.5 19.9-7.5c1.9-3 3.2-6.2 0-5.5-3.2.9-8.4 5.5-12.1 6.4s-3.5 1.4-5.2 2.2c-1.6.8-4.1 1.5-2.6 4.4zm-29 2.3s22.3-2.6 23.6-10.7c1.3-8.1-2.9-10.1-4.9-8.7-2.2 1.6-3.9 3.2-3.2 3.8.6.6 2.9-.6 4.2 0 1.3.6 3.2 5.7 0 7.5-3.5 1.9-21.6 3.8-19.7 8.1zm-5.1 8.2s21.2 1.3 27.6-7.4c0 .1-23.4 4.7-27.6 7.4zm20.5 3.3l-20.4 2.3c-.1.1 16.9 3.3 20.4-2.3zm-53.1-3.2s-24.4-.9-28-9.4c0 .1 21.5 8.7 28 9.4zm-6.5-6.1s-22.3-5.8-23.2-14.3c-.2 0 19.6 12.7 23.2 14.3zm-5.8-10.3s-13.3-6.2-15.9-14.9c.2 0 10.1 8.4 15.9 14.9zm18.2 10.3s3.5-10.7-13.6-17.7c0 0 12.9 12.9 13.6 17.7zm11.4 0s-1-16.1 20.3-14.3c0 0-16.2 9.1-20.3 14.3zM484 195.6l9.1 7.5s-1.6 5.6-1.6 8.1c0 .1-8.2-11.1-7.5-15.6zm10.1-91.7s-23.6 31.5-18.5 76.5c0 0-13.4-43.3 17.3-76.5h1.2zm-4.6 21.7s-7.4 34.9-7.8 43.3c-.4 8.4.1 15.4 2.3 14.7 2.2-.6.4-8.7 1.4-8.4 1.2.3 11.9 5.5 12.9 1.7-2.3-3.5-9.5-4.9-11-7.4-1.6-2.3 7.1-49.4 4.8-47.9-2.4 1.5-2.6 4-2.6 4z"/><path class="st6" d="M493.1 145.4s-4.2 16.2 0 19.3c5.2 0 4.2-1 2.9-3.2-1.3-2.3-3.2-12.1-2.9-16.1zm21.5 29.1s11.7-14.6 10.1-16.2c-1.4-1.8-6.9-2.4-10.1 16.2zm-15-23.5s4.2 2.2 4.2 4.9c-.1 0-2.9.3-4.2-4.9z"/><path class="st6" d="M501.7 135.8s-2 14.9 11.6 16.9c-.9 3.2-1.3 2.2-3.6 2.2-2.5.3-11.8-2.6-8-19.1zm-3.4-9.2s-1.6 1.9-1.3 4.8c.3 2.9 3.2 3.5 3.8 1.6.5-1.9-2.5-6.4-2.5-6.4zm1.3-4.9s-1.3-16.2 10-25.8c0 0-5.7 14.6-5.1 17.3.7 2.7-2.7 9.5-4.9 8.5zm5 11s9.1-6.1 15.2-1.3 5.5 8.4 5.2 12.1c-.4 3.6-1-2.3-2-4.8-1-2.3-3.9-6.2-6.2-6.5s-8 1.6-9.5 1.9c-1.9.2-2.7-1.4-2.7-1.4zm1.3 4.5s1.6 9.5 7.4 11.6c5.8 2.2 6 3 6.5 3.9.6.9 2.2-2.3 1.2-5.6-1-3.2 0-.6-2.3 0-2.5.6-6.1 4.2-12.8-9.9zm15.3-10.6s-4.5-12.8-6.7-13.9c-2.2-1-6.9 4.2-6.5 6.1s5.5 8.7 5.5 8.7-2.5-6.7 0-5.8c2.7.6 7.7 4.9 7.7 4.9zm4.8 1.9s-1.6-10.1 0-12.1c1.6-1.9 2.3-6.8 0-4.5-2.3 2.2-3.2 13.9-2.6 14.9.6 1 2.6 1.7 2.6 1.7zm-11.1-24.6s7.3-16.5 8.4-13.6c1 2.7-8.4 13.6-8.4 13.6zM513.3 90s8.8-8.3 5.8-9.6c-3-1.3-5.7.3-5.6 2.6.2 2.2-.2 7-.2 7zm6.5 18.8s10.4-5.6 15.9-4.9c5.5.6 4.2 2.5 4.2 2.5l-20.1 2.4zm11.9 17.8s1-8.1 6.9-14.1c0 .2-1.7 10.1-6.9 14.1zm1.3 7.4s10.7-10.3 12.8-16.1c0 .2-12.1 11.5-12.8 16.1zm15.4-25.2s-10.4-.6-8.6 2.3c1.9 3.1 7.1.9 8.6-2.3zm1.1-14.2s-9.1-5.1-22.8 2.3c-.1 0 21.1-.2 22.8-2.3zM544 78.5s-12 2.9-16.5 6.4c.1 0 15.2 3.2 16.5-6.4zm-8.8-14.3s19.1-.4 20.2 0c1.1.5-8 18.1-20.2 0zm20.3 61s-1.9-10.4-2.2-15.4c0 0-7.8 13.3-7.4 15.4.4 2.2 3.8-4.1 4.8-3.3 1 .4 3.7 6.7 4.8 3.3zM553 90s.4 1.4 2.5-1.2c2-2.6 2.5-1.2 2.5 1.6s1.3 3.3 1 5.6c-.3 2.2 1.6 7.8-.9 6.2-2.3-1.6-2.6-3.9-3.9-3-1.2.8-2.5-9.2-1.2-9.2zm5.2-12.5s-10.1.6-7.5 4.5c2.6 4 15.4 2.6 13.8 0-1.6-2.6 0-9.1-1.9-9.6-2.1-.6-3.2 4.9-4.4 5.1zm.3 32.2s0 13 .7 16.9c.9 3.9 3.8 4.5 3.8 3.6 0-.6-4.3-13.4-2.3-15.9 1.9-2.5 3.3.1 3.6-1.9.6-2-3.8-5-5.8-2.7zm7.1-12.8s5.6 4.9 17.2 5.5c0 0-15.4-11.3-18.1-9.5 0 0-.9 1.9 0 3l.9 1zm5.6-24.6l-1 5.2s-3.6 1.2-2.9 2.3c.9 1.2 13.4 14.6 17.8 10.1 0-8-11.6-8.4-11.6-10.1.1-1.7-2.3-7.5-2.3-7.5zM593 92.7s7.1 8 7.5 6c.5-2-7.5-6-7.5-6zm-25.8 38s-.3-13.6 3.2-15.2c.8 4.6-3.1 12.9-3.2 15.2zm3.2-23.3s11.9 5.2 14.6 8.1c4.2 0-3.5-4.2-4.8-5.6-1.2-1.7-6.5-3.8-9.8-2.5zm5.8 26.6s4.8-11.2 3.8-14.5c3.3.1.2 10.9-3.8 14.5zm8-3.3s5.6-12.6 10.8-10.9c5.3 1.7-.9 14.6-2.9 14.3.9-4.5 2.2-7.8.9-7.4-1.3.5-8.8 4-8.8 4zm17.9 0s3.2-18.9 0-24.4c-1.4 9.2 0 24.4 0 24.4zm-32.4 25.2s-2.2 15.4-.9 17.6 4.8 3.6 5.8 2.2 4.2-6.2 3.6-8.7c-.4-2.3-1.3-4.9-1-6.8.3-1.7 3.5-3.9 9-4.3s10-7.8 9.6-10.9c2.6-.3 6.7-.3 6.7-.3v-5.5s-7.1-.4-9.5-.9c-2.3-.4-1.3 3-1 5.5.3 2.3 3.5 10.8-9.4 9.6-12.7-1.1-12.9 2.5-12.9 2.5z"/><path class="st6" d="M573.4 153.6s-1.4-10.7 5.4-13.9 14.3-1.3 14.3-1.3l-1.3 4.1s-12.5-4.3-14.6 3.3c-2 7.7 4.1 8 4.1 8h-7.8l-.1-.2zm27.3-3.5s-10.6 8.8-14.5 9.1c-3.8.3-5.2 3-4.9 3.9s.9 4.9 2.9 4.8c1.9-.1 6-.1 6-2s-.6-3.6.4-4.3c1.1-.6 9.8-6.2 10.1-11.5zm5.4-12.3s5.2 22.9 4.2 25.9c7.1-10.1 6.2-25.8 4.9-26.5-1.3-.8-9.1.6-9.1.6zm5 31.2s1 14.7-14.2 16.7c9.3 4.9 12.9 8.1 9.3 12 10-6.8 7.4-7.8 4.9-9.5-2.3-1.7-4.9-2.3-4.9-2.3s8.2-8.8 4.9-16.9zm-10.4-1.1l-7.5 7.5s8.2 1.7 8.4-2.3c.2-4.1-.9-5.2-.9-5.2zm-10.5 25.7s3.2 4.8 1.9 6.1c-1.7 1.2-1.9-6.1-1.9-6.1zm-1.1 12.5s4.5-1.3 4.9 0c.4 1.3-1 3.9-2.5 3.2-1.4-.6-2.4-3.2-2.4-3.2zm12.4-2.6s-2.6.9-2.6 2.6c0 1.7 2.5 0 2.5 0l.1-2.6zm-6 8.7s2.6-.9 3.5-.9c.9 0 0 2.3 0 2.3l-3.5-1.4zm-78-23.1s.4 7.4-1 6.5c-1.6-.9-1.4-3.2-1.4-3.2v-3.2l2.4-.1zm-24.4-1s.9 8.8 0 8.6c-.9-.2-5.2-1.9-4.5-3.2.6-1.2 2.8-7 4.5-5.4zm-20.3-4.3s5.1 17.7 2.7 18c-2.4.2-3.8-15.8-2.7-18zm28.9 66.8s2 7.4 4.2 10c2.2 2.6 1 9.4 0 8.1-1-1.3-6.8-5.2-7.5-7.4-1.1-2.3-2.4-12 3.3-10.7zm-15.5-.2s-1.2 12.1 3.8 19.7c4.9 7.5 14.1 17.2 14.9 16.2.8-.9 2.9-2.2 0-4.5s-14.5-18.6-14.9-25.7c-.5-6.8-2.4-7.9-3.8-5.7zM415.6 282c-.6-.6-1-1.4-1.6-2-.4-.6-.7-1.2-1.2-1.9v-5.8c0 .4.1 1 .4 1.7v.1c.5 2 1.2 4.7 2.4 7.9zm38.5 12.9c0 .6-.4 6.4-.3 10.9-.1 0-.4-.1-.6-.1-1-.3-1.9-.6-3-.9.4-3.9.9-8.1.9-10 .3-3.9 3.2 0 3 .1.2-.1.2-.1 0 0zm-8.9 7.7c0 .1 0 .3-.1.3-1-.4-1.9-.7-3-1.2-.3-.1-.6-.3-1-.4-.6-1-1.2-2.3-1.3-3.2-.6-2.5-2.3-9.6-1.9-12.9.3-1.4-.9-12.3-2.3-24.5-.3-2.2-.6-4.5-.7-6.8-1.7-13.9-3.5-27.4-3.5-27.4s-1.3-14.5.1-16.2c.3-.4.7-.3 1.3.7 0 6.1 1.9 21.1 3.9 35.9.6 4.3 1.2 8.4 1.7 12.6.9 7.1 1.7 13.6 2.2 18.4.6 7 1.6 12.5 2.5 16.5 1 5.6 2.1 8.2 2.1 8.2zm5-30.3s3.6 23.8 4.5 10.7c.9-13.3-2.7-25.4-4.5-32.5-1.9-7-3.3-16.5-5.1-16.8-1.7-.3 3.6 24.1 3.9 29 .2 5 1.2 9.6 1.2 9.6zm-1.7-87.2s-.6 40.6 2.9 50.5c3.5 10 7.4 27.7 8.2 31.5.6 3.6 3.5 1 2.6-5.8-.9-6.9-8.7-28.7-9.4-33.2s-1.5-45.1-2.6-46.1c-1-1.3-1.7 3.1-1.7 3.1zm39.9-97.8s-19.7 19.6-23.6 39.6c3.5-26.4 22.3-45.3 22.3-45.3l1.2-1.9v7.6h.1zm16.2-19.1s-.6 6.2-2.9 6.7c-2.2.5-4.5 5.2-2.7 6.8 1.9 1.6 3.2 5.4 4.8 2.9s6.9-4.8 5.8-7.7c-1-3-1.9-10.8-2.6-10.9-.8-.3-2.4 2.2-2.4 2.2zM487 70.7s-32.8 29.4-40.1 49c6.9-23.8 27.7-45.1 33.2-49h6.9zm-22.1 9.1s-14.7 14.3-20.6 24.1c0 0 6.1-18.9 20.6-24.1z"/><path class="st6" d="M469.9 70.7s-27.6 17.6-35.5 39c-.1 0 11.2-37.3 35.5-39zm-17.8-2.5s-39.3 23.9-39.3 58.7V107c0-.1 18.4-41.7 39.3-38.8zm-21.7 1.2c-.3.1-1 .4-2 1-2 1-5.5 3-8.6 5.7-.7.6-1.6 1.3-2.2 2-1.9 2-3.6 4.5-4.5 7v-1.3c0-.6.1-1.3.3-2.2v-.1c.6-2.7 1.7-6.4 5.1-9.1.6-.6 1.4-1 2.3-1.4.4-.3.7-.4 1-.6 2.2-.6 5.1-1.2 8.6-1zm185.7 49s10.7 7.8 9.3 31.6c-1.4 23.8-4.5 38.9-6.5 42.3 0 0 14.6-29.1 10.9-50-3.6-20.9-14.1-32-16.4-31.3-2.4.7 2.7 7.4 2.7 7.4zm-7.7-20.9c-.1.9.3 1.9 1 2.3 3.2 2.5 12.5 9.1 14.5 9.9 2.5.9 3.3-10.3 3.2-14.8s6.5-15.2 5.1-19.4c-1.4-4.2-8.4-9.7-14.2-5.4-5.7 4.4-8 14.8-8.6 19-.5 2.9-.9 6.4-1 8.4z"/><circle class="st6" cx="584.2" cy="146.8" r="2.9"/><circle class="st6" cx="514.9" cy="139.7" r="2.9"/><path class="st6" d="M511.3 58.2s-2.3-11.7-5.5-13c-3.2-1.3-6 3.5-4.2 6.5 1.9 3 3.2 4.3 4.5 6.5 1.3 2.2 1 11.2 3.8 11.3 2.7-.1 1.4-11.3 1.4-11.3z"/><circle class="st7" cx="517.8" cy="139.7" r="1.9"/><circle class="st7" cx="587.1" cy="146.8" r="1.9"/><path class="st4" d="M506.2 239.7s4.2 48.6 29.6 48.8c25.4.3 47.4-37.5 53.2-45.7s-11.2 3.8-11.2 3.8-19.7 17.1-26.4 18.5c-6.8 1.4-39.7-18.9-39.7-18.9l-5.5-6.5z"/><path class="st6" d="M506.2 239.7s4.8 11.7 8.3 15.6c3.5 3.9 20.3 13.6 37.8 4.9 17.5-8.7 25.4-16.4 25.4-16.4s-22 21.6-39.2 21.3-31-9.3-32.3-25.4z"/><path class="st2" d="M420.3 252.3l-2.6 5.1-3.2 2.2s-.6.3-1.6.6c-1.2.6-2.9 1.2-3.9 1.7-.7.4-1.6 2.5-2.2 4.9-.6-.9-.9-1.9-1.3-2.7-1.2-2.3-2.3-4.8-3.5-7.4v-.1c-.6-1.7 2-3.6 4.8-5.7 2.3-1.9 3.3-1.3 6.2-1.4.6 0 1 0 1.6-.1 3.9-.4 5.7 2.9 5.7 2.9z"/><g id="Layer_11"><path d="M506.2 239.7s5.7 10 7.8 12.5c2 2.3 13 8.3 13 8.3s18.6.7 28.3-3.6c9.6-4.5 17.1-9.4 17.1-9.4l4.7-3.5s-23.6 6.1-27 5.7c-3.2-.6-7-3.2-8.1-4.2-1-.9-5.8-4.9-5.8-4.9l-.7-.7-2.9 4.9-4.7 1.9s-5.1-.6-10.4-2.5-11.3-4.5-11.3-4.5z" fill="#db5453"/><path class="st6" d="M452.1 68.2s-39.3 23.9-39.3 58.7V107c0-.1 18.4-41.7 39.3-38.8zm-25.4 47.5s-8.7 12.3-10 26.4c-1.3 14.1-1.3 23.9 0 39.4s3.5 21.9 3.5 21.9-9.7-30-8.6-46.1c1.2-16.2 7.4-35.6 15.1-41.6zm-22.1 1.8s-10.9 31.3-7 56.1c3.9 24.8 11.6 46.5 11.6 46.5s-14.2-27.2-15.9-43.8c-1.7-16.5-2.6-30 2.2-41 4.7-11.1 9.1-17.8 9.1-17.8zm17.2-44.4c-.7 1.3-1.9 2.7-2 3.2l-.6.9-6.1 8.2s-3.2 3.9-6.2 12.2c-1.9 5.5-2.5 7.1-2.6 7.5.4-1.6 2.3-11.6 6-20.4 2-5.1 4.8-9.7 8.1-12 0 0 .1 0 .1-.1 1-.6 1.9-1.2 2.3-1.4.4-.3.7-.4 1-.6.6-.1.9-.1.9.1.1.4-.3 1.4-.9 2.4z"/><path class="st6" d="M412.8 106.9s-4.8 13.3-3.6 23.8c0 0 6-22.3 11-30.2l-7.4 6.4z"/></g><path class="st6" d="M510.9 241.3s18.9 9.6 23.3-.6v-8s1.9-2.2 1.9 0v6.8s7 8 15.9 8.1c8.8.1 25.7-3.8 25.7-3.8s-22.3 7-30 5.5c-7.5-1.6-12.3-8.7-12.3-8.7s-2.5 6.8-7 6.9c-4.5.1-22.3-7.8-22.3-7.8l4.8 1.6z"/><path class="st7" d="M563.1 253.2s6.7-5.5 2.5-12.2c0 0-3 10.9-5.8 14.2l3.3-2zm-53.5-6.3s-1.7-3.3 1.6-8.4c0 0-.4 7.5.6 11.5l-2.2-3.1z"/><path class="st4" d="M587.2 233.8c1.9-.3 3.6-.4 5.4-.6.9-.1 1.9-.1 2.7-.1.9 0 1.9-.1 2.7 0 3.6 0 7.3.4 10.8 1.6 3.5 1.2 6.8 3.2 9.5 5.5 2.7 2.5 5.1 5.4 6.9 8.4-2-2.9-4.5-5.6-7.3-7.8-2.7-2.2-5.8-4.1-9.3-5.2-3.4-1.1-6.9-1.6-10.6-1.7l-10.8-.1zm-15.1 6.2c2.3-.3 4.5-.6 6.9-.7 1.2-.1 2.3-.1 3.5-.3h3.5c4.7.1 9.4.9 13.8 2.9 4.3 1.9 8.1 4.9 11.2 8.4 3.2 3.5 5.7 7.4 7.8 11.6-2.5-3.9-5.2-7.7-8.3-11s-6.9-6.2-11-8.1c-4.2-1.9-8.8-2.6-13.4-2.9-1.2 0-2.3-.1-3.5-.1h-3.5c-2.3-.1-4.7.1-7 .2z"/><path class="st4" d="M578.1 235.8c1.9-.6 3.8-.6 5.7-.6.9.1 1.9.3 2.9.6l2.7.7c3.6 1 7.3 2.2 10.8 3.5s7.1 2.7 10.7 4.2c1.7.7 3.5 1.4 5.2 2.5 1.6 1 3.2 2.3 3.9 4.1-.9-1.7-2.5-2.9-4.2-3.8-1.7-.9-3.3-1.6-5.2-2.2-3.5-1.3-7-2.7-10.7-3.9-3.5-1.3-7.1-2.5-10.8-3.8-.9-.3-1.9-.6-2.7-.9-.9-.3-1.9-.6-2.7-.6-1.8-.2-3.8-.2-5.6.2zm.4 3.9c1.6-.1 3.2 0 4.7.3.7.1 1.6.4 2.3.6.7.3 1.6.6 2.2.7 3 1.2 5.6 3 8.1 5.1 2.3 2 4.5 4.5 6.4 7 1.9 2.6 3.5 5.2 5.2 8-1.9-2.5-3.8-5.1-5.7-7.4-1.9-2.5-4.1-4.8-6.4-6.8s-4.9-3.8-7.7-5.1c-.6-.3-1.4-.6-2.2-.9-.7-.3-1.4-.6-2.2-.6-1.6-.5-3.1-.7-4.7-.9zm-85.4-1.3c-1.6.1-3.2.3-4.8.6l-2.3.4-2.3.4c-1.6.4-3.2.7-4.5 1.4-1.4.6-2.9 1.4-4.2 2.3-2.6 1.9-5.1 3.9-7.5 6.1-2.5 2-5.1 4.2-8 5.7 2.7-1.9 5.1-4.1 7.4-6.2 2.3-2.2 4.8-4.5 7.5-6.4 1.4-.9 2.8-1.7 4.3-2.3 1.6-.6 3.2-1 4.8-1.3.7-.1 1.6-.3 2.5-.4.7-.1 1.7-.1 2.5-.1 1.3-.3 3-.3 4.6-.2z"/><path class="st4" d="M493.9 240c-1.9.4-3.9.6-5.8 1.2-.9.3-1.9.4-2.9.7-.9.3-1.9.6-2.9.9-3.6 1.4-6.9 3.6-9.7 6.4-2.9 2.7-5.2 5.8-7.3 9.3-2.1 3.4-4.1 6.9-5.8 10.4 1.6-3.6 3.2-7.3 5.4-10.7 1.9-3.5 4.5-6.8 7.3-9.6s6.4-5.2 10.1-6.5c.9-.4 1.9-.6 2.9-.7 1-.3 1.9-.4 3-.6 1.6-.4 3.6-.7 5.7-.8zm-9.3-4.9c-1 .1-2.2.4-3.2.6l-1.6.4-1.6.4c-2 .6-4.2 1.3-6.2 2s-4.1 1.9-5.8 3c-1.9 1.2-3.8 2.3-5.5 3.8 1.6-1.6 3.2-3 5.1-4.3 1.9-1.3 3.9-2.3 6-3.2 2-.9 4.2-1.6 6.4-1.9l1.7-.3 1.7-.3c.8-.2 2-.4 3-.2z"/><path class="st4" d="M485.9 236c-1.6-1.2-3.3-1.6-5.2-1.9l-2.9-.4-2.9-.4c-3.8-.6-7.5-.7-11.3-.6-3.8.1-7.5.6-11 1.7-3.6 1-7 2.6-10.1 4.8 2.9-2.5 6.4-4.3 9.9-5.5 3.6-1.2 7.4-1.9 11.3-1.9 3.8-.1 7.7.3 11.5.7l2.9.6 2.7.6c1.9.5 3.8.9 5.1 2.3z"/><path class="st4" d="M485.7 233.8c-2 .1-4.2.1-6.2.3-1 0-2 .1-3.2.3l-3.2.4c-4.1.6-8 1.9-11.6 3.9-3.6 1.9-7 4.3-10.3 6.9-3.2 2.6-6.2 5.4-9.4 8.1 2.9-3 5.8-6 9-8.6 3.2-2.7 6.5-5.2 10.3-7.1 3.8-1.9 7.8-3.2 12-3.8 1-.1 2-.3 3.2-.3 1 0 2-.1 3.2-.1 2-.3 4.1-.2 6.2 0zm-12.4-8c-.6-.1-1.3-.1-1.9-.3-.6-.1-1.2-.1-1.9-.3l-1.9-.1h-1.9c-2.5 0-4.8.1-7.3.6-2.5.4-4.8.9-7.1 1.6-2.3.7-4.5 1.7-6.8 2.7 2-1.4 4.3-2.5 6.7-3.3 2.3-.9 4.8-1.6 7.3-1.9 2.5-.4 4.9-.6 7.4-.3l1.9.1 1.9.3c.6.1 1.2.3 1.9.4.5.2 1.1.3 1.7.5zm10.7 12.3c-2.2.7-4.3 1.7-6.5 2.6-1 .4-2 .9-3.2 1.4-1 .6-2 .9-3.2 1.4-4.2 1.9-8.2 4.3-11.9 7-3.6 2.7-7 6-9.9 9.6s-5.1 7.8-6.4 12.2c1-4.5 3.2-8.8 5.8-12.6 2.6-3.8 6.1-7.1 9.9-9.9 3.8-2.7 7.8-5.1 12.1-7 1-.6 2-.9 3.2-1.3 1-.4 2.2-.7 3.2-1.2 2.4-.9 4.7-1.6 6.9-2.2z"/><path class="st7" d="M510.4 246.4s7.4 12.2 22.5 13.2c15.1.9 30.9-8.4 30.9-8.4l13.9-7.3s-8.8 7.4-11.5 9.1c-2.7 1.7-18.4 12.8-27.4 11.6s-15.5-1.4-23.2-7.1c-2.7-2-5.4-6.9-5.4-6.9s-3.2-6.2-3.2-6.9c0-.6-.9-3.8-.9-3.8l4.3 6.5z"/><path class="st6" d="M506.2 239.7s4.8 11.7 8.3 15.6c3.5 3.9 20.3 13.6 37.8 4.9 17.5-8.7 25.4-16.4 25.4-16.4s-22 21.6-39.2 21.3-31-9.3-32.3-25.4z"/><path class="st0" d="M409.2 130.8s1.9-8.4 6.4-19.7c4.5-11.2 9.3-3.8 9.3-3.8s-3.6 6.1-3.8 6.8c-.1.6-6.2 12.9-6.4 13.3-.3.5-5.5 3.4-5.5 3.4z"/></g></svg>