<svg id="Layer_1" xmlns="http://www.w3.org/2000/svg" viewBox="0 0 680.3 340.2"><style>.st0{fill:#d09387}.st1{fill:#ffc5eb}.st2{fill:#e2aba3}.st3{fill:#e0a296}.st4{fill:#5f5160}.st5{fill:#bfadb8}.st6{fill:#6e6455}.st7{fill:#443731}.st8{fill:#6f3837}.st9{fill:#cb595f}.st10{fill:#3e261a}.st11{fill:#fce1ed}.st12{fill:#523533}.st13{fill:#1c100d}</style><path class="st0" d="M294 291.3c-5.7-3.9-16.3-9.6-26.1-11.9l-.6-.1-8.2-.8-181.8-17.1s-11.2 4.4-20.1 8.1c-1.1.5-2.2.9-3.2 1.3-2.5 1-4.6 2-5.9 2.6-6.2 3-13.3 7.6-13.3 7.6s19.8 13.3 34.7 22.8l2.9 1.8 2.7 1.7c4.8 3 8.5 5.2 9.9 5.8 5.7 2.3 41.6 2.3 41.6 2.3h77.5s.7-.1 2-.2c7.9-.8 38.1-3.9 63.3-7.2 1-.1 2-.3 3.1-.4 16.2-2.2 29.8-4.4 32.9-6 0 0-5.7-6.4-11.4-10.3z"/><path class="st1" d="M272.4 307.6c-1 .1-2 .3-3.1.4l-4.9-26.6-5.5-2.9 8.2.8 5.3 28.3zm-197.3-.3l-2.7-1.7-2.9-1.8-15.5-33c1-.4 2.1-.9 3.2-1.3 3.2 6.7 10.8 22.7 17.9 37.8z"/><path class="st0" d="M105.5 237.5l1.6 5.6-6.7 9.1-12.2 10.1-9.3-1.2 3.7-3.6s15.1-15.7 15.7-15.9 8.7-6.4 8.7-6.4l-1.5 2.3z"/><path class="st0" d="M140.3 219.3l-34.1 19.3S95 252.7 90.7 255.7c-4.3 2.9-11.6 5.4-11.6 5.4s18.4 14.5 33.6 18.4c15.1 4 38.5 8.4 51.9 8.4s28.8-1.4 35-4.6 16.6-9 27.7-10.1c11.1-1.2 27.3-1.1 27.3-1.1L212 233.5l-67.3-17.9-4.4 3.7z"/><path class="st2" d="M156 235.2s9.3 14.9 17.1 21.1c7.9 6.2 14.6 8.4 14.6 8.4s-15 4-19 2.1c-3.9-1.8-6.9-.9-12.5.4s-14.5-.4-15.7-1.5c-1.3-1.1-11.7-15.5-11.7-15.5l2.6-25.6 13.7-9 13.2 10.3-2.3 9.3zm14.3-116l33.8-17.2 17.4 20.3-3.5 11.1-12.7 9.3-22.6-5.1-22.8-7.7c.1.1 10.4-10.7 10.4-10.7z"/><path class="st0" d="M167.5 130.9s15.4 4 17.3 4.1c1.9.2 19.8 5.1 23.3 3.8 3.6-1.3 8.7-5.2 8.2-9.3-.3-4-4.1-9.4-6.5-11.1-2.3-1.6-4.2-1.6-5.9-5.1-1.6-3.5-3.4-6.7-3.4-6.7l-3.3-11s20.8-8.7 21.5-9c.8-.3 17.3-1.8 17.6-1.1.3.8 3.6 20.3 3.6 20.3l1.1 9.3s.8 9.4 1.1 12.7c.3 3.3 1.2 13.6 1.2 13.6l-.9 2.6s-1.5 2.7-1 5.1 2 11.4 1.7 15.9c-.3 4.6-6 22.9-7.9 27.7-1.9 4.6-4.6 12.3-9.5 21.8-4.9 9.4-14.1 18.8-14.1 18.8l-4.5 7.9-10.1 6.7-7.9 2.1-10.4-1.4-7.7-1.8-11.5-5.6-3.6-2.3-4-5-4.6-5.3-7.6-9.4s-8.7-20-9.3-32.8 0-76 0-76l51.9-28.8c.1 0-14.8 49.3-14.8 49.3z"/><path class="st3" d="M131 182s6.9 7 11.7 10.8c4.6 3.7 5.6 5 9.5 5.3s12.3-5.1 15.1-6.9c2.8-1.8 9.7-4.6 9.7-4.6l1.9 4.5s1.9.7 3.8.3c1.8-.3 5.9-.3 7.6 2.1 1.7 2.5 3.9 3 6.1 3 2 0 4.2 3 3.8 4.3s-1.4 2.9-4.1 2.8c-2.8-.1-4.2-1-5.6-1.2-1.3-.2-4.5 2.6-4.5 2.6s-3.6 1.5-4 1.8c-.3.3-8.5 1.3-8.5 1.3l26.2 13s1.1-.9 2.9 2c1.8 2.9 3.8 6.8 3.8 8.9 0 1.9-1.3 7.5-2.1 9.7-.9 2.4-5.5 4-5.5 4l-4.3 2.7-11.4 1.3-8.5-1.9-6.3-2.9-6.7-3.5-4.9-3-7.1-7-5.2-6.8-4.2-5.4-3.9-10.1-3.8-12.5-1.8-7.6.3-7z"/><path class="st2" d="M141.7 157s3 14.6 7.3 18 14.6 4 18.6 2.4c4.1-1.6 9.9-2.7 12.3-2.7s7.7-6.8 6.7-9.5c-1.1-2.7-1.9-9.4-1.6-10.1.3-.7-8-16-10.4-16.6-2.4-.4-9.5-3.2-9.5-3.2l-5.1 1.1-12.3 6.3c-.2-.1-6 14.3-6 14.3zm41.2 27.7s-2.1-.6-2 1.2c.1 1.7.4 1.9 2 2.6 1.6.7 1.3 1.3 2.8 1.6s2.1-.3 1.5-1.6c-.7-1.3.1-3.6-.7-3.8-.7-.2-3.6 0-3.6 0zm9.6-29.7s1.2 15.8.6 18.8c-.7 2.9-2.1 2.6-2.4 6.3-.3 3.7-1.3 4.2-.1 7.2s3.5 4 6 3.7 5-2 5.3-4.5 1.3-7.7 0-9.8-2.3-5.6-3.3-9.8.7-10.3-1.5-11.9c-2.2-1.6-4.8-1.5-4.6 0z"/><path class="st4" d="M176.4 152.4s-1.2-3.3-3.3-5.1c-2-1.8-4.2-2.9-5-3.5s-6.7-1.1-6.7-1.1l-5.5 1.4-2.4 1s-1.3 3.9 0 4.6c1.4 1 22.9 2.7 22.9 2.7zm58 1.7v-4.9s-4.4-2.8-8.6-2.6c-4.2.3-6.5 0-6.5 0s-4.1 1.8-5.4 3.3c-1.3 1.4-3 3.5-3.5 4.2-.5.8-1.1 2.4-1.1 2.4l14.2-3.6 10.9 1.2z"/><path class="st2" d="M178.6 228.9c1.4 0 10.2-1.1 11.1 0 .9 1.1 3 2.9.3 3.6-2.7.8-5.2 1-7 1.9-1.8 1-6.3-.3-9-1.4-2.7-1.1-11.2-3.8-12.1-3.8-.9 0-3 0 0 4.3s8.1 8.5 8.6 9 1 1.9 0 2.4c-1 .3-12.5-5.4-16.7-22.7-1.1-3.3 1.8-2.9 5.1 0s3.8 3.5 8.5 5.4c4.4 2 11.2 1.3 11.2 1.3z"/><path class="st4" d="M177.8 153.7s-1.5-4.3-2.4-5.4c-.9-1.1-2.6-3-2.6-3l-2-.7-2.5-.6.2 1.3 7.2 8.1 2.1.3z"/><path class="st5" d="M153.6 149.9s2.7-2.3 4.5-2.7 5.4-.9 5.4-.9l5.2.9 3.8 1.6 2.7 2.3.9 1.9-.4 1.1-1 .9s-4.9.4-8.2-.4c-3.4-.9-3.8-.6-3.8-.6l-3.2-1.1-5.9-3z"/><path class="st6" d="M170.3 150.2c0 2.4-2.1 4.3-4.7 4.3-2.7 0-4.7-1.9-4.7-4.3s2.1-3.9 4.7-3.9 4.7 1.6 4.7 3.9z"/><path class="st7" d="M165.7 149.7c-1 0-1.7-.8-1.7-1.7 0-1 .8-1.7 1.7-1.7 1 0 1.7.8 1.7 1.7 0 1-.8 1.7-1.7 1.7z"/><path class="st8" d="M174.6 154.9s1.7-.4 2.1-.4c.4 0 1.3.6 1.4 0 .1-.6-1.6-2-1.6-2l-1.7-1.7c0-.1 1.6 3.1-.2 4.1z"/><path class="st5" d="M212.7 154.1s2.8-2.6 8.1-3.6c5.2-1 8.8 0 8.8 0s3.8 1.3 4.9 3.6c0 0-3.3 2.7-5.2 3.3-1.9.7-4.9 1.2-4.9 1.2l-7.3-.1-5.4-1.5 1-2.9z"/><path class="st8" d="M208.7 157s-.9.7-.6 1c.2.3 1.1-.7 1.9-.4.9.1 3.4.7 3.4.7l3.7.6s-3.4-1.3-4.1-1.6c-.9-.3-1.3-.6-1.1-1.1s1-2 1-2l-2.5 1.6-1.7 1.2z"/><path class="st6" d="M227.3 154c0 2.3-1.8 4.3-4.2 4.3s-4.7-1.5-4.7-3.9c0-2.3 2.3-4.5 4.5-4.5 2.2-.1 4.4 1.7 4.4 4.1z"/><circle class="st7" cx="222.2" cy="151.6" r="1.7"/><path class="st9" d="M164.1 205.3s15.8 1.4 16.7 1.3c.9-.1 4.9-.7 4.9-.7l5.9.9h2.8l3.8-.4s2-.1 3.4-.3c1.3-.2 6.1.4 7.8.8 1.8.3 4.1 1.6 4.1 1.6s.4 3.3-.4 4.2c-.9 1-.9.8-.9.8l-1.3 2.4-3.7 4.1-2 2-2.7 1.6-4.3 1.4-5.2.8h-5.1l-5.8-.9-5.2-3.2-6.3-6.1-4.6-4c0 .1-1.8-4.5-1.9-6.3z"/><path class="st10" d="M164.1 205.3s4.6 3.5 7.7 4.7c3 1.3 4.7 1.6 4.7 1.6s-8.2-3.4-12.4-6.3zm19.7 7.6s6.5 1.6 13.9.7c0 0-3.3 0-4.5-.7-1.4-.6-4.5 1-9.4 0zm29.8-4.5s-3.3 2.4-5.3 3.2-4.1 1.1-4.1 1.1 7.2-2.3 9.4-4.3z"/><path class="st11" d="M171 211.7s8.8 5.2 11 6.3c2.1 1.1 2.8 1.4 3.9 1.4s2-.9 1.3-1.2c-.8-.3-5.5-1.9-6.4-2.3-.9-.4-9.8-4.2-9.8-4.2zm20.2 7.2c1.1.9 5.9.6 6.3.3.4-.2 1.2-1.3 0-1.3s-4-.1-4.2 0c-.3.2-2.9.5-2.1 1z"/><path class="st2" d="M180.8 206.6s4.2-.4 5.9-.4c1.6 0 4.5.9 5.5 1s6.5-.4 6.5-.4-.2-.7-1.2-.4c-.9.2-3.4.6-4.7.4-1.4 0-2.1-.3-3.2-.6-1-.1-3.4-.7-4.4-.6-1.1.1-4.3.7-4.4 1zm57.3-44.6c-2.4-2.1-5.5-2.5-5.5-2.5s-.9 2.7-3.7 4.1c-2.8 1.4-5.2 1.3-5.6 1.3s-4.9-.6-4.9-.6l-5-1.5-7.1-4s1.9 7.8 2.5 10.7-1.8 4.9-.7 7.8c1.2 2.9 4.2 9.8 3.9 11.2-.1.6 1.2.1 3-.8 1.9-.2 4.4-.2 6.3 1.4 3.6 3 4.6 3.8 4.6 7.6s-.9 8.6-.9 8.6 1.4 5.2 2.9-6.7c1.4-12-1.9-11.5-1-14 1-2.5 8.9-8.6 9.4-8.9 2.7-2 5.9-4.6 6.2-5.9.7-1.5-1.9-5.5-4.4-7.8z"/><path class="st12" d="M208.3 152.4s5.4-5.8 13.3-6.4c7.9-.6 12.8 3 12.8 3s-9.2-7.4-26.1 3.4zm2.6-7.2s9.7-5.4 14.6-6.7c4.9-1.3 13-1 15 0s3.3 2.9 3.3 2.9l-.9 2.6s-.6-3.4-10.3-3.7c-9.8-.1-19.4 3.6-21.7 4.9z"/><path class="st12" d="M234.4 154.1s-3.4-5.6-16.9-2.6c-1.5.7-4 2-6 3.4-1.2.8-2.1 1.5-2.7 2 0 0 6.5-6.9 15-7.7 8.5-.7 8.9 2.5 10.6 4.9zm0 0s-2.6 2.8-9.3 3.9c-6.7 1.1-10.7-.1-11.5 0 0 0 15.5 3.4 20.8-3.9zm-56.6-6.6s-5.5-5.4-15.6-4.7c-4.2-.1-8.6 2.4-8.6 2.4s11.7-5.2 24.2 2.3zm6.1-6.1l-.8-.4c-2.7-1.5-12.5-6.5-19.7-7.6l-3.5 3c.1.1 16.1 1.1 24 5zM153.6 157s5.3 4.4 10.5 5 14.5-4.3 14.5-4.3-9.7 3.6-13.4 3.7c-3.8-.1-9-2.8-11.6-4.4zm0-7.1s7.6 4.7 11.5 5c3.9.2 9.5 0 9.5 0s-10 1.1-21-5z"/><path class="st12" d="M176.4 152.4s-3-7.3-15.4-6.3c-5.2.6-7.5 3.7-7.5 3.7s9.6-8.7 22.9 2.6zm28.6 36.7s2-3.9 1-9.3c-1.1-5.4-2.8-6.3-2.4-14.6.4-8.4.8-13 2.7-15.3l1.9-2.3s-4.5-1.2-5.4 12 .7 14.5 1.3 17.9c.8 3.5 2 2 .9 11.6zm1.2 3.3s2.6-.3 2.5-3.9c-.1-3.6-.7-3.8-.7-3.8s1.4 4.4-1.8 7.7zm-11.9 3.9s2.1.9 3.7 0c1.5-.9 5.3-3.3 7-3.5 0 0-2.6-.3-5.2 1.4-2.5 1.8-2.4 1.9-5.5 2.1zm-3.9-2.7s-2.1-3.7-7.6-2.1c.1 0 6.6-.6 7.6 2.1zm-50.1 25.7s12 15.7 17.1 19.2 10.3 6 12.1 6.8c1.8.9 7.3 3.6 12 3.6 4.5 0 11.7 1.1 17.3-2.7s13.6-12.8 13.6-12.8l-3.4 7.9s-4.6 6.2-13.1 8.7-17.5.3-22-1.4c-4.5-1.8-16.8-9-16.8-9s-10.3-10.4-16.8-20.3zm38.7-28.2s-3.4-3.7-1.3-6.7l2.3-2.4s-4.4 1.8-1 9.1z"/><path class="st12" d="M218.1 212.7s-5.5 9.4-6.7 11.9c-1.2 2.4-4.4 8.5-5 9.8 0 0 .9-3.5 2.5-7.1s7.5-12.2 9.2-14.6zm-52.1-1s8.1 7 11.7 9.7c3.6 2.7 8.2 4.5 13.7 4s10.4 0 17.3-7.8c7-7.8 3.4-4.3 3.4-4.3s-3.8 10.7-14.6 12.2-15.1.8-19.8-2.6c-4.6-3.4-11.7-11.2-11.7-11.2zm68.4-56.7s-1.2 6.5-4.5 8.6c-3.4 2-7.7 1.7-11.3 1.1-3.6-.7-5-1.9-5-1.9s9.5 2.9 13.8 1.1c4.2-1.9 5.4-3.9 7-8.9z"/><ellipse transform="rotate(-63.179 193.24 187.696)" class="st11" cx="193.2" cy="187.7" rx="1.4" ry="2"/><circle class="st11" cx="164.6" cy="148.2" r=".9"/><circle class="st11" cx="220.7" cy="151.9" r=".9"/><path class="st13" d="M191.1 74.9c-1 0-40.2 6.2-41.9 6.7-1.8.6-30.4 22.8-30.4 22.8l-8.7 51.6 31 84.2s.8 3 2.4 6.2c1.7 3.2 3.5 11.6 3.5 11.6s-.1-2.7-1.1-6.9-1.3-3.7-2.3-5.6c-1-1.9-2.4-8.1-2.4-8.1s1.3 2.6 2.1 4.5c.4 1 3.3 1.5 5.9 1.8 1.6 12.8 1 31.7 1 31.7s2.1-12 .8-25.3c-.3-2.5-.6-4.5-.9-6.4 2 .2 3.9.2 3.9.2s-1.8-.3-4-.8c-1.2-7.2-2.7-9.7-5.4-18.5-3.5-11-9.8-19-12-28-1-4.5-1.5-13.9-1.6-22.3 2.9-13.3 3.5-17.6 9.3-24.1 6-6.7 10.5-9.3 19.8-14s5.1-2.7 7.6-5.5c2.4-2.8 20-20.5 20-20.5 7.1-3.6 49.2-24.8 49.2-24.8l12.1-6c-.3.3-56.9-4.5-57.9-4.5zM142 224.5s2.3 1 5.6 11.7c.6 1.8 1.1 4.2 1.4 6.9-1.9-.6-4-1.1-4.9-1.8-1.9-1.5-2.7-5.3-3.6-9.3-.7-3.8 1.5-7.5 1.5-7.5z"/><path class="st13" d="M134.8 292.7s6.8 1.8 7.9-11.7c1.1-13.6-.4-29.9-2.3-36-1.8-6.1-5.3-20.5-5.3-20.5l-4.3-21-10.4-26-1.5-25 19.2-42.8 98.6-24.1s4.2 24.8 4.5 28.1c.3 3.3 2.5 27.7 2.5 27.7l-.9 2.6s-1.5 1.8-1 5.1c.6 3.3 1.5 9.9 1.5 9.9s.6 5.6-.4 9.7-9.3 29.6-12.5 36.7c-3.4 7.1-9 16.9-12.1 20.7-3.2 3.8-6.2 7-6.2 7s-3.7 6-3.4 7.9-.2 7-.7 8.9c-.5 1.8-.4 1.6-4.5 5.1-4.1 3.5-6 3.2-10.6 5.5s-6.5 3.7-6.5 3.7 4.4-2 8.7-3.5c4.2-1.4 6-1.1 8.9-2.3 2.9-1.2 4.5-1.5 4.5-1.5s-3 2.8-6 3.4c-2.9.6-8.6 1.7-8.6 1.7l-4.6 1.6s11-2 13.3-2.4c2.4-.3 5.2-1.6 5.2-1.6l-2.4 4.9s-3.4 6-5.9 9.5c-2.5 3.6-8.6 8.5-8.6 8.5s10.4-8.9 14-14.9c3.6-6.1 4.2-4.5 4.2-4.5s-3.8 8.2-3.9 9.3l3.5-5.2c.4-.7.9 1.3.2 4.9s-.1 4.2-3 5.2-4.4 4.2-5.5 6.4c-1.1 2.1-10.8 7.3-14.9 7.6-4.1.2-5.4.1-5.4.1s2.6 1.7 8.5.2 10.2-2.4 12.3-5 3-6.1 4.4-7c1.4-1 1.7 1.5 1.7 1.5s-.2 5.9-2 10.6-5.2 11.3-5.2 11.3 6.1-9.3 7.1-13.2c1.1-4 1.1-8.8 1.5-9.3.4-.6 4.3-5.3 4.3-4.7s1.3 6.3 1.5 7.8c.3 1.5 1.7 14.2.2 18.9-1.5 4.6-6.7 14.1-6.7 14.1s4.1-3.3 5.9-8.5c1.7-5.2 3.3-12 3.3-15.1s-.1-6.4-.1-6.4 1.6 11 3.2 15.7c1.5 4.7 4.7 8.7 5.5 10.4.8 1.7-.1 5.3-.1 5.3s2.4-3.3 1.1-6.4c-1.3-3.2-4.4-6.3-5.2-8.5-.8-2.1-1.7-8.2-1.7-8.2s4.7 9.6 8.7 12.4c3.9 2.8 8.7 3.8 8.7 3.8s-6.4-3.8-8.6-4.7c-2-1-6.4-9.6-7.1-10.7s-2.1-9.3-2.1-9.3 6.5 4.7 8.6 6.3c2 1.5 4.3 5.3 4.3 5.3s-2-4.9-5-7.5c-2.9-2.6-5.6-4.5-5.9-5-.3-.5-.9-2.7-.9-2.7l7.3 4.5s26.4 18.3 29.7 20c0 0-7-5.6-12-10.3 0 0 11.6 7.3 16 7.9 4.5.7 7.3-1.6 7.3-1.6s-2.6 1.1-5 1.1-7.5-3.5-7.5-3.5 10.2.4 12.4-.2c2.3-.7 3.6-2.5 3.6-2.5s-1.5 1.1-3.8 1.3c-2.3.2.9-1.3.9-1.3s2.6-.1 2.5-1.9-.4-2.9-.4-2.9 5.8-2.8 6.3-4.3l.4-1.5s-1.6 2.9-4.9 3.4-5.2-.3-5.2-.3 1.2.2 3.3-1.5c2-1.8 3.8-5.9 3.8-6.5 0-.7-.7 1.2-2.6 2.4-1.9 1.2-8.6 1.2-10.1.4-1.5-.8-1.8-1.4-1.8-1.4s2.3-.2 6.3-1.6 12.3-6.7 13.7-7.8c1.3-1 1.9-2.9 1.9-2.9s-1.9 1.2-2.7 1.6c-.8.4-1.9.2-1.9.2s4.1-2.6 4.5-3.3l.4-.7s-1.9 1.1-3.2 1.6c-1.2.6-3 1.1-3 1.1s6-2.8 9.5-6.2c3.5-3.4 4.5-8.9 4.5-8.9s-4.2 7.8-6.7 9.1c-2.4 1.3-5.3 1.6-5.3 1.6s3.9-3.9 3.2-6.7l-.8-2.8s.2 4.5-3.2 8.6c-3.4 4-4.5 2.5-4.5 2.5l.4-2.5s.4 3.5-2.6 4.1c-3 .7-4.9.2-4.9.2s.2-1.9 1.5-1.9 2.9-.8 2.4-1.1c-.4-.3-2.4-.9-2.4-.9s-.8-1.4 1.9-1.4c2.6 0 3.2.2 3.2.2s-4.1-1.8-5.6-.9-2.9 1.8-5 1.1c-2-.8-5.2-4.2-5.2-4.2s3.4-1.4 7.8-1.6c4.5-.2 6.9.2 7.8 0 .9-.2 9-2.6 12-5.9 0 0-8.8 3.5-12.4 2.8 0 0 7.8-2.3 10.6-6.7 0 0-3.5 6.2-12.8 4.6-4.9-1-5.8 0-6.7-3.9-1-3.9-3.5-13.3-3.5-19.4-.1-6.1-.2-8.6.2-12 .3-3.5-.9-8.6-.9-8.6l-5.6 1.1 4 4.4s.2 6.7.4 9.3c.2 2.6 2.8 21.8 4 25.9 0 0-4.1-2-6.4-5.1-2.4-3-3.5-5-3-9.3.3-4.3 1.9-6.3 1.9-9.3.1-3-1.7-7.7-1.7-7.7s1.3 6.3.7 9.3c-.7 3-1.8 6.2-1.9 8-.1 1.9-.3 5.5-.3 5.5s-1.9-1.8-2.4-3.7c-.3-1.9.1-4.1-.6-5.2-.7-1-1.7-.2-1.3-2.5.3-2.3 1.3-4 1.9-4.4.8-.4 10.2-9.9 12.1-19.4 1.9-9.5 1.6-15.1 1.6-20 0-4.7 1.9-9.3 1.9-9.3s0 8.7-.6 13.9-2.8 12.5-3.5 13.9c-.7 1.3-.9 2.4-.9 2.4s5.2-9.9 5.5-16.8c.3-6.8.7-11.5 2.1-15.9 1.5-4.4 5.8-14 5.8-24.6s-1.2-17.5-1.2-17.5 3 7.3 2.9 14.7c-.1 7.5-1.4 13-2.5 16.7-1.1 3.8-6.3 10.7-6.3 10.7s5.6-2.7 7.8-10.3c2-7.6 2.6-17.6 1-26.2-1.6-8.6-9.3-31.6-9.3-31.6s-5.1-18.9-8.2-25.8c-3.2-6.9-10.3-23.6-19.9-33.4-9.5-9.9-22-16-27.9-20.6-5.8-4.5-11.7-4-17.9-3.6-6.2.3-8.9-.3-10.6-.2-1.8 0-2.1 1.6-2.1 1.6s.8-4.9-7.8-4.3c-8.6.6-22.7-1.3-36.8 11.4-14.1 12.6-21.4 19.3-30 40.9s-12.8 52-13.2 55.3c-.5 3.3-5.8 60.9-5.1 69.1.8 8.4 2.5 21.1 4.5 23.6 1.9 2.5 4.1 3.6 4.1 3.6s1.3-3.9.6-3.9c-.8 0-2.7-2-3-2.8s-1.6-14-1.6-14l2.5 6.1s-4.3 4.6-8.1 6.3c-3.8 1.6-14.9 1.9-14.9 1.9s17.3 2 23.8-4.4 1.5 4.2 1.5 4.2l-8 9.1s-2.4 2.3-4.5 2.6-8.9 1.3-10.1.8c.9.6-.3 1.3 3.6 1.5 3.9.2 9.4-1.3 9.4-1.3s.3 2.5-3.8 3.4c-4.1.9-7.5 1.9-9.7 1.6 0 0 2.9 1.9 5.9 1 2.9-1 4.7-1.2 4.7-1.2s-5.3 2.8-8.9 2.8-9.1-1.5-9.1-1.5 4.4 3.2 7.5 2.9c3-.2 8.8-.4 10.4-1s2.6-.2 2 .4c-.6.6-.7 3-2.4 4.4s-4.4 2.7-6.2 3c-1.7.3-8.1-.3-8.1-.3s2.7 1.1 4.4 1.2c1.7.1 4.1.2 4.1.2s-4.9.7-6.4 1-4.1.4-4.1.4 2.8.2 5.2.7 4.5.7 5.6.7c1.1 0 3.2-.2 3.2-.2s-2.8 1.2-5.5 1.7c-2.7.6-7.5.3-7.5.3s.9.9 4.2.8c3.4-.1 7.3-.7 7.3-.7l3.9-.9s-1.7 2-4.1 3.2c-2.4 1.1-6.8 1.9-6.8 1.9s1.9.9 5-.2c3-1.1 5.5-1.2 5.5-1.2l-3.7 2.8s-4.9 1.5-6.1 2.4c-1.2.9-.2 1 .3.8.5-.2 5-.4 8.8-3.2 3.8-2.7 8.8-3.8 12.5-8 3.8-4.2 8-8.2 9-8.8s3-2.3 2 .9-2.5 5.2-3.4 6.5-5.1 4.6-6.7 5.3-8.9.1-8.9.1 3.5 1.8 6.1 1.4c2.6-.4 12-6.7 13.4-9.3 1.5-2.6 3.4-3 3.4-3s1.1 1.9-1.4 5.4-11.5 9.3-14.5 10.3c-3 1.1-6.4 1.4-4.5 1.7 1.8.3 4 .2 6.4-1 2.4-1.2 6.2-2.4 6.2-2.4s-1 2.9-4.6 5c-3.7 2-3.6 2.4-6 3.3s-5 .4-6.4-.1-2-2-2-2 1.1 2.6 2.8 2.9c1.7.3 3.7.7 3.7.7s-.4 1.6-2 1.3c-1.6-.3-4.5-1.2-5.3-2.4-.8-1.2-.9-1.2-.9-1.2s-1 1 .9 1.9 3.7 2.3 3.7 2.3-1.9.7-3.4 1c-1.4.3-1.3.2-1.3.2s-.7 1.3 1.4.8c2-.6 3.9-1.6 4.4-1.4.6.2.2 1 0 1.2s.4.8 1 .2 1.7-1.4 2.9-1c1.2.5 2.4.4 1.3 1.1s-2.1 1.5-4.1 1.5c-1.9 0-3.2-.1-3.4-.1s-1.7-.3-1.7-.3.2 1 3 1 6.7-.8 8-1.5c1.3-.8 2.9-1.2 2.9-1.2s-.6 1.2-2.5 2-2.6 1.2-4.7 1.8-3.4 1.4-4.3 2.5c-1 1.1-1.9 2.4-1.9 2.4s1.3-1.4 4.1-2.8 3.5-1 7.2-2c3.8-1.1 4.7-1 7.7-2.8 2.9-1.9 4.6-2.9 5.5-3.5s2.5-2 3.6-3.6c1.1-1.5 1.9-2.6 1.9-2.4 0 .2-1.6 3.9-2.6 5.2-1 1.3-2.6 3.7-5.6 5.9-3 2.1-8.4 3.3-9.3 3.8s-1.3 1.3-1.3 1.3-1.7-.6 2-.9c3.8-.3 3.7 1.1 6.9-1 3.2-2 6.1-4.2 6.1-4.2l1.4-.3s-2.9 2-4.6 3.7c-1.7 1.6-3.7 2.9-5 3.8s-2.8 1.9-3.5 2.7c-.2.2-.6.7-.8 1-.4.8-.9 1.6-.9 1.6s4.9-4.3 5.6-4.6c.8-.3 1-.4 1.9-.4s.9-.1.9-.1-1.2 1-2.6 2.1c-1.4 1.2-2.1 2.6-2.1 2.6s-.3 1 .9.1-.2-.4 2.3-2.3c2.5-1.7 3.9-2.4 3.9-2.4s.3.8-1.2 2.3-2.1 2.6-3.7 3.7c-1.5 1.1-1.8 1.8-1.8 1.8s2.7-.2 3.8-1.9c1.1-1.7 3.6-4.1 3.9-4.1s.3 1.7-.9 2.9-2.1 2.5-2.1 2.5 3.2-2.3 4.5-3.4 2.1-1.9 2.6-2.7c.4-.8 1.9-1.4 2.3-1.4s.9 1.8 2.6-.3 4-4.5 5-7.1 2.8-7.7 2.8-7.7-.1 9.8-2.4 15.3c-2.3 5.4-.7 3.4-3.8 7.1-3.2 3.8-7.8 6.7-7.8 6.7s6.9-4.2 7.2-4.7c.3-.6 1-1.2 1-1.2s-1.2 2.8-3.2 5.6-2.8 3.8-2.8 3.8 4.3-5 7.1-9.4 4.6-6 5.6-10.8c1-4.9 2-9.3 2-9.3s-.1 11.9-.7 16.3-.6 7.5-.2 11.1c.3 3.6 1.1 6.4 1.1 6.4s-1-12.1 1.7-22.9c1-4.5 2-7.2 2-7.2s-.2 9.3-1.2 11.9c-1 2.5-4.3 9-6.5 11.7-2.1 2.7-2.8 3.3-2.8 3.3s7.5-8 9-11c1.5-2.9 2.3-5.9 2.3-5.9s.2 5.5.2 7.7c0 2.1 1 9.1 1.4 9.6.4.6 0-3.4-.2-6.1s.1-6.7.4-11.5 1.3-14.9 1.3-14.9l.3-2.3 2.6 5.6s.8 5.6 1.1 6.9.7 5.6.4 7c-.2 1.4-1.5 4.3-1.5 4.3s1.2-.9 1.3-1.2c.1-.3 1.5-7.1 1.1-9.9-.5-2.8-1.5-7.3-2-9.6-.6-2.3-.3-6.7-.3-6.7l.8-5.5s.9 1.6 1.5 3c.7 1.4 1.7 5.9 1.8 7.1.1 1.3 1.1 11.7.7 14.2s-1 5.9-1.3 7.1c0 1.2-1.2 4.7-5.9 5.6z"/><g><path class="st0" d="M634.1 291.3c-5.7-3.9-16.3-9.6-26.1-11.9l-.6-.1-8.2-.8-181.8-17.1s-11.2 4.4-20.1 8.1c-1.1.5-2.2.9-3.2 1.3-2.5 1-4.6 2-5.9 2.6-6.2 3-13.3 7.6-13.3 7.6s19.8 13.3 34.7 22.8l2.9 1.8 2.7 1.7c4.8 3 8.5 5.2 9.9 5.8 5.7 2.3 41.6 2.3 41.6 2.3h77.5s.7-.1 2-.2c7.9-.8 38.1-3.9 63.3-7.2 1-.1 2-.3 3.1-.4 16.2-2.2 29.8-4.4 32.9-6 0 0-5.7-6.4-11.4-10.3z"/><path class="st1" d="M612.5 307.6c-1 .1-2 .3-3.1.4l-4.9-26.6-5.5-2.9 8.2.8 5.3 28.3zm-197.3-.3l-2.7-1.7-2.9-1.8-15.5-33c1-.4 2.1-.9 3.2-1.3 3.2 6.7 10.8 22.7 17.9 37.8z"/><path class="st0" d="M445.6 237.5l1.6 5.6-6.7 9.1-12.2 10.1-9.3-1.2 3.7-3.6s15.1-15.7 15.7-15.9 8.7-6.4 8.7-6.4l-1.5 2.3z"/><path class="st0" d="M480.4 219.3l-34.1 19.3s-11.2 14.1-15.5 17.1c-4.3 2.9-11.6 5.4-11.6 5.4s18.4 14.5 33.6 18.4c15.1 4 38.5 8.4 51.9 8.4s28.8-1.4 35-4.6c6.2-3.2 16.6-9 27.7-10.1 11.1-1.2 27.3-1.1 27.3-1.1l-42.6-38.6-67.3-17.9-4.4 3.7z"/><path class="st2" d="M496.1 235.2s9.3 14.9 17.1 21.1c7.9 6.2 14.6 8.4 14.6 8.4s-15 4-19 2.1c-3.9-1.8-6.9-.9-12.5.4s-14.5-.4-15.7-1.5c-1.3-1.1-11.7-15.5-11.7-15.5l2.6-25.6 13.7-9 13.2 10.3-2.3 9.3zm14.3-116l33.8-17.2 17.4 20.3-3.5 11.1-12.7 9.3-22.6-5.1-22.8-7.7c.1.1 10.4-10.7 10.4-10.7z"/><path class="st0" d="M507.6 130.9s15.4 4 17.3 4.1c1.9.2 19.8 5.1 23.3 3.8 3.6-1.3 8.7-5.2 8.2-9.3-.3-4-4.1-9.4-6.5-11.1-2.3-1.6-4.2-1.6-5.9-5.1-1.6-3.5-3.4-6.7-3.4-6.7l-3.3-11s20.8-8.7 21.5-9c.8-.3 17.3-1.8 17.6-1.1.3.8 3.6 20.3 3.6 20.3l1.1 9.3s.8 9.4 1.1 12.7c.3 3.3 1.2 13.6 1.2 13.6l-.9 2.6s-1.5 2.7-1 5.1c.6 2.4 2 11.4 1.7 15.9-.3 4.6-6 22.9-7.9 27.7-1.9 4.6-4.6 12.3-9.5 21.8-4.9 9.4-14.1 18.8-14.1 18.8l-4.5 7.9-10.1 6.7-7.9 2.1-10.4-1.4-7.7-1.8-11.5-5.6-3.6-2.3-4-5-4.6-5.3-7.6-9.4s-8.7-20-9.3-32.8 0-76 0-76l51.9-28.8c.1 0-14.8 49.3-14.8 49.3z"/><path class="st3" d="M471.1 182s6.9 7 11.7 10.8c4.6 3.7 5.6 5 9.5 5.3s12.3-5.1 15.1-6.9c2.8-1.8 9.7-4.6 9.7-4.6l1.9 4.5s1.9.7 3.8.3c1.8-.3 5.9-.3 7.6 2.1 1.7 2.5 3.9 3 6.1 3 2 0 4.2 3 3.8 4.3-.4 1.3-1.4 2.9-4.1 2.8-2.8-.1-4.2-1-5.6-1.2-1.3-.2-4.5 2.6-4.5 2.6s-3.6 1.5-4 1.8c-.3.3-8.5 1.3-8.5 1.3l26.2 13s1.1-.9 2.9 2c1.8 2.9 3.8 6.8 3.8 8.9 0 1.9-1.3 7.5-2.1 9.7-.9 2.4-5.5 4-5.5 4l-4.3 2.7-11.4 1.3-8.5-1.9-6.3-2.9-6.7-3.5-4.9-3-7.1-7-5.2-6.8-4.2-5.4-3.9-10.1-3.8-12.5-1.8-7.6.3-7z"/><path class="st2" d="M481.8 157s3 14.6 7.3 18c4.3 3.4 14.6 4 18.6 2.4 4.1-1.6 9.9-2.7 12.3-2.7s7.7-6.8 6.7-9.5c-1.1-2.7-1.9-9.4-1.6-10.1s-8-16-10.4-16.6c-2.4-.4-9.5-3.2-9.5-3.2l-5.1 1.1-12.3 6.3c-.2-.1-6 14.3-6 14.3zm41.2 27.7s-2.1-.6-2 1.2c.1 1.7.4 1.9 2 2.6 1.6.7 1.3 1.3 2.8 1.6 1.5.3 2.1-.3 1.5-1.6-.7-1.3.1-3.6-.7-3.8-.7-.2-3.6 0-3.6 0zm9.6-29.7s1.2 15.8.6 18.8c-.7 2.9-2.1 2.6-2.4 6.3-.3 3.7-1.3 4.2-.1 7.2s3.5 4 6 3.7 5-2 5.3-4.5 1.3-7.7 0-9.8-2.3-5.6-3.3-9.8c-1-4.2.7-10.3-1.5-11.9-2.2-1.6-4.8-1.5-4.6 0z"/><path class="st4" d="M516.5 152.4s-1.2-3.3-3.3-5.1c-2-1.8-4.2-2.9-5-3.5-.8-.6-6.7-1.1-6.7-1.1l-5.5 1.4-2.4 1s-1.3 3.9 0 4.6c1.4 1 22.9 2.7 22.9 2.7zm58 1.7v-4.9s-4.4-2.8-8.6-2.6c-4.2.3-6.5 0-6.5 0s-4.1 1.8-5.4 3.3c-1.3 1.4-3 3.5-3.5 4.2-.5.8-1.1 2.4-1.1 2.4l14.2-3.6 10.9 1.2z"/><path class="st2" d="M518.7 228.9c1.4 0 10.2-1.1 11.1 0 .9 1.1 3 2.9.3 3.6-2.7.8-5.2 1-7 1.9-1.8 1-6.3-.3-9-1.4-2.7-1.1-11.2-3.8-12.1-3.8-.9 0-3 0 0 4.3s8.1 8.5 8.6 9 1 1.9 0 2.4c-1 .3-12.5-5.4-16.7-22.7-1.1-3.3 1.8-2.9 5.1 0s3.8 3.5 8.5 5.4c4.4 2 11.2 1.3 11.2 1.3z"/><path class="st4" d="M517.9 153.7s-1.5-4.3-2.4-5.4c-.9-1.1-2.6-3-2.6-3l-2-.7-2.5-.6.2 1.3 7.2 8.1 2.1.3z"/><path class="st5" d="M493.7 149.9s2.7-2.3 4.5-2.7c1.8-.4 5.4-.9 5.4-.9l5.2.9 3.8 1.6 2.7 2.3.9 1.9-.4 1.1-1 .9s-4.9.4-8.2-.4c-3.4-.9-3.8-.6-3.8-.6l-3.2-1.1-5.9-3z"/><path class="st6" d="M507.5 150.2c0 2.4-2.1 4.3-4.7 4.3-2.7 0-4.7-1.9-4.7-4.3s2.1-3.9 4.7-3.9 4.7 1.6 4.7 3.9z"/><path class="st7" d="M502.9 149.7c-1 0-1.7-.8-1.7-1.7s.8-1.7 1.7-1.7c1 0 1.7.8 1.7 1.7s-.8 1.7-1.7 1.7z"/><path class="st8" d="M514.7 154.9s1.7-.4 2.1-.4c.4 0 1.3.6 1.4 0 .1-.6-1.6-2-1.6-2l-1.7-1.7c0-.1 1.6 3.1-.2 4.1z"/><path class="st5" d="M552.8 154.1s2.8-2.6 8.1-3.6c5.2-1 8.8 0 8.8 0s3.8 1.3 4.9 3.6c0 0-3.3 2.7-5.2 3.3-1.9.7-4.9 1.2-4.9 1.2l-7.3-.1-5.4-1.5 1-2.9z"/><path class="st8" d="M548.8 157s-.9.7-.6 1c.2.3 1.1-.7 1.9-.4.9.1 3.4.7 3.4.7l3.7.6s-3.4-1.3-4.1-1.6c-.9-.3-1.3-.6-1.1-1.1s1-2 1-2l-2.5 1.6-1.7 1.2z"/><path class="st6" d="M565.5 154.2c0 2.3-1.8 4.3-4.2 4.3-2.4 0-4.7-1.5-4.7-3.9s2.3-4.5 4.5-4.5c2.2-.1 4.4 1.7 4.4 4.1z"/><circle class="st7" cx="560.4" cy="151.8" r="1.7"/><path class="st9" d="M504.2 205.3s15.8 1.4 16.7 1.3c.9-.1 4.9-.7 4.9-.7l5.9.9h2.8l3.8-.4s2-.1 3.4-.3c1.3-.2 6.1.4 7.8.8 1.8.3 4.1 1.6 4.1 1.6s.4 3.3-.4 4.2c-.9 1-.9.8-.9.8l-1.3 2.4-3.7 4.1-2 2-2.7 1.6-4.3 1.4-5.2.8H528l-5.8-.9-5.2-3.2-6.3-6.1-4.6-4c0 .1-1.8-4.5-1.9-6.3z"/><path class="st10" d="M504.2 205.3s4.6 3.5 7.7 4.7c3 1.3 4.7 1.6 4.7 1.6s-8.2-3.4-12.4-6.3zm19.7 7.6s6.5 1.6 13.9.7c0 0-3.3 0-4.5-.7-1.4-.6-4.5 1-9.4 0zm29.8-4.5s-3.3 2.4-5.3 3.2-4.1 1.1-4.1 1.1 7.2-2.3 9.4-4.3z"/><path class="st11" d="M511.1 211.7s8.8 5.2 11 6.3c2.1 1.1 2.8 1.4 3.9 1.4s2-.9 1.3-1.2c-.8-.3-5.5-1.9-6.4-2.3-.9-.4-9.8-4.2-9.8-4.2zm20.2 7.2c1.1.9 5.9.6 6.3.3.4-.2 1.2-1.3 0-1.3s-4-.1-4.2 0-2.9.5-2.1 1z"/><path class="st2" d="M520.9 206.6s4.2-.4 5.9-.4c1.6 0 4.5.9 5.5 1s6.5-.4 6.5-.4-.2-.7-1.2-.4c-.9.2-3.4.6-4.7.4-1.4 0-2.1-.3-3.2-.6-1-.1-3.4-.7-4.4-.6-1.1.1-4.3.7-4.4 1zm57.3-44.6c-2.4-2.1-5.5-2.5-5.5-2.5s-.9 2.7-3.7 4.1c-2.8 1.4-5.2 1.3-5.6 1.3s-4.9-.6-4.9-.6l-5-1.5-7.1-4s1.9 7.8 2.5 10.7c.6 2.9-1.8 4.9-.7 7.8 1.2 2.9 4.2 9.8 3.9 11.2-.1.6 1.2.1 3-.8 1.9-.2 4.4-.2 6.3 1.4 3.6 3 4.6 3.8 4.6 7.6s-.9 8.6-.9 8.6 1.4 5.2 2.9-6.7c1.4-12-1.9-11.5-1-14 1-2.5 8.9-8.6 9.4-8.9 2.7-2 5.9-4.6 6.2-5.9.7-1.5-1.9-5.5-4.4-7.8z"/><path class="st12" d="M548.4 152.4s5.4-5.8 13.3-6.4c7.9-.6 12.8 3 12.8 3s-9.2-7.4-26.1 3.4zm2.6-7.2s9.7-5.4 14.6-6.7c4.9-1.3 13-1 15 0s3.3 2.9 3.3 2.9l-.9 2.6s-.6-3.4-10.3-3.7c-9.8-.1-19.4 3.6-21.7 4.9z"/><path class="st12" d="M574.5 154.1s-3.4-5.6-16.9-2.6c-1.5.7-4 2-6 3.4-1.2.8-2.1 1.5-2.7 2 0 0 6.5-6.9 15-7.7 8.5-.7 8.9 2.5 10.6 4.9zm0 0s-2.6 2.8-9.3 3.9c-6.7 1.1-10.7-.1-11.5 0 0 0 15.5 3.4 20.8-3.9zm-56.6-6.6s-5.5-5.4-15.6-4.7c-4.2-.1-8.6 2.4-8.6 2.4s11.7-5.2 24.2 2.3zm6.1-6.1l-.8-.4c-2.7-1.5-12.5-6.5-19.7-7.6l-3.5 3c.1.1 16.1 1.1 24 5zM493.7 157s5.3 4.4 10.5 5c5.2.6 14.5-4.3 14.5-4.3s-9.7 3.6-13.4 3.7c-3.8-.1-9-2.8-11.6-4.4zm0-7.1s7.6 4.7 11.5 5c3.9.2 9.5 0 9.5 0s-10 1.1-21-5z"/><path class="st12" d="M516.5 152.4s-3-7.3-15.4-6.3c-5.2.6-7.5 3.7-7.5 3.7s9.6-8.7 22.9 2.6zm28.6 36.7s2-3.9 1-9.3c-1.1-5.4-2.8-6.3-2.4-14.6.4-8.4.8-13 2.7-15.3l1.9-2.3s-4.5-1.2-5.4 12c-.9 13.2.7 14.5 1.3 17.9.8 3.5 2 2 .9 11.6zm1.2 3.3s2.6-.3 2.5-3.9c-.1-3.6-.7-3.8-.7-3.8s1.4 4.4-1.8 7.7zm-11.9 3.9s2.1.9 3.7 0c1.5-.9 5.3-3.3 7-3.5 0 0-2.6-.3-5.2 1.4-2.5 1.8-2.4 1.9-5.5 2.1zm-3.9-2.7s-2.1-3.7-7.6-2.1c.1 0 6.6-.6 7.6 2.1zm-50.1 25.7s12 15.7 17.1 19.2 10.3 6 12.1 6.8c1.8.9 7.3 3.6 12 3.6 4.5 0 11.7 1.1 17.3-2.7 5.6-3.8 13.6-12.8 13.6-12.8l-3.4 7.9s-4.6 6.2-13.1 8.7-17.5.3-22-1.4c-4.5-1.8-16.8-9-16.8-9s-10.3-10.4-16.8-20.3zm38.7-28.2s-3.4-3.7-1.3-6.7l2.3-2.4s-4.4 1.8-1 9.1z"/><path class="st12" d="M558.2 212.7s-5.5 9.4-6.7 11.9c-1.2 2.4-4.4 8.5-5 9.8 0 0 .9-3.5 2.5-7.1 1.6-3.6 7.5-12.2 9.2-14.6zm-52.1-1s8.1 7 11.7 9.7c3.6 2.7 8.2 4.5 13.7 4s10.4 0 17.3-7.8c7-7.8 3.4-4.3 3.4-4.3s-3.8 10.7-14.6 12.2-15.1.8-19.8-2.6c-4.6-3.4-11.7-11.2-11.7-11.2zm68.4-56.7s-1.2 6.5-4.5 8.6c-3.4 2-7.7 1.7-11.3 1.1-3.6-.7-5-1.9-5-1.9s9.5 2.9 13.8 1.1c4.2-1.9 5.4-3.9 7-8.9z"/><ellipse transform="rotate(-63.179 533.397 187.7)" class="st11" cx="533.4" cy="187.7" rx="1.4" ry="2"/><circle class="st11" cx="501.8" cy="148.2" r=".9"/><circle class="st11" cx="558.8" cy="152.2" r=".9"/><path class="st13" d="M531.2 74.9c-1 0-40.2 6.2-41.9 6.7-1.8.6-30.4 22.8-30.4 22.8l-8.7 51.6 31 84.2s.8 3 2.4 6.2c1.7 3.2 3.5 11.6 3.5 11.6s-.1-2.7-1.1-6.9-1.3-3.7-2.3-5.6c-1-1.9-2.4-8.1-2.4-8.1s1.3 2.6 2.1 4.5c.4 1 3.3 1.5 5.9 1.8 1.6 12.8 1 31.7 1 31.7s2.1-12 .8-25.3c-.3-2.5-.6-4.5-.9-6.4 2 .2 3.9.2 3.9.2s-1.8-.3-4-.8c-1.2-7.2-2.7-9.7-5.4-18.5-3.5-11-9.8-19-12-28-1-4.5-1.5-13.9-1.6-22.3 2.9-13.3 3.5-17.6 9.3-24.1 6-6.7 10.5-9.3 19.8-14 9.3-4.7 5.1-2.7 7.6-5.5 2.4-2.8 20-20.5 20-20.5 7.1-3.6 49.2-24.8 49.2-24.8l12.1-6c-.3.3-56.9-4.5-57.9-4.5zm-49.1 149.6s2.3 1 5.6 11.7c.6 1.8 1.1 4.2 1.4 6.9-1.9-.6-4-1.1-4.9-1.8-1.9-1.5-2.7-5.3-3.6-9.3-.7-3.8 1.5-7.5 1.5-7.5z"/><path class="st13" d="M474.9 292.7s6.8 1.8 7.9-11.7c1.1-13.6-.4-29.9-2.3-36-1.8-6.1-5.3-20.5-5.3-20.5l-4.3-21-10.4-26-1.5-25 19.3-42.8 98.6-24.1s4.2 24.8 4.5 28.1c.3 3.3 2.5 27.7 2.5 27.7l-.9 2.6s-1.5 1.8-1 5.1c.6 3.3 1.5 9.9 1.5 9.9s.6 5.6-.4 9.7-9.3 29.6-12.5 36.7c-3.4 7.1-9 16.9-12.1 20.7-3.2 3.8-6.2 7-6.2 7s-3.7 6-3.4 7.9-.2 7-.7 8.9c-.5 1.8-.4 1.6-4.5 5.1-4.1 3.5-6 3.2-10.6 5.5s-6.5 3.7-6.5 3.7 4.4-2 8.7-3.5c4.2-1.4 6-1.1 8.9-2.3 2.9-1.2 4.5-1.5 4.5-1.5s-3 2.8-6 3.4c-2.9.6-8.6 1.7-8.6 1.7l-4.6 1.6s11-2 13.3-2.4c2.4-.3 5.2-1.6 5.2-1.6l-2.4 4.9s-3.4 6-5.9 9.5-8.6 8.5-8.6 8.5 10.4-8.9 14-14.9c3.6-6.1 4.2-4.5 4.2-4.5s-3.8 8.2-3.9 9.3l3.5-5.2c.4-.7.9 1.3.2 4.9-.7 3.6-.1 4.2-3 5.2s-4.4 4.2-5.5 6.4c-1.1 2.2-10.8 7.3-14.9 7.6-4.1.2-5.4.1-5.4.1s2.6 1.7 8.5.2 10.2-2.4 12.3-5c2.1-2.6 3-6.1 4.4-7 1.4-1 1.7 1.5 1.7 1.5s-.2 5.9-2 10.6c-1.8 4.7-5.2 11.3-5.2 11.3s6.1-9.3 7.1-13.2c1.1-4 1.1-8.8 1.5-9.3.4-.6 4.3-5.3 4.3-4.7s1.3 6.3 1.5 7.8c.3 1.5 1.7 14.2.2 18.9-1.5 4.6-6.7 14.1-6.7 14.1s4.1-3.3 5.9-8.5c1.7-5.2 3.3-12 3.3-15.1s-.1-6.4-.1-6.4 1.6 11 3.2 15.7c1.5 4.7 4.7 8.7 5.5 10.4s-.1 5.3-.1 5.3 2.4-3.3 1.1-6.4c-1.3-3.2-4.4-6.3-5.2-8.5-.8-2.1-1.7-8.2-1.7-8.2s4.7 9.6 8.7 12.4c3.9 2.8 8.7 3.8 8.7 3.8s-6.4-3.8-8.6-4.7c-2-1-6.4-9.6-7.1-10.7s-2.1-9.3-2.1-9.3 6.5 4.7 8.6 6.3c2 1.5 4.3 5.3 4.3 5.3s-2-4.9-5-7.5c-2.9-2.6-5.6-4.5-5.9-5s-.9-2.7-.9-2.7l7.3 4.5s26.4 18.3 29.7 20c0 0-7-5.6-12-10.3 0 0 11.6 7.3 16 7.9 4.5.7 7.3-1.6 7.3-1.6s-2.6 1.1-5 1.1-7.5-3.5-7.5-3.5 10.2.4 12.4-.2c2.3-.7 3.6-2.5 3.6-2.5s-1.5 1.1-3.8 1.3.9-1.3.9-1.3 2.6-.1 2.5-1.9c-.1-1.8-.4-2.9-.4-2.9s5.8-2.8 6.3-4.3l.4-1.5s-1.6 2.9-4.9 3.4-5.2-.3-5.2-.3 1.2.2 3.3-1.5c2-1.8 3.8-5.9 3.8-6.5 0-.7-.7 1.2-2.6 2.4-1.9 1.2-8.6 1.2-10.1.4s-1.8-1.4-1.8-1.4 2.3-.2 6.3-1.6c4-1.4 12.3-6.7 13.7-7.8 1.3-1 1.9-2.9 1.9-2.9s-1.9 1.2-2.7 1.6c-.8.4-1.9.2-1.9.2s4.1-2.6 4.5-3.3l.4-.7s-1.9 1.1-3.2 1.6c-1.2.6-3 1.1-3 1.1s6-2.8 9.5-6.2 4.5-8.9 4.5-8.9-4.2 7.8-6.7 9.1c-2.4 1.3-5.3 1.6-5.3 1.6s3.9-3.9 3.2-6.7l-.8-2.8s.2 4.5-3.2 8.6c-3.4 4-4.5 2.5-4.5 2.5l.4-2.5s.4 3.5-2.6 4.1c-3 .7-4.9.2-4.9.2s.2-1.9 1.5-1.9 2.9-.8 2.4-1.1c-.4-.3-2.4-.9-2.4-.9s-.8-1.4 1.9-1.4c2.6 0 3.2.2 3.2.2s-4.1-1.8-5.6-.9-2.9 1.8-5 1.1c-2-.8-5.2-4.2-5.2-4.2s3.4-1.4 7.8-1.6c4.5-.2 6.9.2 7.8 0 .9-.2 9-2.6 12-5.9 0 0-8.8 3.5-12.4 2.8 0 0 7.8-2.3 10.6-6.7 0 0-3.5 6.2-12.8 4.6-4.9-1-5.8 0-6.7-3.9-1-3.9-3.5-13.3-3.5-19.4-.1-6.1-.2-8.6.2-12 .3-3.5-.9-8.6-.9-8.6l-5.6 1.1 4 4.4s.2 6.7.4 9.3c.2 2.6 2.8 21.8 4 25.9 0 0-4.1-2-6.4-5.1-2.4-3-3.5-5-3-9.3.3-4.3 1.9-6.3 1.9-9.3.1-3-1.7-7.7-1.7-7.7s1.3 6.3.7 9.3c-.7 3-1.8 6.2-1.9 8-.1 1.9-.3 5.5-.3 5.5s-1.9-1.8-2.4-3.7c-.3-1.9.1-4.1-.6-5.2-.7-1-1.7-.2-1.3-2.5.3-2.3 1.3-4 1.9-4.4.8-.4 10.2-9.9 12.1-19.4 1.9-9.4 1.6-15.1 1.6-20 0-4.7 1.9-9.3 1.9-9.3s0 8.7-.6 13.9c-.6 5.2-2.8 12.5-3.5 13.9-.7 1.3-.9 2.4-.9 2.4s5.2-9.9 5.5-16.8c.3-6.8.7-11.5 2.1-15.9 1.5-4.4 5.8-14 5.8-24.6s-1.2-17.5-1.2-17.5 3 7.3 2.9 14.7c-.1 7.5-1.4 13-2.5 16.7-1.1 3.8-6.3 10.7-6.3 10.7s5.6-2.7 7.8-10.3c2-7.6 2.6-17.6 1-26.2-1.6-8.6-9.3-31.6-9.3-31.6s-5.1-18.9-8.2-25.8c-3.2-6.9-10.3-23.6-19.9-33.4-9.5-9.9-22-16-27.9-20.6-5.8-4.5-11.7-4-17.9-3.6-6.2.3-8.9-.3-10.6-.2-1.8 0-2.1 1.6-2.1 1.6s.8-4.9-7.8-4.3-22.7-1.3-36.8 11.4c-14.1 12.6-21.4 19.3-30 40.9-7.9 21.1-12.9 52-13.3 55.3-.5 3.3-5.8 60.9-5.1 69.1.8 8.4 2.5 21.1 4.5 23.6 1.9 2.5 4.1 3.6 4.1 3.6s1.3-3.9.6-3.9c-.8 0-2.7-2-3-2.8-.3-.8-1.6-14-1.6-14l2.5 6.1s-4.3 4.6-8.1 6.3c-3.8 1.6-14.9 1.9-14.9 1.9s17.3 2 23.8-4.4c6.5-6.5 1.5 4.2 1.5 4.2l-8 9.1s-2.4 2.3-4.5 2.6c-2.1.3-8.9 1.3-10.1.8.9.6-.3 1.3 3.6 1.5 3.9.3 9.4-1.3 9.4-1.3s.3 2.5-3.8 3.4c-4.1.9-7.5 1.9-9.7 1.6 0 0 2.9 1.9 5.9 1 2.9-1 4.7-1.2 4.7-1.2s-5.3 2.8-8.9 2.8-9.1-1.5-9.1-1.5 4.4 3.2 7.5 2.9c3-.2 8.8-.4 10.4-1 1.6-.6 2.6-.2 2 .4-.6.6-.7 3-2.4 4.4-1.7 1.4-4.4 2.7-6.2 3-1.7.3-8.1-.3-8.1-.3s2.7 1.1 4.4 1.2c1.7.1 4.1.2 4.1.2s-4.9.7-6.4 1-4.1.4-4.1.4 2.8.2 5.2.7 4.5.7 5.6.7c1.1 0 3.2-.2 3.2-.2s-2.8 1.2-5.5 1.7c-2.7.6-7.5.3-7.5.3s.9.9 4.2.8c3.4-.1 7.3-.7 7.3-.7l3.9-.9s-1.7 2-4.1 3.2c-2.4 1.1-6.8 1.9-6.8 1.9s1.9.9 5-.2c3-1.1 5.5-1.2 5.5-1.2l-3.7 2.8s-4.9 1.5-6.1 2.4c-1.2.9-.2 1 .3.8s5-.4 8.8-3.2c3.8-2.7 8.8-3.8 12.5-8 3.7-4.2 8-8.2 9-8.8s3-2.3 2 .9-2.5 5.2-3.4 6.5c-.9 1.3-5.1 4.6-6.7 5.3s-8.9.1-8.9.1 3.5 1.8 6.1 1.4c2.6-.4 12-6.7 13.4-9.3 1.5-2.6 3.4-3 3.4-3s1.1 1.9-1.4 5.4-11.5 9.3-14.5 10.3-6.4 1.4-4.5 1.7c1.8.3 4 .2 6.4-1s6.2-2.4 6.2-2.4-1 2.9-4.6 5c-3.7 2-3.6 2.4-6 3.3-2.4.9-5 .4-6.4-.1-1.3-.5-2-2-2-2s1.1 2.6 2.8 2.9c1.7.3 3.7.7 3.7.7s-.4 1.6-2 1.3c-1.6-.3-4.5-1.2-5.3-2.4-.8-1.2-.9-1.2-.9-1.2s-1 1 .9 1.9c1.8 1 3.7 2.3 3.7 2.3s-1.9.7-3.4 1c-1.4.3-1.3.2-1.3.2s-.7 1.3 1.4.8c2-.6 3.9-1.6 4.4-1.4.6.2.2 1 0 1.2-.2.2.4.8 1 .2s1.7-1.4 2.9-1c1.2.5 2.4.4 1.3 1.1-1.1.7-2.1 1.5-4.1 1.5-1.9 0-3.2-.1-3.4-.1s-1.7-.3-1.7-.3.2 1 3 1 6.7-.8 8-1.5c1.3-.7 2.9-1.2 2.9-1.2s-.6 1.2-2.5 2c-1.9.9-2.6 1.2-4.7 1.8-2.1.7-3.4 1.4-4.3 2.5-1 1.1-1.9 2.4-1.9 2.4s1.3-1.4 4.1-2.8 3.5-1 7.2-2c3.8-1.1 4.7-1 7.7-2.8 2.9-1.9 4.6-2.9 5.5-3.5s2.5-2 3.6-3.6c1.1-1.5 1.9-2.6 1.9-2.4 0 .2-1.6 3.9-2.6 5.2s-2.6 3.7-5.6 5.9c-3 2.1-8.4 3.3-9.3 3.8-1 .5-1.3 1.3-1.3 1.3s-1.7-.6 2-.9c3.7-.3 3.7 1.1 6.9-1 3.2-2 6.1-4.2 6.1-4.2l1.4-.3s-2.9 2-4.6 3.7c-1.7 1.6-3.7 2.9-5 3.8-1.3.9-2.8 1.9-3.5 2.7-.2.2-.6.7-.8 1-.4.8-.9 1.6-.9 1.6s4.9-4.3 5.6-4.6c.8-.3 1-.4 1.9-.4.9 0 .9-.1.9-.1s-1.2 1-2.6 2.1c-1.4 1.2-2.1 2.6-2.1 2.6s-.3 1 .9.1-.2-.4 2.3-2.3c2.5-1.7 3.9-2.4 3.9-2.4s.3.8-1.2 2.3-2.1 2.6-3.7 3.7c-1.5 1.1-1.8 1.8-1.8 1.8s2.7-.2 3.8-1.9 3.6-4.1 3.9-4.1c.3 0 .3 1.7-.9 2.9s-2.1 2.5-2.1 2.5 3.2-2.3 4.5-3.4c1.3-1.1 2.1-1.9 2.6-2.7.4-.8 1.9-1.4 2.3-1.4.4 0 .9 1.8 2.6-.3 1.7-2.1 4-4.5 5-7.1s2.8-7.7 2.8-7.7-.1 9.8-2.4 15.3c-2.3 5.4-.7 3.4-3.8 7.1-3.2 3.8-7.8 6.7-7.8 6.7s6.9-4.2 7.2-4.7c.3-.6 1-1.2 1-1.2s-1.2 2.8-3.2 5.6-2.8 3.8-2.8 3.8 4.3-5 7.1-9.4 4.6-6 5.6-10.8c1-4.9 2-9.3 2-9.3s-.1 11.9-.7 16.3-.6 7.5-.2 11.1c.3 3.6 1.1 6.4 1.1 6.4s-1-12.1 1.7-22.9c1-4.5 2-7.2 2-7.2s-.2 9.3-1.2 11.9c-1 2.5-4.3 9-6.5 11.7-2.1 2.7-2.8 3.3-2.8 3.3s7.5-8 9-11c1.5-2.9 2.3-5.9 2.3-5.9s.2 5.5.2 7.7c0 2.1 1 9.1 1.4 9.6.4.6 0-3.4-.2-6.1-.2-2.7.1-6.7.4-11.5.3-4.7 1.3-14.9 1.3-14.9l.3-2.3 2.6 5.6s.8 5.6 1.1 6.9c.3 1.3.7 5.6.4 7-.2 1.4-1.5 4.3-1.5 4.3s1.2-.9 1.3-1.2 1.5-7.1 1.1-9.9c-.5-2.8-1.5-7.3-2-9.6-.6-2.3-.3-6.7-.3-6.7l.8-5.5s.9 1.6 1.5 3c.7 1.4 1.7 5.9 1.8 7.1.1 1.3 1.1 11.7.7 14.2-.4 2.5-1 5.9-1.3 7.1 0 1.2-1.2 4.7-5.9 5.6z"/><path class="st2" d="M503.2 154.5l-4.3-1.7-.6 1.3 4.2 1.6.7-1.2z"/></g></svg>